<?xml version="1.0" encoding="UTF-8"?>
<svg xmlns="http://www.w3.org/2000/svg" xmlns:xlink="http://www.w3.org/1999/xlink" width="198pt" height="37pt" viewBox="0 0 198 37" version="1.1">
<g id="surface1">
<path style=" stroke:none;fill-rule:nonzero;fill:rgb(0%,0%,0%);fill-opacity:1;" d="M 12.183594 1.621094 C 11.234375 1.71875 10.25 1.988281 9.542969 2.347656 C 9.285156 2.480469 9.242188 2.519531 9.242188 2.652344 C 9.242188 2.832031 9.800781 10.910156 9.839844 11.285156 L 9.867188 11.550781 L 9.332031 11.808594 C 6.617188 13.113281 4.335938 15.4375 2.902344 18.359375 C 2.222656 19.753906 1.824219 21.0625 1.640625 22.5 C 1.542969 23.265625 1.566406 24.6875 1.6875 25.363281 C 1.792969 25.96875 2.128906 27 2.351562 27.421875 L 2.519531 27.734375 L 2.804688 27.71875 C 2.960938 27.714844 4.921875 27.578125 7.167969 27.421875 C 9.410156 27.265625 11.316406 27.136719 11.402344 27.136719 C 11.554688 27.136719 11.574219 27.160156 11.742188 27.542969 C 11.976562 28.078125 12.609375 29.128906 13.066406 29.738281 C 14.644531 31.84375 16.808594 33.496094 19.332031 34.511719 C 20.019531 34.785156 20.933594 35.0625 21.421875 35.136719 C 21.507812 35.152344 21.613281 35.171875 21.65625 35.1875 C 21.695312 35.203125 21.816406 35.222656 21.914062 35.238281 C 22.011719 35.25 22.246094 35.285156 22.433594 35.3125 C 22.621094 35.339844 23.273438 35.347656 23.886719 35.34375 C 24.792969 35.328125 25.101562 35.300781 25.519531 35.214844 C 26.140625 35.074219 26.796875 34.855469 27.289062 34.609375 L 27.652344 34.425781 L 27.636719 34.128906 C 27.625 33.964844 27.488281 31.925781 27.320312 29.609375 L 27.023438 25.390625 L 27.601562 25.105469 C 29.710938 24.042969 31.59375 22.371094 32.910156 20.390625 C 33.9375 18.84375 34.582031 17.394531 34.960938 15.78125 C 35.1875 14.785156 35.234375 14.347656 35.230469 13.097656 C 35.230469 12.113281 35.214844 11.875 35.109375 11.40625 C 34.902344 10.425781 34.449219 9.269531 34.273438 9.269531 C 34.226562 9.269531 32.179688 9.410156 29.730469 9.582031 C 27.277344 9.753906 25.273438 9.890625 25.269531 9.886719 C 25.265625 9.875 25.113281 9.5625 24.933594 9.191406 C 23.777344 6.828125 21.84375 4.808594 19.34375 3.359375 C 17.089844 2.050781 14.359375 1.390625 12.183594 1.621094 Z M 18.9375 11.542969 C 19.328125 11.671875 20.183594 12.089844 20.652344 12.386719 C 22.292969 13.40625 23.710938 14.933594 24.816406 16.875 C 25.457031 17.988281 25.542969 18.546875 25.207031 19.332031 C 24.367188 21.3125 22.957031 22.964844 20.980469 24.292969 C 19.691406 25.160156 18.992188 25.480469 18.363281 25.484375 C 18.09375 25.488281 17.953125 25.449219 17.449219 25.230469 C 15.25 24.28125 13.425781 22.546875 12.007812 20.0625 C 11.535156 19.230469 11.449219 18.996094 11.449219 18.4375 C 11.457031 18.027344 11.472656 17.957031 11.691406 17.46875 C 12.234375 16.253906 12.9375 15.253906 13.941406 14.238281 C 14.894531 13.28125 16.148438 12.371094 17.335938 11.777344 C 17.953125 11.464844 18.480469 11.390625 18.9375 11.542969 Z M 18.9375 11.542969 "/>
<path style=" stroke:none;fill-rule:nonzero;fill:rgb(0%,0%,0%);fill-opacity:1;" d="M 55.097656 8.886719 C 53.5 9.019531 52.363281 9.316406 51.222656 9.894531 C 48.707031 11.175781 47.117188 13.558594 46.628906 16.796875 C 46.484375 17.75 46.472656 19.441406 46.601562 20.433594 C 46.957031 23.0625 48.023438 25.089844 49.742188 26.378906 C 52.035156 28.109375 55.910156 28.566406 59.121094 27.496094 C 60.523438 27.027344 62.050781 26.121094 62.851562 25.277344 L 62.992188 25.125 L 62.980469 21.765625 L 62.964844 18.410156 L 59.578125 18.394531 L 56.1875 18.386719 L 56.1875 20.3125 L 60.550781 20.3125 L 60.550781 24.425781 L 60.203125 24.6875 C 58.488281 25.949219 55.441406 26.390625 53.234375 25.691406 C 50.949219 24.972656 49.566406 23.078125 49.179688 20.128906 C 49.089844 19.464844 49.101562 17.753906 49.199219 17.03125 C 49.660156 13.628906 51.453125 11.535156 54.3125 11.0625 C 55.03125 10.949219 56.511719 10.984375 57.203125 11.140625 C 58.496094 11.425781 59.5625 11.972656 60.703125 12.933594 C 61.167969 13.328125 61.191406 13.339844 61.277344 13.246094 C 61.328125 13.191406 61.65625 12.824219 62 12.425781 L 62.632812 11.699219 L 62.359375 11.417969 C 61.921875 10.96875 61.054688 10.34375 60.398438 10.011719 C 59.382812 9.484375 58.363281 9.15625 57.246094 8.988281 C 56.714844 8.90625 55.503906 8.847656 55.097656 8.886719 Z M 55.097656 8.886719 "/>
<path style=" stroke:none;fill-rule:nonzero;fill:rgb(0%,0%,0%);fill-opacity:1;" d="M 106.199219 10.105469 L 106.199219 11.09375 L 111.546875 11.09375 L 111.546875 27.65625 L 114.039062 27.65625 L 114.039062 11.09375 L 119.335938 11.09375 L 119.335938 9.113281 L 106.199219 9.113281 Z M 106.199219 10.105469 "/>
<path style=" stroke:none;fill-rule:nonzero;fill:rgb(0%,0%,0%);fill-opacity:1;" d="M 120.476562 18.386719 L 120.476562 27.65625 L 122.757812 27.65625 L 122.777344 23.628906 C 122.792969 19.160156 122.785156 19.332031 123.15625 18.558594 C 123.480469 17.886719 124.054688 17.417969 124.824219 17.207031 C 125.234375 17.097656 126.367188 17.097656 126.78125 17.214844 C 127.640625 17.441406 128.058594 17.925781 128.242188 18.886719 C 128.304688 19.207031 128.320312 20.027344 128.320312 23.46875 L 128.320312 27.65625 L 130.660156 27.65625 L 130.640625 22.980469 C 130.621094 17.964844 130.625 18.066406 130.351562 17.277344 C 129.972656 16.1875 129.265625 15.527344 128.136719 15.199219 C 127.773438 15.09375 127.609375 15.078125 126.789062 15.078125 C 126.0625 15.078125 125.757812 15.097656 125.4375 15.175781 C 124.457031 15.402344 123.714844 15.8125 123.117188 16.453125 L 122.761719 16.824219 L 122.761719 9.113281 L 120.476562 9.113281 Z M 120.476562 18.386719 "/>
<path style=" stroke:none;fill-rule:nonzero;fill:rgb(0%,0%,0%);fill-opacity:1;" d="M 99.808594 12 L 98.796875 12.160156 L 98.78125 13.738281 L 98.773438 15.3125 L 96.953125 15.3125 L 96.953125 17.34375 L 98.773438 17.34375 L 98.773438 21.597656 C 98.773438 26.285156 98.773438 26.222656 99.09375 26.832031 C 99.378906 27.371094 99.832031 27.675781 100.628906 27.875 C 101.382812 28.0625 102.84375 28.03125 103.71875 27.808594 L 103.914062 27.753906 L 103.914062 25.980469 L 103.789062 26.011719 C 103.511719 26.078125 102.925781 26.144531 102.558594 26.144531 C 102.007812 26.144531 101.675781 26.035156 101.457031 25.78125 C 101.128906 25.394531 101.140625 25.558594 101.125 21.261719 L 101.101562 17.34375 L 103.652344 17.34375 L 103.652344 15.3125 L 101.109375 15.3125 L 101.109375 11.824219 L 100.96875 11.828125 C 100.886719 11.832031 100.367188 11.90625 99.808594 12 Z M 99.808594 12 "/>
<path style=" stroke:none;fill-rule:nonzero;fill:rgb(0%,0%,0%);fill-opacity:1;" d="M 169.007812 12.003906 C 168.4375 12.097656 167.964844 12.183594 167.957031 12.183594 C 167.949219 12.1875 167.941406 12.890625 167.941406 13.75 L 167.941406 15.3125 L 166.175781 15.3125 L 166.175781 17.34375 L 167.9375 17.34375 L 167.957031 21.625 C 167.980469 26.234375 167.972656 26.140625 168.257812 26.75 C 168.53125 27.324219 169.09375 27.714844 169.921875 27.902344 C 170.636719 28.0625 172.347656 27.996094 173.046875 27.78125 C 173.125 27.753906 173.136719 27.667969 173.136719 26.863281 L 173.136719 25.980469 L 173.023438 26.011719 C 172.714844 26.089844 171.984375 26.15625 171.597656 26.136719 C 170.992188 26.105469 170.722656 25.957031 170.511719 25.546875 L 170.359375 25.238281 L 170.34375 21.292969 L 170.328125 17.34375 L 172.875 17.34375 L 172.867188 16.339844 L 172.851562 15.339844 L 171.59375 15.324219 L 170.332031 15.3125 L 170.332031 11.824219 L 170.191406 11.828125 C 170.109375 11.832031 169.578125 11.910156 169.007812 12.003906 Z M 169.007812 12.003906 "/>
<path style=" stroke:none;fill-rule:nonzero;fill:rgb(0%,0%,0%);fill-opacity:1;" d="M 69.847656 15.078125 C 69.082031 15.25 68.355469 15.765625 67.910156 16.441406 L 67.691406 16.777344 L 67.578125 16.160156 C 67.515625 15.824219 67.445312 15.496094 67.429688 15.425781 C 67.40625 15.3125 67.398438 15.3125 66.394531 15.3125 L 65.378906 15.3125 L 65.378906 27.65625 L 67.71875 27.65625 L 67.71875 23.550781 C 67.71875 19.105469 67.71875 19.105469 68.007812 18.535156 C 68.289062 17.980469 68.90625 17.53125 69.582031 17.390625 C 69.871094 17.328125 71.269531 17.355469 71.574219 17.425781 L 71.714844 17.457031 L 71.707031 16.324219 L 71.691406 15.1875 L 71.457031 15.121094 C 71.09375 15.011719 70.242188 14.988281 69.847656 15.078125 Z M 69.847656 15.078125 "/>
<path style=" stroke:none;fill-rule:nonzero;fill:rgb(0%,0%,0%);fill-opacity:1;" d="M 76.742188 15.058594 C 74.972656 15.246094 73.671875 16.019531 73.019531 17.285156 C 72.84375 17.628906 72.597656 18.300781 72.597656 18.441406 C 72.597656 18.46875 73.132812 18.488281 73.808594 18.488281 L 75.019531 18.488281 L 75.164062 18.144531 C 75.558594 17.238281 76.320312 16.816406 77.582031 16.8125 C 79.410156 16.800781 80.128906 17.597656 80.128906 19.636719 L 80.128906 20.144531 L 78.09375 20.171875 C 75.832031 20.203125 75.605469 20.222656 74.59375 20.550781 C 73.851562 20.785156 73.304688 21.121094 72.828125 21.625 C 72.425781 22.050781 72.199219 22.464844 72.023438 23.097656 C 71.867188 23.652344 71.851562 24.792969 71.992188 25.3125 C 72.15625 25.941406 72.421875 26.390625 72.878906 26.855469 C 73.519531 27.488281 74.214844 27.785156 75.367188 27.921875 C 77.074219 28.121094 78.628906 27.625 79.699219 26.53125 L 80.070312 26.15625 L 80.125 26.421875 C 80.15625 26.574219 80.222656 26.902344 80.273438 27.160156 L 80.367188 27.628906 L 81.363281 27.644531 L 82.363281 27.65625 L 82.363281 23.109375 C 82.363281 18.125 82.363281 18.082031 82.054688 17.246094 C 81.570312 15.910156 80.503906 15.222656 78.648438 15.050781 C 78 14.996094 77.328125 14.996094 76.742188 15.058594 Z M 80.113281 22.640625 C 80.0625 23.933594 79.828125 24.574219 79.167969 25.238281 C 78.898438 25.515625 78.707031 25.65625 78.414062 25.792969 C 77.847656 26.0625 77.554688 26.121094 76.753906 26.121094 C 76.175781 26.121094 75.984375 26.097656 75.6875 26.003906 C 74.75 25.707031 74.355469 25.144531 74.347656 24.089844 C 74.339844 23.03125 74.742188 22.402344 75.632812 22.089844 C 76.15625 21.90625 76.363281 21.886719 78.304688 21.878906 L 80.144531 21.875 Z M 80.113281 22.640625 "/>
<path style=" stroke:none;fill-rule:nonzero;fill:rgb(0%,0%,0%);fill-opacity:1;" d="M 137.917969 15.058594 C 137.421875 15.113281 136.65625 15.308594 136.183594 15.496094 C 135.023438 15.953125 133.945312 16.957031 133.367188 18.097656 C 133.144531 18.546875 132.910156 19.25 132.777344 19.859375 C 132.671875 20.324219 132.660156 20.542969 132.660156 21.589844 C 132.660156 22.621094 132.675781 22.855469 132.777344 23.292969 C 133.082031 24.683594 133.621094 25.703125 134.464844 26.496094 C 134.910156 26.910156 135.183594 27.097656 135.773438 27.375 C 137.3125 28.109375 139.46875 28.144531 141.179688 27.472656 C 142.417969 26.980469 143.546875 25.886719 144.082031 24.652344 C 144.5 23.671875 144.683594 22.734375 144.683594 21.488281 C 144.683594 19.542969 144.226562 18.042969 143.285156 16.894531 C 142.144531 15.5 140.113281 14.808594 137.917969 15.058594 Z M 139.550781 17.003906 C 139.746094 17.046875 140.066406 17.167969 140.269531 17.269531 C 141.472656 17.90625 142.089844 19.199219 142.167969 21.25 C 142.226562 22.875 141.914062 24.121094 141.234375 24.957031 C 140.921875 25.332031 140.339844 25.722656 139.84375 25.890625 C 139.503906 26 139.367188 26.015625 138.652344 26.015625 C 137.941406 26.015625 137.800781 26 137.464844 25.890625 C 136.222656 25.480469 135.429688 24.417969 135.148438 22.792969 C 135.042969 22.167969 135.042969 20.84375 135.152344 20.203125 C 135.441406 18.53125 136.363281 17.390625 137.730469 17.03125 C 138.195312 16.910156 139.046875 16.894531 139.550781 17.003906 Z M 139.550781 17.003906 "/>
<path style=" stroke:none;fill-rule:nonzero;fill:rgb(0%,0%,0%);fill-opacity:1;" d="M 151.324219 15.050781 C 150.480469 15.207031 149.734375 15.722656 149.230469 16.5 L 149.054688 16.769531 L 148.96875 16.316406 C 148.921875 16.0625 148.859375 15.734375 148.828125 15.582031 L 148.773438 15.3125 L 146.753906 15.3125 L 146.753906 27.65625 L 149.09375 27.65625 L 149.09375 23.5 C 149.09375 19.066406 149.09375 19.109375 149.351562 18.566406 C 149.625 18 150.269531 17.527344 150.949219 17.390625 C 151.285156 17.328125 152.664062 17.355469 152.925781 17.425781 L 153.039062 17.457031 L 153.039062 15.167969 L 152.800781 15.109375 C 152.476562 15.027344 151.621094 14.996094 151.324219 15.050781 Z M 151.324219 15.050781 "/>
<path style=" stroke:none;fill-rule:nonzero;fill:rgb(0%,0%,0%);fill-opacity:1;" d="M 179.132812 15.035156 C 176.613281 15.265625 174.765625 16.730469 174.023438 19.078125 C 173.753906 19.933594 173.6875 20.425781 173.679688 21.5625 C 173.679688 22.71875 173.757812 23.253906 174.050781 24.167969 C 174.910156 26.800781 177.300781 28.234375 180.332031 27.917969 C 182.871094 27.65625 184.613281 26.296875 185.367188 23.988281 C 185.640625 23.140625 185.722656 22.558594 185.722656 21.457031 C 185.71875 20.136719 185.542969 19.171875 185.109375 18.171875 C 184.621094 17.042969 183.632812 16.015625 182.566406 15.546875 C 181.625 15.128906 180.285156 14.933594 179.132812 15.035156 Z M 180.609375 17.003906 C 181.5 17.21875 182.234375 17.828125 182.660156 18.703125 C 183.050781 19.519531 183.210938 20.359375 183.210938 21.613281 C 183.210938 22.8125 182.992188 23.8125 182.582031 24.519531 C 182.484375 24.683594 182.253906 24.96875 182.066406 25.15625 C 181.449219 25.769531 180.734375 26.042969 179.703125 26.042969 C 177.296875 26.042969 176.011719 24.3125 176.113281 21.199219 C 176.140625 20.15625 176.277344 19.550781 176.644531 18.800781 C 176.847656 18.394531 176.96875 18.234375 177.3125 17.890625 C 178.007812 17.191406 178.65625 16.933594 179.703125 16.933594 C 180.042969 16.925781 180.410156 16.964844 180.609375 17.003906 Z M 180.609375 17.003906 "/>
<path style=" stroke:none;fill-rule:nonzero;fill:rgb(0%,0%,0%);fill-opacity:1;" d="M 90.476562 15.128906 C 90 15.21875 89.488281 15.386719 89.054688 15.605469 C 88.65625 15.800781 88.011719 16.3125 87.789062 16.609375 C 87.707031 16.722656 87.617188 16.816406 87.601562 16.824219 C 87.585938 16.824219 87.519531 16.527344 87.457031 16.15625 C 87.394531 15.792969 87.324219 15.453125 87.316406 15.402344 C 87.289062 15.324219 87.195312 15.3125 86.304688 15.3125 L 85.320312 15.3125 L 85.320312 27.65625 L 87.601562 27.65625 L 87.617188 23.605469 C 87.636719 19.09375 87.617188 19.339844 88.007812 18.542969 C 88.332031 17.871094 88.898438 17.417969 89.65625 17.214844 C 90.082031 17.097656 91.101562 17.097656 91.578125 17.207031 C 92.453125 17.410156 92.914062 17.941406 93.085938 18.933594 C 93.152344 19.316406 93.164062 20.035156 93.164062 23.519531 L 93.164062 27.65625 L 95.503906 27.65625 L 95.484375 23.003906 C 95.46875 18.542969 95.464844 18.339844 95.359375 17.890625 C 94.914062 15.921875 93.730469 15.046875 91.554688 15.058594 C 91.167969 15.058594 90.6875 15.09375 90.476562 15.128906 Z M 90.476562 15.128906 "/>
<path style=" stroke:none;fill-rule:nonzero;fill:rgb(0%,0%,0%);fill-opacity:1;" d="M 159.773438 15.128906 C 158.734375 15.328125 158.011719 15.691406 157.339844 16.359375 C 157.085938 16.605469 156.882812 16.800781 156.875 16.800781 C 156.875 16.796875 156.808594 16.46875 156.734375 16.066406 L 156.597656 15.339844 L 154.621094 15.339844 L 154.605469 21.496094 L 154.597656 27.65625 L 156.875 27.65625 L 156.890625 23.65625 C 156.914062 19.730469 156.914062 19.65625 157.027344 19.253906 C 157.332031 18.144531 157.972656 17.46875 158.957031 17.214844 C 159.398438 17.09375 160.464844 17.09375 160.902344 17.214844 C 161.53125 17.378906 161.894531 17.660156 162.15625 18.183594 C 162.449219 18.761719 162.449219 18.828125 162.472656 23.421875 L 162.496094 27.65625 L 164.773438 27.65625 L 164.773438 23.1875 C 164.773438 18.34375 164.765625 18.136719 164.488281 17.300781 C 164.296875 16.734375 164.078125 16.378906 163.691406 15.988281 C 163.308594 15.613281 162.898438 15.386719 162.28125 15.207031 C 161.769531 15.058594 160.386719 15.015625 159.773438 15.128906 Z M 159.773438 15.128906 "/>
<path style=" stroke:none;fill-rule:nonzero;fill:rgb(0%,0%,0%);fill-opacity:1;" d="M 192.992188 15.128906 C 191.867188 15.332031 190.996094 15.796875 190.339844 16.535156 C 190.035156 16.878906 190.070312 16.925781 189.902344 15.972656 L 189.789062 15.3125 L 187.832031 15.3125 L 187.832031 27.65625 L 190.058594 27.65625 L 190.082031 23.683594 C 190.097656 19.800781 190.101562 19.703125 190.210938 19.285156 C 190.507812 18.152344 191.175781 17.449219 192.171875 17.207031 C 192.605469 17.105469 193.542969 17.09375 193.984375 17.1875 C 194.589844 17.3125 195.101562 17.667969 195.335938 18.125 C 195.382812 18.214844 195.472656 18.46875 195.535156 18.6875 C 195.640625 19.082031 195.640625 19.171875 195.664062 23.371094 L 195.679688 27.65625 L 197.964844 27.65625 L 197.949219 22.902344 L 197.925781 18.152344 L 197.808594 17.707031 C 197.390625 16.171875 196.5 15.34375 195 15.105469 C 194.542969 15.035156 193.445312 15.046875 192.992188 15.128906 Z M 192.992188 15.128906 "/>
</g>
</svg>
