<?xml version="1.0" encoding="UTF-8"?>
<svg xmlns="http://www.w3.org/2000/svg" xmlns:xlink="http://www.w3.org/1999/xlink" width="200pt" height="200pt" viewBox="0 0 200 200" version="1.1">
<g id="surface1">
<path style=" stroke:none;fill-rule:nonzero;fill:rgb(0%,0%,0%);fill-opacity:1;" d="M 95.820312 13.085938 C 92.5 14.609375 90.9375 17.65625 90.859375 22.539062 C 90.820312 23.671875 90.742188 24.609375 90.703125 24.609375 C 90.625 24.609375 88.789062 24.960938 86.640625 25.390625 C 61.5625 30.507812 41.71875 48.828125 34.609375 73.554688 C 32.734375 80.039062 32.265625 83.632812 32.226562 91.796875 C 32.226562 99.84375 32.539062 102.382812 34.257812 109.179688 C 38.164062 124.375 47.617188 138.007812 60.742188 147.460938 C 64.921875 150.507812 73.789062 154.960938 78.828125 156.601562 C 92.34375 161.054688 107.65625 161.054688 121.171875 156.601562 C 126.171875 155 135.078125 150.507812 139.179688 147.539062 C 154.375 136.601562 163.90625 121.210938 167.265625 102.34375 C 168.046875 97.96875 167.929688 85.117188 167.070312 80.585938 C 164.335938 66.09375 158.085938 54.140625 147.851562 43.945312 C 145.273438 41.367188 141.484375 38.085938 139.453125 36.640625 C 131.953125 31.328125 122.265625 27.148438 113.359375 25.351562 L 109.179688 24.53125 L 109.140625 21.71875 C 109.101562 15.703125 105.78125 12.148438 100.195312 12.109375 C 98.515625 12.109375 97.265625 12.382812 95.820312 13.085938 Z M 102.734375 16.601562 C 104.84375 17.695312 105.585938 20.351562 105.039062 24.726562 C 104.84375 26.25 104.609375 27.8125 104.492188 28.164062 C 104.296875 28.710938 104.6875 28.867188 106.914062 29.101562 C 120.117188 30.429688 133.671875 36.757812 143.59375 46.171875 C 163.476562 65.078125 168.90625 94.609375 157.03125 119.375 C 148.671875 136.796875 131.914062 150 113.164062 153.90625 C 99.375 156.796875 85.46875 155.117188 72.8125 149.0625 C 51.601562 138.90625 37.890625 118.164062 36.835938 94.765625 C 35.625 66.914062 52.851562 41.445312 79.179688 32.304688 C 83.320312 30.820312 88.945312 29.53125 92.773438 29.101562 L 95.117188 28.867188 L 95.117188 24.023438 C 95.117188 19.726562 95.195312 19.101562 95.9375 18.085938 C 96.367188 17.5 97.1875 16.757812 97.695312 16.523438 C 98.984375 15.859375 101.367188 15.898438 102.734375 16.601562 Z M 102.734375 16.601562 "/>
<path style=" stroke:none;fill-rule:nonzero;fill:rgb(0%,0%,0%);fill-opacity:1;" d="M 89.492188 31.328125 C 76.71875 33.554688 65.78125 39.257812 56.40625 48.59375 C 47.5 57.539062 41.875 68.085938 39.375 80.585938 C 38.242188 86.367188 38.164062 96.679688 39.21875 102.539062 C 43.320312 125.234375 59.570312 143.789062 81.40625 150.742188 C 88.28125 152.929688 93.632812 153.632812 101.953125 153.398438 C 111.835938 153.125 117.8125 151.71875 126.445312 147.65625 C 142.578125 140.039062 154.882812 125.351562 159.570312 108.125 C 162.695312 96.523438 162.34375 83.945312 158.515625 72.5 C 152.382812 54.023438 137.148438 39.0625 118.554688 33.242188 C 114.570312 31.992188 104.492188 30.15625 104.0625 30.585938 C 103.828125 30.820312 103.164062 50.3125 103.125 58.828125 L 103.125 63.984375 L 100.039062 64.726562 L 96.953125 65.507812 L 96.71875 58.632812 C 96.601562 54.84375 96.367188 47.265625 96.25 41.796875 C 96.132812 36.328125 95.9375 31.523438 95.859375 31.132812 C 95.625 30.3125 95.15625 30.3125 89.492188 31.328125 Z M 112.34375 39.84375 C 118.203125 41.875 122.265625 45.15625 124.335938 49.492188 C 125.46875 51.914062 125.585938 52.460938 125.546875 55.859375 C 125.507812 60.390625 124.570312 63.164062 122.109375 65.898438 C 118.828125 69.53125 114.453125 71.484375 103.359375 74.257812 C 93.789062 76.679688 90.703125 78.476562 90.039062 82.109375 C 89.53125 84.726562 91.015625 87.1875 94.257812 89.179688 C 95.273438 89.84375 95.3125 89.960938 95.3125 93.554688 L 95.3125 97.226562 L 93.164062 96.484375 C 87.773438 94.648438 83.789062 91.601562 82.304688 88.28125 C 80.546875 84.375 81.132812 78.476562 83.59375 75.078125 C 86.289062 71.367188 90.15625 69.53125 101.367188 66.640625 C 111.132812 64.101562 114.453125 62.460938 115.976562 59.453125 C 116.992188 57.382812 117.226562 55.664062 116.757812 53.59375 C 115.976562 50.039062 112.96875 47.460938 108.164062 46.210938 L 105.46875 45.546875 L 105.46875 43.90625 C 105.46875 43.007812 105.585938 41.445312 105.703125 40.429688 L 105.976562 38.59375 L 108.085938 38.867188 C 109.257812 39.023438 111.171875 39.453125 112.34375 39.84375 Z M 94.140625 43.4375 L 94.140625 47.070312 L 92.226562 48.203125 C 91.171875 48.828125 89.648438 50.117188 88.828125 51.09375 C 86.445312 53.984375 77.695312 59.375 75.46875 59.375 C 74.257812 59.375 73.164062 60.351562 71.601562 62.773438 C 71.015625 63.671875 70.742188 63.90625 70.898438 63.359375 C 71.09375 62.65625 70.976562 62.5 70.234375 62.460938 C 69.375 62.460938 69.375 62.421875 70.117188 62.109375 C 71.445312 61.5625 72.65625 60 73.203125 57.96875 C 74.84375 52.34375 75.625 50.664062 77.617188 48.203125 C 80.15625 45.117188 81.835938 43.984375 85.585938 42.8125 C 87.1875 42.304688 89.53125 41.40625 90.820312 40.859375 C 92.109375 40.3125 93.398438 39.84375 93.671875 39.84375 C 94.023438 39.84375 94.140625 40.820312 94.140625 43.4375 Z M 129.492188 46.953125 C 132.96875 48.867188 133.945312 49.960938 134.257812 52.265625 C 134.414062 53.554688 134.648438 53.90625 135.234375 53.90625 C 135.625 53.90625 136.09375 54.257812 136.25 54.6875 C 136.523438 55.390625 136.875 55.15625 139.453125 52.539062 C 142.1875 49.765625 142.382812 49.648438 143.046875 50.273438 C 143.75 50.898438 143.632812 51.054688 140.585938 54.140625 L 137.382812 57.382812 L 138.75 58.867188 C 139.492188 59.6875 141.054688 61.328125 142.226562 62.5 C 144.882812 65.234375 147.226562 69.0625 146.523438 69.492188 C 146.132812 69.765625 146.210938 70.15625 146.796875 71.328125 C 148.789062 75.3125 151.171875 84.53125 151.171875 88.398438 C 151.171875 91.835938 151.09375 91.796875 155.898438 91.796875 L 160.15625 91.796875 L 160.15625 93.75 L 155.898438 93.75 C 151.132812 93.75 151.171875 93.710938 151.171875 96.757812 C 151.171875 99.179688 149.804688 105.664062 148.59375 109.0625 C 146.445312 115 142.65625 121.484375 138.867188 125.703125 L 136.992188 127.773438 L 140 130.820312 L 143.007812 133.828125 L 142.1875 134.570312 C 141.367188 135.3125 141.367188 135.273438 138.359375 132.304688 L 135.3125 129.296875 L 134.21875 130.429688 C 132.382812 132.34375 127.226562 135.859375 123.320312 137.851562 C 118.984375 140.078125 113.28125 141.953125 108.4375 142.773438 C 103.75 143.554688 103.515625 143.554688 103.515625 142.382812 C 103.515625 141.328125 103.359375 141.367188 108.398438 140.625 C 110.117188 140.390625 111.914062 139.921875 112.382812 139.609375 C 114.179688 138.476562 114.0625 133.007812 112.109375 129.023438 C 110.78125 126.367188 109.21875 124.804688 106.015625 123.007812 L 103.867188 121.796875 L 103.984375 119.023438 L 104.101562 116.289062 L 106.640625 115.429688 C 114.609375 112.734375 117.578125 109.570312 117.578125 103.710938 C 117.578125 98.125 114.53125 94.53125 107.421875 91.679688 L 104.882812 90.664062 L 104.765625 85.390625 C 104.648438 79.84375 104.726562 79.648438 106.367188 80.546875 C 107.148438 80.9375 109.765625 81.289062 109.765625 80.976562 C 109.765625 80.898438 109.492188 80.429688 109.179688 79.921875 C 108.632812 79.101562 108.632812 78.945312 109.414062 78.007812 C 109.84375 77.421875 110.390625 76.953125 110.625 76.953125 C 110.898438 76.953125 110.664062 77.421875 110.117188 78.007812 C 109.609375 78.59375 109.453125 78.867188 109.765625 78.632812 C 110.078125 78.398438 111.171875 78.085938 112.148438 77.929688 C 113.515625 77.734375 114.335938 77.304688 115.273438 76.328125 C 115.976562 75.625 116.445312 74.882812 116.289062 74.765625 C 116.171875 74.609375 115.15625 74.882812 114.023438 75.351562 C 112.929688 75.820312 111.914062 76.132812 111.796875 75.976562 C 111.484375 75.664062 112.539062 74.960938 113.085938 75.117188 C 113.554688 75.273438 114.84375 74.179688 114.84375 73.59375 C 114.84375 73.359375 115.273438 72.96875 115.78125 72.734375 C 116.484375 72.421875 116.835938 72.460938 117.34375 72.96875 C 117.929688 73.554688 118.242188 73.359375 121.679688 69.921875 C 123.671875 67.929688 125.273438 66.132812 125.195312 65.976562 C 125.078125 65.820312 125.429688 64.960938 125.976562 64.023438 C 126.71875 62.695312 126.953125 62.460938 127.1875 63.007812 C 127.539062 63.945312 128.242188 63.828125 129.296875 62.734375 C 129.84375 62.109375 130.078125 61.523438 129.921875 61.09375 C 129.765625 60.703125 129.882812 60.273438 130.117188 60.117188 C 130.429688 59.921875 130.15625 59.335938 129.21875 58.125 C 127.96875 56.640625 127.8125 56.132812 127.65625 53.59375 C 127.5 51.523438 127.148438 50.15625 126.328125 48.476562 C 125.3125 46.484375 125.234375 46.132812 125.78125 45.78125 C 126.09375 45.546875 126.367188 45.351562 126.40625 45.351562 C 126.40625 45.3125 127.8125 46.054688 129.492188 46.953125 Z M 74.140625 49.101562 C 73.789062 49.492188 73.398438 50.195312 73.28125 50.664062 C 73.125 51.09375 72.539062 51.796875 71.953125 52.1875 C 71.367188 52.539062 69.6875 53.828125 68.242188 55 L 65.585938 57.148438 L 67.773438 59.375 L 70 61.601562 L 68.90625 61.875 C 68.007812 62.109375 67.578125 61.914062 66.054688 60.390625 L 64.257812 58.59375 L 62.5 60.625 C 58.59375 65.195312 55.117188 71.328125 53.125 77.265625 C 51.914062 80.9375 50.78125 86.953125 50.78125 89.921875 L 50.78125 91.796875 L 61.210938 91.796875 L 61.445312 88.75 C 61.992188 82.109375 64.765625 75 69.0625 69.296875 C 70.625 67.226562 71.367188 65.898438 71.25 65.390625 C 71.171875 65 71.25 64.414062 71.445312 64.101562 C 71.757812 63.632812 71.914062 63.632812 72.421875 64.023438 C 72.929688 64.453125 73.398438 64.257812 75.46875 62.617188 C 80.3125 58.828125 84.84375 56.5625 90.507812 55.117188 C 92.265625 54.648438 93.867188 54.296875 94.101562 54.296875 C 94.6875 54.296875 94.648438 56.25 94.0625 56.40625 C 93.789062 56.484375 92.34375 56.835938 90.820312 57.1875 C 85.703125 58.4375 80.195312 61.25 76.367188 64.609375 L 74.804688 65.976562 L 78.4375 69.609375 L 82.03125 73.28125 L 80.898438 75.390625 C 78.515625 79.765625 78.476562 85.742188 80.742188 89.960938 C 82.03125 92.265625 84.765625 94.84375 87.65625 96.484375 C 88.867188 97.1875 90.039062 98.046875 90.234375 98.398438 C 91.25 100.195312 91.328125 100.195312 92.109375 99.492188 C 92.65625 98.984375 93.203125 98.867188 93.90625 99.0625 L 94.960938 99.335938 L 92.851562 101.523438 L 94.0625 102.226562 C 95 102.734375 95.3125 103.203125 95.3125 103.984375 C 95.3125 104.960938 95.234375 105.039062 94.335938 104.6875 C 93.789062 104.492188 92.929688 104.023438 92.34375 103.671875 L 91.367188 103.007812 L 83.945312 110.351562 L 85.039062 111.25 C 85.625 111.757812 86.796875 112.5 87.617188 112.929688 C 89.101562 113.710938 89.335938 114.21875 88.671875 115.234375 C 88.359375 115.742188 88.164062 115.703125 87.03125 115.078125 C 86.328125 114.648438 85.117188 113.828125 84.335938 113.203125 C 83.554688 112.617188 82.734375 112.109375 82.539062 112.109375 C 82.382812 112.109375 80.664062 113.671875 78.75 115.585938 C 74.765625 119.609375 74.765625 119.257812 78.75 122.109375 C 83.007812 125.15625 91.445312 128.515625 94.804688 128.515625 C 95.78125 128.515625 96.328125 129.335938 95.976562 130.234375 C 95.78125 130.703125 95.351562 130.703125 92.890625 130.234375 C 87.65625 129.21875 82.421875 127.148438 78.632812 124.570312 C 76.679688 123.242188 76.71875 123.242188 76.445312 124.21875 C 76.289062 124.882812 75.898438 125 74.140625 125 C 72.5 125 71.953125 125.15625 71.601562 125.742188 C 71.210938 126.328125 70.820312 126.445312 69.648438 126.289062 C 68.398438 126.132812 68.007812 126.25 67.1875 127.148438 L 66.210938 128.164062 L 67.773438 129.53125 C 70 131.445312 75.195312 134.882812 78.046875 136.289062 C 81.40625 137.96875 87.851562 140.078125 91.40625 140.625 C 96.210938 141.367188 96.09375 141.328125 96.09375 142.382812 C 96.09375 143.515625 96.054688 143.554688 91.5625 142.773438 C 82.382812 141.210938 72.617188 136.601562 66.289062 130.898438 L 64.804688 129.570312 L 61.757812 132.578125 L 58.75 135.585938 L 58.007812 134.765625 C 57.265625 133.945312 57.304688 133.945312 60.273438 130.9375 L 63.28125 127.890625 L 61.914062 126.5625 C 61.171875 125.820312 59.53125 123.867188 58.320312 122.148438 C 56.914062 120.234375 56.015625 119.335938 55.9375 119.6875 C 55.703125 120.820312 54.6875 120.3125 53.59375 118.554688 C 53.007812 117.578125 52.226562 116.679688 51.875 116.5625 C 51.484375 116.445312 51.054688 115.9375 50.9375 115.390625 C 50.742188 114.6875 50.429688 114.453125 49.570312 114.453125 C 48.945312 114.453125 48.320312 114.179688 48.085938 113.75 C 47.695312 113.125 47.695312 113.125 47.65625 113.75 C 47.65625 114.804688 47.109375 114.609375 46.367188 113.28125 C 45.976562 112.617188 45.429688 112.109375 45.195312 112.109375 C 44.375 112.109375 44.453125 114.375 45.351562 116.054688 C 45.78125 116.953125 46.054688 117.734375 45.9375 117.890625 C 45.546875 118.242188 42.96875 112.226562 42.5 109.882812 C 42.070312 107.734375 42.070312 107.65625 43.125 106.757812 C 44.296875 105.742188 45.507812 105.546875 45.195312 106.40625 C 44.960938 106.953125 45.664062 107.421875 46.71875 107.421875 C 47.03125 107.421875 47.148438 107.1875 46.992188 106.796875 C 46.796875 106.289062 46.992188 106.25 48.28125 106.484375 C 49.140625 106.601562 50.039062 106.953125 50.351562 107.1875 C 50.78125 107.539062 50.859375 107.460938 50.664062 106.835938 C 50 104.6875 49.21875 100.703125 49.023438 98.242188 C 48.59375 93.320312 49.0625 93.75 44.140625 93.75 L 39.84375 93.75 L 39.84375 91.796875 L 48.398438 91.796875 L 48.59375 90.507812 C 48.671875 89.84375 48.945312 87.578125 49.179688 85.546875 C 50.195312 76.484375 54.921875 66.054688 61.09375 59.179688 L 62.8125 57.226562 L 59.648438 54.023438 C 56.640625 50.9375 56.484375 50.742188 57.148438 50.117188 C 57.773438 49.492188 57.96875 49.609375 60.859375 52.460938 C 62.5 54.101562 64.023438 55.46875 64.21875 55.46875 C 64.375 55.46875 65.429688 54.6875 66.523438 53.75 C 67.65625 52.8125 69.84375 51.132812 71.445312 50.039062 C 74.296875 48.085938 75.351562 47.734375 74.140625 49.101562 Z M 111.601562 55.703125 C 114.609375 56.601562 114.804688 56.71875 114.492188 57.539062 C 114.101562 58.59375 114.140625 58.59375 110.546875 57.539062 C 108.945312 57.070312 107.148438 56.601562 106.5625 56.484375 C 105.703125 56.289062 105.46875 56.015625 105.46875 55.234375 C 105.46875 54.257812 105.546875 54.21875 106.953125 54.453125 C 107.734375 54.609375 109.84375 55.15625 111.601562 55.703125 Z M 70.3125 63.4375 C 70.3125 63.867188 69.570312 64.023438 69.335938 63.671875 C 69.21875 63.476562 69.375 63.28125 69.6875 63.28125 C 70.039062 63.28125 70.3125 63.359375 70.3125 63.4375 Z M 102.539062 90.117188 C 102.421875 97.617188 102.226562 104.414062 102.109375 105.3125 C 101.914062 106.875 101.875 106.914062 99.84375 107.5 L 97.773438 108.046875 L 97.539062 99.296875 C 97.382812 94.453125 97.265625 87.734375 97.265625 84.335938 L 97.265625 78.164062 L 99.726562 77.382812 C 101.054688 76.992188 102.265625 76.601562 102.460938 76.601562 C 102.617188 76.5625 102.65625 82.65625 102.539062 90.117188 Z M 94.492188 84.257812 C 94.101562 84.960938 94.101562 85.273438 94.453125 85.625 C 94.726562 85.898438 94.921875 86.367188 94.921875 86.679688 C 94.921875 87.070312 94.414062 86.796875 93.554688 85.859375 C 91.71875 83.867188 91.679688 82.070312 93.476562 80.351562 L 94.726562 79.101562 L 94.84375 81.25 C 94.921875 82.421875 94.765625 83.75 94.492188 84.257812 Z M 108.359375 94.453125 C 114.570312 97.421875 117.109375 102.34375 114.882812 107.226562 C 113.554688 110.15625 110.859375 111.835938 103.515625 114.257812 C 98.320312 115.976562 96.289062 116.914062 95.9375 117.773438 C 95.820312 118.125 95.703125 119.84375 95.703125 121.5625 L 95.703125 124.6875 L 94.453125 123.90625 C 90.9375 121.71875 89.609375 117.617188 91.484375 114.84375 C 92.851562 112.851562 95.585938 111.171875 99.882812 109.726562 C 105.429688 107.929688 107.304688 106.875 108.085938 105.234375 C 108.710938 103.984375 108.710938 103.75 108.164062 102.8125 C 107.65625 101.875 105.703125 100.273438 104.648438 99.921875 C 104.296875 99.804688 104.609375 92.96875 105 92.96875 C 105.078125 92.96875 106.601562 93.632812 108.359375 94.453125 Z M 106.132812 103.75 C 106.328125 104.335938 105.234375 105.859375 104.609375 105.859375 C 104.453125 105.859375 104.296875 105.078125 104.296875 104.101562 C 104.296875 102.421875 104.335938 102.34375 105.117188 102.734375 C 105.546875 102.96875 106.015625 103.4375 106.132812 103.75 Z M 101.601562 133.046875 C 101.25 148.710938 100.976562 151.445312 99.882812 151.09375 C 98.59375 150.664062 98.4375 149.0625 98.320312 133.59375 L 98.242188 118.28125 L 100 117.578125 C 100.976562 117.1875 101.796875 116.914062 101.875 116.992188 C 101.914062 117.03125 101.796875 124.257812 101.601562 133.046875 Z M 48.632812 120.742188 C 49.53125 122.460938 49.101562 122.578125 48.125 120.898438 C 47.65625 120.15625 47.460938 119.53125 47.65625 119.53125 C 47.851562 119.53125 48.320312 120.078125 48.632812 120.742188 Z M 107.65625 126.679688 C 109.726562 128.398438 110.976562 130.859375 111.171875 133.671875 C 111.367188 136.09375 111.367188 136.09375 110.78125 134.921875 C 110 133.164062 107.65625 130.703125 105.625 129.414062 C 103.945312 128.359375 103.90625 128.28125 103.90625 126.25 L 103.90625 124.179688 L 105.117188 124.882812 C 105.78125 125.273438 106.914062 126.09375 107.65625 126.679688 Z M 107.65625 126.679688 "/>
<path style=" stroke:none;fill-rule:nonzero;fill:rgb(0%,0%,0%);fill-opacity:1;" d="M 80.078125 50.234375 C 79.609375 50.976562 79.296875 51.679688 79.414062 51.796875 C 79.726562 52.148438 80.9375 51.367188 82.1875 50.039062 L 83.359375 48.828125 L 82.148438 48.828125 C 81.171875 48.828125 80.742188 49.101562 80.078125 50.234375 Z M 80.078125 50.234375 "/>
<path style=" stroke:none;fill-rule:nonzero;fill:rgb(0%,0%,0%);fill-opacity:1;" d="M 129.960938 64.726562 L 128.554688 66.210938 L 130.429688 68.59375 C 132.03125 70.664062 132.34375 70.9375 132.734375 70.351562 C 133.085938 69.804688 133.164062 69.84375 133.164062 70.585938 C 133.203125 71.132812 133.4375 71.484375 133.789062 71.484375 C 134.257812 71.484375 134.296875 71.640625 133.984375 72.226562 C 133.515625 73.164062 133.828125 74.101562 134.726562 74.335938 C 135.390625 74.492188 135.976562 76.054688 136.132812 78.007812 C 136.210938 79.023438 137.34375 80.859375 137.929688 80.859375 C 138.359375 80.859375 138.164062 79.335938 137.265625 75.703125 C 136.679688 73.164062 135.625 70.9375 133.945312 68.632812 C 133.320312 67.773438 132.890625 66.992188 133.007812 66.875 C 133.320312 66.5625 135.195312 67.96875 134.960938 68.359375 C 134.84375 68.59375 135.273438 69.53125 135.9375 70.507812 C 138.320312 73.984375 139.375 78.789062 138.476562 82.226562 C 138.046875 83.828125 138.007812 84.84375 138.28125 86.367188 C 138.515625 87.460938 138.671875 89.140625 138.671875 90.078125 L 138.671875 91.796875 L 149.21875 91.796875 L 149.21875 90 C 149.21875 85.9375 147.929688 79.804688 146.054688 74.921875 C 144.921875 72.03125 144.84375 71.914062 143.828125 72.109375 C 142.890625 72.304688 142.460938 72.03125 140.703125 69.960938 C 139.53125 68.632812 138.476562 67.578125 138.28125 67.578125 C 138.085938 67.578125 137.109375 67.109375 136.132812 66.523438 C 134.921875 65.78125 134.375 65.15625 134.375 64.609375 C 134.375 63.984375 134.0625 63.710938 133.164062 63.515625 C 131.445312 63.164062 131.5625 63.125 129.960938 64.726562 Z M 129.960938 64.726562 "/>
<path style=" stroke:none;fill-rule:nonzero;fill:rgb(0%,0%,0%);fill-opacity:1;" d="M 123.164062 71.5625 L 119.570312 75.195312 L 120.820312 76.679688 C 121.523438 77.460938 122.304688 78.125 122.578125 78.125 C 122.851562 78.125 122.96875 77.929688 122.851562 77.734375 C 122.734375 77.5 122.890625 77.34375 123.242188 77.34375 C 123.59375 77.34375 123.75 77.5 123.632812 77.734375 C 123.242188 78.398438 125.859375 81.25 126.679688 81.015625 C 127.109375 80.898438 127.34375 81.015625 127.34375 81.40625 C 127.34375 81.796875 127.109375 81.914062 126.757812 81.796875 C 125.9375 81.484375 126.015625 82.148438 126.914062 82.96875 C 127.695312 83.671875 128.203125 83.359375 128.671875 81.796875 C 129.0625 80.546875 130.273438 80.390625 131.210938 81.40625 C 131.992188 82.265625 132.03125 82.382812 131.445312 83.984375 C 130.703125 86.015625 130.703125 85.9375 131.5625 85.9375 C 132.460938 85.898438 133.59375 85 133.59375 84.296875 C 133.59375 83.984375 133.945312 83.398438 134.375 83.007812 C 135.351562 82.148438 135.351562 82.148438 134.375 79.609375 C 133.828125 78.125 133.203125 77.304688 132.226562 76.640625 C 130.898438 75.78125 130.3125 74.0625 131.25 73.75 C 131.679688 73.632812 127.8125 68.28125 127.148438 68.085938 C 126.914062 68.007812 125.117188 69.609375 123.164062 71.5625 Z M 128.75 71.171875 C 128.90625 71.40625 128.828125 71.71875 128.554688 71.796875 C 128.203125 71.914062 128.203125 72.070312 128.554688 72.5 C 128.867188 72.851562 128.867188 73.046875 128.59375 73.046875 C 128.359375 73.046875 128.046875 72.851562 127.929688 72.65625 C 127.539062 72.03125 126.5625 72.1875 126.5625 72.851562 C 126.5625 73.164062 126.796875 73.789062 127.070312 74.257812 C 127.460938 74.921875 127.421875 75.117188 126.796875 75.625 C 126.367188 75.9375 125.78125 76.171875 125.507812 76.171875 C 124.726562 76.171875 124.921875 75.46875 125.78125 75.195312 C 126.640625 74.921875 126.796875 74.414062 126.171875 74.023438 C 125.585938 73.671875 126.09375 72.226562 127.03125 71.367188 C 127.96875 70.585938 128.359375 70.546875 128.75 71.171875 Z M 128.75 71.171875 "/>
<path style=" stroke:none;fill-rule:nonzero;fill:rgb(0%,0%,0%);fill-opacity:1;" d="M 117.460938 77.265625 C 116.757812 78.046875 116.5625 80.078125 117.1875 80.078125 C 117.421875 80.078125 117.539062 80.273438 117.5 80.507812 C 117.421875 80.742188 117.617188 81.054688 117.929688 81.132812 C 118.320312 81.289062 118.359375 81.132812 118.164062 80.46875 C 117.890625 79.648438 117.96875 79.609375 118.90625 79.84375 C 120.234375 80.15625 120.273438 79.179688 118.984375 77.617188 C 118.125 76.5625 118.085938 76.5625 117.460938 77.265625 Z M 117.460938 77.265625 "/>
<path style=" stroke:none;fill-rule:nonzero;fill:rgb(0%,0%,0%);fill-opacity:1;" d="M 135.195312 83.4375 C 135.15625 84.414062 133.046875 86.71875 132.226562 86.71875 C 131.523438 86.71875 129.6875 87.539062 129.6875 87.890625 C 129.6875 88.007812 129.882812 88.320312 130.15625 88.59375 C 130.507812 88.945312 130.507812 89.0625 130 89.0625 C 129.335938 89.0625 127.34375 90.78125 127.34375 91.40625 C 127.34375 91.640625 129.023438 91.796875 132.03125 91.796875 L 136.71875 91.796875 L 136.679688 90.507812 C 136.679688 89.84375 136.5625 88.554688 136.367188 87.695312 C 136.09375 86.171875 136.09375 86.171875 135.585938 87.03125 C 134.882812 88.359375 134.648438 87.8125 135.15625 86.054688 C 135.429688 85.234375 135.546875 84.101562 135.429688 83.59375 C 135.273438 82.773438 135.273438 82.734375 135.195312 83.4375 Z M 135.195312 83.4375 "/>
<path style=" stroke:none;fill-rule:nonzero;fill:rgb(0%,0%,0%);fill-opacity:1;" d="M 128.90625 94.140625 C 128.90625 94.375 129.179688 95.117188 129.53125 95.742188 C 130.078125 96.835938 130.273438 96.953125 131.875 96.796875 C 133.046875 96.71875 133.632812 96.835938 133.789062 97.226562 C 133.945312 97.617188 133.75 97.695312 132.96875 97.539062 C 132.109375 97.382812 131.992188 97.460938 132.1875 98.242188 C 132.382812 99.023438 132.1875 99.21875 130.429688 99.765625 C 129.257812 100.15625 127.96875 100.3125 127.304688 100.195312 C 126.445312 100 126.210938 100.078125 126.367188 100.46875 C 126.484375 100.78125 126.09375 101.289062 125.429688 101.679688 C 124.804688 102.03125 123.828125 103.125 123.28125 104.0625 C 122.148438 106.015625 121.992188 106.5625 122.8125 105.898438 C 124.414062 104.570312 124.609375 109.726562 123.046875 112.382812 C 122.460938 113.398438 122.421875 113.710938 122.851562 114.0625 C 123.242188 114.414062 123.515625 114.21875 124.0625 113.320312 C 124.453125 112.65625 124.882812 112.109375 125.039062 112.109375 C 125.46875 112.109375 125.898438 115.078125 125.625 115.9375 C 125.46875 116.367188 125.625 116.875 125.9375 117.1875 C 126.679688 117.773438 127.695312 116.71875 130.664062 112.304688 C 133.867188 107.460938 135.9375 101.835938 136.523438 96.328125 L 136.796875 93.75 L 132.851562 93.75 C 130.351562 93.75 128.90625 93.90625 128.90625 94.140625 Z M 128.90625 94.140625 "/>
<path style=" stroke:none;fill-rule:nonzero;fill:rgb(0%,0%,0%);fill-opacity:1;" d="M 138.554688 96.601562 C 138.007812 102.96875 134.765625 110.78125 130.351562 116.328125 L 128.007812 119.257812 L 129.414062 120.585938 C 130.195312 121.289062 131.015625 121.875 131.210938 121.875 C 131.367188 121.875 131.640625 121.171875 131.796875 120.3125 C 132.03125 118.828125 132.539062 118.4375 133.398438 119.0625 C 133.632812 119.21875 133.867188 119.609375 133.945312 119.921875 C 134.648438 122.695312 134.765625 123.710938 134.609375 124.453125 C 134.453125 124.960938 134.609375 125.507812 135 125.820312 C 135.546875 126.289062 135.820312 126.09375 137.148438 124.609375 C 141.289062 119.84375 144.804688 113.632812 146.835938 107.578125 C 148.125 103.789062 149.21875 98.164062 149.21875 95.46875 L 149.21875 93.75 L 138.789062 93.75 Z M 138.554688 96.601562 "/>
<path style=" stroke:none;fill-rule:nonzero;fill:rgb(0%,0%,0%);fill-opacity:1;" d="M 116.054688 113.046875 C 115.429688 113.789062 116.835938 114.648438 119.296875 115 C 121.523438 115.351562 121.445312 114.960938 118.984375 113.515625 C 116.992188 112.34375 116.679688 112.304688 116.054688 113.046875 Z M 116.054688 113.046875 "/>
<path style=" stroke:none;fill-rule:nonzero;fill:rgb(0%,0%,0%);fill-opacity:1;" d="M 125.664062 121.40625 C 124.804688 122.34375 124.84375 123.046875 125.703125 123.046875 C 126.09375 123.046875 126.835938 123.476562 127.34375 124.023438 L 128.242188 124.960938 L 127.226562 126.132812 C 125.78125 127.851562 125.546875 128.867188 126.445312 129.492188 C 127.109375 130 127.109375 130.039062 126.210938 130.976562 C 125.742188 131.523438 125.429688 132.148438 125.546875 132.382812 C 125.703125 132.617188 125.625 133.164062 125.390625 133.59375 C 125.15625 134.023438 125.117188 134.375 125.3125 134.375 C 125.742188 134.375 129.804688 131.5625 132.148438 129.570312 L 134.023438 128.007812 L 130.390625 124.335938 C 128.398438 122.34375 126.679688 120.703125 126.523438 120.703125 C 126.40625 120.703125 126.015625 121.015625 125.664062 121.40625 Z M 125.664062 121.40625 "/>
<path style=" stroke:none;fill-rule:nonzero;fill:rgb(0%,0%,0%);fill-opacity:1;" d="M 71.992188 68.867188 C 67.421875 74.0625 64.179688 81.757812 63.4375 89.023438 L 63.164062 91.796875 L 65.585938 91.796875 C 67.617188 91.796875 67.96875 91.679688 67.96875 91.09375 C 67.96875 90.703125 68.242188 90.039062 68.554688 89.609375 C 68.867188 89.21875 69.140625 88.554688 69.140625 88.125 C 69.140625 86.875 71.171875 83.59375 71.914062 83.59375 C 72.65625 83.59375 75.664062 82.148438 75.976562 81.640625 C 76.054688 81.484375 75.703125 81.445312 75.117188 81.5625 C 73.710938 81.835938 74.296875 80.976562 75.742188 80.664062 C 76.328125 80.546875 77.03125 80.039062 77.226562 79.570312 C 77.460938 79.101562 78.28125 77.851562 79.101562 76.796875 L 80.546875 74.882812 L 76.875 71.210938 L 73.164062 67.539062 Z M 71.992188 68.867188 "/>
<path style=" stroke:none;fill-rule:nonzero;fill:rgb(0%,0%,0%);fill-opacity:1;" d="M 70.820312 87.773438 C 70.195312 88.007812 70.15625 90 70.703125 91.054688 C 70.976562 91.5625 71.523438 91.796875 72.421875 91.796875 C 73.710938 91.796875 73.75 91.757812 73.90625 90 C 73.984375 88.632812 73.867188 88.125 73.359375 87.851562 C 72.65625 87.460938 71.601562 87.421875 70.820312 87.773438 Z M 70.820312 87.773438 "/>
<path style=" stroke:none;fill-rule:nonzero;fill:rgb(0%,0%,0%);fill-opacity:1;" d="M 50.9375 97.070312 C 51.09375 98.90625 51.601562 101.914062 52.070312 103.789062 C 53.046875 107.65625 53.4375 107.96875 56.015625 106.875 C 57.382812 106.289062 57.421875 106.25 57.421875 104.101562 C 57.421875 102.148438 57.617188 101.5625 59.0625 99.375 C 59.960938 98.007812 60.859375 96.875 61.015625 96.875 C 61.171875 96.875 61.328125 96.171875 61.328125 95.3125 L 61.328125 93.75 L 50.664062 93.75 Z M 50.9375 97.070312 "/>
<path style=" stroke:none;fill-rule:nonzero;fill:rgb(0%,0%,0%);fill-opacity:1;" d="M 63.28125 94.492188 C 63.28125 94.882812 63.398438 96.015625 63.515625 97.03125 C 63.75 98.671875 63.867188 98.828125 64.882812 98.828125 C 66.054688 98.828125 66.796875 97.617188 66.09375 96.757812 C 65.898438 96.484375 65.859375 95.9375 66.054688 95.507812 C 66.640625 94.023438 66.445312 93.75 64.84375 93.75 C 63.59375 93.75 63.28125 93.90625 63.28125 94.492188 Z M 63.28125 94.492188 "/>
<path style=" stroke:none;fill-rule:nonzero;fill:rgb(0%,0%,0%);fill-opacity:1;" d="M 68.75 94.140625 C 68.4375 94.335938 67.851562 94.570312 67.5 94.6875 C 66.992188 94.84375 66.835938 95.3125 66.875 96.875 C 66.914062 97.96875 67.148438 98.984375 67.382812 99.140625 C 68.125 99.570312 69.414062 102.460938 69.21875 103.242188 C 69.140625 103.632812 69.335938 104.335938 69.648438 104.804688 C 69.960938 105.273438 70.351562 106.835938 70.507812 108.203125 C 70.664062 109.609375 71.015625 111.171875 71.289062 111.71875 C 71.5625 112.265625 71.679688 113.242188 71.601562 113.945312 C 71.445312 114.804688 71.679688 115.507812 72.304688 116.367188 C 72.773438 117.03125 73.359375 117.578125 73.515625 117.578125 C 73.945312 117.578125 80.859375 110.9375 80.859375 110.546875 C 80.859375 110.390625 80.195312 109.414062 79.375 108.4375 C 78.554688 107.460938 77.304688 105.507812 76.640625 104.101562 C 75.351562 101.5625 73.828125 96.40625 73.828125 94.648438 C 73.828125 94.023438 73.59375 93.75 73.085938 93.75 C 72.578125 93.75 72.34375 94.023438 72.34375 94.609375 C 72.34375 97.695312 72.148438 99.257812 71.757812 98.867188 C 71.5625 98.671875 71.40625 97.96875 71.445312 97.382812 C 71.71875 93.789062 71.757812 93.945312 70.507812 93.867188 C 69.882812 93.828125 69.0625 93.945312 68.75 94.140625 Z M 72.382812 100.351562 C 72.695312 101.523438 72.03125 102.226562 71.523438 101.25 C 70.9375 100.15625 70.976562 99.609375 71.640625 99.609375 C 71.914062 99.609375 72.265625 99.960938 72.382812 100.351562 Z M 72.382812 100.351562 "/>
<path style=" stroke:none;fill-rule:nonzero;fill:rgb(0%,0%,0%);fill-opacity:1;" d="M 76.171875 96.132812 C 76.171875 97.773438 78.320312 103.28125 79.804688 105.507812 C 82.421875 109.453125 82.148438 109.492188 86.289062 105.3125 L 89.921875 101.679688 L 88.710938 99.804688 L 87.539062 97.96875 L 87.265625 99.0625 C 87.109375 99.6875 86.640625 100.507812 86.25 100.9375 C 85.703125 101.5625 85.429688 101.601562 85.039062 101.210938 C 84.6875 100.820312 84.6875 100.625 85.234375 100.234375 C 85.859375 99.804688 85.859375 99.648438 85.3125 98.90625 C 84.53125 97.773438 84.0625 97.8125 83.75 99.023438 C 83.632812 99.570312 83.359375 100 83.164062 100 C 82.96875 100 82.617188 99.570312 82.421875 99.023438 C 82.1875 98.4375 81.757812 98.046875 81.289062 98.046875 C 80.898438 98.046875 80.351562 97.773438 80.078125 97.460938 C 79.804688 97.148438 79.21875 96.875 78.789062 96.875 C 78.359375 96.875 77.578125 96.484375 77.070312 96.015625 L 76.171875 95.195312 Z M 76.171875 96.132812 "/>
<path style=" stroke:none;fill-rule:nonzero;fill:rgb(0%,0%,0%);fill-opacity:1;" d="M 62.734375 123.789062 C 62.578125 123.984375 62.96875 124.6875 63.515625 125.390625 L 64.570312 126.601562 L 65.507812 125.703125 L 66.445312 124.84375 L 65.15625 124.140625 C 63.710938 123.359375 63.046875 123.28125 62.734375 123.789062 Z M 62.734375 123.789062 "/>
<path style=" stroke:none;fill-rule:nonzero;fill:rgb(0%,0%,0%);fill-opacity:1;" d="M 155.898438 25.078125 C 157.148438 27.421875 161.914062 34.179688 163.28125 35.46875 C 164.648438 36.835938 171.875 41.171875 172.1875 40.859375 C 172.460938 40.546875 169.609375 34.804688 168.007812 32.460938 C 167.109375 31.132812 165.625 29.492188 164.726562 28.867188 C 163.046875 27.617188 157.929688 24.921875 156.328125 24.414062 C 155.46875 24.179688 155.429688 24.21875 155.898438 25.078125 Z M 155.898438 25.078125 "/>
<path style=" stroke:none;fill-rule:nonzero;fill:rgb(0%,0%,0%);fill-opacity:1;" d="M 40.625 26.679688 C 38.554688 27.617188 36.054688 28.945312 35.039062 29.609375 C 32.226562 31.5625 28.4375 37.382812 27.5 41.171875 L 27.226562 42.34375 L 29.140625 41.210938 C 35.234375 37.65625 39.882812 33.007812 44.335938 26.054688 C 44.6875 25.46875 44.84375 25 44.6875 25 C 44.492188 25 42.65625 25.742188 40.625 26.679688 Z M 40.625 26.679688 "/>
<path style=" stroke:none;fill-rule:nonzero;fill:rgb(0%,0%,0%);fill-opacity:1;" d="M 173.046875 31.523438 C 173.046875 31.679688 173.671875 33.046875 174.414062 34.570312 C 175.195312 36.054688 176.132812 38.789062 176.523438 40.625 C 176.953125 42.460938 177.929688 45.625 178.710938 47.617188 C 180.976562 53.476562 179.882812 53.90625 174.804688 49.21875 C 173.75 48.242188 171.445312 46.679688 169.726562 45.742188 C 168.007812 44.804688 165.507812 43.28125 164.179688 42.34375 C 162.8125 41.40625 161.71875 40.742188 161.71875 40.820312 C 161.71875 41.40625 163.867188 45.390625 164.84375 46.5625 C 165.507812 47.34375 169.414062 50.429688 173.59375 53.4375 C 177.734375 56.484375 181.640625 59.53125 182.226562 60.234375 L 183.320312 61.523438 L 183.046875 54.101562 C 182.695312 44.6875 182.304688 41.71875 181.015625 39.53125 C 179.335938 36.71875 173.046875 30.351562 173.046875 31.523438 Z M 173.046875 31.523438 "/>
<path style=" stroke:none;fill-rule:nonzero;fill:rgb(0%,0%,0%);fill-opacity:1;" d="M 25.390625 32.96875 C 22.734375 34.921875 19.570312 38.476562 18.671875 40.46875 C 18.203125 41.601562 17.734375 43.828125 17.539062 46.25 C 17.34375 48.398438 16.992188 51.914062 16.757812 53.984375 C 16.40625 57.382812 16.484375 59.609375 17.03125 61.289062 C 17.148438 61.640625 17.617188 61.25 18.320312 60.273438 C 19.882812 58.125 22.1875 56.25 26.328125 53.75 C 28.28125 52.578125 30.664062 51.015625 31.640625 50.234375 C 33.828125 48.515625 36.679688 45.078125 38.125 42.421875 L 39.21875 40.429688 L 36.679688 42.421875 C 35.3125 43.515625 33.125 44.960938 31.835938 45.664062 C 26.25 48.75 25.039062 49.6875 23.867188 52.070312 L 22.734375 54.296875 L 21.914062 53.28125 C 20.859375 51.914062 20.898438 50.664062 22.070312 47.695312 C 22.617188 46.367188 23.4375 43.671875 23.90625 41.679688 C 24.335938 39.6875 25.390625 36.71875 26.210938 35.078125 C 27.070312 33.398438 27.734375 31.953125 27.734375 31.835938 C 27.734375 31.40625 27.070312 31.71875 25.390625 32.96875 Z M 25.390625 32.96875 "/>
<path style=" stroke:none;fill-rule:nonzero;fill:rgb(0%,0%,0%);fill-opacity:1;" d="M 10.429688 50.546875 C 9.375 52.382812 8.085938 55.078125 7.578125 56.601562 C 6.40625 60 5.820312 65.585938 6.25 69.726562 C 6.601562 73.125 7.03125 74.453125 9.140625 78.945312 C 9.882812 80.585938 10.625 82.65625 10.78125 83.554688 C 11.054688 85.3125 11.523438 85.625 11.953125 84.296875 C 12.070312 83.828125 13.828125 81.757812 15.820312 79.726562 C 20.9375 74.375 22.617188 72.148438 24.882812 67.734375 C 27.03125 63.59375 28.632812 59.765625 28.398438 59.492188 C 28.28125 59.414062 26.640625 60.390625 24.6875 61.679688 C 21.015625 64.179688 16.328125 68.789062 13.554688 72.734375 C 12.109375 74.804688 11.875 74.960938 11.445312 74.375 C 10.820312 73.554688 10.78125 70.9375 11.328125 69.882812 C 12.070312 68.554688 12.265625 64.140625 11.71875 61.25 C 11.25 58.789062 11.25 57.890625 11.953125 52.890625 C 12.382812 49.804688 12.65625 47.265625 12.539062 47.265625 C 12.382812 47.265625 11.445312 48.75 10.429688 50.546875 Z M 10.429688 50.546875 "/>
<path style=" stroke:none;fill-rule:nonzero;fill:rgb(0%,0%,0%);fill-opacity:1;" d="M 187.148438 47.460938 C 187.109375 47.65625 187.382812 49.21875 187.65625 50.9375 C 188.085938 53.359375 188.125 55.078125 187.8125 59.140625 C 187.578125 61.953125 187.382812 66.328125 187.304688 68.867188 C 187.265625 71.367188 187.148438 73.554688 186.992188 73.671875 C 186.523438 74.179688 185.46875 73.085938 182.070312 68.515625 C 180.117188 65.898438 177.617188 62.96875 176.484375 62.03125 C 174.21875 60.117188 171.40625 58.164062 171.210938 58.359375 C 171.09375 58.476562 173.867188 64.609375 175.820312 68.59375 C 176.640625 70.273438 180.078125 74.84375 183.710938 79.140625 C 184.960938 80.625 186.367188 82.539062 186.796875 83.398438 L 187.617188 84.960938 L 188.320312 82.929688 C 188.710938 81.796875 189.804688 79.21875 190.78125 77.226562 C 193.007812 72.617188 193.359375 71.09375 193.4375 65.351562 C 193.476562 61.25 193.359375 60.390625 192.421875 57.617188 C 191.015625 53.476562 187.148438 46.09375 187.148438 47.460938 Z M 187.148438 47.460938 "/>
<path style=" stroke:none;fill-rule:nonzero;fill:rgb(0%,0%,0%);fill-opacity:1;" d="M 196.132812 76.914062 C 195.507812 79.648438 194.570312 81.875 192.734375 85.351562 C 190.859375 88.90625 190.039062 91.015625 189.335938 93.945312 C 188.867188 96.054688 188.242188 97.851562 188.007812 97.929688 C 187.34375 98.164062 186.445312 96.171875 185.703125 93.085938 C 185.234375 91.015625 184.453125 89.453125 182.1875 86.015625 C 180.625 83.59375 178.945312 80.898438 178.476562 79.960938 C 178.007812 79.0625 177.265625 77.890625 176.835938 77.34375 L 176.054688 76.367188 L 176.328125 81.171875 C 176.757812 88.867188 177.265625 90.859375 180.78125 97.890625 C 182.460938 101.289062 184.375 105.390625 185 106.914062 C 185.625 108.476562 186.25 109.726562 186.367188 109.648438 C 186.71875 109.53125 190.78125 104.609375 192.304688 102.460938 C 194.21875 99.84375 195.898438 96.171875 196.914062 92.382812 C 197.65625 89.726562 197.773438 88.242188 197.773438 82.421875 C 197.734375 78.671875 197.578125 75.039062 197.382812 74.414062 C 197.03125 73.320312 196.953125 73.515625 196.132812 76.914062 Z M 196.132812 76.914062 "/>
<path style=" stroke:none;fill-rule:nonzero;fill:rgb(0%,0%,0%);fill-opacity:1;" d="M 2.070312 83.203125 C 2.1875 89.960938 2.421875 92.929688 2.851562 94.453125 C 4.335938 99.492188 7.96875 105.546875 11.835938 109.296875 L 13.59375 111.015625 L 14.453125 108.164062 C 15.429688 104.882812 16.835938 101.953125 19.609375 97.421875 C 20.78125 95.507812 21.835938 93.125 22.265625 91.445312 C 23.125 88.164062 24.375 80.078125 24.140625 79.0625 C 24.0625 78.554688 22.617188 80.351562 19.648438 84.84375 C 16.328125 89.84375 15.078125 92.109375 14.21875 94.609375 C 13.632812 96.367188 12.734375 98.242188 12.1875 98.789062 C 11.25 99.726562 11.210938 99.726562 10.703125 99.023438 C 10.390625 98.632812 10.15625 97.34375 10.15625 96.210938 C 10.15625 93.515625 9.140625 90.507812 6.289062 84.804688 C 5.039062 82.304688 3.710938 79.140625 3.359375 77.8125 C 2.109375 72.851562 1.914062 73.59375 2.070312 83.203125 Z M 2.070312 83.203125 "/>
<path style=" stroke:none;fill-rule:nonzero;fill:rgb(0%,0%,0%);fill-opacity:1;" d="M 176.015625 100.9375 C 175.039062 109.453125 174.960938 110.9375 175.546875 115.507812 C 176.71875 124.765625 176.71875 128.828125 175.507812 134.84375 L 175.273438 136.132812 L 176.40625 135.390625 C 179.335938 133.476562 184.882812 129.0625 187.96875 126.171875 C 192.96875 121.484375 194.882812 118.4375 197.226562 111.210938 C 198.28125 107.929688 199.257812 104.648438 199.414062 103.90625 C 199.648438 102.65625 199.53125 102.773438 197.734375 105.273438 C 196.679688 106.757812 194.375 109.296875 192.65625 110.859375 C 190.898438 112.421875 188.476562 115.117188 187.265625 116.875 C 186.054688 118.59375 184.101562 121.015625 182.96875 122.226562 L 180.9375 124.414062 L 181.132812 118.359375 L 181.367188 112.304688 L 179.726562 107.5 C 178.828125 104.882812 177.695312 101.796875 177.1875 100.664062 L 176.289062 98.632812 Z M 176.015625 100.9375 "/>
<path style=" stroke:none;fill-rule:nonzero;fill:rgb(0%,0%,0%);fill-opacity:1;" d="M 23.085938 101.367188 C 21.25 105.429688 20 108.90625 19.140625 112.304688 C 18.359375 115.390625 18.28125 116.367188 18.554688 120.585938 C 18.710938 123.828125 18.671875 125.390625 18.398438 125.390625 C 17.65625 125.390625 16.132812 123.398438 13.632812 119.21875 C 11.71875 115.976562 10.15625 113.984375 6.601562 110.351562 C 4.0625 107.773438 1.5625 104.882812 0.976562 103.90625 C 0.0390625 102.34375 -0.0390625 102.265625 0.15625 103.320312 C 0.273438 103.945312 0.546875 105.625 0.78125 106.992188 C 1.5625 111.367188 5.195312 118.828125 9.140625 124.101562 C 11.054688 126.640625 15.3125 130.390625 20.703125 134.335938 C 24.570312 137.1875 24.6875 137.109375 23.671875 132.070312 C 22.851562 128.085938 22.890625 126.953125 23.90625 121.328125 C 24.804688 116.289062 25 107.773438 24.296875 102.148438 L 23.984375 99.414062 Z M 23.085938 101.367188 "/>
<path style=" stroke:none;fill-rule:nonzero;fill:rgb(0%,0%,0%);fill-opacity:1;" d="M 167.65625 124.0625 C 164.023438 132.304688 163.320312 134.648438 162.265625 141.992188 C 161.25 149.101562 160.859375 150.664062 159.726562 152.617188 L 159.023438 153.90625 L 160.117188 153.90625 C 164.296875 153.90625 173.789062 151.445312 178.515625 149.140625 C 184.492188 146.210938 190.15625 139.648438 192.96875 132.34375 C 193.554688 130.78125 194.179688 128.90625 194.335938 128.164062 C 194.609375 126.953125 194.335938 127.148438 190.78125 130.742188 C 187.226562 134.296875 186.328125 135 179.882812 138.671875 C 174.21875 141.953125 172.382812 143.203125 170.507812 145.195312 C 169.257812 146.5625 167.890625 147.65625 167.5 147.65625 C 166.328125 147.65625 166.640625 145.234375 168.359375 141.484375 C 170.546875 136.601562 170.703125 135.351562 170.390625 126.367188 L 170.117188 118.554688 Z M 167.65625 124.0625 "/>
<path style=" stroke:none;fill-rule:nonzero;fill:rgb(0%,0%,0%);fill-opacity:1;" d="M 29.921875 121.953125 C 28.945312 131.132812 29.375 139.140625 31.132812 143.945312 C 32.5 147.8125 32.617188 148.671875 31.835938 148.984375 C 31.328125 149.179688 30.390625 148.4375 28.164062 146.132812 C 25.585938 143.398438 24.53125 142.617188 20.078125 140.273438 C 13.320312 136.640625 12.5 135.976562 8.28125 131.09375 C 6.289062 128.828125 4.6875 127.03125 4.6875 127.148438 C 4.6875 127.65625 10.390625 138.671875 11.796875 140.9375 C 12.773438 142.421875 14.453125 144.296875 15.976562 145.585938 C 18.671875 147.773438 25.46875 151.367188 29.492188 152.695312 C 31.953125 153.476562 36.914062 154.296875 39.453125 154.296875 L 40.9375 154.296875 L 39.84375 152.226562 C 38.242188 149.296875 37.617188 146.679688 36.953125 140 C 36.132812 132.421875 35.664062 130.703125 32.773438 124.921875 C 31.484375 122.265625 30.351562 120.078125 30.273438 120 C 30.195312 119.921875 30.039062 120.820312 29.921875 121.953125 Z M 29.921875 121.953125 "/>
<path style=" stroke:none;fill-rule:nonzero;fill:rgb(0%,0%,0%);fill-opacity:1;" d="M 152.5 143.476562 C 146.992188 149.0625 146.054688 150.3125 143.164062 155.664062 C 142.148438 157.578125 140.898438 159.726562 140.351562 160.390625 C 139.296875 161.796875 135.351562 164.960938 133.828125 165.664062 C 133.085938 166.015625 132.929688 166.25 133.28125 166.484375 C 134.101562 166.953125 136.210938 166.835938 138.59375 166.171875 C 141.132812 165.429688 143.28125 165.742188 146.875 167.421875 C 151.09375 169.375 158.203125 168.984375 165.390625 166.367188 C 169.453125 164.921875 172.890625 162.773438 175.898438 159.84375 C 178.007812 157.773438 180.859375 153.75 180.859375 152.8125 C 180.859375 152.578125 178.90625 153.632812 176.484375 155.15625 C 169.570312 159.53125 168.59375 159.84375 160.742188 160.117188 C 154.570312 160.351562 153.945312 160.429688 151.796875 161.445312 C 149.726562 162.421875 146.953125 162.851562 146.40625 162.265625 C 146.25 162.148438 146.875 161.40625 147.773438 160.625 C 149.960938 158.632812 152.851562 154.101562 154.257812 150.390625 C 155.625 146.914062 157.96875 138.710938 157.734375 138.4375 C 157.617188 138.359375 155.273438 140.625 152.5 143.476562 Z M 152.5 143.476562 "/>
<path style=" stroke:none;fill-rule:nonzero;fill:rgb(0%,0%,0%);fill-opacity:1;" d="M 43.359375 139.140625 C 43.359375 140.039062 45.234375 146.601562 46.289062 149.414062 C 47.929688 153.789062 49.882812 157.03125 52.460938 159.648438 C 54.375 161.640625 54.726562 162.109375 54.101562 162.1875 C 52.460938 162.304688 50.859375 161.992188 48.046875 161.054688 C 45.664062 160.234375 43.984375 160 38.867188 159.726562 C 35.351562 159.570312 31.796875 159.179688 30.78125 158.867188 C 28.476562 158.125 24.6875 156.054688 21.5625 153.75 C 20.234375 152.773438 19.140625 152.070312 19.140625 152.1875 C 19.140625 152.578125 20.78125 154.804688 23.554688 158.164062 C 31.523438 167.734375 42.34375 170.78125 56.25 167.421875 C 59.257812 166.679688 61.445312 166.40625 64.453125 166.40625 L 68.554688 166.40625 L 66.757812 165.3125 C 65.742188 164.726562 63.867188 163.4375 62.539062 162.421875 C 60.429688 160.742188 59.921875 160.078125 57.96875 156.171875 C 55.46875 151.171875 53.476562 148.398438 49.257812 144.023438 C 45.742188 140.351562 43.359375 138.398438 43.359375 139.140625 Z M 43.359375 139.140625 "/>
<path style=" stroke:none;fill-rule:nonzero;fill:rgb(0%,0%,0%);fill-opacity:1;" d="M 78.125 168.164062 C 73.828125 168.789062 71.757812 169.257812 62.695312 171.679688 C 53.320312 174.21875 49.570312 174.726562 45.78125 174.0625 C 44.101562 173.75 41.640625 173.085938 40.273438 172.5 C 38.90625 171.953125 37.695312 171.5625 37.617188 171.640625 C 37.539062 171.71875 37.929688 172.34375 38.515625 173.007812 C 39.921875 174.6875 45.859375 177.5 50 178.476562 C 57.34375 180.234375 66.757812 180.234375 71.835938 178.515625 C 73.046875 178.125 76.40625 176.445312 79.296875 174.84375 C 85.273438 171.445312 88.125 170.429688 92.578125 170.078125 C 96.015625 169.765625 96.640625 170.195312 94.453125 171.328125 C 87.8125 174.6875 81.132812 179.140625 75.390625 183.945312 L 74.023438 185.117188 L 75.15625 186.289062 L 76.328125 187.5 L 80.429688 183.28125 C 84.804688 178.867188 88.007812 176.484375 93.28125 173.867188 C 96.953125 172.03125 100.117188 171.09375 101.796875 171.367188 C 103.515625 171.679688 109.53125 174.570312 113.476562 177.03125 C 117.578125 179.609375 121.054688 182.5 123.671875 185.625 L 125.546875 187.890625 L 126.445312 187.03125 C 126.953125 186.5625 127.34375 185.976562 127.34375 185.742188 C 127.34375 185.351562 119.648438 178.945312 115.234375 175.664062 C 114.0625 174.804688 110.9375 173.164062 106.640625 171.171875 C 105.820312 170.78125 106.328125 170.703125 109.414062 170.820312 C 112.851562 170.9375 113.398438 171.054688 116.445312 172.539062 C 118.28125 173.398438 121.328125 175.117188 123.28125 176.328125 C 125.195312 177.539062 127.65625 178.828125 128.710938 179.179688 C 134.921875 181.132812 152.070312 179.53125 158.75 176.367188 C 160.9375 175.351562 163.28125 173.4375 163.28125 172.734375 C 163.28125 172.5 162.070312 172.734375 160.46875 173.28125 C 158.945312 173.789062 156.132812 174.414062 154.257812 174.648438 C 148.90625 175.273438 144.492188 174.492188 131.5625 170.546875 C 124.726562 168.4375 120.703125 167.578125 117.890625 167.578125 C 115.859375 167.578125 108.59375 168.359375 102.539062 169.21875 C 99.765625 169.609375 98.671875 169.53125 92.382812 168.59375 C 84.570312 167.460938 83.476562 167.421875 78.125 168.164062 Z M 78.125 168.164062 "/>
</g>
</svg>
