<?xml version="1.0" standalone="no"?>
<!DOCTYPE svg PUBLIC "-//W3C//DTD SVG 20010904//EN"
 "http://www.w3.org/TR/2001/REC-SVG-20010904/DTD/svg10.dtd">
<svg version="1.0" xmlns="http://www.w3.org/2000/svg"
 width="927.000000pt" height="927.000000pt" viewBox="0 0 927.000000 927.000000"
 preserveAspectRatio="xMidYMid meet">

<g transform="translate(0.000000,927.000000) scale(0.100000,-0.100000)"
fill="#000000" stroke="none">
<path d="M4335 9258 c-170 -12 -455 -49 -605 -78 -25 -5 -61 -12 -80 -15 -19
-4 -44 -10 -55 -15 -11 -5 -33 -11 -50 -13 -49 -8 -215 -54 -321 -90 -55 -19
-119 -40 -144 -47 -25 -8 -49 -17 -55 -20 -5 -4 -44 -20 -85 -35 -41 -15 -113
-45 -158 -66 -46 -22 -86 -39 -88 -39 -9 0 -259 -128 -324 -165 -36 -21 -81
-46 -100 -57 -49 -28 -272 -177 -352 -235 -348 -251 -732 -628 -976 -957 -196
-265 -325 -473 -454 -736 -82 -166 -87 -177 -143 -315 -20 -49 -43 -103 -49
-120 -32 -75 -116 -345 -147 -467 -114 -461 -164 -940 -140 -1361 6 -117 16
-241 21 -277 5 -36 14 -103 20 -150 13 -98 37 -246 51 -307 29 -134 32 -145
60 -253 23 -91 106 -352 128 -405 5 -11 26 -63 46 -115 156 -394 397 -813 653
-1134 224 -281 536 -597 757 -766 39 -29 84 -66 101 -80 38 -33 408 -280 418
-280 5 0 21 -9 36 -20 51 -36 486 -260 506 -260 2 0 23 -9 47 -19 23 -11 87
-36 142 -56 55 -20 109 -41 120 -45 11 -5 38 -14 60 -21 22 -6 49 -15 60 -19
11 -4 38 -13 60 -19 22 -6 72 -19 110 -30 89 -25 264 -67 335 -80 30 -5 80
-15 110 -20 127 -24 388 -51 575 -60 212 -10 569 0 715 20 327 43 451 66 675
124 127 33 205 55 230 66 11 4 56 20 100 34 109 36 274 100 365 142 132 61
293 142 355 178 33 19 79 43 102 55 56 27 397 256 497 334 137 106 346 295
494 445 129 131 352 396 443 525 19 27 47 67 63 90 30 43 96 147 176 276 25
41 65 112 88 158 92 177 122 237 122 243 0 4 15 40 34 81 41 87 90 209 118
293 10 33 23 69 28 80 8 18 38 108 60 180 12 40 99 408 110 465 9 48 23 145
40 275 33 256 39 672 15 950 -32 368 -62 526 -175 940 -9 34 -89 267 -115 335
-26 70 -31 80 -64 153 -17 37 -31 71 -31 74 0 10 -182 367 -201 394 -10 15
-19 29 -19 32 0 12 -138 230 -186 294 -30 40 -54 75 -54 77 0 3 -18 29 -41 58
-22 29 -59 77 -81 107 -156 207 -534 594 -713 731 -18 14 -67 52 -110 85 -114
89 -445 315 -460 315 -2 0 -42 22 -88 50 -73 43 -266 139 -432 215 -58 27
-219 90 -285 111 -25 8 -54 19 -65 23 -50 22 -266 86 -370 110 -27 7 -66 16
-85 21 -36 9 -59 14 -145 31 -102 20 -154 28 -315 48 -344 42 -593 50 -885 29z
m2359 -1824 c172 -44 283 -152 357 -344 9 -22 14 -73 13 -142 -1 -103 -3 -109
-42 -190 -23 -45 -61 -106 -86 -134 -92 -105 -290 -178 -416 -153 -137 27
-210 62 -291 143 -63 63 -123 174 -134 249 -4 33 -13 52 -28 61 -12 8 -80 26
-152 41 -71 15 -148 31 -170 36 -22 5 -60 13 -85 18 -45 9 -354 74 -440 93
-124 27 -129 25 -141 -47 -3 -22 -16 -83 -27 -135 -11 -52 -23 -108 -27 -125
-3 -16 -11 -50 -16 -75 -5 -25 -14 -65 -19 -90 -5 -25 -13 -63 -18 -85 -5 -22
-22 -98 -37 -170 -33 -160 -42 -203 -55 -257 -5 -24 -14 -65 -20 -93 -5 -27
-14 -68 -19 -90 -5 -22 -16 -76 -25 -119 -8 -43 -18 -81 -20 -84 -3 -2 -1 -12
4 -22 7 -14 30 -18 127 -23 257 -14 584 -77 863 -167 52 -17 104 -34 115 -39
11 -5 56 -23 100 -41 191 -79 378 -177 517 -272 62 -42 61 -42 123 6 42 33 63
46 135 81 173 84 436 71 604 -30 32 -19 60 -35 63 -35 3 0 24 -16 48 -36 86
-70 215 -268 215 -329 0 -11 6 -27 12 -33 18 -18 17 -273 -1 -332 -50 -166
-155 -322 -270 -400 -105 -71 -100 -62 -90 -170 15 -150 -13 -367 -68 -529
-27 -81 -99 -234 -144 -306 -88 -141 -225 -303 -355 -417 -58 -51 -111 -95
-118 -98 -7 -3 -32 -21 -57 -41 -24 -20 -82 -60 -129 -89 -47 -29 -96 -60
-110 -69 -38 -26 -197 -105 -270 -136 -36 -15 -78 -33 -95 -40 -66 -28 -163
-62 -330 -114 -134 -42 -394 -92 -635 -123 -138 -17 -670 -17 -800 0 -221 30
-309 45 -520 92 -83 19 -322 93 -385 119 -11 5 -36 16 -55 24 -19 8 -60 25
-90 38 -94 39 -301 149 -377 200 -40 27 -75 49 -78 49 -12 0 -166 123 -254
203 -109 99 -301 317 -301 342 0 3 -13 25 -29 48 -44 64 -95 164 -131 258 -45
118 -65 192 -87 334 -7 46 -8 257 -1 333 3 31 -1 36 -42 59 -115 65 -215 169
-273 285 -64 128 -80 204 -74 348 7 167 60 299 165 413 53 59 144 137 158 137
3 0 18 8 32 19 46 31 143 63 239 76 78 11 106 11 175 0 46 -8 97 -18 113 -23
56 -17 159 -71 213 -112 29 -22 56 -40 60 -40 4 1 23 14 42 30 19 17 38 30 42
30 4 0 42 23 84 50 80 52 289 157 409 204 39 16 79 32 90 37 62 26 326 104
400 119 22 4 85 17 140 28 125 26 303 49 462 61 130 10 163 21 163 50 0 10 11
69 25 132 13 63 29 139 35 169 6 30 15 71 20 90 5 19 14 62 20 95 11 58 20
101 39 188 6 23 17 78 26 122 9 44 20 96 25 115 5 19 14 62 20 95 6 33 15 76
20 95 5 19 13 60 19 90 15 73 59 282 73 345 15 65 49 110 94 125 36 12 66 10
154 -10 25 -5 68 -15 95 -20 28 -6 69 -15 93 -20 62 -15 117 -26 207 -44 44
-9 100 -21 125 -27 62 -14 138 -30 278 -59 26 -5 87 -18 136 -28 100 -22 85
-28 156 65 36 47 113 107 180 141 82 41 213 52 314 26z"/>
<path d="M3515 4624 c-111 -26 -139 -38 -221 -94 -68 -48 -139 -145 -170 -235
-19 -57 -23 -250 -5 -268 6 -6 11 -19 11 -29 0 -22 53 -112 93 -158 34 -40
108 -95 152 -114 82 -36 105 -41 200 -41 100 0 125 6 215 49 49 23 190 151
190 172 0 7 9 29 21 48 48 82 61 202 33 309 -43 165 -142 271 -326 345 -30 12
-162 23 -193 16z"/>
<path d="M5650 4624 c-146 -26 -244 -85 -327 -198 -49 -66 -58 -84 -79 -164
-88 -333 234 -653 571 -567 90 23 141 53 215 125 144 141 185 348 104 526 -53
117 -180 226 -304 263 -42 12 -146 21 -180 15z"/>
<path d="M3539 3070 c-50 -27 -73 -77 -59 -129 16 -60 114 -144 247 -212 59
-31 117 -59 128 -62 11 -4 34 -12 50 -18 58 -20 251 -66 320 -77 39 -6 100
-16 136 -21 86 -14 492 -14 578 -1 240 38 304 52 426 92 243 81 455 234 455
330 0 41 -34 90 -73 105 -46 19 -72 10 -146 -51 -153 -126 -407 -213 -720
-247 -139 -15 -446 -7 -581 15 -181 30 -393 96 -470 145 -14 9 -37 23 -52 30
-14 8 -48 31 -74 53 -52 43 -96 68 -116 68 -7 -1 -29 -9 -49 -20z"/>
</g>
</svg>
