<?xml version="1.0" encoding="utf-8"?>
<!DOCTYPE svg PUBLIC "-//W3C//DTD SVG 20010904//EN" "http://www.w3.org/TR/2001/REC-SVG-20010904/DTD/svg10.dtd">
<svg version="1.0" xmlns="http://www.w3.org/2000/svg" width="2000px" height="2000px" viewBox="0 0 2000 2000" preserveAspectRatio="xMidYMid meet">
 <g fill="#55c645">
  <path d="M864.9 1796.6 c-14.5 -4.6 -21.2 -20.3 -14.4 -33.9 1.4 -2.8 3.5 -5.8 4.6 -6.8 2.4 -2 14.6 -8 24.4 -11.9 10.2 -4 43.6 -21.7 54 -28.4 17.3 -11.4 13.6 -8.8 33.5 -23.6 14 -10.5 35.9 -31 48 -45 3.6 -4.1 7.2 -8.2 8.1 -9 4.5 -4.3 30.9 -41.1 30.9 -43.1 0 -0.4 0.4 -0.9 0.8 -1.1 3.3 -1.4 23.7 -40.7 32.2 -62.3 2.9 -7.1 5.5 -13.9 6 -15 0.4 -1.1 2 -6 3.5 -11 1.5 -4.9 3.1 -9.9 3.6 -11 1.3 -3.4 2.8 -8.8 4 -14.5 0.6 -3 1.5 -7.1 1.9 -9 3.1 -12.9 4.2 -18.5 5.1 -26 0.6 -4.7 1.5 -11.6 2 -15.5 2.9 -23 2.9 -66.6 0 -87.5 -0.6 -3.6 -1.4 -10.5 -2 -15.3 -0.9 -8.1 -1.8 -13.3 -4.1 -22.7 -0.5 -1.9 -1.4 -6 -2.1 -9 -1.6 -7.7 -3.8 -16.1 -4.8 -18.5 -0.5 -1.1 -2.1 -6 -3.6 -11 -1.5 -4.9 -3.1 -9.9 -3.5 -11 -0.5 -1.1 -1.6 -4.2 -2.6 -7 -1 -2.7 -2 -5.4 -2.4 -6 -0.3 -0.5 -1.9 -4.1 -3.4 -8 -3.7 -9.3 -21.5 -44.9 -24.3 -48.3 -2.9 -3.6 -3.7 -2.4 -2 2.9 3.2 9.8 5.6 18.8 7.2 26.4 0.9 4.4 2 9.4 2.4 11 0.5 1.7 1.6 7.1 2.5 12 1 5 2.1 11.2 2.6 13.8 0.6 2.7 1 6.6 1 8.7 0 2.1 0.4 5 0.9 6.3 0.5 1.4 1.7 13.9 2.5 27.9 1.4 22.8 1.4 27.8 0.1 50.3 -0.9 13.8 -2 26.3 -2.5 27.9 -0.6 1.6 -1 4.6 -1 6.7 0 2 -0.4 5.9 -1 8.6 -0.5 2.6 -1.6 8.9 -2.6 13.8 -0.9 5 -2 10.4 -2.5 12 -0.4 1.7 -1.5 6.6 -2.4 11 -1.7 8.2 -3.1 13.4 -4.6 17 -0.4 1.1 -1.5 4.7 -2.5 8 -0.9 3.3 -2 6.8 -2.5 7.7 -0.5 1 -0.9 2.5 -0.9 3.3 0 0.8 -0.4 2.3 -0.9 3.3 -0.4 0.9 -3.7 8.9 -7.1 17.7 -6.2 15.8 -15.3 35.3 -22.8 49 -2.1 3.9 -4.7 8.6 -5.8 10.5 -1.1 1.9 -3.4 5.6 -5.2 8.2 -1.7 2.6 -3.2 5 -3.2 5.4 0 0.4 -1.1 2.2 -2.5 4 -1.4 1.8 -2.5 3.7 -2.5 4.2 0 0.6 -0.4 1.2 -0.8 1.4 -0.4 0.2 -1.8 2 -3.1 4.1 -1.9 3 -9.8 13.7 -15.9 21.2 -0.4 0.6 -2.1 2.8 -3.7 5 -1.7 2.2 -4.8 6 -7 8.5 -6.9 7.6 -18.5 20.2 -24.5 26.5 -6 6.4 -29.3 27.5 -34 31 -6.2 4.5 -14.5 10.9 -15 11.5 -0.3 0.3 -3 2.3 -6 4.5 -3 2.2 -5.7 4.2 -6 4.5 -0.3 0.3 -1.3 1 -2.2 1.5 -0.9 0.6 -7.7 4.8 -15 9.5 -11.9 7.6 -45.9 25.6 -54.8 29 -3.4 1.2 -5.5 2.1 -13.7 5.6 -7.5 3.1 -8.8 3.6 -10.3 4.3 -0.8 0.4 -5.5 2 -10.5 3.5 -4.9 1.6 -9.9 3.2 -11 3.6 -3.6 1.4 -15.9 5.2 -19.5 6.1 -1.9 0.4 -6.9 1.5 -11 2.4 -4.1 0.9 -9.2 2.1 -11.2 2.6 -12.1 2.9 -11.4 2.8 -42.3 7 -7.9 1 -11.7 0.6 -17.8 -2 -6.5 -2.8 -8 -4.6 -12.8 -14.3 -0.5 -1 -0.9 -4.3 -0.9 -7.3 0 -10.7 7 -20 17.3 -23 5 -1.4 8.8 -2 27.7 -4.5 6 -0.8 17.7 -3 26 -5.1 1.9 -0.4 4.9 -1.1 6.5 -1.4 3.5 -0.8 19.1 -5.3 22 -6.5 1.1 -0.4 5.8 -2 10.5 -3.5 4.7 -1.4 9.9 -3.3 11.7 -4.1 1.7 -0.8 3.4 -1.4 3.7 -1.4 0.3 0 2.5 -0.8 4.9 -1.9 2.3 -1 7.4 -3.1 11.2 -4.7 3.9 -1.5 7.5 -3.1 8 -3.5 0.6 -0.4 7.3 -3.9 15 -7.8 13 -6.7 42.5 -24.7 47 -28.8 1.1 -1 6.3 -5 11.5 -9 5.2 -4 11.1 -8.7 13 -10.5 2 -1.8 6.9 -6.3 11 -9.9 12 -10.7 22.6 -21.5 29.9 -30.4 1.3 -1.7 4 -4.8 6 -7.1 2 -2.2 4.5 -5.3 5.6 -6.9 1.1 -1.6 3.5 -4.7 5.3 -6.9 1.8 -2.3 4.5 -5.7 6 -7.6 10.9 -13.5 34.1 -54.8 42.2 -75 2.3 -5.8 5 -12.3 6 -14.5 3.6 -8.3 12.8 -38.7 15.5 -51.5 0.9 -4.1 2 -9.3 2.5 -11.5 2.2 -9.9 3 -14.9 4.4 -27.5 4.1 -36.8 4.1 -60.4 0 -97 -1.5 -13.5 -2.8 -21.4 -4.4 -28 -0.5 -1.9 -1.6 -7.1 -2.5 -11.5 -2.1 -10.2 -3.5 -15.6 -4.6 -17.7 -0.5 -1 -0.9 -2.7 -0.9 -3.8 0 -1.1 -0.4 -2 -1 -2 -0.6 0 -1 9.4 -1 26.3 0 24.4 -0.9 40.1 -3 52.2 -0.5 2.8 -1.6 10.7 -2.5 17.7 -0.9 7 -2 14 -2.5 15.5 -0.5 1.5 -1.6 6.4 -2.5 10.8 -0.9 4.4 -2 9.6 -2.5 11.5 -1.9 7.9 -12.3 40.9 -13.9 44.5 -2.6 5.9 -4.1 9.4 -4.1 9.9 0 0.3 -1.3 3.5 -3 7.1 -1.6 3.6 -3 6.8 -3 7.1 0 0.6 -2.6 6.8 -4 9.5 -0.4 0.9 -4.7 9.2 -9.5 18.5 -4.8 9.3 -11.8 21.5 -15.6 27.2 -3.8 5.6 -6.9 10.5 -6.9 10.7 0 0.6 -12.1 17.8 -13 18.5 -0.3 0.3 -1.9 2.3 -3.6 4.5 -5.8 8 -14.9 19.1 -20 24.5 -2.8 3 -6.6 7.3 -8.5 9.5 -7.3 8.7 -33.2 33.2 -42.4 40 -2.2 1.6 -4.7 3.5 -5.5 4.2 -4.8 4 -25.4 19.2 -28.3 20.8 -3 1.7 -11 6.7 -20.5 12.7 -3.5 2.2 -5.6 3.4 -17.7 9.8 -20 10.6 -31 16 -32.8 16 -0.4 0 -3 1.1 -5.9 2.4 -12.2 5.5 -16.8 7.2 -34.8 12.6 -4.1 1.3 -10.2 3.1 -13.5 4.2 -3.3 1 -8 2.4 -10.5 2.9 -8.8 2 -12.6 2.8 -19.5 4.4 -15.9 3.7 -16.8 3.8 -41 6.4 -19 2 -37.1 3.1 -50.2 3.1 -14.1 0 -46.6 -2.3 -55.3 -4 -2.9 -0.5 -7 -1 -9.1 -1 -3.8 0 -4.8 -0.3 -12.4 -3.4 -4.2 -1.8 -9.5 -8.3 -11.6 -14.5 -1.4 -3.8 -0.6 -13.5 1.3 -17.3 2.2 -4.2 6.4 -8.6 10.5 -11 3.4 -2.1 5 -2.3 15.6 -2.2 6.5 0.1 13.7 0.6 16 1.2 13.1 3.3 67.2 4.1 86.7 1.3 3.6 -0.5 11.5 -1.6 17.5 -2.5 10.2 -1.4 13.1 -2 24.8 -4.5 2.3 -0.5 7.4 -1.6 11.2 -2.5 3.9 -0.8 11.3 -2.8 16.5 -4.5 5.2 -1.7 10.1 -3.1 10.8 -3.1 0.7 0 2 -0.4 3 -0.9 0.9 -0.5 3.5 -1.4 5.7 -2.1 13.6 -4.1 50.6 -21 64.5 -29.4 1.9 -1.1 4.3 -2.5 5.2 -3.1 9.6 -5.5 16.8 -10.1 16.8 -10.7 0 -0.5 0.6 -0.8 1.3 -0.8 1.4 0 25.8 -18.2 35.2 -26.3 8.1 -6.9 37.8 -36.7 44.4 -44.4 2.9 -3.4 8.3 -10.1 11.9 -15 3.7 -4.8 7.5 -9.7 8.5 -10.8 4.5 -5 22.9 -35.5 30.2 -50 8.2 -16.3 12.5 -25.7 16.5 -36.5 0.7 -1.9 1.6 -3.9 2 -4.5 0.4 -0.5 1.9 -5 3.5 -10 1.5 -4.9 3.1 -9.9 3.5 -11 1.8 -4.6 5.2 -16.3 6 -20.5 0.5 -2.5 1.3 -6.3 1.9 -8.5 3.7 -15.6 4.4 -19.6 7.6 -45.5 1.9 -16.2 3.2 -53 1.8 -53 -0.6 0 -1.4 1.2 -1.7 2.8 -2.2 8.9 -2.8 11.3 -8.6 31.7 -0.4 1.7 -2 6.8 -3.5 11.5 -1.5 4.7 -2.9 9.4 -3.2 10.5 -0.3 1.1 -1.1 3.4 -1.9 5.2 -0.8 1.7 -1.4 3.4 -1.4 3.7 0 0.3 -1 2.8 -2.1 5.4 -4.1 9.2 -4.9 11 -4.9 11.6 0 1.7 -13.9 30.3 -21.4 44.1 -2.4 4.4 -8.4 14.4 -13.4 22.1 -8 12.7 -12 18.4 -20.2 28.9 -1.4 1.7 -4.7 6 -7.3 9.5 -12.3 16.3 -47.7 52 -64.3 65 -1.1 0.8 -3.7 2.8 -5.9 4.5 -2.2 1.6 -4.4 3.3 -5 3.7 -11.1 8.8 -18.3 13.9 -26.8 19 -5.6 3.4 -10.3 6.5 -10.5 7 -0.2 0.4 -0.8 0.8 -1.3 0.8 -0.5 0 -2.8 1.2 -5 2.6 -9.2 5.8 -46 24.4 -48.3 24.4 -0.3 0 -3 1.1 -6 2.5 -3 1.4 -5.7 2.5 -6 2.5 -0.4 0 -2.8 0.9 -5.4 2.1 -7.8 3.5 -8.3 3.7 -18.7 6.9 -5.5 1.8 -13.6 4.3 -18 5.7 -4.4 1.4 -9.8 2.9 -12 3.3 -2.2 0.4 -7.4 1.6 -11.5 2.5 -14.3 3.1 -16.5 3.6 -25.5 5.1 -25.4 4.2 -44.2 5.7 -70.5 5.8 -23.1 0.1 -40.7 -0.8 -49.5 -2.4 -2.7 -0.5 -10.8 -1.6 -18 -2.5 -7.1 -0.9 -14.6 -2 -16.5 -2.5 -3.6 -0.9 -11.8 -2.8 -22.5 -5 -3.3 -0.7 -7.8 -1.8 -10 -2.5 -2.2 -0.7 -7.4 -2.3 -11.5 -3.5 -4.1 -1.2 -8.4 -2.6 -9.5 -3 -1.1 -0.5 -4.5 -1.6 -7.5 -2.5 -3 -0.9 -6.4 -2 -7.5 -2.5 -1.1 -0.4 -3.6 -1.4 -5.5 -2.2 -1.9 -0.8 -5.1 -2.1 -7 -2.8 -1.9 -0.7 -5.3 -2 -7.5 -3 -2.2 -1 -5.1 -2.1 -6.5 -2.5 -4.6 -1.4 -10.9 -6.5 -13.3 -10.8 -3.5 -6.1 -5.2 -13 -3.8 -15.5 0.6 -1.1 1.1 -3.1 1.1 -4.4 0.1 -2.8 4.7 -9.1 9.1 -12.4 1.8 -1.3 5.6 -3 8.5 -3.9 4.6 -1.3 5.9 -1.3 10.6 -0.1 5.2 1.4 9.4 2.8 13.3 4.5 9 4 11.3 4.9 13.5 5.6 1.4 0.4 3 1.1 3.5 1.5 0.6 0.4 3.7 1.5 7 2.5 3.3 0.9 10 3.1 15 4.6 4.9 1.6 12.1 3.6 16 4.5 8 1.8 12.3 2.8 18 4.3 4 1 12.7 2.6 23.5 4.1 3 0.4 9.3 1.3 14 2.1 5.7 0.8 19.5 1.2 41.5 1.2 22 0 35.8 -0.4 41.5 -1.2 4.7 -0.8 11 -1.7 14 -2.1 13.3 -1.9 20.7 -3.3 32 -6 1.9 -0.5 5.8 -1.4 8.5 -2 6 -1.4 14.2 -3.8 17 -5 1.1 -0.4 4.7 -1.5 8 -2.5 3.3 -0.9 6.8 -2 7.7 -2.6 1 -0.5 2.6 -0.9 3.6 -0.9 1 0 2.2 -0.4 2.8 -0.9 0.5 -0.4 7.2 -3.2 14.9 -6.2 7.7 -2.9 15.8 -6.3 18 -7.5 2.2 -1.1 7.6 -4 12 -6.4 15.5 -8.3 19 -10.3 31.4 -18.3 12.9 -8.2 17.3 -11.2 22.6 -15.7 1.7 -1.4 4.4 -3.4 5.9 -4.5 13.9 -9.7 48.5 -43.1 60.3 -58 15.8 -20 28.6 -37.9 30.2 -42 0.2 -0.5 0.7 -1.2 1 -1.5 3.6 -3 30.1 -54.9 30.1 -59 0 -0.6 0.4 -1.8 1 -2.8 1.9 -3.3 6 -13.5 6 -14.8 0 -0.8 0.4 -2.2 0.9 -3.2 0.5 -0.9 2.1 -5.7 3.6 -10.7 1.5 -4.9 3.1 -9.9 3.5 -11 1.6 -4.2 3.1 -10.7 2.6 -11.3 -0.3 -0.3 -0.1 -1.1 0.5 -1.9 0.6 -0.7 0.7 -1.3 0.2 -1.3 -0.9 0 -4.5 5.7 -10.2 16.3 -6.6 12 -29.4 46.2 -36.8 55.2 -0.5 0.6 -2.2 2.8 -3.8 5 -4.7 6.3 -13.9 16.6 -30.4 34 -7.6 7.9 -28.1 26.5 -35.6 32.1 -2.7 2.1 -5.2 4 -5.5 4.3 -0.3 0.4 -2.3 1.9 -4.5 3.6 -2.2 1.6 -4.5 3.4 -5.1 4 -3.9 3.8 -37.1 25.3 -47.2 30.7 -13.2 6.9 -34.9 17.8 -35.6 17.8 -0.3 0 -2.8 1 -5.4 2.1 -2.6 1.2 -6.3 2.8 -8.2 3.6 -1.9 0.8 -4.5 1.9 -5.7 2.4 -1.3 0.5 -3.3 1.4 -4.5 1.9 -2.6 1.2 -20.5 6.9 -29.3 9.5 -3.3 0.9 -6.9 2.1 -8 2.5 -2.3 0.9 -8.8 2.6 -16 4.1 -2.7 0.5 -6.6 1.4 -8.5 1.9 -10.2 2.5 -18.4 4.1 -26 5.1 -4.7 0.6 -11.6 1.5 -15.5 2 -3.8 0.5 -17.2 1.4 -29.6 2 -22.8 1.2 -57.5 0.2 -74.4 -2 -3.8 -0.5 -10.8 -1.4 -15.5 -2 -8.2 -1 -14.8 -2.2 -22 -4.1 -1.9 -0.5 -6.6 -1.6 -10.5 -2.5 -11.8 -2.6 -15.9 -3.7 -18 -4.5 -1.1 -0.4 -4.7 -1.6 -8 -2.5 -10.6 -3 -31.9 -10.3 -35 -11.9 -1.6 -0.9 -3.3 -1.6 -3.8 -1.6 -0.4 0 -2.6 -0.9 -5 -1.9 -2.3 -1 -5.8 -2.5 -7.7 -3.2 -6.2 -2.5 -44.3 -22.2 -46 -23.9 -0.7 -0.7 -4.3 -2.9 -6 -3.7 -0.8 -0.4 -1.7 -0.9 -2 -1.3 -0.3 -0.3 -3.6 -2.5 -7.5 -4.8 -9.9 -6 -10.9 -6.6 -11.5 -7.2 -0.3 -0.3 -7 -5.4 -15 -11.4 -16.2 -12.3 -16.3 -12.3 -19.2 -18.6 -9 -19.3 10.5 -40 30.4 -32.4 3.4 1.4 21.7 14 23.8 16.5 0.8 0.9 14.9 10.9 15.5 10.9 0.2 0 4.2 2.4 8.7 5.3 8.5 5.5 12.8 8 28.3 16.2 5 2.6 9.5 5.1 10 5.5 0.6 0.4 2.6 1.3 4.5 2 1.9 0.7 5.9 2.4 8.8 3.7 2.9 1.2 5.5 2.3 5.8 2.3 0.6 0 2.4 0.7 11.5 4.8 2.5 1.1 6.2 2.4 8.2 2.7 2.1 0.4 4 1.1 4.3 1.6 0.3 0.5 1.4 0.9 2.5 0.9 1 0 2.7 0.4 3.7 0.9 2.4 1.3 15 5.2 19.7 6.2 2.2 0.4 5.8 1.2 8 1.8 16.1 3.8 21.8 4.9 42.5 7.7 19.6 2.7 77.4 2.7 97 0 17.8 -2.4 22.1 -3.1 31 -5.1 12.4 -2.8 21 -4.9 27.5 -6.8 7.6 -2.3 24.7 -7.8 27 -8.7 1.1 -0.4 4.1 -1.7 6.7 -2.9 2.6 -1.2 5.1 -2.1 5.4 -2.1 0.3 0 2 -0.6 3.7 -1.4 1.8 -0.8 4.8 -2 6.6 -2.7 6.6 -2.6 40.3 -19.8 43.5 -22.2 1.7 -1.3 3.6 -2.6 4.1 -2.8 1.7 -0.7 24 -15.5 25.5 -17 0.8 -0.8 5.3 -4.3 10 -7.8 11.8 -8.7 21 -17 38.6 -34.6 14.1 -14.1 23.7 -24.6 25.8 -28.4 0.6 -0.9 2.2 -2.9 3.8 -4.6 1.5 -1.6 2.8 -3.3 2.8 -3.7 0 -0.4 0.6 -1.3 1.3 -2 3.6 -3.9 9.2 -11.7 16.9 -23.9 10.8 -16.9 14.1 -22.9 13.3 -23.7 -0.3 -0.3 -6.5 5.3 -13.8 12.5 -7.3 7.3 -15.6 15.3 -18.6 18 -3 2.6 -6.7 6 -8.3 7.5 -1.6 1.5 -7.3 6 -12.6 10 -5.3 4 -9.9 7.5 -10.2 7.8 -0.3 0.3 -2.3 1.8 -4.5 3.5 -2.2 1.6 -4.2 3.2 -4.5 3.5 -1.1 1.3 -34.5 22.3 -41.4 25.9 -13.9 7.5 -35.3 18.1 -36.3 18.1 -0.5 0 -2.3 0.6 -3.9 1.4 -4.8 2.4 -22.6 9.7 -26.9 11 -2.2 0.7 -8 2.5 -13 4.1 -4.9 1.5 -9.9 3.1 -11 3.5 -4.9 1.8 -15.3 4.5 -24.5 6.4 -1.4 0.2 -5.6 1.2 -9.5 2.1 -12.2 2.8 -20.9 4.2 -45.5 7.1 -19.9 2.3 -65.9 2.3 -85.5 0 -7.7 -0.9 -16 -1.8 -18.5 -2.1 -2.5 -0.3 -6.7 -0.9 -9.5 -1.5 -11.7 -2.1 -22.2 -4.2 -25.5 -5 -1.9 -0.5 -6 -1.4 -9 -2.1 -6.6 -1.4 -15.7 -3.8 -18.5 -4.9 -1.1 -0.4 -4.7 -1.6 -8 -2.5 -3.3 -1 -6.9 -2.1 -8 -2.5 -1.1 -0.4 -3.8 -1.3 -6 -1.9 -7.2 -2.2 -40.4 -16.2 -48.8 -20.6 -21.1 -10.9 -27.3 -14.4 -42.2 -23.8 -8.8 -5.6 -19 -12.4 -22.6 -15.2 -3.6 -2.7 -10.1 -7.7 -14.5 -11 -17.1 -13 -49.7 -44.9 -64.2 -63 -3.1 -3.8 -6 -7.1 -6.4 -7.3 -0.4 -0.2 -0.8 -1 -0.8 -1.7 0 -0.8 -0.6 -1.8 -1.2 -2.2 -0.7 -0.4 -3.9 -4.2 -7 -8.3 -5.9 -7.9 -8.8 -14.3 -8.8 -19.8 0 -5 5.1 -15.3 9.1 -18.2 1.9 -1.4 3.6 -2.5 3.9 -2.5 0.3 -0.1 2.9 -0.9 5.8 -1.9 5.1 -1.7 5.7 -1.7 11.5 -0.1 3.3 0.9 7.1 2.4 8.3 3.1 1.2 0.8 5.9 6.2 10.5 12 4.6 5.9 8.9 11.1 9.4 11.8 0.6 0.6 2 2.4 3.2 3.9 11.3 14.6 40.1 42.9 56.8 55.7 4.4 3.3 9.1 7 10.5 8.1 4.2 3.5 20.3 14.5 24 16.5 1.9 1 3.7 2.1 4 2.4 2.5 2.6 34.9 19.7 45.5 24 1.1 0.4 4.6 2 7.8 3.4 3.2 1.4 6.1 2.6 6.5 2.6 0.5 0 2.6 0.8 4.8 1.9 2.1 1 6.4 2.6 9.4 3.6 3 1 6.4 2.1 7.5 2.5 1.1 0.4 6.1 2 11 3.5 5 1.5 10.1 3.1 11.5 3.5 1.4 0.4 6.3 1.5 11 2.5 4.7 0.9 9.9 2 11.6 2.6 1.7 0.5 3.9 0.9 4.9 0.9 1 0 3.2 0.4 4.9 0.9 3.2 1 21.4 3.2 42.6 5.2 13.4 1.3 46.5 0.7 63 -1 12.9 -1.4 30.5 -3.8 36 -5 2.5 -0.5 6.8 -1.5 9.5 -2 8.4 -1.8 19.6 -4.6 24.5 -6.1 1.4 -0.5 5.2 -1.6 8.5 -2.5 3.3 -0.9 6.9 -2 8 -2.5 1.1 -0.4 4.5 -1.5 7.5 -2.5 3 -1 7.3 -2.6 9.5 -3.6 2.2 -1 5.8 -2.5 8 -3.4 9.3 -3.7 12.9 -5.4 29.5 -13.8 14.2 -7.3 46 -26.2 48 -28.6 0.3 -0.3 2.3 -2 4.5 -3.6 2.2 -1.6 4.7 -3.5 5.5 -4.2 0.8 -0.6 4.9 -3.9 9.1 -7.2 12.9 -10.3 35.9 -32 35.9 -34 0 -0.6 -1.8 0 -4 1.4 -2.2 1.4 -4.2 2.5 -4.6 2.5 -0.3 0 -1.8 0.8 -3.2 1.9 -3 2.1 -16.3 9.4 -26.2 14.3 -3.6 1.8 -6.7 3.5 -7 3.8 -1 1 -20.4 10 -21.6 10 -0.3 0 -2.2 0.7 -4.2 1.6 -8.5 3.8 -10 4.4 -10.6 4.4 -0.3 0 -2.5 0.8 -4.9 1.9 -2.3 1 -8.2 3.1 -13.2 4.6 -4.9 1.5 -9.9 3.1 -11 3.5 -1.1 0.5 -2.9 1.1 -4 1.3 -1.1 0.3 -4.5 1.3 -7.5 2.2 -3 0.9 -7.3 2.1 -9.5 2.5 -7.3 1.6 -19 4.2 -23 5.2 -17.8 4.3 -58.7 8.2 -85.5 8.2 -26 0 -69.8 -4.2 -86.5 -8.2 -4.4 -1.1 -16.8 -3.9 -23 -5.2 -6.5 -1.3 -37.9 -11.3 -44 -14 -2.2 -1 -8.7 -3.6 -14.5 -5.9 -10.1 -4.1 -33.1 -15.1 -47.5 -22.9 -10.7 -5.8 -37.9 -23.2 -43.1 -27.5 -1 -0.9 -6.4 -5.1 -11.9 -9.3 -8.7 -6.6 -20.4 -16.9 -38 -33.4 -8.3 -7.7 -27.7 -29.3 -33 -36.5 -1.6 -2.2 -3.1 -4.2 -3.5 -4.5 -1.5 -1.4 -16.4 -21.7 -17.3 -23.7 -0.5 -1.3 -1.4 -2.3 -1.9 -2.3 -0.4 0 -0.8 -0.4 -0.8 -1 0 -0.5 -1.3 -2.9 -2.9 -5.2 -6.6 -9.8 -13.1 -20.1 -13.1 -21 0 -0.5 -2.8 -5.9 -6.3 -12.1 -6.4 -11.4 -12.7 -23.9 -12.7 -25.4 0 -0.4 -1.1 -3 -2.5 -5.7 -1.4 -2.7 -2.5 -5.3 -2.5 -5.7 0 -0.5 -1.1 -3.2 -2.4 -6.1 -4.2 -9.6 -4.6 -10.8 -4.6 -16.4 0 -9.7 5.2 -17.7 14.3 -22.4 6.6 -3.3 19.9 -1 26.3 4.6 2.3 2.1 6.2 8.8 8.7 15.1 0.9 2.3 2.6 6.4 3.8 9 1.2 2.6 2.8 6.4 3.6 8.3 2 4.6 14.9 30.2 17.1 33.9 2.4 4.1 17.5 27.4 18.5 28.6 0.4 0.6 3.3 4.4 6.3 8.5 3 4.1 6 8.2 6.7 9 0.7 0.9 2.5 3.3 4.2 5.5 6.8 9.2 30.1 33.3 42.5 44.1 2.5 2.1 5.2 4.6 6 5.4 3.8 3.9 31.2 24.4 43.5 32.4 23.6 15.5 60.9 33 89.5 42.2 6.3 2 12.2 4 13 4.4 0.8 0.4 4.9 1.4 9 2.4 4.1 0.9 9.1 2.1 11 2.6 11.6 2.8 22.1 4.8 32.5 6 3.9 0.5 11.1 1.4 16 2.1 12 1.6 67 1.6 79 0 5 -0.7 12.2 -1.6 16 -2.1 9.7 -1.2 21.7 -3.4 39 -7.5 3.9 -0.8 8.2 -1.8 9.8 -2.2 1.5 -0.3 3 -1 3.3 -1.4 0.3 -0.5 1.4 -0.9 2.5 -0.9 1 0 2.7 -0.4 3.7 -0.9 0.9 -0.5 4.4 -1.6 7.7 -2.6 3.3 -0.9 6.9 -2.1 8 -2.5 1.1 -0.4 3.6 -1.4 5.5 -2 4.3 -1.6 8.1 -3.1 14.2 -5.9 2.6 -1.1 5.1 -2.1 5.4 -2.1 0.9 0 35.7 -17.3 41.8 -20.8 6.2 -3.5 7.3 -5.7 2.5 -4.7 -1.9 0.3 -4.3 1 -5.4 1.5 -3.1 1.3 -12.3 3.9 -20 5.6 -17.8 4 -30.4 6.5 -37 7.4 -3.3 0.5 -9.4 1.3 -13.5 1.9 -4.1 0.6 -10.9 1.5 -15 2 -9.5 1.3 -73 1.3 -83.2 0 -7.3 -0.8 -13.3 -1.6 -28.8 -3.8 -5.8 -0.8 -9.6 -1.6 -25.5 -5.1 -2.2 -0.5 -6.5 -1.4 -9.5 -2 -7.9 -1.6 -45.9 -13.5 -52.5 -16.5 -1.6 -0.7 -8.6 -3.6 -15.5 -6.5 -14.3 -5.9 -13 -5.3 -31.5 -15 -15.9 -8.3 -42.4 -24.7 -53.5 -33.2 -4.1 -3.1 -11.1 -8.4 -15.5 -11.8 -4.4 -3.3 -12.9 -10.7 -18.9 -16.3 -6 -5.6 -12.3 -11.3 -14 -12.7 -6.2 -4.9 -32.9 -35.1 -42 -47.5 -1.7 -2.2 -3.3 -4.2 -3.6 -4.5 -0.3 -0.3 -2.3 -3 -4.5 -6 -2.2 -3 -4.2 -5.7 -4.5 -6 -2.4 -2.1 -22.1 -35.3 -28 -47 -4 -8 -7.6 -14.9 -8 -15.5 -0.4 -0.5 -1.4 -2.9 -2.3 -5.2 -0.9 -2.3 -2.5 -6.1 -3.6 -8.5 -4.1 -9.4 -10.1 -24.7 -12.1 -31.3 -1.2 -3.9 -2.5 -7.9 -3 -9 -0.4 -1.1 -1.5 -4.7 -2.5 -8 -0.9 -3.3 -2.1 -6.9 -2.5 -8 -1.3 -3.2 -3.8 -14 -5.6 -24 -0.3 -1.6 -0.9 -3.9 -1.4 -5 -0.5 -1.1 -1.1 -3.6 -1.4 -5.5 -0.9 -5.1 -3.4 -22.8 -4.1 -28 -0.3 -2.5 -1.1 -6.9 -1.7 -9.8 -0.9 -4.1 -0.8 -6.1 0.2 -9.5 4 -12.5 12.3 -19 24 -19 7 0 11.9 2 17.3 7.1 4.7 4.4 6.1 9.2 9.2 30.7 1.6 11.1 2.4 15.7 4 23 2.7 12.5 4.8 21.1 7 28.5 0.9 3 2 6.9 2.5 8.5 6.4 22.9 17.8 49.5 33 77 3.5 6.4 21.8 34.9 23.7 37 1 1.1 5.1 6.3 9 11.5 4 5.2 8.7 11.1 10.5 13 1.8 1.9 6.9 7.5 11.3 12.5 8.3 9.3 20 20.7 25 24.7 1.7 1.2 4.8 3.9 7 5.9 7.7 7.1 33.8 26.9 35.4 26.9 0.5 0 1.1 0.4 1.3 0.8 0.5 1.5 19.8 13.3 30.8 19 5.8 3 12.3 6.4 14.5 7.6 5.7 3.2 35.5 15.4 45.5 18.6 18.3 6 24.8 7.9 32 9.5 4.1 0.9 9.1 2 11.1 2.6 2 0.5 4.8 0.9 6.2 0.9 1.4 0 2.8 0.4 3.1 0.9 0.3 0.4 2.9 1.1 5.8 1.5 2.9 0.3 10.5 1.3 16.8 2.1 10.8 1.5 42.7 3.8 51.5 3.8 15.6 0 53.6 -3.6 67.5 -6.3 9.3 -1.8 26.2 -5.5 32.5 -7.1 2.2 -0.6 5.2 -1.3 6.8 -1.6 6.8 -1.4 0.9 -2.1 -23 -2.7 -24.7 -0.6 -38 -1.5 -54.3 -3.5 -16.4 -2 -24.6 -3.2 -26 -3.8 -0.8 -0.3 -3.3 -0.9 -5.5 -1.3 -2.2 -0.5 -6.9 -1.6 -10.5 -2.5 -3.6 -0.9 -8.3 -2 -10.5 -2.5 -5.3 -1.2 -9.3 -2.3 -19.2 -5.4 -4.6 -1.4 -11.8 -3.7 -16.1 -5 -4.3 -1.3 -9.9 -3.3 -12.5 -4.5 -2.5 -1.2 -4.8 -2.1 -5.2 -2.1 -0.3 0 -2.7 -1 -5.3 -2.1 -5.1 -2.3 -8.7 -3.8 -14.2 -6 -3.6 -1.4 -15.2 -7.2 -30 -15.1 -8.9 -4.8 -40.3 -24.4 -45.5 -28.5 -3.9 -3 -4.3 -3.3 -9 -6.8 -2.2 -1.7 -4.2 -3.2 -4.5 -3.5 -0.3 -0.3 -3.2 -2.5 -6.5 -5 -10.9 -8 -36.3 -32.2 -51.8 -49.4 -7.5 -8.2 -32.7 -41 -32.7 -42.5 0 -0.4 -0.8 -1.6 -1.8 -2.7 -4.5 -4.9 -19.9 -30.8 -28.5 -47.9 -9.3 -18.6 -12.7 -25.7 -12.7 -26.9 0 -0.3 -1 -2.8 -2.1 -5.4 -1.2 -2.6 -2.8 -6.3 -3.6 -8.2 -0.8 -1.9 -1.8 -4.4 -2.3 -5.5 -1.2 -3 -2.6 -7.3 -4.5 -14 -0.9 -3.3 -2 -6.9 -2.5 -8 -0.5 -1.1 -1.1 -2.9 -1.3 -4 -0.3 -1.1 -1.3 -4.5 -2.2 -7.5 -1.7 -5.5 -2.8 -10.1 -4.5 -17.5 -2.3 -10 -4.2 -18.3 -5.1 -22 -0.5 -2.2 -1.4 -7.7 -1.8 -12.2 -0.5 -4.5 -1.2 -9.5 -1.5 -11 -3.1 -15 -4.9 -78.4 -2.7 -92.7 0.6 -3.4 1.7 -13.1 2.7 -21.6 2 -18.4 3.7 -22.9 11.2 -28.3 8.3 -6.2 16.2 -7 25.3 -2.9 4.8 2.2 6.4 3.7 9.9 9.6 4.2 7 4.3 13.2 0.9 37.6 -2.5 17.5 -2.5 67.4 0 85.5 0.5 3.9 1.4 11.1 2 16 1 8.2 1.5 11 4.1 21.5 0.5 1.9 1.6 7.1 2.6 11.5 1.7 8.1 7.8 28.6 9.5 31.7 0.5 1 0.9 2.6 0.9 3.6 0 1 0.4 2.2 0.8 2.8 0.4 0.5 1.4 2.7 2.1 4.9 0.7 2.2 2 5.6 2.8 7.5 2.1 4.9 3.8 8.9 5.3 13 0.8 1.9 5.2 10.9 9.9 20 4.6 9.1 8.9 17.5 9.5 18.7 0.6 1.3 1.4 2.3 1.9 2.3 0.4 0 0.7 0.5 0.7 1 0 0.6 0.8 2.3 1.8 3.8 1.1 1.5 5 7.4 8.7 13.2 5.8 8.9 17.6 25.3 19.5 27 0.3 0.3 1.8 2.3 3.5 4.5 4.1 5.7 10.7 12.7 28.5 30.5 13.4 13.5 21.8 20.8 39.5 34.5 2.1 1.7 5.2 4.2 6.9 5.6 1.7 1.4 3.6 2.8 4.1 3 0.6 0.2 6.2 3.8 12.5 8 6.3 4.1 13.1 8.4 15 9.5 1.9 1 3.7 2.1 4 2.4 0.6 0.6 31.7 16 34.5 17 1.1 0.5 4.1 1.7 6.7 2.9 2.6 1.2 5.1 2.1 5.4 2.1 0.3 0 2.2 0.7 4.2 1.6 6.8 3 7.7 3.3 16.7 5.9 5 1.5 9.9 3.1 11 3.5 1.1 0.5 3.1 1.1 4.5 1.4 1.4 0.4 5 1.4 8 2.2 3 0.9 7.3 2 9.5 2.4 2.2 0.5 6.9 1.6 10.5 2.5 12.8 3.1 17.9 3.9 39 6.3 14.1 1.7 50 2.5 50 1.2 0 -0.6 -0.6 -1.2 -1.2 -1.4 -2.4 -0.7 -10.3 -2.8 -13.8 -3.7 -6.4 -1.6 -15.5 -4.1 -17.5 -4.9 -2.3 -0.8 -6.3 -2 -15 -4.5 -3.3 -0.9 -6.9 -2.1 -8 -2.5 -1.1 -0.4 -4 -1.6 -6.5 -2.5 -2.5 -1 -6.3 -2.5 -8.5 -3.5 -2.2 -0.9 -7.1 -2.9 -11 -4.5 -9.3 -3.8 -44.7 -21.8 -50.1 -25.6 -2.3 -1.6 -4.6 -2.9 -5 -2.9 -0.4 0 -2.2 -1.1 -4 -2.5 -1.8 -1.4 -3.5 -2.5 -3.8 -2.5 -0.4 0 -2.8 -1.5 -5.4 -3.3 -2.6 -1.8 -5.4 -3.6 -6.2 -3.9 -2.1 -0.8 -33 -24.8 -40.8 -31.7 -16 -14.1 -43.4 -42.7 -53.3 -55.6 -2.9 -3.8 -5.7 -7.4 -6.1 -8 -11.6 -14.4 -28 -39.3 -36.6 -55.5 -7.1 -13.3 -16.2 -31.6 -16.2 -32.4 0 -0.5 -0.7 -2.4 -1.6 -4.4 -0.9 -2.1 -2 -4.6 -2.4 -5.7 -0.4 -1.1 -1.5 -3.6 -2.4 -5.7 -0.9 -2 -1.6 -3.9 -1.6 -4.2 0 -0.3 -0.9 -2.5 -1.9 -4.9 -1 -2.3 -3.8 -10.3 -6.1 -17.7 -2.3 -7.4 -5 -16 -6 -19 -1.6 -4.9 -2.4 -8.6 -6.2 -26.5 -0.6 -2.7 -1.4 -6.1 -1.8 -7.5 -0.5 -1.4 -1.6 -8.1 -2.5 -15 -0.9 -6.9 -2 -14.5 -2.5 -17 -2.4 -11.9 -3.2 -31.6 -2.6 -60 0.3 -16.2 1 -32.6 1.5 -36.5 0.5 -3.8 1.4 -11 2 -16 1.3 -10.4 5.1 -30.9 6.4 -34.5 0.3 -0.8 1.3 -5.1 2.2 -9.5 1 -4.4 2.5 -10.5 3.5 -13.5 1 -3 2.6 -8.2 3.5 -11.5 0.9 -3.3 2.1 -6.9 2.5 -8 0.5 -1.1 1.4 -3.8 2.1 -6 1.5 -5 8.6 -23.4 9.9 -25.7 0.6 -1 1 -2.2 1 -2.7 0 -0.5 1.4 -3.9 3 -7.5 3.2 -7 8.6 -12.3 13.3 -13.3 1.5 -0.3 3 -1 3.3 -1.4 0.7 -1.1 9.9 -1.2 12.2 0 0.9 0.4 3.4 1.6 5.5 2.6 2 1 3.7 2.2 3.7 2.7 0 0.4 0.6 0.8 1.3 0.8 0.8 0 2.7 2.3 4.2 5.2 2.4 4.3 2.8 6.3 2.8 12.2 0 6.9 -0.9 10 -6.2 22 -5.9 13.5 -16.4 45.5 -18.5 56.6 -0.2 1.4 -1.2 5.7 -2.1 9.5 -2.2 9.8 -3.6 17 -4.5 24 -0.5 3.3 -1.3 9.2 -1.8 13 -0.6 3.9 -1.6 15.6 -2.2 26 -1.2 19.4 -0.3 47.1 2.1 64 0.6 3.9 1.4 9.9 1.9 13.5 0.9 6.6 1.7 10.8 4.5 24 0.9 4.1 2 9.3 2.5 11.5 0.9 4.6 3.2 13 5.3 19.5 0.8 2.5 2.4 7.9 3.7 12 1.2 4.1 2.8 8.9 3.5 10.5 0.7 1.7 2.5 6.2 4.1 10 1.5 3.9 3.1 7.4 3.6 7.9 0.4 0.6 0.8 1.6 0.8 2.4 0 1.5 5.8 13.5 13.9 28.7 7.3 13.6 26.8 44.5 30.1 47.5 0.3 0.3 1.8 2.3 3.5 4.5 4.2 5.8 4 5.4 9.7 12.5 22.2 27.5 58.7 59.8 89.5 79.3 6.7 4.2 12.7 7.7 13.2 7.7 0.5 0 1.1 0.4 1.3 0.8 0.6 1.6 40.9 22.2 43.3 22.2 0.4 0 2.5 0.9 4.8 1.9 2.3 1 6 2.7 8.2 3.6 5.4 2.2 27.7 9.5 29.3 9.5 0.7 0 2 0.4 3 0.9 5.3 2.7 18 5.1 16.8 3.3 -0.4 -0.7 -1.4 -1.2 -2.2 -1.2 -0.8 0 -1.4 -0.4 -1.4 -0.9 0 -0.5 -0.8 -1.1 -1.7 -1.4 -4.2 -1.3 -36.5 -20.7 -41.8 -25 -0.5 -0.4 -3.1 -2.2 -5.7 -4 -11.3 -7.8 -32.1 -24.2 -41.3 -32.8 -2.7 -2.5 -7 -6.4 -9.5 -8.5 -2.4 -2.1 -6.5 -6.1 -9.1 -8.9 -14.2 -15.3 -21.8 -23.7 -26.8 -30 -3.1 -3.8 -5.8 -7.2 -6.1 -7.5 -0.3 -0.3 -1.8 -2.3 -3.5 -4.5 -1.6 -2.2 -3.3 -4.4 -3.8 -5 -9.3 -11.3 -27 -39.4 -36.3 -57.6 -4.4 -8.5 -8.1 -15.6 -8.4 -15.9 -0.3 -0.3 -3 -6.3 -5.9 -13.5 -2.9 -7.1 -6.1 -14.8 -7.1 -17 -1 -2.2 -2.6 -6.2 -3.5 -9 -1 -2.7 -2.1 -5.9 -2.5 -7 -0.4 -1.1 -2 -6 -3.5 -11 -1.4 -4.9 -3 -9.9 -3.4 -11 -1.5 -3.8 -3 -9 -4.1 -15 -0.7 -3.3 -1.6 -7.8 -2.1 -10 -0.6 -2.2 -1.4 -6.4 -2 -9.4 -0.5 -3 -1.2 -5.8 -1.5 -6.3 -0.3 -0.4 -1 -4.5 -1.5 -9.1 -0.5 -4.5 -1.4 -11.6 -1.9 -15.7 -4 -32.4 -4.1 -79.1 0 -110.5 2.2 -17.6 3 -22.5 4.5 -29.5 2.6 -11.9 3.3 -15 4.9 -22.5 1.4 -6.9 2 -9.1 3.6 -13 0.4 -1.1 1.6 -4.7 2.5 -8 1 -3.3 2.1 -6.8 2.6 -7.7 0.5 -1 0.9 -2.5 0.9 -3.3 0 -0.8 0.4 -2.3 0.9 -3.3 0.5 -0.9 3.2 -7.8 6.1 -15.2 2.8 -7.4 6 -15.4 7.1 -17.7 1 -2.4 1.9 -4.5 1.9 -4.9 0 -0.6 3.4 -7.4 13.2 -26.4 7.3 -14.1 24.2 -41 34.2 -54.5 3.7 -4.9 7.7 -10.3 8.9 -12 13.3 -18.1 34.7 -18.2 44.7 -0.1 5.8 10.5 3.2 18.8 -11.8 38.2 -9.7 12.5 -24.9 35.5 -30.4 45.9 -7.8 14.8 -12.2 23.5 -13.9 28 -1.2 2.8 -2.7 6.4 -3.4 8 -3.2 6.8 -9.4 23.8 -12.9 35 -2.1 6.6 -4.2 12.9 -4.6 14 -0.5 1.1 -1.1 3.1 -1.3 4.5 -0.3 1.4 -1.3 5.7 -2.2 9.5 -0.9 3.9 -2 9.3 -2.6 12 -0.5 2.8 -1.4 7 -1.9 9.5 -6.9 33.1 -7 97.9 -0.1 137 2.9 16.7 9.8 43.9 13 51.5 0.5 1.1 1.7 4.7 2.6 8 1 3.3 2.6 7.8 3.5 10 1 2.2 4.2 9.9 7 17 2.9 7.2 5.6 13.5 6.1 14 0.4 0.6 3.8 7.1 7.6 14.5 5.7 11.2 23.2 40.2 25.3 42 0.3 0.3 1.9 2.3 3.5 4.5 1.7 2.2 3.2 4.2 3.5 4.5 0.3 0.3 1.8 2.3 3.5 4.5 1.6 2.2 3.3 4.5 3.7 5 12.9 16.9 46.1 49.7 64.8 64 16.1 12.3 21.9 16.5 22.9 16.5 0.5 0 1.1 0.3 1.3 0.8 0.2 0.4 2.8 2.3 5.8 4.2 7.9 5.1 9.3 5.9 11.3 6.6 0.9 0.3 1.7 1 1.7 1.5 0 0.5 0.5 0.9 1 0.9 0.6 0 2.8 1.1 5 2.5 2.1 1.3 4.1 2.1 4.4 1.7 0.3 -0.5 -5.4 -6.9 -12.7 -14.3 -16 -16.2 -26.6 -27.9 -34.4 -37.9 -10 -12.7 -21.3 -27.8 -21.3 -28.3 0 -0.3 -3.6 -6.3 -8.1 -13.2 -4.4 -7 -9.8 -15.9 -11.9 -19.9 -2.1 -3.9 -5.7 -10.5 -7.9 -14.6 -2.3 -4.1 -5.5 -10.4 -7.2 -14 -1.6 -3.6 -3.4 -7.3 -3.9 -8.2 -0.6 -1 -1 -2.2 -1 -2.8 0 -0.5 -1.2 -3.5 -2.6 -6.7 -3.1 -6.9 -4.7 -10.6 -6.4 -15.3 -0.6 -1.9 -1.6 -4.4 -2 -5.5 -0.4 -1.1 -1.6 -4.7 -2.5 -8 -0.9 -3.3 -2.6 -8.7 -3.6 -12 -3.2 -9.8 -3.7 -11.7 -5.4 -19 -0.9 -3.8 -2 -8.6 -2.5 -10.5 -0.4 -1.9 -1.6 -7.3 -2.5 -12 -0.9 -4.7 -1.9 -9.4 -2.2 -10.5 -0.2 -1.1 -0.8 -4.9 -1.3 -8.5 -0.5 -3.6 -1.6 -12.3 -2.6 -19.5 -2.6 -18.8 -2.6 -76.4 0 -95 1 -7.1 2.2 -15.9 2.7 -19.5 0.9 -6.8 1.6 -10.7 4.3 -22.5 0.8 -3.8 1.8 -8.3 2.1 -10 2.1 -10.2 4.7 -20.1 6.5 -25 0.4 -1.1 2 -6 3.5 -11 1.5 -4.9 3.1 -9.9 3.5 -11 0.4 -1.1 1.4 -3.6 2 -5.5 1.4 -3.8 3.1 -8 5.5 -13.4 0.8 -1.9 1.5 -3.7 1.5 -4 0 -0.3 1.3 -3.4 2.9 -6.8 1.5 -3.5 3.2 -7.4 3.6 -8.8 0.4 -1.4 1.5 -3.6 2.4 -5 1 -1.4 3.5 -5.9 5.6 -10 8.5 -16.6 11.7 -22.2 19.4 -34.4 4.5 -6.9 8.1 -12.9 8.1 -13.2 0 -0.5 4.8 -7.2 6 -8.4 0.3 -0.3 4.1 -5.2 8.5 -11 10.6 -13.9 10.6 -13.9 22 -26.5 10.2 -11.3 19.9 -21.2 25 -25.4 2.2 -1.9 6.9 -6.1 10.5 -9.5 3.6 -3.4 9.9 -8.9 14 -12.1 4.1 -3.3 8.1 -6.5 9 -7.3 4.6 -4 12 -9.2 15.9 -11.1 9.7 -4.6 20.9 -1.9 29 7.1 3.4 3.7 4 5.1 4.6 10.5 1.3 12.3 -2.3 18.9 -15.5 28.9 -3.5 2.7 -7.3 5.6 -8.5 6.6 -1.1 0.9 -4.9 3.9 -8.4 6.7 -8.3 6.6 -27.1 24.9 -38.6 37.6 -4.9 5.5 -10.2 11.3 -11.7 13 -1.6 1.6 -2.8 3.3 -2.8 3.7 0 0.4 -0.6 1.3 -1.3 2 -4.5 4.7 -16.7 21.5 -24.4 33.8 -10.7 16.9 -25.3 45.2 -30.3 58.5 -0.6 1.6 -1.8 4.4 -2.6 6.2 -3.5 8 -4.4 10.5 -7.9 21.8 -2 6.6 -4.5 14.5 -5.5 17.5 -1 3 -2 6.9 -2.4 8.5 -0.3 1.7 -1.3 6.2 -2.1 10 -3.4 14.5 -4.7 21.9 -7.6 42.5 -2.6 18.7 -2.6 69.7 0 88 3.2 22.8 4 27.1 8.5 46.5 2.9 12.9 3.5 15.2 7.1 26.5 1.5 4.7 3 9.7 3.2 11.3 0.3 1.5 0.9 3 1.4 3.3 0.5 0.3 0.9 1.2 0.9 2 0 0.8 0.9 3.4 1.9 5.7 1 2.3 3.1 7.1 4.6 10.7 5 12.1 5.6 13.5 9.4 21 8.6 17.1 13.6 25.8 22.7 40.3 5.4 8.3 10 15.4 10.3 15.7 0.3 0.3 1.9 2.3 3.6 4.5 1.6 2.2 3.1 4.2 3.5 4.5 0.3 0.3 1.8 2.3 3.5 4.5 5.6 7.7 18.1 22 27.6 31.7 8.9 9.1 11.9 11.3 11.9 8.8 0 -0.5 -0.4 -1 -1 -1 -0.5 0 -1 -0.5 -1 -1.1 0 -0.7 -2.4 -5.1 -5.4 -9.8 -2.9 -4.7 -9 -15.7 -13.4 -24.3 -4.5 -8.6 -8.6 -16.5 -9.1 -17.5 -1.5 -2.8 -5.1 -11.2 -5.1 -11.8 0 -0.4 -0.9 -2.5 -1.9 -4.8 -4.5 -10 -7.9 -18.8 -10.5 -27.2 -1.6 -4.9 -3.2 -9.9 -3.6 -11 -1.9 -5 -5.9 -18.6 -7 -24 -2.1 -10.3 -4 -18.9 -5 -22.5 -1.2 -4.6 -2.8 -14.4 -4 -25 -0.6 -4.7 -1.7 -13.9 -2.5 -20.5 -1.9 -16 -1.9 -61.6 0 -78.5 2.8 -24.9 4.8 -38.6 6.5 -45 0.9 -3.5 2.7 -11.5 5 -22.5 1.3 -6 5.4 -20.3 7 -24 0.4 -1.1 1.6 -4.7 2.5 -8 0.9 -3.3 2 -6.9 2.5 -8 0.4 -1.1 2 -5.1 3.6 -9 1.5 -3.8 3.8 -9.3 5.1 -12.2 1.3 -2.8 2.3 -5.4 2.3 -5.7 0 -1.2 9 -20.7 10 -21.6 0.3 -0.3 3.3 -5.9 6.6 -12.5 6.8 -13.3 25.2 -43 32 -51.5 2.4 -3 7.3 -9.3 10.8 -13.9 3.6 -4.5 9.5 -11.7 13.3 -16 12.7 -14.3 42.8 -43.5 52.3 -50.6 1.9 -1.4 8 -6.1 13.6 -10.3 10.6 -8.2 13.1 -9.9 34.4 -23.7 10.6 -6.9 47.9 -26.5 50.4 -26.5 0.3 0 3.5 -1.4 7.1 -3 3.6 -1.7 6.8 -3 7.1 -3 0.3 0 3.1 -1.2 6.2 -2.7 6.7 -3.1 17 -3.8 21.8 -1.3 5.6 2.8 10.5 7.3 12.5 11.3 2.7 5.8 2.8 15.8 0.1 21.2 -4 7.8 -7.3 10.3 -22.7 16.5 -4.4 1.8 -8.4 3.7 -8.9 4.1 -0.6 0.5 -1.6 0.9 -2.4 0.9 -1.3 0 -5.5 2 -28.2 13.6 -11.6 5.9 -38.9 23.5 -47.8 30.9 -0.9 0.8 -5.2 4.1 -9.4 7.3 -12.1 9.3 -31.6 27.4 -39.2 36.2 -2.1 2.5 -6.1 7 -9 10 -10.8 11.3 -41.6 53.5 -41.6 56.9 0 0.5 -0.4 1.1 -0.9 1.3 -1.5 0.5 -18 32.4 -22.5 43.3 -1.5 3.9 -3.9 9.4 -5.2 12.3 -1.3 2.9 -2.4 5.7 -2.4 6.2 0 0.6 -0.4 1.8 -0.9 2.8 -1.5 2.9 -2.7 6.4 -4.6 12.7 -0.9 3.3 -2.1 6.8 -2.6 7.7 -0.5 1 -0.9 2.6 -0.9 3.6 0 1 -0.4 2.2 -0.8 2.8 -0.8 0.8 -3.2 9.5 -4.7 16.9 -0.3 1.7 -1 4.8 -1.5 7 -1.9 7.6 -4.2 20 -5 27 -0.5 3.9 -1.4 10.4 -1.9 14.5 -3.2 23.8 -3.3 61.2 -0.1 86 0.5 4.1 1.4 10.9 1.9 15 0.5 4.1 1.7 11.1 2.6 15.5 0.9 4.4 2.1 9.9 2.6 12.3 3.3 15.6 4.9 21.6 7.9 29.7 0.4 1.1 2 5.8 3.4 10.5 2.5 7.8 4.5 13 8.2 21.8 1.7 3.8 4.2 9.9 5.3 12.7 1.6 3.9 16.9 33.9 19.4 38 2.9 4.7 5.2 5.9 4.2 2.3 -2.2 -8.5 -2.8 -10.5 -3.5 -12.3 -1.5 -3.8 -4 -14.5 -4 -16.9 0 -1.4 -0.4 -2.7 -0.9 -3 -0.4 -0.3 -1.1 -2.5 -1.4 -4.8 -0.3 -2.4 -1.4 -7.7 -2.3 -11.8 -1.9 -8.6 -2.9 -14.9 -4.4 -27 -0.5 -4.7 -1.2 -9.2 -1.5 -10 -0.7 -1.8 -2.9 -38.8 -2.9 -48.5 0 -9.7 2.2 -46.7 2.9 -48.5 0.3 -0.8 1 -5.3 1.5 -10 1.8 -14.7 3.5 -24 7.2 -39.5 0.5 -2.2 1.3 -5.8 1.7 -8 1.1 -5.6 2.8 -11.4 6.7 -23.4 1.9 -5.8 3.4 -11.3 3.4 -12.2 0 -1 0.5 -2.1 1 -2.4 0.6 -0.3 1 -1.7 1 -3 0 -1.3 0.4 -2.6 0.9 -2.9 0.5 -0.3 1.2 -1.8 1.5 -3.2 0.4 -1.4 1.6 -4.7 2.8 -7.3 1.1 -2.5 2.7 -6.2 3.5 -8.1 0.8 -1.9 1.8 -4.4 2.3 -5.5 7.6 -18.5 19.6 -40.9 33.2 -62.4 6.1 -9.7 11.4 -17.8 11.8 -18.1 0.3 -0.3 2.3 -3 4.5 -6 2.2 -3 4.2 -5.7 4.5 -6 0.4 -0.3 2.6 -3.2 5 -6.4 3.5 -4.8 11.9 -14.8 19.5 -23.2 5 -5.6 17.6 -18.1 24.4 -24.3 4.7 -4.2 11.2 -10.1 14.5 -13.1 3.4 -3 7.4 -6.4 9 -7.5 1.6 -1.1 4.3 -3.1 6 -4.5 1.7 -1.4 3.6 -2.8 4.1 -3.3 0.6 -0.4 4.4 -3.3 8.5 -6.5 8.3 -6.3 35.8 -24 46 -29.4 11 -6 32.6 -16.8 33.4 -16.8 0.4 0 2.6 -0.8 4.9 -1.9 2.3 -1 6.7 -2.9 9.7 -4.1 3 -1.2 6.9 -2.8 8.5 -3.5 1.7 -0.8 6.2 -2.3 10 -3.5 3.9 -1.2 7.9 -2.6 9 -3 3.7 -1.5 21.6 -6.6 28 -8 5.4 -1.2 17.1 -3.9 22 -5.1 3.6 -0.8 8.2 -1.6 30.5 -5 19.1 -2.9 23.3 -2.2 31.1 4.8 5.6 5.1 7.9 10.3 7.9 18 0 4.9 -0.6 7.2 -2.7 11 -3.2 5.8 -3.7 6.3 -9.3 9.5 -2.9 1.7 -7.4 3 -13 3.8 -15.9 2.3 -29.6 4.6 -39 6.5 -19.3 4 -32 7.3 -33.4 8.6 -0.6 0.5 -1.8 0.9 -2.8 0.9 -1 0 -2.6 0.4 -3.6 0.9 -0.9 0.5 -4.4 1.7 -7.7 2.7 -3.3 1 -6.7 2.1 -7.5 2.5 -0.8 0.4 -4.6 2 -8.5 3.5 -3.8 1.5 -7.4 3.1 -7.9 3.6 -0.6 0.4 -1.6 0.8 -2.4 0.8 -3.4 0 -40.8 19.5 -51 26.6 -3.5 2.4 -6.7 4.4 -7.2 4.4 -0.4 0 -1 0.3 -1.2 0.8 -0.1 0.4 -3 2.5 -6.3 4.6 -4.9 3.2 -14.6 10.4 -28 20.6 -1 0.8 -5.1 4.5 -9 8.1 -3.8 3.6 -9.2 8.5 -11.9 11 -2.7 2.4 -7.2 6.8 -10 9.8 -2.8 3 -8.2 8.8 -12 12.8 -6.2 6.6 -12.1 13.9 -25.8 32.1 -13.8 18.5 -33.6 53.7 -42.3 75.7 -1.8 4.5 -2.6 6.4 -5 11.9 -1.7 3.8 -4 10.5 -9.2 27.1 -3.6 11.5 -3.8 12.4 -8.3 33 -4.9 22.7 -8.4 55.7 -8.4 80 0 22.9 5 72 7.6 74.9 0.4 0.6 0.8 2 0.8 3.3 0 1.2 0.5 4.2 1 6.5 0.6 2.4 2 8.1 3.1 12.8 1.2 4.7 2.3 9.7 2.6 11.2 1.4 7.3 2 0.3 2.7 -28.4 0.4 -17.2 1.1 -34.4 1.6 -38.3 1.8 -14.8 3 -23.3 4.5 -32.5 0.9 -5.2 1.9 -10.8 2.1 -12.5 0.3 -1.6 0.9 -3.9 1.4 -5 0.5 -1.1 1.1 -3.6 1.4 -5.5 1.5 -8.6 3.2 -15.9 3.9 -16.6 0.4 -0.4 0.7 -1.6 0.7 -2.6 0 -1 0.4 -2.6 0.9 -3.6 0.6 -0.9 1.7 -4.4 2.6 -7.7 0.9 -3.3 2.1 -6.8 2.6 -7.7 0.5 -1 0.9 -2.3 0.9 -3 0 -1.4 4.3 -13.2 7 -19.3 1 -2.2 3.7 -8.7 6.1 -14.5 2.3 -5.8 7.3 -16.3 11 -23.5 3.7 -7.1 8 -15.5 9.5 -18.5 1.6 -3 3.1 -5.7 3.4 -6 0.3 -0.3 4.6 -6.8 9.4 -14.5 7.2 -11.4 21.3 -31.4 23.7 -33.5 0.3 -0.3 1.8 -2.3 3.4 -4.5 11.1 -15.3 36.2 -41.1 60 -61.6 7.1 -6.2 30 -23.6 34.6 -26.4 0.9 -0.5 4.9 -3 8.9 -5.5 4 -2.5 8.1 -4.9 9.1 -5.5 1 -0.5 1.9 -1.3 1.9 -1.7 0 -0.5 0.5 -0.8 1.2 -0.8 0.6 0 1.9 -0.6 2.7 -1.4 0.9 -0.7 7.7 -4.6 15.2 -8.4 7.5 -3.9 15.2 -7.9 17 -9 1.9 -1 7 -3.3 11.4 -5.1 4.4 -1.9 9.8 -4.1 12 -5.1 8.4 -3.7 22.2 -9 27.5 -10.6 3 -0.9 9.3 -2.9 14 -4.4 9.8 -3.3 17.1 -5.2 25.5 -7 10.4 -2.2 18.9 -4 22.5 -5 1.9 -0.5 5.8 -1.1 8.5 -1.4 2.8 -0.3 10.9 -1.2 18 -2.1 34.7 -4.2 89.9 -3.3 122 2 14.8 2.5 23.9 14.8 21.1 28.6 -1.7 8.5 -5.5 13.5 -13.6 17.5 -5.7 2.9 -7.6 2.9 -29.5 0.4 -27.2 -3.2 -70.7 -3.2 -95 -0.1 -3.8 0.5 -11.3 1.4 -16.5 2.1 -5.2 0.6 -10.2 1.6 -11.1 2.1 -1 0.5 -2.9 0.9 -4.3 0.9 -1.4 0 -3.5 0.4 -4.8 0.9 -1.3 0.5 -5.9 1.7 -10.3 2.6 -8.4 1.9 -28.8 8 -31.7 9.6 -1 0.5 -2.5 0.9 -3.3 0.9 -0.8 0 -2.3 0.4 -3.3 0.9 -0.9 0.6 -6.4 2.8 -12.2 5.1 -18.4 7.3 -20.2 8.1 -42 19.7 -24.1 12.8 -53.7 33.8 -75 53.2 -11.9 10.9 -15 13.9 -27.5 27.6 -8.4 9.1 -12.2 13.8 -25.2 31.1 -2.9 3.8 -5.6 7.4 -6 7.9 -0.5 0.6 -4.8 7.2 -9.7 14.8 -16 24.9 -30.5 56 -40.8 87.2 -6.6 19.9 -6.5 19.4 -10.3 37.5 -0.9 4.1 -2 9.5 -2.6 12 -1.6 7.3 -3.3 22 -5.9 49.5 -1.2 13.2 -1.3 32.2 -0.2 32.9 0.4 0.2 1.4 -1.6 2 -4.2 0.7 -2.6 1.7 -6.1 2.2 -7.8 0.6 -1.7 1 -4 1 -5.2 0 -1.1 0.4 -3.1 0.9 -4.4 0.5 -1.3 1.6 -5 2.5 -8.3 1 -3.3 2.1 -6.9 2.5 -8 0.5 -1.1 2.1 -6 3.6 -11 2.8 -9.2 3.1 -10.2 6 -17 0.9 -2.2 2 -4.9 2.5 -6 0.4 -1.1 1.7 -4.1 2.9 -6.7 1.2 -2.6 2.1 -5.1 2.1 -5.4 0 -1.5 16.3 -34.7 22 -44.9 12 -21.3 39.3 -59 54.7 -75.5 3.9 -4.1 8.8 -9.5 10.9 -12 2.1 -2.5 6.8 -7.1 10.4 -10.3 3.6 -3.1 9.4 -8.5 13 -12 5.7 -5.4 15.6 -13.5 35 -28.2 15.9 -12.1 66.9 -41.5 78 -45 1.4 -0.4 5.3 -2.1 8.8 -3.6 3.4 -1.6 6.5 -2.9 6.8 -2.9 0.3 0 2.1 -0.7 4 -1.5 8.1 -3.6 10.3 -4.4 17.4 -6.5 4.1 -1.2 8.4 -2.6 9.5 -3 1.1 -0.4 4.7 -1.5 8 -2.4 3.3 -1 6.9 -2.1 8 -2.5 1.1 -0.5 4.3 -1.3 7 -1.9 9.3 -2 19 -4.3 22.5 -5.2 6.6 -1.7 13.5 -3 23 -4.1 5.2 -0.6 12.7 -1.5 16.5 -2 21.9 -2.8 74.3 -2.8 96 0 3.9 0.5 11.3 1.4 16.5 2 9.3 1.1 15.9 2.2 23 4.1 3.5 0.9 13.2 3.2 22.5 5.2 2.8 0.6 5.9 1.4 7 1.8 1.1 0.5 4.7 1.6 8 2.5 9.2 2.6 12.8 3.7 15 4.6 1.1 0.4 3.3 1 4.9 1.4 1.5 0.3 4.9 1.5 7.5 2.7 9.1 4.1 10.9 4.8 11.5 4.8 0.8 0 8.3 3.3 15.6 6.7 9 4.3 11.7 7.5 14.6 17.4 1.3 4.3 1.3 5.5 -0.1 10.3 -2.2 7.6 -5.2 11.6 -11.5 15.4 -9.3 5.5 -16.6 4.2 -45 -8 -1.4 -0.6 -3.4 -1.4 -4.5 -1.9 -3 -1.2 -33.6 -10.6 -36.5 -11.2 -1.4 -0.3 -7.9 -1.8 -14.5 -3.2 -11.5 -2.6 -14.3 -3.1 -32 -5.4 -30.4 -4.1 -70.2 -4.1 -98.5 0 -4.1 0.6 -10 1.4 -13 1.8 -5.2 0.8 -16.8 3.1 -25.5 5.2 -2.2 0.6 -6 1.4 -8.5 1.9 -2.5 0.5 -7 1.6 -10 2.5 -3 0.9 -6.4 1.9 -7.5 2.2 -1.1 0.2 -2.9 0.8 -4 1.3 -1.1 0.4 -4.7 1.6 -8 2.5 -7.7 2.1 -11.8 3.6 -13 4.7 -0.5 0.4 -1.5 0.8 -2.2 0.8 -0.7 0 -3.8 1.2 -7 2.6 -9.6 4.3 -12.1 5.4 -12.8 5.4 -0.8 0 -24.4 11.8 -32.4 16.2 -7.4 4.2 -19.5 12 -19.9 13 -0.2 0.4 -0.7 0.8 -1.2 0.8 -1.2 0 -11.7 7.1 -18.8 12.7 -3.3 2.6 -8.4 6.6 -11.3 8.8 -17.6 13.5 -50.5 46.2 -61.8 61.5 -2.2 3 -4.4 6 -4.8 6.5 -0.5 0.6 -2.2 2.8 -3.8 5 -1.7 2.2 -3.3 4.2 -3.6 4.5 -0.3 0.3 -4.1 6.1 -8.5 12.9 -4.3 6.8 -8.7 13.5 -9.6 15 -5.3 8.2 -23.8 45.1 -23.8 47.5 0 0.3 -1.1 2.9 -2.3 5.8 -3.6 8 -6.3 15.4 -9.2 24.8 -1.5 4.7 -3 9.4 -3.5 10.5 -1.8 4.5 -4 12.9 -4 15.6 0 1.5 -0.4 3.1 -1 3.4 -0.5 0.3 -1 1 -1 1.6 0 0.5 0.5 0.9 1 0.9 0.6 0 1 -0.7 1 -1.5 0 -0.8 0.3 -1.5 0.8 -1.5 0.4 0 1.2 -1 1.8 -2.3 11.7 -23.9 39 -63.4 60.8 -88.2 14.4 -16.2 41 -41.6 53.9 -51.4 3.7 -2.7 7.3 -5.5 7.9 -6.1 12.9 -10.7 42 -29.5 61.3 -39.6 7.2 -3.7 15.5 -8 18.5 -9.5 3 -1.6 5.8 -2.9 6.2 -2.9 0.5 0 3 -1 5.6 -2.1 9.1 -4.1 11 -4.9 11.6 -4.9 0.3 0 3.4 -1.3 6.8 -2.8 3.5 -1.6 12.4 -4.8 19.8 -7.1 7.4 -2.3 14.4 -4.6 15.5 -5 4.3 -1.8 21.7 -6.1 24.6 -6.1 1.1 0 2.7 -0.4 3.7 -0.9 1.6 -0.9 12.3 -2.9 26.7 -5 7.3 -1.1 9.1 -1.4 24 -3.2 12.1 -1.5 74.3 -1.5 86.5 0.1 20 2.4 23.7 2.9 30.2 3.8 6.3 0.9 12.6 2.2 20.8 4.3 1.9 0.4 6.7 1.5 10.5 2.4 8 1.8 14.1 3.4 17 4.5 1.1 0.4 6.1 2 11 3.5 5 1.5 9.9 3.1 11 3.5 1.1 0.4 4.3 1.6 7 2.5 2.8 0.9 6.9 2.5 9.2 3.6 2.4 1 4.6 1.9 4.9 1.9 0.3 0 2 0.6 3.7 1.4 1.8 0.8 5.7 2.4 8.7 3.7 9.5 4.1 42.2 21 48.4 25 3.2 2.2 6 3.9 6.3 3.9 0.2 0 0.9 0.5 1.6 1.1 0.7 0.6 5.8 4.1 11.4 7.7 14 9.2 29.4 20.5 34 25 7 6.8 9.6 15.4 7.3 23.9 -2.8 10.3 -9.3 16.2 -19.7 17.9 -8.2 1.3 -16.2 -1.9 -26.8 -10.8 -1.1 -0.9 -4.5 -3.5 -7.5 -5.7 -3 -2.2 -6.1 -4.5 -6.7 -5.1 -3.3 -2.8 -32.6 -20.7 -42.1 -25.7 -14.4 -7.5 -22 -11.3 -22.7 -11.3 -0.3 0 -2.4 -0.9 -4.8 -1.9 -6.9 -3.1 -23.9 -9.8 -28.2 -11.1 -2.2 -0.6 -4.9 -1.5 -6 -1.9 -1.1 -0.5 -6 -2.1 -11 -3.6 -4.9 -1.5 -10.1 -3.1 -11.5 -3.5 -2.3 -0.7 -9.9 -2.4 -23.5 -5.2 -2.7 -0.5 -6.6 -1.4 -8.5 -1.8 -9.2 -2.2 -49.4 -5.4 -67 -5.5 -12.5 0 -33.7 1.3 -49 3.1 -12.6 1.4 -17.6 2.2 -27.5 4.4 -2.2 0.5 -7.6 1.6 -12 2.5 -4.4 1 -9.1 2.1 -10.5 2.5 -1.4 0.4 -5.2 1.5 -8.5 2.5 -3.3 0.9 -6.8 2 -7.7 2.6 -1 0.5 -2.5 0.9 -3.3 0.9 -0.8 0 -2.3 0.4 -3.3 0.9 -0.9 0.5 -4.4 1.7 -7.7 2.7 -3.3 0.9 -6.7 2.1 -7.5 2.5 -2.9 1.4 -8.8 3.9 -9.4 3.9 -0.3 0 -2.8 1 -5.4 2.1 -2.6 1.2 -6.3 2.8 -8.2 3.6 -16.7 6.9 -57.6 30.3 -69 39.5 -6.8 5.4 -11.8 9.3 -17.1 13.3 -14.8 11.2 -46 42.8 -59.3 60 -4.3 5.5 -8.5 10.9 -9.4 12 -4 4.9 -7.4 9.8 -15 21.7 -9.1 14.2 -13.6 22.7 -12.7 23.6 0.3 0.3 3.8 -2.9 7.8 -7.3 4 -4.3 9 -9.5 11.1 -11.4 2.2 -2 7.1 -6.5 11 -10 3.9 -3.6 9.4 -8.5 12.1 -11 2.8 -2.6 6.8 -6 9 -7.6 2.2 -1.6 4.5 -3.3 5 -3.8 6.6 -5.4 23.7 -18.1 26 -19.3 1.6 -0.8 6.4 -3.7 10.5 -6.5 4.1 -2.7 8.2 -5.2 9 -5.6 0.8 -0.3 2.6 -1.4 4 -2.3 3 -2 10.6 -6.2 21 -11.5 4.1 -2.2 8.6 -4.6 10 -5.5 1.4 -0.9 8.8 -4.3 16.5 -7.4 7.7 -3.2 15.8 -6.6 18 -7.6 4.7 -2.1 9.4 -3.6 27.5 -9 4.1 -1.2 8.6 -2.6 10 -3 1.4 -0.5 5.4 -1.6 9 -2.5 3.6 -0.9 8.1 -2 10 -2.5 1.9 -0.5 6.9 -1.7 11 -2.6 4.1 -0.9 8.8 -2 10.4 -2.5 1.6 -0.5 4.3 -0.9 5.9 -0.9 1.7 0 5.6 -0.4 8.6 -1 32.8 -5.8 100.6 -5.8 126.9 0 2.3 0.6 5.9 1 7.9 1 2 0 5 0.4 6.7 1 1.7 0.5 6.7 1.6 11.1 2.5 4.4 0.9 9.6 2 11.5 2.5 1.9 0.5 6.9 1.6 11 2.5 4.1 0.9 8.3 2 9.2 2.6 1 0.5 2.5 0.9 3.3 0.9 0.8 0 2.3 0.4 3.3 0.9 0.9 0.5 4.4 1.7 7.7 2.6 3.3 1 6.9 2.1 8 2.5 1.1 0.4 4.5 1.5 7.5 2.5 3 1 8.3 3.1 11.8 4.7 3.4 1.5 6.5 2.8 6.8 2.8 0.3 0 2 0.6 3.7 1.4 1.8 0.8 5.2 2.2 7.7 3.3 8.1 3.3 38.6 19.2 43.1 22.4 1.5 1 3 1.9 3.5 1.9 0.4 0 2.2 1.1 4 2.5 1.8 1.4 3.5 2.5 3.8 2.5 0.6 0 19.9 12.2 20.6 13 0.3 0.3 7 5.7 15 11.9 26.6 20.7 54 47.5 70.9 69.4 3 4 6.2 7.9 7.1 8.7 3.6 3.5 10.6 13.8 12.2 18 4.3 11 0.3 22.1 -10.6 29.4 -3.3 2.2 -5 2.6 -11 2.6 -8.2 0 -13.9 -2.2 -18.6 -7 -1.6 -1.7 -3 -3.4 -3 -3.8 0 -0.4 -1.2 -2 -2.8 -3.7 -1.5 -1.6 -4.7 -5.7 -7.1 -9 -14.8 -19.8 -44.1 -48.6 -69.1 -67.9 -4.7 -3.6 -9 -7 -9.7 -7.6 -0.6 -0.5 -8.5 -5.6 -17.5 -11.3 -17.4 -11.1 -52.6 -29.7 -56.1 -29.7 -0.4 0 -3.2 -1.2 -6.4 -2.6 -8.6 -3.9 -11.4 -5 -15.8 -6.4 -2.2 -0.7 -4.9 -1.6 -6 -2 -1.1 -0.4 -6 -2 -11 -3.5 -4.9 -1.5 -9.9 -3.1 -11 -3.5 -1.1 -0.4 -5.6 -1.5 -10 -2.5 -4.4 -0.9 -9.6 -2 -11.5 -2.5 -7 -1.8 -23.4 -4.7 -34.5 -6.1 -6.8 -0.9 -22.4 -1.9 -45 -3 -7.8 -0.4 -38.5 1.1 -44 2.1 -2.7 0.5 -10.8 1.7 -18 2.6 -7.1 0.9 -13.4 2.1 -14 2.5 -0.5 0.5 -2 0.9 -3.3 0.9 -1.4 0 -4.1 0.4 -6.1 1 -2 0.5 -7.2 1.6 -11.6 2.6 -4.4 0.9 -8.9 2 -10 2.4 -1.1 0.4 -4.7 1.6 -8 2.5 -17.7 5.1 -48.1 16.7 -57 21.7 -1.1 0.6 -7.1 3.8 -13.3 7 -11.7 6.1 -42.3 25.1 -47.8 29.7 -1.7 1.4 -5.5 4.4 -8.4 6.6 -2.9 2.2 -5.7 4.5 -6.4 5.1 -0.6 0.6 -1.8 1.5 -2.7 2 -4.2 2.4 -34.5 30.7 -36.1 33.8 -1.1 2.1 -0.5 1.8 13.4 -7.1 7 -4.4 44.7 -23.9 50.8 -26.3 5 -1.9 8.8 -3.5 14.2 -5.9 2.6 -1.1 5.1 -2.1 5.4 -2.1 0.3 0 2.2 -0.7 4.2 -1.6 5.8 -2.5 6.9 -2.9 21.2 -7.4 7.4 -2.3 14.6 -4.5 16 -5 4.1 -1.3 10.3 -2.9 13.5 -3.4 1.7 -0.3 6.2 -1.3 10 -2.1 11.5 -2.7 15.5 -3.4 27.5 -5.1 6.3 -0.8 14.4 -2 18 -2.5 19.5 -2.9 75.3 -2.9 96.5 0 32 4.4 30.5 4.2 45 7.6 3.9 0.9 8.6 1.8 10.5 2.1 1.9 0.3 4.6 0.9 6 1.4 1.4 0.4 5.2 1.6 8.5 2.5 9 2.6 32.6 10.4 36.2 12.1 1.7 0.8 3.4 1.4 3.7 1.4 0.3 0 2.8 1 5.4 2.1 5.4 2.4 9.2 4 14.2 5.9 9.3 3.6 42 21.2 56.6 30.5 9.1 5.8 16.9 10.5 17.3 10.5 0.5 0 1.1 0.4 1.3 0.8 0.2 0.4 5 4.4 10.8 8.7 5.8 4.4 10.7 8.2 11 8.6 0.3 0.3 2.3 1.8 4.5 3.4 5.2 3.8 15 13 30.5 28.5 18.4 18.3 24.9 25.5 33.6 37.1 4.3 5.7 8.3 10.9 8.9 11.5 3.5 3.7 25 36.5 30.7 46.9 4.3 7.8 16.8 33.1 16.8 33.9 0 0.3 1.2 3.1 2.6 6.3 1.4 3.2 3 6.7 3.4 7.8 0.5 1.1 2 4.6 3.4 7.8 2.9 6.5 3.6 17.9 1.3 22 -5.1 9.2 -13.9 14.7 -23.5 14.7 -4.4 0 -11.8 -3.4 -16.3 -7.6 -2.5 -2.4 -6.9 -9.7 -6.9 -11.5 0 -0.5 -1.6 -4.2 -3.5 -8.2 -1.9 -3.9 -3.5 -7.6 -3.5 -8.1 0 -0.5 -3.9 -8.8 -8.7 -18.5 -8.6 -17.3 -14.8 -28.3 -16.5 -28.9 -0.4 -0.2 -0.8 -0.8 -0.8 -1.2 0 -1.2 -11.6 -18.9 -17 -25.9 -18.4 -24 -31.7 -38.9 -48 -53.5 -3 -2.8 -8 -7.3 -11 -10 -3 -2.8 -7 -6.2 -8.9 -7.6 -1.9 -1.4 -7.5 -5.6 -12.4 -9.3 -9.9 -7.7 -34 -23.4 -43.2 -28.2 -17 -8.9 -32.6 -16.5 -33.9 -16.5 -0.3 0 -3.5 -1.3 -7.1 -3 -3.6 -1.7 -6.9 -3 -7.3 -3 -0.4 0 -1.8 -0.6 -3.2 -1.3 -1.4 -0.7 -7.9 -3 -14.5 -5.1 -6.6 -2.1 -12.9 -4.2 -14 -4.6 -4.4 -1.8 -9.2 -3.2 -14 -4.1 -5.1 -1 -7.9 -1.6 -20 -4.4 -3.8 -0.8 -10.6 -2 -15 -2.6 -4.4 -0.6 -10.9 -1.4 -14.5 -1.9 -3.6 -0.6 -15.6 -1.5 -26.7 -2.2 -20.2 -1.1 -48.8 -0.2 -66.8 2.1 -3.8 0.5 -10.4 1.4 -14.5 1.9 -4.1 0.6 -10.9 1.8 -15 2.7 -12.6 2.9 -14.3 3.3 -19.8 4.4 -3 0.6 -8.2 2 -11.5 3.1 -3.4 1.1 -10.2 3.3 -15.2 4.9 -8.4 2.7 -17.2 6 -22 8 -1.1 0.5 -4.1 1.8 -6.7 3 -2.6 1.2 -5.1 2.1 -5.5 2.1 -1.3 0 -40.7 20 -43.3 22 -1.4 1 -2.1 2.2 -1.7 2.6 0.6 0.6 2.9 0.1 11.7 -2.6 4.7 -1.5 13.5 -3.8 19 -4.9 3 -0.7 7.3 -1.6 9.5 -2.1 2.2 -0.5 7.6 -1.6 12 -2.5 4.4 -0.9 9.9 -2 12.3 -2.5 2.3 -0.6 5.8 -1 7.8 -1 1.9 0 5.4 -0.4 7.7 -1 5.9 -1.4 42.4 -4 55.7 -4 13.3 0 49.8 2.6 55.7 4 2.3 0.6 5.8 1 7.7 1 2 0 5.5 0.4 7.8 1 2.4 0.5 7.9 1.6 12.3 2.5 4.4 0.9 9.6 2 11.5 2.5 1.9 0.5 7.1 1.6 11.5 2.5 4.4 1 11.8 3 16.5 4.5 4.7 1.5 11.2 3.6 14.5 4.5 3.3 0.9 6.9 2.1 8 2.5 1.1 0.4 3.6 1.4 5.5 2 4.7 1.7 8.4 3.3 15.3 6.4 3.2 1.4 6.3 2.6 7 2.6 0.7 0 1.7 0.4 2.2 0.9 0.6 0.4 3.3 1.7 6 2.7 2.8 1 6.6 2.7 8.5 3.7 1.9 1.1 9.6 5.1 17 9 14 7.3 39.6 23 48.9 30.1 5.1 3.9 6.7 5.1 15.7 12.1 7.1 5.4 13.8 10.9 18.3 15 2.4 2.2 4.9 4.5 5.5 5 10.7 9.5 17.2 16.1 35.5 36 10.4 11.2 29.1 36.3 40.4 54.4 9.9 15.5 31.7 57.2 31.7 60.5 0 0.3 1.4 3.5 3 7.1 1.6 3.6 3 6.8 3 7.1 0 0.3 0.7 2.2 1.6 4.2 2.7 6.2 3.1 7.4 6 16.7 1.5 5 3.7 12.2 4.9 16 3.1 9.8 4.2 13.9 6 22.5 0.9 4.1 2 8.9 2.5 10.6 0.6 1.7 1 4.2 1 5.7 0 1.4 0.5 2.9 1 3.2 0.6 0.3 1 2.2 1 4.1 0 4.1 2.6 22.6 4.2 30.2 1.5 6.8 0.1 12.6 -4.6 19.7 -2.4 3.7 -4.5 5.6 -7.7 6.9 -2.4 1 -5.2 2.2 -6.1 2.7 -4.3 2.2 -14.5 -0.1 -20.5 -4.7 -4.8 -3.6 -8.1 -10 -9.3 -17.9 -0.6 -3.9 -1.5 -9.7 -2 -13 -0.6 -3.3 -1.4 -8.9 -1.9 -12.5 -0.5 -3.6 -1.7 -9.6 -2.6 -13.5 -0.9 -3.8 -2.1 -8.8 -2.5 -11 -0.5 -2.2 -1.2 -5.3 -1.5 -7 -0.6 -2.6 -2.3 -8.1 -9.7 -32.5 -0.6 -1.9 -1.9 -5.4 -3 -7.7 -1 -2.4 -1.8 -4.6 -1.8 -4.9 0 -0.3 -0.7 -2.1 -1.5 -4 -2 -4.6 -3.9 -9.2 -5.5 -13.4 -0.8 -1.9 -2.2 -4.9 -3.1 -6.7 -1 -1.7 -4.8 -8.9 -8.5 -16 -6.7 -12.8 -21.4 -36.4 -28.5 -45.8 -6.6 -8.9 -14.7 -19.4 -15.8 -20.7 -0.6 -0.7 -2 -2.3 -3 -3.6 -2.9 -3.4 -18.1 -20 -22.1 -24.1 -5.9 -5.9 -25.1 -23.4 -28.4 -25.9 -1.7 -1.2 -4.4 -3.3 -6.1 -4.6 -1.6 -1.3 -5.5 -4.2 -8.5 -6.5 -3 -2.2 -6 -4.4 -6.6 -4.9 -0.6 -0.5 -3 -2.2 -5.5 -3.7 -2.4 -1.6 -8.4 -5.5 -13.4 -8.8 -8.4 -5.7 -17.1 -10.5 -35.5 -19.7 -4.1 -2.1 -9.2 -4.5 -11.2 -5.4 -2.1 -0.9 -5.3 -2.3 -7.2 -3.1 -1.9 -0.8 -3.7 -1.5 -4 -1.5 -0.6 0 -8.5 -3.4 -11.6 -4.9 -0.8 -0.4 -4.2 -1.6 -7.5 -2.5 -3.3 -1 -6.9 -2.2 -8 -2.6 -4.5 -1.9 -22.5 -7.3 -29 -8.7 -3.8 -0.8 -8.9 -1.9 -11.2 -2.4 -2.4 -0.5 -6.4 -1.4 -9 -2 -25.2 -5.5 -78.8 -8.1 -107.8 -5.2 -16 1.7 -33 4 -38.5 5.3 -2.5 0.6 -6.5 1.5 -9 2 -4.1 0.8 -13.7 3 -21.5 4.9 -7.5 1.8 -1 2.6 24.2 3.3 26.3 0.6 30.2 0.9 43.3 2.7 3.6 0.5 9.9 1.4 14.1 2 7.2 0.9 20.3 3.3 27.9 5.1 1.9 0.5 8 1.8 13.5 2.9 5.5 1.2 10.9 2.5 12 3 1.1 0.5 4.7 1.6 8 2.6 3.3 0.9 6.8 2 7.7 2.6 1 0.5 2.5 0.9 3.3 0.9 0.8 0 2.3 0.4 3.3 0.9 0.9 0.5 4.2 1.6 7.2 2.6 3 0.9 6.9 2.3 8.5 3 1.7 0.7 5.5 2.3 8.5 3.5 3 1.2 7.4 3.1 9.7 4.1 2.4 1.1 4.6 1.9 5 1.9 1 0 22.4 10.8 34.7 17.5 25.5 13.8 58.9 37.5 80.6 57.3 18.2 16.6 38.1 37.7 47.8 50.5 2.9 4 6.1 8.1 7.1 9.2 3.1 3.7 15.8 21.9 21.2 30.5 2.9 4.7 5.7 8.7 6.1 8.8 0.5 0.2 0.8 0.8 0.8 1.4 0 0.5 0.8 2.2 1.9 3.6 3.1 4.5 22.1 41.3 22.1 43 0 0.5 0.6 2.2 1.4 3.8 5.1 10.5 12.2 29.3 16.1 42.9 0.9 3.3 2 6.9 2.5 8 1.4 3.7 2.9 9 4.5 16 0.9 3.9 2 8.6 2.5 10.5 0.5 1.9 1.6 6.9 2.5 11 0.9 4.1 2 9.1 2.5 11 0.5 1.9 1.1 6 1.4 9 0.3 3 1 9.3 1.6 14 4.4 36.4 3.9 93.7 -1 115.8 -0.6 2.3 -1 5.6 -1 7.3 0 3.1 -3.8 11.9 -6.3 14.3 -0.7 0.7 -3.4 2.5 -6 3.9 -6.3 3.5 -16.6 3.8 -22.4 0.6 -9 -5 -13.3 -12.1 -13.3 -22.1 0 -7.4 1.7 -24.4 3.1 -30.9 1.3 -6 1.3 -67.9 0 -73.8 -0.6 -2.5 -1.7 -10.9 -2.6 -18.6 -0.9 -7.7 -2 -15.1 -2.4 -16.5 -0.5 -1.4 -1.4 -5 -2 -8 -2.1 -10.3 -4.9 -21.5 -7.1 -28.5 -3.9 -12.3 -9.2 -27.9 -11 -32 -1 -2.2 -3.5 -8.3 -5.6 -13.5 -3.8 -9.3 -5.3 -12.5 -13.7 -28 -7.3 -13.6 -8.4 -15.5 -16.3 -28 -6.8 -10.7 -15.6 -23.3 -17.4 -25 -0.3 -0.3 -3.2 -3.8 -6.3 -7.9 -4.9 -6.3 -20.4 -23.6 -27.3 -30.5 -6.1 -6.1 -27.1 -25.4 -29.5 -27.1 -1.5 -1.1 -7.8 -5.9 -14.1 -10.6 -12 -9.1 -29.3 -20.9 -37.4 -25.4 -19.9 -11.3 -53.5 -26.4 -70 -31.6 -3.8 -1.1 -7.8 -2.5 -8.9 -2.9 -4.3 -1.7 -16.2 -5.3 -20 -6.1 -2.2 -0.4 -7.1 -1.5 -11 -2.4 -15.7 -3.6 -19.2 -4.2 -47 -7.4 -18.2 -2.1 -49.5 -2.9 -49.5 -1.3 0 0.5 2.6 1.4 5.8 2.1 3.1 0.7 6.7 1.7 8 2.2 1.3 0.5 3.1 0.9 4 0.9 1.6 0 16.3 4.2 20.7 6 1.1 0.4 6.1 2 11 3.5 5 1.5 10.9 3.6 13.2 4.6 2.4 1.1 4.6 1.9 4.9 1.9 0.3 0 2.1 0.7 4 1.5 4.3 1.9 10.3 4.4 12.9 5.4 9.4 3.6 47.3 23.9 61.9 33.1 14.8 9.5 34.3 23.3 36.6 26 0.3 0.3 2.5 2 4.9 3.7 2.4 1.8 8.7 7.1 13.9 12 5.3 4.8 11.7 10.6 14.2 12.8 10 9 29.7 31 42 47 19.7 25.8 45.6 69.8 55 93.5 1.2 3 2.8 6.9 3.5 8.5 3.8 9.1 5.8 14.2 8.6 23.1 1.7 5.5 3.5 10.8 3.9 11.9 1.7 4.2 5.3 16.2 6.1 20 0.4 2.2 1.5 7.4 2.4 11.5 0.9 4.1 2.1 9.4 2.6 11.8 0.5 2.3 1.4 6.3 1.9 9 0.6 2.6 1.7 9.7 2.5 15.7 0.8 6.1 1.9 14.4 2.5 18.5 2.7 17.6 2.7 71.1 0.1 90 -0.5 4.1 -1.7 13.1 -2.5 20 -0.8 6.9 -2 14.3 -2.5 16.5 -0.6 2.2 -1.5 6 -2 8.5 -1 4 -2.4 9.8 -5.1 21 -1 4.5 -5 17.9 -6 20.5 -0.4 1.1 -2 6.1 -3.6 11 -1.5 5 -3.1 9.5 -3.4 10 -0.4 0.6 -3.1 7.1 -6 14.6 -8.6 22.2 -13.5 26.9 -27.2 26.9 -6.2 0 -8 -0.4 -12.4 -2.9 -8.1 -4.7 -11.5 -10.8 -11.5 -20.6 -0.1 -6.4 0.5 -8.7 4.1 -17.2 0.6 -1.3 1.4 -3.3 1.9 -4.5 0.5 -1.3 1.6 -3.9 2.4 -5.8 5.5 -13.3 13.5 -38.4 15.7 -49 0.5 -2.5 1.3 -6.3 1.9 -8.5 2.1 -8.8 4.4 -20.4 5.2 -26.5 0.5 -3.6 1.3 -9.4 1.9 -13 2.1 -14 3.1 -45.5 2 -65.7 -0.6 -10.9 -1.5 -22.7 -2 -26.3 -0.6 -3.6 -1.4 -9.4 -1.9 -13 -0.9 -6 -2.9 -16.8 -5.1 -26.5 -0.5 -2.2 -1.4 -6.2 -1.9 -8.9 -1.6 -7.3 -3.1 -12.9 -4 -15.1 -1.4 -3.1 -6.1 -19 -6.1 -20.3 0 -0.7 -0.4 -2 -0.9 -3 -1.5 -2.7 -4.1 -8.9 -4.1 -9.6 0 -0.3 -1 -2.8 -2.1 -5.4 -1.2 -2.6 -2.8 -6.3 -3.6 -8.2 -4 -9.7 -4.1 -10 -10.3 -21.5 -7 -13.1 -9 -16.7 -13.2 -23.5 -12.7 -20.9 -29 -43.4 -40.9 -56.5 -15.4 -17 -42.5 -43 -47.8 -45.9 -0.9 -0.5 -1.8 -1.2 -2.1 -1.6 -1.3 -1.6 -23.8 -18 -24.8 -18 -0.5 0 -1.2 -0.3 -1.4 -0.8 -0.5 -1.2 -19.5 -13.2 -27.8 -17.5 -19.3 -10.1 -35 -17.7 -36.5 -17.7 -0.3 0 -2.7 -1 -5.3 -2.1 -2.6 -1.2 -6.3 -2.8 -8.2 -3.6 -1.9 -0.8 -4.3 -1.8 -5.2 -2.3 -1 -0.6 -2.5 -1 -3.3 -1 -0.8 0 -2.3 -0.4 -3.3 -0.9 -0.9 -0.5 -5.7 -2.1 -10.7 -3.6 -4.9 -1.5 -9.9 -3.1 -11 -3.6 -2.4 -1 -13.8 -3.9 -15.4 -3.9 -1.7 0 -1.3 1.7 0.7 2.3 0.9 0.4 3.5 1.7 5.7 3 2.2 1.3 6.5 3.6 9.5 5.2 3 1.6 8.8 5.1 12.9 7.7 4.1 2.6 7.7 4.8 8 4.8 2.7 0.2 38.8 27.1 51.6 38.4 30.3 26.8 44.6 42.5 69.1 75.8 15 20.3 36.4 57.3 44.9 77.8 1.5 3.6 3.6 8.4 4.6 10.7 1 2.3 1.9 4.4 1.9 4.8 0 0.3 0.9 2.7 2.1 5.3 3.1 7 3.6 8.2 5.5 14.2 0.9 3 2 6.4 2.4 7.5 0.4 1.1 2 6.1 3.5 11 1.5 5 3 9.7 3.3 10.5 0.5 1.4 4.4 18.7 6.1 27.5 0.5 2.2 1.1 4.7 1.5 5.5 0.5 1.4 1.1 5.1 3.7 26.5 0.5 3.9 1.6 18.1 2.5 31.7 1.5 22.6 1.5 26.6 0 48.5 -0.9 13.1 -2 27.2 -2.5 31.3 -2.4 19.8 -3.5 26.5 -6.2 37 -0.4 1.9 -1.6 6.9 -2.4 11 -1.6 7.1 -7.7 28.2 -9.5 32.5 -0.4 1.1 -1.6 4.7 -2.5 8 -1 3.3 -2.6 7.8 -3.5 10 -1 2.2 -2.8 6.5 -4 9.5 -1.2 3 -3.1 7.4 -4.1 9.7 -1.1 2.3 -1.9 4.5 -1.9 4.9 0 0.4 -3.1 6.9 -6.9 14.3 -3.8 7.5 -8.6 17 -10.7 21.1 -2.1 4.1 -4.1 7.7 -4.4 8 -0.3 0.3 -4.6 6.8 -9.5 14.5 -4.9 7.7 -9.8 15.2 -10.9 16.6 -1.2 1.5 -2.9 3.7 -3.8 5 -14 19.6 -17 23.2 -22.4 26 -3.8 1.9 -6.3 2.4 -12.3 2.4 -6.9 0 -8 -0.3 -12.3 -3.3 -2.6 -1.7 -5.5 -4.4 -6.6 -6 -2.5 -3.6 -5.2 -11.1 -5.2 -14.4 0 -3.1 4.3 -14.2 6.1 -15.8 0.3 -0.3 2.4 -3 4.6 -6 2.3 -3 6.6 -8.6 9.5 -12.5 5.2 -6.8 18.4 -27 22.8 -34.9 5.5 -9.9 15 -28.7 17 -33.6 1.2 -3 3.1 -7.4 4.1 -9.7 1.1 -2.4 1.9 -4.6 1.9 -4.9 0 -0.6 2.2 -6 3.9 -9.4 0.4 -0.8 2 -5.5 3.5 -10.5 1.6 -4.9 3.2 -9.9 3.7 -11 0.4 -1.1 1.3 -3.8 1.9 -6 0.6 -2.2 1.6 -5.6 2.2 -7.5 0.5 -1.9 1.3 -5.3 1.8 -7.5 0.4 -2.2 1.6 -7.4 2.5 -11.5 2.3 -10.2 3.3 -16.3 4.4 -24.5 0.5 -3.8 1.5 -10.8 2.1 -15.5 0.7 -5 1.2 -21.9 1.2 -41.5 0.1 -36.3 -1.2 -51.6 -6.2 -75 -0.5 -2.2 -1.6 -7.6 -2.5 -12 -0.9 -4.4 -2 -9.3 -2.4 -11 -1.4 -5.2 -6.3 -20.9 -7.2 -23 -0.4 -1.1 -1.5 -4.5 -2.4 -7.5 -0.9 -3 -2.3 -6.8 -3 -8.5 -0.7 -1.6 -2.3 -5.5 -3.5 -8.5 -1.2 -3 -3.1 -7.4 -4.1 -9.7 -1.1 -2.4 -1.9 -4.6 -1.9 -5 0 -0.8 -5.6 -12 -13.5 -27.3 -5.2 -9.9 -21.6 -36 -27.5 -43.5 -2.6 -3.3 -7.1 -9.1 -10 -13 -5.7 -7.6 -24.2 -27.7 -32.9 -35.9 -3 -2.8 -8.6 -8.1 -12.5 -11.8 -3.9 -3.6 -12.7 -10.9 -19.6 -16.2 -6.9 -5.4 -13.3 -10.4 -14.3 -11.2 -3.8 -3.1 -36.3 -23.1 -38.5 -23.6 -3 -0.8 -2.1 0.5 5.1 7.2 13.4 12.3 30.5 30.6 40 42.5 5.9 7.5 24.7 33.2 24.7 33.8 0 0.5 1.1 2.3 2.5 4.1 1.4 1.8 2.5 3.6 2.5 4 0 0.6 6.9 11.5 8 12.6 1.4 1.4 21.4 39.7 23.7 45.5 2.1 5.3 6.5 15.9 8.3 20 2.1 4.9 6.2 17 8.5 25 0.9 3.3 2 6.9 2.4 8 1.8 4.6 4.3 14.1 6.6 25 0.3 1.7 1 4.6 1.4 6.5 2.1 8.5 4.3 20.1 5.2 27 0.6 4.1 1.5 10.7 2 14.5 3.9 29 3.9 75.5 -0.1 105.5 -2 15.3 -2.9 20.7 -4.4 28 -0.8 4.1 -1.8 8.9 -2.1 10.5 -0.3 1.7 -1 4.6 -1.5 6.5 -0.5 1.9 -1.6 6.9 -2.5 11 -0.9 4.1 -2 8.4 -2.5 9.5 -0.4 1.1 -1.8 5.4 -3 9.5 -5.3 17.8 -8 25.5 -12.6 35.8 -1.3 2.9 -2.4 5.8 -2.4 6.5 0 0.7 -0.4 1.7 -0.8 2.3 -0.5 0.5 -2.1 4.1 -3.7 7.9 -1.5 3.9 -3.1 7.5 -3.5 8 -0.4 0.6 -4.2 7.7 -8.5 15.9 -4.2 8.2 -10.1 18.7 -13.1 23.3 -3 4.6 -5.4 8.6 -5.4 8.9 0 0.3 -1.1 2 -2.5 3.8 -1.4 1.8 -2.5 3.6 -2.5 4 0 1 -17.7 25.5 -20.1 27.6 -0.3 0.3 -1.8 2.3 -3.4 4.5 -1.7 2.2 -5.5 6.7 -8.5 10 -3 3.3 -8.4 9.1 -12 13 -15.3 16.5 -32.2 32.1 -48.5 44.7 -0.5 0.5 -3.5 2.7 -6.5 5 -3 2.4 -6.1 4.9 -6.9 5.6 -3.8 3.6 -9.7 5.6 -17.1 5.6 -10.3 0.1 -15 -2.6 -21.1 -12.2 -1.7 -2.7 -2.2 -5 -2.2 -11.1 -0.1 -11.9 1.3 -13.8 22.5 -30.2 16.8 -13 33.9 -29.1 50.3 -47.3 4.4 -4.9 8.5 -9.4 9.1 -10 0.5 -0.6 2.9 -3.6 5.1 -6.6 2.3 -3 6 -7.7 8.2 -10.5 6 -7.6 23.9 -35.7 29.4 -46.5 10.2 -19.6 13.7 -26.8 13.7 -28.2 0 -0.8 0.4 -1.8 0.8 -2.3 0.5 -0.6 2.1 -4.1 3.6 -8 1.6 -3.8 3.6 -8.8 4.6 -11 0.9 -2.2 2.5 -6.7 3.5 -10 0.9 -3.3 2.1 -6.9 2.5 -8 0.5 -1.1 1.6 -4.7 2.5 -8 0.9 -3.3 2 -6.9 2.5 -8 0.7 -2 1.3 -4.3 4.5 -20 0.9 -4.4 2 -9.6 2.5 -11.5 0.9 -3.6 2.4 -13 4.1 -26 2.9 -21.4 2.6 -73.3 -0.6 -94.5 -0.8 -6 -1.8 -13.4 -2.2 -16.3 -0.3 -2.9 -0.9 -5.5 -1.4 -5.8 -0.5 -0.3 -0.9 -1.7 -0.9 -3.1 0 -1.4 -0.4 -4.2 -1 -6.2 -0.5 -2 -1.6 -7.2 -2.5 -11.6 -0.9 -4.4 -2.1 -8.8 -2.6 -9.7 -0.5 -1 -0.9 -2.3 -0.9 -3 0 -1.3 -4.6 -16.9 -6 -20.3 -0.5 -1.1 -1.1 -3.3 -1.5 -4.9 -0.3 -1.5 -1.5 -4.9 -2.7 -7.5 -4.1 -9.1 -4.8 -10.9 -4.8 -11.5 0 -1.7 -10.9 -24.4 -19 -39.3 -5 -9.4 -23 -37.4 -28.1 -43.8 -2.2 -2.7 -5.9 -7.5 -8.2 -10.5 -4.9 -6.5 -6.5 -8.4 -25.1 -28.4 -9.7 -10.5 -14.2 -14.4 -13 -11.1 0.4 0.8 1 1.5 1.4 1.5 0.4 0 1 0.8 1.3 1.8 0.6 1.8 6.3 12 7.8 13.8 2.5 3.1 21.2 40.1 24.9 49.4 1.2 3 2.8 7 3.6 8.8 5.4 12.5 7.6 18.5 13.3 36.7 2.8 8.9 5.1 16.8 5.1 17.7 0 1 0.4 2.7 0.9 4 0.5 1.3 1.5 5 2.1 8.3 0.7 3.3 1.9 8.9 2.7 12.5 2.6 11.7 3.2 15.3 4.8 29.5 1 7.7 2.1 16.4 2.6 19.4 1.2 7.1 1.2 68.1 0 75.2 -0.5 3 -1.6 11.7 -2.6 19.4 -1.5 13.2 -2.4 18.6 -4.5 28 -0.5 2.2 -1.6 7.6 -2.5 12 -0.9 4.4 -2.1 9 -2.6 10.3 -0.5 1.3 -0.9 3 -0.9 4 0 1.5 -9.2 31.4 -11 35.7 -0.4 1.1 -1.4 3.6 -2 5.5 -1.4 3.8 -2.9 7.6 -5.3 13 -0.8 1.9 -2.7 6.4 -4.2 10 -2.5 6.1 -16.2 33.9 -20.6 41.6 -5 9.1 -24.6 39.2 -26.9 41.4 -0.3 0.3 -3.9 5 -8 10.5 -19.2 25.5 -51.2 58.2 -71.5 73 -2.2 1.6 -4.2 3.1 -4.5 3.4 -2.8 3.2 -29.5 21.8 -37 25.9 -1.4 0.7 -3.9 2.4 -5.7 3.8 -1.7 1.3 -3.6 2.4 -4.1 2.4 -0.6 0 -1.2 0.4 -1.4 0.8 -0.1 0.4 -2 1.8 -4 3.1 -4.3 2.6 -32.7 16.5 -40.8 20 -3 1.2 -7.9 3.4 -10.8 4.7 -2.9 1.3 -5.8 2.4 -6.6 2.4 -0.7 0 -1.6 0.3 -2 0.7 -1.4 1.4 -8.2 3.3 -11.6 3.2 -1.9 -0.1 -5.1 -0.6 -7.1 -1.3z"/>
 </g>
</svg>