<?xml version="1.0" encoding="utf-8"?>
<!DOCTYPE svg PUBLIC "-//W3C//DTD SVG 20010904//EN" "http://www.w3.org/TR/2001/REC-SVG-20010904/DTD/svg10.dtd">
<svg version="1.0" xmlns="http://www.w3.org/2000/svg" width="2310px" height="2310px" viewBox="0 0 2310 2310" preserveAspectRatio="xMidYMid meet">
 <g fill="#127917">
  <path d="M1131.3 2223.3 c-16.4 -1 -22.6 -1.6 -49.7 -5 -20.4 -2.5 -28.6 -3.8 -38.1 -5.9 -4.4 -1 -11.2 -2.3 -15 -2.9 -3.8 -0.6 -9.8 -1.8 -13.3 -2.9 -3.5 -0.9 -9.7 -2.7 -13.9 -3.6 -12.6 -3 -21.3 -5.4 -22.5 -6.4 -0.6 -0.5 -3.2 -1.3 -5.8 -1.7 -2.5 -0.5 -11.9 -3.3 -20.8 -6.5 -8.9 -3.2 -19.5 -6.8 -23.7 -8.2 -4.2 -1.3 -7.7 -2.7 -8.1 -3.1 -0.3 -0.5 -2.3 -1.3 -4.3 -1.7 -2.1 -0.3 -3.8 -1.3 -3.8 -1.8 0 -0.6 -1 -1 -2.3 -1 -1.3 0 -3.2 -0.5 -4.4 -1.2 -3.6 -2 -14.9 -6.9 -15.8 -6.9 -0.7 0 -8.5 -3.6 -23.7 -10.7 -2.9 -1.4 -5.3 -2.9 -5.5 -3.3 -0.2 -0.6 -1.4 -0.9 -2.7 -0.9 -1.2 0 -4.7 -1.5 -7.7 -3.5 -3.1 -1.8 -6.5 -3.5 -7.5 -3.5 -1 0 -2.5 -0.7 -3.3 -1.5 -0.8 -0.8 -8 -4.7 -15.9 -8.8 -8 -3.9 -18 -9.2 -22.5 -11.7 -4.4 -2.4 -11.3 -6.1 -15.2 -8.2 -4 -2.1 -7.3 -4.2 -7.3 -4.6 0 -0.5 -1.4 -1.2 -3.1 -1.6 -1.7 -0.3 -4.5 -1.7 -6.2 -3 -1.7 -1.2 -3.7 -2.2 -4.4 -2.2 -0.7 0 -1.3 -0.5 -1.3 -0.9 0 -0.5 -1.7 -1.7 -3.7 -2.7 -7.3 -3.5 -17.7 -9.4 -19.4 -10.9 -1 -0.9 -3.8 -2.5 -6.4 -3.7 -2.5 -1.2 -6.2 -3.2 -8.3 -4.6 -2 -1.5 -3.9 -2.7 -4.4 -2.7 -0.3 0 -3.6 -1.8 -7 -4 -3.5 -2.2 -7 -4 -7.9 -4 -0.9 0 -1.8 -0.5 -2.1 -1 -0.3 -0.8 -6.8 -4.7 -23.4 -14 -2.5 -1.4 -5.4 -3.1 -6.4 -3.9 -0.9 -0.7 -4.7 -2.8 -8.3 -4.7 -3.7 -1.8 -6.7 -3.8 -6.7 -4.3 0 -0.5 -0.7 -0.9 -1.6 -0.9 -0.9 0 -4.3 -1.8 -7.6 -4 -3.3 -2.2 -6.6 -4 -7.4 -4 -0.7 0 -3.3 -1.6 -5.8 -3.5 -2.5 -2 -5.1 -3.5 -5.7 -3.5 -0.6 0 -3.7 -1.8 -6.7 -4 -3.1 -2.2 -6.7 -4 -8 -4 -1.3 0 -2.3 -0.6 -2.3 -1.2 0 -0.7 -1.2 -1.7 -2.5 -2.3 -1.5 -0.7 -4.5 -2.3 -6.9 -3.8 -2.3 -1.4 -6.7 -4 -9.8 -5.9 -3 -1.8 -7.4 -4.5 -9.7 -6 -2.2 -1.5 -4.5 -2.8 -5.1 -2.8 -0.5 0 -3.1 -1.8 -5.9 -4 -2.7 -2.2 -5.3 -4 -5.9 -4 -0.6 0 -3.1 -1.5 -5.7 -3.5 -2.4 -1.8 -5 -3.5 -5.5 -3.5 -0.5 0 -3.5 -1.8 -6.5 -4 -3 -2.2 -5.9 -4 -6.4 -4 -0.5 0 -2.8 -1.5 -5.2 -3.5 -2.4 -1.8 -4.9 -3.5 -5.5 -3.5 -0.7 0 -1.4 -0.5 -1.6 -1 -0.1 -0.5 -3.3 -2.9 -7 -5.3 -3.7 -2.3 -7.6 -5 -8.7 -6 -3.7 -3.2 -12.8 -9.6 -13.7 -9.6 -0.6 0 -2.8 -1.8 -5 -4 -2.2 -2.2 -4.5 -4 -5.2 -4 -0.7 0 -2.8 -1.5 -4.6 -3.5 -1.8 -1.8 -3.9 -3.5 -4.7 -3.5 -0.7 0 -2.1 -0.9 -2.9 -2 -0.9 -1 -5.5 -5 -10.3 -8.7 -4.7 -3.8 -11.7 -9.6 -15.5 -12.8 -3.7 -3.3 -8.9 -7.9 -11.4 -10 -2.7 -2.2 -6.2 -5.8 -8.2 -7.7 -1.8 -2.1 -3.8 -3.8 -4.2 -3.8 -0.9 0 -39.3 -38.2 -39.3 -39.2 0 -0.3 -3 -3.6 -6.6 -7 -3.6 -3.5 -7.4 -7.7 -8.4 -9.5 -1 -1.7 -3.2 -4.3 -5 -5.5 -1.7 -1.4 -3.1 -3.2 -3.1 -4.2 0 -0.9 -0.5 -1.6 -1 -1.6 -0.6 0 -4.4 -4.3 -8.4 -9.4 -3.9 -5.2 -8.2 -10.5 -9.2 -11.9 -5.8 -6.9 -10.2 -12.9 -10.2 -13.7 0 -0.6 -0.8 -1.7 -1.7 -2.8 -2.3 -2.2 -11 -14.7 -13.2 -18.7 -0.9 -1.6 -2.3 -3.5 -3.1 -4.2 -0.7 -0.6 -2.8 -3.7 -4.5 -6.9 -1.7 -3.1 -4.2 -6.9 -5.3 -8.5 -1.2 -1.5 -2.2 -3.2 -2.2 -3.8 0 -1 -4 -7.2 -6.7 -9.9 -0.7 -0.8 -1.4 -2.1 -1.4 -2.8 0 -0.7 -1.5 -3.8 -3.5 -6.9 -1.8 -3 -3.5 -6.1 -3.5 -6.8 0 -0.7 -1.2 -2.9 -2.5 -4.9 -3.2 -4.5 -5.5 -8.8 -5.5 -10.4 0 -0.6 -1.5 -3.7 -3.5 -6.8 -1.8 -3 -3.5 -6.5 -3.5 -7.6 0 -1.2 -0.5 -2.5 -1 -3.1 -1.8 -2.1 -7 -12.1 -7 -13.7 0 -0.8 -1.4 -4 -3 -7.2 -1.7 -3.1 -3.8 -8.2 -4.7 -11.4 -0.9 -3.1 -2.1 -6.2 -2.7 -6.9 -0.5 -0.6 -1.7 -4 -2.9 -7.5 -1 -3.5 -2.7 -8.1 -3.6 -10.2 -2.8 -6 -12 -34.9 -12 -37.3 0 -1.3 -0.5 -3.1 -1 -4.3 -1.7 -3.5 -6.1 -18.8 -7 -24.9 -0.5 -3.2 -2.2 -11.1 -3.8 -17.4 -1.6 -6.4 -3.8 -16.7 -4.7 -23.1 -1 -6.4 -2.7 -15.7 -3.7 -20.8 -0.9 -5.1 -2.2 -14.2 -2.7 -20.2 -0.6 -6 -1.8 -18.2 -2.9 -27.1 -4.6 -40.2 -4.7 -42.2 -4.7 -209.6 0 -167.9 0.1 -170.6 4.7 -210.8 0.9 -8.2 2.2 -20.2 2.8 -26.6 0.7 -6.4 2 -15.7 2.9 -20.8 0.9 -5.1 2.5 -14.4 3.6 -20.8 0.9 -6.4 3.1 -16.7 4.7 -23.1 1.6 -6.4 3.3 -14.2 3.8 -17.6 0.6 -3.2 2.5 -10.9 4.5 -17 2 -6 3.6 -11.9 3.6 -13.1 0 -1.7 2 -8 4.6 -14.8 0.5 -1.3 2.1 -5.9 3.5 -10.4 1.4 -4.4 3.2 -9.6 4 -11.6 0.8 -1.8 2.2 -5.5 2.9 -8.1 0.8 -2.5 2.7 -7.4 4.2 -10.7 1.5 -3.3 2.8 -6.8 2.8 -7.7 0 -1 1.6 -4.7 3.5 -8.3 2 -3.6 3.5 -7.2 3.5 -8 0 -1.6 5.2 -11.7 7 -13.7 0.6 -0.6 1 -2 1 -3.1 0 -1.2 1.3 -4.2 2.9 -6.7 1.6 -2.5 3.7 -6.8 4.9 -9.5 1 -2.8 2.5 -5.8 3.3 -6.7 0.8 -0.9 3.7 -6.1 6.5 -11.6 2.8 -5.4 6.7 -12.4 8.8 -15.4 2 -3 3.7 -6 3.7 -6.5 0 -0.6 1 -2.2 2.2 -3.7 1.2 -1.6 3.6 -5.4 5.3 -8.5 1.7 -3.2 4.2 -6.7 5.3 -7.9 1.3 -1.2 2.2 -2.8 2.2 -3.7 0 -0.9 0.7 -2.1 1.5 -2.5 0.8 -0.5 3.1 -3.6 5.2 -6.8 2.1 -3.2 4.7 -6.8 6 -8 1.3 -1.2 2.3 -2.7 2.3 -3.3 0 -0.7 1.5 -3.1 3.2 -5.3 1.8 -2.2 5.3 -6.6 7.7 -9.8 6.7 -8.9 11.2 -14.4 14.8 -17.9 1.7 -1.8 3.1 -3.7 3.1 -4.3 0 -0.6 1.7 -2.7 3.8 -4.6 2 -2 5.3 -5.5 7.2 -7.9 4.2 -5.2 7 -8.3 31.6 -33.3 10.5 -10.6 19.3 -19.3 19.8 -19.3 0.3 0 2.3 -1.7 4.2 -3.8 1.8 -2 5.7 -5.5 8.3 -7.7 5.4 -4.4 11.9 -10.2 16.4 -14.6 1.6 -1.5 3.2 -2.8 3.7 -2.8 0.5 0 2.1 -1.2 3.6 -2.7 2.5 -2.4 11.2 -9.4 21 -17 12.5 -9.6 14.7 -11.2 20.2 -15 3.2 -2.2 7.6 -5.4 9.6 -7.2 2 -1.8 4 -3.2 4.6 -3.2 1.2 0 9.4 -6 9.8 -7.2 0.2 -0.6 1 -0.9 1.8 -0.9 0.7 0 3.1 -1.5 5.3 -3.5 2.2 -1.8 4.7 -3.3 5.5 -3.5 0.8 0 2.7 -1 4 -2.3 2.2 -2.2 9.6 -6.8 18.4 -11.8 1.8 -1 4.3 -2.7 5.3 -3.6 1.8 -1.6 3.8 -2.9 15.1 -9.5 2.1 -1.3 6.5 -4 9.6 -6 3.2 -2.1 6.2 -3.8 6.7 -3.8 1.5 0 10.4 -6.1 10.4 -7.2 0 -0.5 1 -0.9 2.2 -0.9 1.2 0 4.9 -1.7 8 -3.7 13.5 -8.7 16.1 -10.2 30.8 -18 2 -0.9 3.7 -2.2 4 -2.7 0.3 -0.5 3.6 -2.4 7.3 -4.3 3.6 -1.8 7.3 -3.9 8.1 -4.6 1.4 -1.2 5.3 -3.3 16.4 -9.5 10.6 -5.9 13.3 -7.5 13.3 -8.3 0 -0.6 0.7 -0.9 1.6 -0.9 1.6 0 7.9 -3.5 18.6 -10.3 2.5 -1.6 6.9 -4.2 9.8 -5.7 8.4 -4.5 13.1 -7.2 17.9 -10.2 2.5 -1.5 5.9 -3.3 7.5 -4 1.5 -0.7 3.1 -1.6 3.5 -2.1 0.3 -0.5 3.7 -2.3 7.5 -4.2 3.8 -2 7.2 -3.8 7.5 -4.2 0.7 -0.9 13.3 -8 21.4 -11.9 3.2 -1.6 7 -3.6 8.7 -4.5 6.4 -3.6 12.4 -6.8 16.2 -8.5 2.2 -1 6.7 -3 9.8 -4.5 14.3 -6.6 51.9 -18.9 57.5 -18.9 l4.9 0.1 -4.6 2.2 c-2.5 1.2 -7.5 3.5 -11 5.1 -7 3.3 -19.4 10.7 -21.7 13.1 -0.8 0.8 -2.1 1.5 -2.7 1.5 -0.6 0 -4.5 2.8 -8.9 6.1 -8.1 6.2 -8.5 6.6 -15.4 12.4 -2.3 1.8 -4.7 3.5 -5.4 3.5 -0.7 0 -2 0.7 -2.8 1.6 -0.9 0.9 -4.7 3.3 -8.5 5.4 -3.7 2.1 -7 4.2 -7.4 4.5 -0.3 0.5 -3.5 2.4 -7 4.4 -3.6 2.1 -7.2 4.5 -8 5.4 -0.8 0.9 -2.1 1.7 -3 1.7 -0.8 0 -2.2 0.7 -3 1.5 -2 1.8 -11.1 7.7 -12 7.7 -0.3 0 -2.2 1.3 -4.2 2.9 -1.8 1.6 -4.2 2.9 -5 2.9 -0.9 0 -2.1 0.7 -2.5 1.5 -0.8 1.3 -11 8.4 -20.2 14.1 -1.6 1 -13.6 9.2 -21 14.4 -1.4 0.9 -4.3 2.8 -6.4 4 -2.1 1.3 -6 4 -8.8 6.1 -2.8 2 -5.4 3.7 -6 3.7 -0.6 0 -3 1.8 -5.5 4 -2.5 2.2 -5.9 4.6 -7.5 5.4 -1.6 0.8 -4.4 2.7 -6.1 4 -1.8 1.5 -4 2.7 -4.9 2.7 -0.9 0 -2.1 0.7 -2.5 1.5 -0.5 0.9 -4 3.6 -7.9 6 -3.8 2.4 -7.2 4.7 -7.5 5.2 -0.3 0.3 -1.4 1 -2.3 1.5 -0.9 0.5 -5.7 3.7 -10.4 7.2 -4.7 3.5 -9.8 6.9 -11.2 7.5 -1.4 0.6 -3.7 2.2 -5 3.5 -1.4 1.4 -3.9 3.3 -5.8 4.4 -6.4 3.8 -15.8 10.5 -17.2 12.2 -0.9 1 -2.3 1.8 -3.1 1.8 -0.9 0 -2.5 0.9 -3.7 2.1 -1 1 -6.5 5.1 -11.8 8.9 -5.4 3.7 -11 8 -12.4 9.5 -1.4 1.5 -3.3 2.7 -4.4 2.7 -0.9 0 -1.7 0.3 -1.7 0.9 0 0.5 -3.3 3.5 -7.5 6.6 -4.2 3.1 -7.5 6 -7.5 6.6 0 0.5 -0.7 0.9 -1.6 0.9 -0.9 0 -3.2 1.6 -5.1 3.5 -2 2 -3.9 3.5 -4.4 3.5 -0.5 0 -2.4 1.5 -4.4 3.3 -2 1.8 -8 7.2 -13.4 11.8 -30.5 25.9 -51.1 46.3 -69.5 69.1 -2.7 3.2 -5.2 5.9 -5.8 5.9 -0.5 0 -0.9 0.7 -0.9 1.6 0 0.9 -1.2 2.7 -2.7 3.8 -1.4 1.2 -3.6 3.7 -4.7 5.5 -1.3 2 -2.9 4 -3.6 4.6 -1.4 1.2 -15.2 19.9 -17.3 23.4 -0.6 1 -2.5 3.8 -4.2 6 -1.6 2.2 -4.2 6.2 -5.7 9 -1.5 2.7 -3.1 4.9 -3.6 4.9 -0.5 0 -1.4 1.4 -2.1 3.1 -0.7 1.8 -2.8 5.3 -4.7 7.9 -1.8 2.5 -3.3 5.3 -3.5 6.1 0 0.8 -1.3 3.2 -2.8 5.2 -1.5 2.1 -4.3 6.5 -6 9.8 -1.8 3.5 -4.3 7.9 -5.3 9.8 -1.2 2 -2.5 4.9 -3.2 6.5 -0.6 1.7 -1.6 3.8 -2.2 4.7 -2.4 4 -9.7 19.5 -12.5 26.4 -1.6 4.2 -3.3 8.1 -3.9 8.8 -0.6 0.6 -1 1.8 -1 2.9 0 1.8 -2 6.8 -4.7 11.8 -1.4 2.8 -8.9 24.4 -10.9 31.5 -0.9 3.2 -2.7 9.5 -3.9 13.9 -6.2 21.5 -8.7 31.1 -10.6 43.2 -1.3 7.2 -2.5 13.6 -2.9 14.2 -0.9 1.5 -2.8 13.7 -3.9 25.8 -0.6 5.8 -1.5 15.4 -2.2 21.4 -1.8 17.7 -3.6 43.9 -3.6 56.1 0 14.4 3.1 60.4 4.6 67.8 0.7 3 1.2 9 1.2 13.2 0 4.2 0.5 9.5 1 11.8 0.6 2.3 1.7 7.9 2.4 12.2 0.7 4.5 2.3 14.1 3.6 21.4 1.2 7.3 3 16.6 4 20.8 0.9 4.2 2.8 12.2 3.9 18.1 1.2 5.8 3.2 14.2 4.5 18.6 1.4 4.4 2.4 9 2.4 10.3 0 2.4 2.5 11.4 5.3 19.2 0.9 2.3 1.6 5.5 1.6 7 0 1.5 1.8 8.2 4 14.9 2.2 6.7 4 13.2 4 14.3 0 1.2 1.6 7.3 3.6 13.6 12.1 39.7 12.9 42.6 16.9 57.8 1 3.8 3.6 12.4 5.7 19.1 2.1 6.7 4.2 14 4.5 16.2 0.5 2.2 1.2 4.6 1.6 5.2 0.5 0.7 1.7 4.5 2.9 8.7 1.2 4.2 3.8 13.3 5.9 20.2 2.2 7 4.6 15.4 5.5 18.5 0.9 3.2 2.5 8.1 3.5 11 0.9 2.9 2.3 7.3 3.1 9.8 0.7 2.5 1.7 5.7 2.3 6.9 2.9 6.5 4.6 11.4 4.6 13.3 0 1.2 1.5 5.9 3.5 10.5 1.8 4.7 3.5 9.5 3.5 10.6 0 1.2 1.6 5.1 3.5 8.9 2 3.8 3.5 7.6 3.5 8.4 0 1.5 5.1 14.1 11.6 28.5 1.8 4.2 4 9.5 4.9 11.9 0.7 2.3 1.8 4.3 2.3 4.3 0.5 0 0.9 0.6 0.9 1.3 0 0.7 0.8 3.1 1.8 5.4 1.6 3.8 2.7 5.9 6.5 12.9 0.5 0.9 1.6 3.6 2.7 5.8 0.9 2.2 3.7 7.7 6.2 12.1 2.5 4.5 5.7 10.3 6.9 12.9 1.3 2.7 3.8 7.2 5.7 9.8 1.8 2.8 3.7 6 4.2 7.3 0.3 1.3 2 3.7 3.6 5.4 1.6 1.7 2.9 3.9 2.9 4.9 0 0.9 0.6 2.1 1.2 2.4 0.7 0.5 2.8 3.5 4.6 6.7 1.8 3.3 4.7 7.5 6.4 9.4 1.6 1.8 2.9 3.8 2.9 4.4 0 0.9 13.2 18.8 18.9 25.9 1.6 2.1 3 4 3 4.5 0 0.5 1.4 2.2 3.2 3.9 1.7 1.6 4.7 5.1 6.6 7.5 12.4 16.1 33 37.4 53.1 54.9 8.3 7.2 16.4 14.3 18.1 15.8 1.6 1.5 3.5 2.8 4 2.8 0.6 0 2.7 1.8 4.9 4 2.1 2.2 4.3 4 5 4 0.6 0 1.8 0.7 2.7 1.5 0.9 0.7 3.5 2.7 5.8 4.3 2.3 1.6 5.9 4.2 7.9 5.8 3.8 3 6 4.5 11.7 7.9 1.8 1 5.7 3.7 8.7 5.8 2.9 2 6.1 4 7 4.5 0.9 0.3 3 1.6 4.6 2.8 4.2 2.8 24.7 14.1 32.3 17.8 2.2 1 5.1 2.5 6.4 3.1 1.3 0.7 5 2.5 8.1 4 3.2 1.6 8.8 4.4 12.5 6.2 3.6 1.8 7.2 3.3 7.9 3.3 0.8 0 4.5 1.5 8.4 3.3 3.8 1.7 9.9 4.2 13.4 5.3 3.5 1.2 6.6 2.4 6.9 2.8 0.8 0.9 8.4 3.6 10.4 3.6 0.9 0 5.5 1.5 10.3 3.3 12.6 4.7 35 11.8 37.5 11.7 1.3 0 6.6 1.3 11.9 2.9 5.2 1.6 14.8 3.9 21.4 5.1 6.6 1.3 15.8 3.1 20.6 4.2 4.7 1 12.8 2.3 17.9 2.8 5.1 0.6 10.9 1.4 12.7 1.7 12.5 2.4 28.1 4.3 45.6 5.3 11.1 0.6 25.2 1.7 31.2 2.3 17.3 1.8 60.2 3.7 109.7 4.6 25.1 0.5 66.1 1.5 91 2.2 35.7 1.2 52.6 1.2 78.5 0 65.7 -2.8 64.1 -2.7 100.7 -8 18.2 -2.5 25.1 -3.8 31.2 -5.3 3.5 -0.9 9.5 -2.2 13.3 -2.8 3.8 -0.6 9.8 -2 13.3 -3 3.5 -1 11.1 -3 16.7 -4.5 5.8 -1.5 13.5 -3.7 17.2 -5.1 3.8 -1.4 7.6 -2.4 8.7 -2.4 1 0 6.4 -1.8 11.7 -4 5.3 -2.2 10.5 -4 11.4 -4 0.9 0 5 -1.6 9 -3.5 3.9 -1.8 8.2 -3.5 9.4 -3.5 1 0 3.7 -1 5.9 -2.4 2.1 -1.3 6.5 -3.3 9.6 -4.6 8.2 -3.2 20.4 -8.9 25.2 -11.6 2.2 -1.3 6.4 -3.3 9.2 -4.6 2.8 -1.3 5.4 -2.8 5.8 -3.2 0.3 -0.5 2.2 -1.5 4 -2.4 3.9 -2 17.7 -9.9 22.3 -12.9 1.7 -1.2 4.2 -2.5 5.4 -3.1 1.3 -0.6 3.3 -1.8 4.6 -2.9 1.3 -1 6.7 -4.7 12 -8.2 5.3 -3.5 10.6 -7.2 11.9 -8.2 1.2 -1.2 3 -2.5 4.3 -3.2 4.7 -2.9 17.4 -12.7 17.4 -13.6 0 -0.5 0.6 -0.9 1.4 -0.9 0.8 0 3 -1.5 4.9 -3.5 2 -1.8 6.2 -5.5 9.4 -8.2 8.9 -7.5 27 -24.3 31.6 -29.3 2.3 -2.5 5.9 -6.4 8.1 -8.7 7.6 -7.7 20 -22.1 19.5 -22.5 -0.2 -0.3 -2.5 1.8 -5.1 4.7 -2.4 2.9 -8.3 9.1 -12.8 14 -7.6 8 -8.4 8.4 -8.4 5.7 0 -2.2 0.6 -3 2.3 -3 1.5 0 2.3 -0.8 2.3 -2.3 0 -1.3 0.8 -2.3 1.7 -2.3 0.9 0 1.7 -0.8 1.7 -1.7 0 -0.9 1 -1.7 2.3 -1.7 1.5 0 2.3 -0.8 2.3 -2.3 0 -1.3 0.6 -2.3 1.2 -2.3 0.7 0 1.2 -0.8 1.2 -1.7 0 -0.9 0.7 -1.7 1.6 -1.7 0.8 0 1.8 -1 2.2 -2.3 0.3 -1.3 1.4 -2.3 2.3 -2.3 1.2 0 2 -1.3 2.2 -3.1 0.2 -2.2 1 -3.3 2.8 -3.6 1.5 -0.2 2.7 -1.6 3.5 -4 0.7 -2.7 1.8 -3.8 3.8 -4 l2.9 -0.5 -2.2 3.3 c-1 1.7 -3.3 4.7 -5.1 6.6 -2.8 3 -2.8 3.2 -0.5 2 1.5 -0.7 3.2 -2.4 3.9 -3.9 0.7 -1.4 2.7 -4 4.4 -6 5.1 -5.5 9.6 -12.1 8.4 -12.1 -0.6 0 -2.5 2.2 -4.4 5 -3.1 4.6 -3.3 4.7 -3.7 2 -0.2 -1.5 0.1 -3 0.8 -3.2 0.7 -0.2 1.3 -1.2 1.3 -2.1 0 -0.9 0.8 -1.6 1.7 -1.6 0.9 0 1.7 -0.9 1.7 -2.2 0 -1.2 1.3 -3.8 2.9 -6 1.5 -2.2 4 -5.8 5.7 -8 1.5 -2.2 4 -5.3 5.5 -6.9 1.5 -1.6 3.1 -3.8 3.6 -4.9 0.3 -1.2 1.3 -2.1 2 -2.1 0.6 0 1.2 -0.8 1.2 -1.7 0 -1 0.8 -2.1 1.7 -2.4 0.9 -0.3 2 -1.7 2.4 -3.1 0.3 -1.3 1.7 -3.5 3 -4.7 2.3 -2.4 11.3 -15.5 11.3 -16.4 0 -0.2 3.2 -5.5 7.3 -11.8 3.9 -6.1 8.4 -13.5 10 -16.4 1.5 -2.9 3.5 -5.9 4.3 -6.7 0.8 -0.8 1.5 -2.3 1.5 -3.2 0 -1 1.4 -3.9 3.2 -6.6 1.7 -2.7 4.9 -8.4 7 -12.9 5.5 -11.7 7.3 -14.8 9 -16.5 0.8 -0.8 1.8 -2.9 2.2 -4.6 0.3 -1.7 2.2 -6.2 4 -10.2 1.8 -3.8 3.3 -7.5 3.3 -8.3 0 -0.7 1.7 -4.9 3.9 -9.1 2.1 -4.3 4.3 -9.1 4.7 -10.7 0.5 -1.6 2.1 -5.7 3.6 -9 1.5 -3.3 2.8 -6.8 2.8 -7.6 0 -0.9 1.3 -4.3 2.9 -7.5 1.6 -3.1 4.2 -9.2 5.7 -13.6 4.3 -12.7 9.1 -25.9 13.4 -36.7 4.5 -11.4 8.1 -21.8 8.1 -23.3 0 -0.9 1.6 -5.1 3.5 -9.2 2 -4 3.5 -8.5 3.5 -9.8 0 -1.3 1.8 -6.5 4 -11.7 2.2 -5.1 4 -9.9 4 -10.6 0 -0.8 1.6 -5.2 3.5 -9.8 2 -4.6 3.5 -9.4 3.5 -10.6 0 -1.2 0.5 -3 1.2 -4.2 2.2 -3.8 6.9 -16.9 6.9 -18.9 0 -1.2 1 -4.3 2.2 -7 1.3 -2.7 3.6 -9 5.1 -14.1 1.6 -5.1 3.9 -12.4 5.2 -16.2 1.4 -3.8 4 -12.1 6 -18.5 1.8 -6.4 5.3 -17.4 7.5 -24.7 2.2 -7.3 4 -14 4 -15 0 -1 1.5 -7.5 3.3 -14.6 1.8 -6.9 4 -15.8 4.7 -19.6 0.8 -3.8 2.1 -10.3 3 -14.4 4.9 -21.4 9.6 -55.2 10.4 -75.3 0.3 -6.9 0.9 -12.5 1.4 -12.5 0.5 0 0.7 -5.2 0.5 -11.6 -0.3 -9.8 -0.1 -11.6 1.4 -11.6 1 0 2 0.9 2.1 2.1 0.5 5.2 1.8 -19.5 1.8 -33.3 0 -13.2 -2.7 -57.8 -3.1 -51.6 0 1 -0.9 2 -1.8 2 -1.3 0 -1.7 -1.4 -1.7 -5.1 0 -5.3 1.7 -8.1 2.7 -4.5 0.3 1.2 0.6 -0.2 0.7 -3.1 0.1 -5.1 -2 -20.2 -4.5 -34.1 -0.7 -3.8 -1.7 -10.5 -2.3 -14.8 -0.6 -4.4 -1.4 -8.3 -1.7 -8.9 -0.3 -0.6 -1 -3.2 -1.6 -6 -2.2 -10.2 -9.4 -36.7 -10.5 -38.9 -0.6 -1.3 -1.2 -3.6 -1.2 -5.2 0 -1.7 -0.5 -3.9 -1.2 -5.1 -2.2 -3.8 -6.9 -16.9 -6.9 -18.9 0 -1.2 -0.5 -3 -1.2 -4.2 -1.7 -3.1 -5.3 -11.9 -6.9 -17 -0.8 -2.5 -2.8 -6.9 -4.3 -9.7 -1.4 -2.8 -2.7 -5.7 -2.7 -6.4 0 -1.2 -3.8 -9.7 -9 -19.8 -0.9 -1.8 -3.3 -6.6 -5.2 -10.4 -2 -3.8 -4.4 -8.3 -5.7 -10 -1.2 -1.6 -2.1 -3.6 -2.1 -4.2 0 -0.7 -1.8 -3.9 -4 -7.3 -2.2 -3.5 -4 -6.8 -4 -7.6 0 -0.7 -0.7 -2.1 -1.5 -2.9 -0.9 -0.8 -3 -4.2 -4.7 -7.3 -1.7 -3.2 -4.2 -6.8 -5.4 -8.2 -1.2 -1.3 -2.2 -2.9 -2.2 -3.6 0 -0.8 -0.7 -2.1 -1.4 -2.9 -0.8 -0.8 -3 -3.8 -4.9 -6.7 -2 -2.9 -4.4 -6.4 -5.7 -7.6 -1.2 -1.4 -3 -4 -4 -6 -7.4 -13.4 -58.6 -72.5 -76.6 -88.5 -2.8 -2.5 -8.4 -7.7 -12.6 -11.6 -6.9 -6.5 -21.3 -19.1 -31.2 -27.4 -2.2 -1.8 -5.3 -4.6 -6.9 -6.1 -1.6 -1.5 -6.8 -5.8 -11.6 -9.4 -4.7 -3.6 -9.1 -7.3 -9.6 -8.2 -0.5 -0.9 -1.5 -1.6 -2.3 -1.6 -0.7 0 -2.7 -1.3 -4.3 -2.9 -2.8 -2.8 -16.3 -13.6 -26 -20.7 -2.5 -2 -5.1 -4.2 -5.5 -5 -0.5 -0.8 -1.5 -1.5 -2.3 -1.5 -0.8 0 -2.9 -1.5 -4.6 -3.5 -1.8 -1.8 -4 -3.5 -4.9 -3.5 -0.9 0 -2.1 -0.7 -2.5 -1.5 -0.5 -0.9 -3.9 -3.7 -7.5 -6.5 -3.7 -2.7 -6.7 -5.3 -6.7 -5.9 0 -0.7 -0.7 -1.2 -1.5 -1.2 -0.8 0 -3.2 -1.4 -5.3 -3.1 -5.1 -4.5 -11.9 -9.7 -22.1 -17.4 -4.7 -3.6 -9.1 -7.2 -9.6 -8 -0.5 -0.8 -1.5 -1.5 -2.3 -1.5 -0.8 0 -2.9 -1.6 -4.6 -3.5 -1.8 -2 -4 -3.5 -4.9 -3.5 -0.9 0 -2.1 -0.7 -2.5 -1.5 -0.5 -0.9 -3.8 -3.7 -7.3 -6.4 -3.5 -2.5 -9.1 -6.8 -12.5 -9.4 -3.3 -2.7 -6.6 -4.7 -7.2 -4.7 -0.6 0 -1.5 -0.7 -2 -1.5 -0.5 -0.9 -4 -3.8 -7.9 -6.6 -3.8 -2.8 -7 -5.4 -7.3 -6 -0.2 -0.5 -1 -0.9 -1.7 -0.9 -0.8 0 -3.5 -1.8 -6 -4 -2.5 -2.2 -5.2 -4 -6 -4 -0.8 0 -1.5 -0.5 -1.5 -1 0 -0.9 -13.2 -10.5 -18.6 -13.5 -1.3 -0.7 -3.5 -2.3 -4.9 -3.6 -1.4 -1.4 -4 -3.2 -6 -4.2 -1.8 -1 -5 -3.1 -6.8 -4.7 -1.8 -1.6 -4 -3 -4.7 -3 -0.8 0 -2.7 -1.2 -4.3 -2.5 -1.6 -1.5 -5.7 -4.2 -9 -6.1 -10 -5.8 -11.9 -6.9 -17 -10.2 -2.8 -1.7 -5.2 -3.1 -5.7 -3.1 -0.3 0 -2.3 -1.2 -4.3 -2.5 -2.1 -1.5 -6 -3.8 -8.9 -5.3 -2.9 -1.5 -8.8 -4.7 -13.3 -7.2 -4.4 -2.5 -9.4 -5.1 -11 -5.8 -1.6 -0.6 -3.7 -1.6 -4.6 -2.3 -3.8 -2.3 -28.4 -13.9 -29.7 -13.9 -0.6 0 -4.7 -1.8 -9.2 -4 -4.5 -2.2 -9 -4 -10 -4 -1 0 -2.8 -0.5 -3.9 -1.2 -3.5 -1.8 -12.2 -5.4 -16.4 -6.7 -2.2 -0.7 -6.9 -2.3 -10.4 -3.7 -3.5 -1.4 -8.4 -3 -11 -3.5 -2.5 -0.5 -8.5 -2.2 -13.3 -3.8 -4.7 -1.6 -15.1 -4.7 -23.1 -7.2 -13.6 -4 -20.8 -6.6 -39.7 -13.9 -4.4 -1.7 -9.8 -3.3 -12.1 -3.6 -6.1 -0.9 -23.2 -5.5 -23.2 -6.4 0 -0.3 8.7 -1 19.4 -1.5 20.1 -0.8 37.1 0.3 51.6 3.5 4.5 0.9 12.8 2.8 18.5 3.9 5.8 1.3 13.7 3.3 17.9 4.6 4.2 1.3 8.5 2.3 9.8 2.3 1.3 0 6.5 1.4 11.6 3 5.1 1.7 11.9 3.7 15 4.6 3.2 0.8 11.8 3.6 19.1 6.2 7.3 2.7 16.4 5.8 20.2 7 3.8 1.3 10.2 3.8 14.2 5.7 3.9 2 7.7 3.5 8.4 3.5 0.7 0 4.4 1.6 8.2 3.5 3.7 2 7.4 3.5 8.3 3.5 0.8 0 4.3 1.5 7.7 3.3 3.5 1.8 8.4 4 11.2 4.9 2.7 0.8 4.9 1.7 4.9 2.2 0 0.3 2.2 1.6 5 2.8 2.7 1 6.2 2.8 7.9 3.7 1.7 0.8 5.3 2.7 8.1 4 2.8 1.4 6.1 3 7.4 3.7 1.3 0.7 5 2.4 8.1 3.9 3.2 1.5 6.6 3.2 7.5 3.9 0.9 0.6 3.1 1.7 5 2.5 1.7 0.7 3.1 1.7 3.1 2.2 0 0.5 0.9 0.9 2.2 0.9 1.2 0 3.3 0.9 4.9 2.2 1.5 1.2 5.1 3.2 8 4.5 6 2.8 15.9 8.3 22.2 12.5 2.4 1.5 5.1 2.8 6 2.8 0.9 0 2.1 0.6 2.4 1.3 0.5 0.6 2 1.7 3.2 2.3 1.4 0.6 4.5 2.2 6.8 3.7 2.4 1.4 7.5 4.3 11.6 6.5 3.9 2.1 7.7 4.5 8.5 5.3 0.8 0.7 3.1 2.1 5.3 2.9 2.1 0.9 5.3 2.7 7.3 3.9 4.2 3 12 7.4 14.8 8.3 1 0.5 2 1.2 2 1.7 0 0.6 0.8 1 1.8 1 0.9 0 3.5 1.3 5.4 2.8 2.1 1.6 5.8 3.8 8.3 5 2.5 1.2 6.2 3.2 8.3 4.6 2 1.5 3.9 2.7 4.4 2.7 0.3 0 3.6 1.8 7 4 3.5 2.2 6.6 4 6.8 4 0.3 0 2.8 1.4 5.5 3.1 6.1 3.9 9.9 6.1 19.1 10.9 3.9 2.1 7.2 4 7.2 4.5 0 0.5 1.7 1.5 3.8 2.4 4 1.6 10.4 5.8 11 7.2 0.2 0.5 1.4 0.8 2.7 0.8 1.2 0 4.7 1.8 7.9 4 3 2.2 6 4 6.6 4 0.6 0 3.1 1.6 5.5 3.5 2.5 2 5.1 3.5 5.7 3.5 0.6 0 3.7 1.8 6.7 4 3.1 2.2 6.1 4 6.7 4 0.6 0 2.5 1.2 4.4 2.7 3 2.5 10.5 7.3 17.4 11.2 1.7 0.9 5 3.1 7.3 5 2.3 1.7 4.5 3.1 5.1 3.1 0.5 0 2.8 1.4 5.1 3.2 2.3 1.7 5 3.7 6 4.3 3.7 2.3 17.9 12 22.4 15.5 2.5 2 5.9 4.4 7.5 5.5 7.9 5.5 16.7 12.5 17.1 13.3 0.2 0.6 2.1 1.8 4 2.9 2 0.9 4.6 3 5.8 4.5 1.2 1.5 2.5 2.8 3.1 2.8 0.5 0 2.7 1.5 4.9 3.3 2.1 1.8 10.5 9.1 18.7 16.2 8.2 7 15.7 13.9 16.5 15.1 0.9 1.3 2.1 2.3 2.8 2.3 0.9 0 35.1 34.2 45.7 45.9 2.4 2.7 5.8 6.2 7.6 8 1.7 1.7 3.1 3.8 3.1 4.7 0 0.8 0.5 1.5 1.2 1.5 1 0 16.6 18.6 20.7 24.7 0.9 1.3 3.1 4 4.9 5.9 1.6 2 5.8 7.5 9.1 12.4 3.3 5 6.5 9 7 9 0.5 0 1.5 1.8 2.2 4 0.7 2.2 1.7 4 2.2 4 0.6 0 3.5 4 6.6 9 7.3 11.4 7.9 12.5 11.6 18.7 1.7 2.9 4.5 7.3 6.1 9.8 1.7 2.5 4 6.8 5.3 9.6 1.2 2.7 2.4 4.9 2.9 4.9 0.6 0 1.3 1.4 1.7 3.2 0.3 1.7 1.4 3.9 2.3 4.9 0.8 0.9 1.8 2.9 2.2 4.4 0.5 1.4 1.4 2.5 2 2.5 0.6 0 1 0.7 1 1.4 0 1.5 5.4 13.5 11.7 25.4 1.8 3.7 3.3 7.4 3.3 8.1 0 1.3 3.5 9.1 7 16.2 0.6 1.2 1 2.8 1 3.6 0 1.5 2.2 6.9 4.9 11.7 0.6 1.2 1.8 4.9 2.7 8.2 0.9 3.3 3 8.9 4.6 12.5 1.6 3.6 2.9 7.4 2.9 8.5 0 1.3 1.5 6.6 3.5 11.9 1.8 5.4 3.5 10.9 3.5 12.1 0 1.3 1.4 6.5 3 11.6 1.6 5.1 3.9 14.2 5.2 20.2 1.3 6 3 14.3 4 18.5 0.9 4.2 2.2 11.2 2.8 15.6 0.6 4.5 1.8 12.5 2.8 17.9 3.2 17.8 5.3 37.2 10.2 93.6 2.1 23.8 2.1 305.4 0 329.2 -4.7 55.9 -7 77.2 -10 93.6 -1 5.4 -2.3 13.5 -2.9 17.9 -0.6 4.5 -1.8 11.4 -2.8 15.6 -1 4.2 -2.7 11.7 -3.7 16.7 -0.9 5.1 -3.2 14.4 -5.1 20.8 -3.6 12.8 -6 21.4 -9.4 33.5 -1.2 4.5 -2.7 9.1 -3.3 10.4 -2.3 4.7 -5.4 14 -6.2 18.2 -0.5 2.3 -1.3 4.3 -1.8 4.3 -0.5 0 -1.3 1.5 -1.7 3.5 -0.5 1.8 -1.3 3.7 -1.8 4 -0.6 0.5 -1 2.2 -1 4.2 0 1.8 -0.5 3.3 -1.2 3.3 -0.6 0 -1.2 0.8 -1.2 1.6 0 0.9 -1.3 4.2 -2.9 7.2 -1.6 3 -2.9 6.1 -2.9 7 0 0.8 -1.5 4.5 -3.3 8.2 -3.1 5.9 -10.3 21.3 -12.1 25.6 -0.3 0.9 -1.7 3.3 -3 5.2 -1.3 2 -2.8 4.7 -3.5 6.4 -0.6 1.6 -1.6 3.7 -2.3 4.6 -0.6 0.9 -2.7 4.7 -4.5 8.3 -1.8 3.7 -4 7.3 -4.7 8.1 -0.7 0.8 -2.9 4.2 -4.7 7.3 -4.6 8 -5.3 9.1 -12.6 20.1 -3.5 5.3 -7 11.1 -8 12.7 -0.9 1.6 -2.3 3.6 -3.1 4.2 -0.7 0.7 -4 5 -7.2 9.7 -5.8 8.3 -8.7 12.1 -16.1 20.8 -2.1 2.4 -3.8 4.7 -3.8 5.1 0 0.7 -6.1 8 -11.2 13.2 -2 2.2 -3.8 4.4 -4 5 -0.9 3 -54.4 57.8 -56.2 57.8 -0.6 0 -1.8 1 -2.8 2.3 -0.8 1.2 -6.1 6.2 -11.8 11.2 -5.7 5 -11.7 10.3 -13.3 11.8 -1.6 1.5 -5.1 4.3 -7.7 6.2 -2.8 2 -5 3.9 -5 4.5 0 0.5 -0.7 0.9 -1.5 0.9 -0.8 0 -3.1 1.8 -5.3 4 -2.1 2.2 -4.5 4 -5.3 4 -0.9 0 -2.1 0.7 -2.5 1.5 -0.9 1.6 -12.6 10.7 -16.7 13.1 -1.2 0.7 -3.3 2.3 -4.7 3.6 -1.4 1.2 -3.8 3.1 -5.4 4.2 -20.9 14.4 -20.9 14.4 -29.5 19.9 -3 2 -7.2 4.9 -9.2 6.7 -2.1 1.7 -4.3 3.1 -5 3.1 -1.3 0 -10.6 5.9 -18.2 11.6 -2.7 1.8 -5.1 3.5 -5.5 3.5 -0.5 0 -3.1 1.6 -5.9 3.5 -2.8 2 -5.4 3.5 -5.9 3.5 -0.8 0 -4.5 2.3 -18.7 11.8 -2.7 1.7 -5.9 3.2 -7 3.2 -1.3 0 -2.4 0.3 -2.7 0.9 -0.6 1.3 -9.4 6.8 -12.1 7.7 -1.5 0.3 -2.7 1.2 -2.7 1.6 0 0.5 -3 2.3 -6.6 4.2 -3.7 1.7 -8.3 4.5 -10.3 5.9 -2 1.5 -3.8 2.8 -4.3 2.8 -0.3 0 -5.8 3 -12 6.7 -6.2 3.7 -13.1 7.5 -15.1 8.4 -2 0.8 -3.7 2 -3.7 2.4 0 0.5 -2.4 1.8 -5.4 3.2 -3 1.3 -7 3.7 -9.1 5.2 -2.1 1.6 -4.6 2.9 -5.5 2.9 -1 0 -1.8 0.6 -1.8 1.2 0 0.7 -0.6 1.2 -1.4 1.2 -0.7 0 -3 1.3 -5.1 2.9 -2.1 1.6 -4.5 2.9 -5.4 2.9 -0.9 0 -2.3 0.7 -3 1.6 -0.8 0.9 -4.4 3 -8 4.7 -3.6 1.7 -6.8 3.6 -7.2 4 -0.6 0.8 -10.9 6.8 -19.1 11 -1.8 1 -5 2.8 -6.9 4 -1.8 1.3 -5.5 3.3 -8.1 4.6 -2.5 1.2 -7.5 3.9 -11 5.9 -6.6 3.8 -18.9 10.5 -30 16.3 -3.5 1.7 -7.2 3.7 -8.1 4.4 -0.9 0.6 -4.3 2.3 -7.5 3.8 -3.1 1.5 -7.3 3.6 -9.2 4.6 -1.8 1 -5.7 2.9 -8.3 4.2 -2.7 1.3 -5.8 2.8 -6.9 3.5 -1.2 0.6 -4.3 2.1 -6.9 3.1 -2.8 1.2 -5 2.4 -5 2.8 0 0.5 -2.2 1.4 -4.9 2.2 -2.8 0.8 -7.7 3 -11.2 4.9 -3.5 1.8 -6.8 3.3 -7.4 3.3 -0.7 0 -5 1.8 -9.7 4 -4.7 2.2 -9 4 -9.7 4 -0.6 0 -2 0.5 -3.1 1.2 -3.7 2 -10 4.5 -17 6.8 -3.8 1.3 -12.9 4.4 -20.2 7 -7.3 2.7 -16.6 5.7 -20.8 6.8 -4.2 1.2 -11.1 3.2 -15.6 4.5 -4.4 1.3 -11.7 3.2 -16.2 4.4 -4.4 1 -10.6 2.8 -13.9 3.7 -3.1 0.9 -8.9 2.1 -12.7 2.7 -3.8 0.5 -10.5 1.7 -15 2.8 -8.4 2 -13.3 2.7 -41.6 6.4 -35.3 4.6 -77.4 6.5 -106.3 4.5z m833 -1149.9 c-0.3 -1.2 -0.6 -0.2 -0.6 2 0 2.2 0.2 3.1 0.6 2.1 0.2 -1.2 0.2 -3 0 -4z"/>
  <path d="M1961.2 985.9 c0 -1.6 0.6 -3.2 1.2 -3.6 0.7 -0.3 1.2 -0.3 1.2 0.2 0 0.5 0.3 2.1 0.7 3.6 0.6 1.8 0.2 2.5 -1.2 2.5 -1.2 0 -1.8 -1 -1.8 -2.8z"/>
 </g>
 <g fill="#ffffff">
  <path d="M1246.2 1838 c-5.4 -0.9 -14.2 -2.7 -19.6 -3.9 -5.4 -1.3 -14 -3.3 -19.2 -4.5 -5.1 -1.2 -13.4 -3.5 -18.5 -5.1 -5 -1.6 -9.8 -3 -10.9 -3 -0.9 0 -6.1 -1.6 -11.4 -3.5 -5.3 -2 -10.5 -3.5 -11.6 -3.5 -1 0 -5.7 -1.6 -10.4 -3.5 -4.6 -2 -9.7 -3.5 -11.2 -3.5 -1.5 0 -3.7 -0.5 -4.9 -1.2 -1 -0.6 -3.8 -1.7 -6 -2.7 -2.2 -0.9 -5.5 -2.2 -7.3 -3 -1.7 -0.7 -4.2 -1.3 -5.3 -1.3 -1 0 -4.5 -1.3 -7.7 -2.7 -3.1 -1.5 -8.2 -3.3 -11.4 -4.2 -3.1 -0.8 -9.2 -3 -13.6 -4.9 -4.4 -1.8 -9 -3.3 -10.3 -3.3 -1.2 0 -3.6 -0.7 -5.3 -1.6 -1.7 -0.9 -8.1 -3.2 -14.1 -5.3 -6 -2 -12.5 -4.4 -14.4 -5.2 -1.8 -0.9 -6 -2.4 -9.2 -3.3 -11.3 -3.5 -25.5 -8.5 -32.2 -11.6 -3.7 -1.6 -7.6 -3 -8.8 -3 -1 0 -5.4 -1.5 -9.6 -3.5 -4.3 -1.8 -8.4 -3.5 -9.4 -3.5 -0.9 0 -5.2 -1.6 -9.6 -3.6 -4.3 -2 -9.9 -4.3 -12.5 -5.1 -6.1 -2.1 -18.2 -6.9 -25.6 -10.5 -3.2 -1.5 -6.5 -2.8 -7.2 -2.8 -0.7 0 -4.3 -1.5 -7.9 -3.3 -3.7 -1.8 -10.9 -5.3 -15.9 -7.6 -5.1 -2.3 -10.3 -4.7 -11.6 -5.5 -1.3 -0.7 -6 -3.1 -10.6 -5.5 -4.5 -2.3 -9.5 -5.1 -10.9 -6.1 -1.5 -1 -3.5 -1.8 -4.4 -1.8 -0.8 0 -4.2 -1.8 -7.2 -4 -3.1 -2.2 -6.1 -4 -6.7 -4 -0.6 0 -3.7 -1.8 -7 -4 -3.3 -2.2 -6.7 -4 -7.4 -4 -0.8 0 -2.4 -1 -3.7 -2.4 -1.2 -1.4 -4.6 -3.7 -7.5 -5.1 -2.9 -1.5 -5.9 -3.6 -6.7 -4.5 -0.9 -1 -2.2 -1.8 -3 -1.8 -0.8 0 -2.2 -0.8 -3 -1.8 -0.8 -1 -5.7 -4.6 -10.9 -8.1 -5.1 -3.3 -11 -7.6 -13.1 -9.4 -2 -1.7 -5.4 -4.6 -7.5 -6.4 -24.6 -20.2 -50.9 -45.2 -65.3 -61.6 -5.5 -6.4 -11.8 -13.2 -13.7 -15.2 -2.1 -2 -3.8 -4.2 -3.8 -4.6 0 -0.6 -1.6 -2.5 -3.5 -4.4 -2 -1.8 -3.5 -3.9 -3.5 -4.7 0 -0.8 -0.7 -2 -1.5 -2.4 -1.7 -1 -12.8 -15.1 -13.6 -17.2 -0.2 -0.7 -1.6 -2.8 -3.1 -4.6 -3.6 -4.6 -17.6 -26 -18.8 -28.8 -0.6 -1.3 -2.1 -3.8 -3.3 -5.8 -1.2 -1.8 -3.8 -6.5 -5.7 -10 -2 -3.6 -3.9 -7.5 -4.6 -8.7 -0.6 -1.2 -1.4 -2.9 -1.7 -3.8 -0.5 -0.9 -2.3 -4.3 -4.2 -7.5 -1.8 -3.1 -3.3 -6.5 -3.5 -7.4 0 -0.9 -0.7 -2.5 -1.5 -3.5 -0.8 -1 -2.4 -4.2 -3.6 -7 -3.1 -7.6 -5.3 -12.7 -7.7 -17.8 -1.3 -2.5 -2.2 -5.5 -2.2 -6.6 0 -1.2 -0.7 -3.5 -1.6 -5.3 -3.1 -6 -5.3 -11.7 -5.3 -13.5 0 -1.8 -3.7 -12.6 -6.5 -18.8 -0.9 -2 -1.6 -4.6 -1.6 -6 0 -1.3 -0.8 -5.3 -1.8 -9 -1.7 -6.2 -2.9 -11.1 -6.8 -30.4 -3.2 -16.2 -5.2 -28.9 -6.4 -43.3 -0.7 -8.2 -1.8 -20 -2.5 -26 -1.3 -11.8 -0.6 -53.1 1.3 -71 0.6 -5.7 1.5 -15.4 1.8 -21.4 0.5 -6 1.5 -14.6 2.3 -19.1 4 -21.3 5.1 -27 5.8 -32.3 0.5 -3.1 2 -10.7 3.5 -16.7 1.5 -6 3.2 -13.5 4 -16.7 0.7 -3.1 1.7 -7.3 2.3 -9.2 0.6 -1.8 2.1 -7.4 3.3 -12.1 1.3 -4.7 3.7 -13.1 5.3 -18.5 1.7 -5.4 3.9 -12.7 5 -16.2 0.9 -3.5 2.2 -6.8 2.5 -7.5 0.5 -0.6 1.4 -3.5 2.2 -6.4 0.8 -2.9 2.2 -7.5 3.2 -10.4 1 -2.9 2.5 -7.5 3.6 -10.4 0.9 -2.9 3.5 -10 5.5 -15.8 2.2 -5.9 3.9 -11.6 3.9 -12.6 0 -0.9 1.3 -4.5 2.8 -7.7 1.5 -3.3 3.8 -9.6 5.2 -14.1 1.5 -4.4 3.2 -9.6 4.2 -11.6 0.8 -1.8 2.9 -8.1 4.7 -13.6 1.7 -5.7 3.7 -10.4 4.2 -10.7 0.5 -0.3 0.9 -1.7 0.9 -3.1 0 -1.5 1.8 -6.9 4 -12.2 2.2 -5.2 4 -10.2 4 -10.9 0 -0.8 1.5 -5.3 3.3 -10 1.7 -4.7 3.9 -10.7 4.7 -13.3 0.8 -2.5 2.1 -6.1 2.9 -8.1 0.8 -1.8 2.2 -5.5 2.9 -8.1 1.3 -4.3 3.1 -8.8 6.4 -15.6 0.8 -1.6 1.7 -4.4 2.2 -6.4 0.5 -1.8 2.1 -6.2 3.7 -9.6 1.5 -3.3 2.8 -6.7 2.8 -7.4 0 -0.7 1.8 -5.1 4 -9.7 2.2 -4.6 4 -8.7 4 -9 0 -0.6 5.9 -13.6 11.7 -25.5 1.8 -3.8 3.3 -7.4 3.3 -7.9 0 -0.3 1.5 -3.2 3.3 -6.2 1.8 -3.1 3.7 -6.7 4 -8.1 0.8 -2.5 5.5 -11.1 11.6 -20.7 1.6 -2.7 3 -5.4 3 -6.1 0 -0.8 0.9 -2.4 2.1 -3.7 1.3 -1.2 2.9 -3.7 3.8 -5.4 1.8 -3.6 13.1 -20.9 14.9 -23 0.6 -0.8 1.2 -1.8 1.2 -2.4 0 -0.5 0.9 -2 2.1 -3.2 1.2 -1.2 3.8 -4.7 5.9 -8 9.6 -14.1 10.7 -15.6 11.7 -15.6 0.6 0 1.8 -1.5 2.9 -3.5 0.9 -1.8 2.9 -4.6 4.4 -6.2 1.4 -1.5 3.1 -3.5 3.8 -4.4 15.4 -19.6 51.9 -56.8 72.6 -74.3 4.5 -3.7 8.3 -7.2 8.4 -7.6 0.2 -0.6 1 -1 1.8 -1 0.8 0 3.1 -1.8 5.3 -4 2.2 -2.2 4.6 -4 5.3 -4 0.8 0 2 -0.7 2.4 -1.5 0.5 -0.9 2.5 -2.5 4.4 -3.8 2 -1.2 3.7 -2.4 4 -2.8 1.7 -1.8 9.2 -6.9 10.3 -6.9 0.6 0 1.8 -1 2.7 -2.2 0.9 -1.3 3.1 -2.9 5 -3.7 2 -0.8 5.7 -3.2 8.3 -5.3 2.7 -2.1 5.4 -3.8 6.2 -3.8 0.8 0 2.3 -0.7 3.2 -1.6 1 -0.8 5 -3.2 8.8 -5.3 3.8 -2.1 7.2 -4.2 7.5 -4.6 1.3 -1.6 51.5 -25.4 53.7 -25.4 0.8 0 5 -1.6 9.2 -3.5 4.3 -2 8.4 -3.5 9.2 -3.5 0.8 0 5.3 -1.5 9.9 -3.5 4.7 -1.8 11.1 -3.9 14.2 -4.6 3.2 -0.7 9.7 -2.4 14.4 -3.9 4.9 -1.5 13.2 -3.6 18.6 -4.7 5.4 -1 13.2 -2.8 17.3 -3.7 4.2 -0.9 11.4 -2.1 16.2 -2.7 4.7 -0.6 15.5 -1.8 23.7 -3 18.8 -2.4 84.4 -3.6 98.2 -1.7 12.1 1.6 28.9 3.6 40.4 4.9 5.1 0.5 12.9 1.6 17.3 2.5 4.5 0.9 12.5 2.5 17.9 3.7 5.4 1 14 3 19.1 4.3 5.1 1.3 12.6 3 16.7 3.8 4.2 0.9 12.5 3.2 18.5 5.1 6 2 11.8 3.6 12.7 3.6 1.8 0 9 2.4 11 3.6 0.7 0.5 4.5 1.6 8.8 2.7 4.2 1 10.9 3.1 15 4.7 4 1.6 9.7 3.5 12.5 4.2 2.8 0.6 7.9 2.4 11.3 3.9 3.3 1.6 7.3 2.9 8.4 2.9 1.3 0 3.2 0.5 4.4 1 2 1 9.7 3.9 19.9 7.3 11 3.7 20.4 7.2 27 9.8 3.7 1.5 9 3.2 11.8 3.8 2.9 0.7 7.7 2.4 10.9 3.9 3.1 1.5 8.4 3.3 11.8 4.2 3.3 0.8 8.8 2.8 12.1 4.3 3.5 1.4 6.9 2.7 7.9 2.7 1 0 2.7 0.5 3.8 1 5.4 2.7 10.5 4.7 14.7 6 2.5 0.7 8.2 2.9 12.6 4.6 4.4 1.8 8.7 3.3 9.5 3.3 0.8 0 5.4 1.8 10.4 4 4.9 2.2 9.5 4 10.2 4 0.8 0 3.9 1.3 7.2 2.8 3.1 1.5 7.7 3.3 10.3 4.2 2.5 0.8 7.4 3 10.9 4.7 3.5 1.8 6.8 3.3 7.6 3.3 0.8 0 4.5 1.5 8.2 3.5 3.7 1.8 7.3 3.5 7.9 3.5 0.6 0 3.6 1.6 6.7 3.5 3 2 6.6 3.5 7.7 3.5 1.3 0 2.4 0.3 2.7 0.9 0.2 0.5 4.3 2.9 9 5.3 22.2 11.6 27.7 14.7 27.7 16.1 0 0.5 0.8 0.8 2 0.8 1 0 3.5 1.2 5.4 2.7 2 1.5 5.2 3.3 7 4 2 0.8 5.2 3 7.4 4.9 2.1 2 4.5 3.5 5.3 3.5 0.8 0 2.1 0.8 3 1.8 0.8 0.9 3.3 2.8 5.5 3.9 2.3 1.2 5.9 3.7 8.1 5.7 2.2 2 4.5 3.6 5.2 3.6 0.7 0 2.8 1.6 4.6 3.5 1.8 2 3.8 3.5 4.4 3.5 0.6 0 3 1.8 5.3 4 2.3 2.2 4.9 4 5.7 4 0.7 0 2.7 1.5 4.2 3.5 1.6 1.8 3.5 3.5 4.2 3.5 0.6 0 2.1 1.2 3.2 2.7 1.2 1.5 2.9 3.1 4 3.8 6 3.3 51.3 48.5 61 60.6 1.6 2.1 4.2 5.1 5.8 6.8 3.6 3.9 18.7 22.8 20.2 25.3 0.7 1 2.5 3.6 4.4 5.7 1.7 2.1 3.1 4.3 3.1 5 0 0.6 1 2.2 2.3 3.6 1.2 1.3 3 4 3.9 6 0.9 2 2.7 4.6 3.8 5.9 1.3 1.3 3.9 5.5 6.1 9.5 2.2 4 4.4 7.3 4.9 7.3 0.6 0 0.9 0.9 0.9 2 0 1 0.7 2.8 1.6 3.7 0.8 1 2.7 4.2 4.2 7 1.4 2.9 3 6 3.6 6.9 0.6 0.9 3.5 6.7 6.4 12.7 3 6 5.8 11.2 6.4 11.3 0.6 0.2 1 1.4 1 2.7 0 1.3 1.6 5.3 3.5 9.1 2 3.8 3.5 7.6 3.5 8.5 0 0.9 1.3 4.3 2.9 7.5 3.5 6.7 9 22.5 12.1 34.3 1.2 4.6 3 10.3 3.9 12.6 1 2.4 2.9 9.4 4.2 15.5 1.3 6.1 3.1 14.4 4.2 18.6 1 4.2 2.2 13.7 2.8 21.4 1.3 17.4 1.3 85.5 0 109.1 -1.4 26.3 -5.8 59.6 -10.9 82 -0.9 4.2 -2.2 10.6 -3 14.4 -0.7 3.8 -2.9 12.7 -4.7 19.6 -1.8 7 -3.3 13.5 -3.3 14.6 0 1 -1.8 7.7 -4 15 -2.2 7.3 -5.7 18.4 -7.5 24.7 -2 6.4 -4.6 14.7 -6 18.5 -1.3 3.8 -3.6 11.1 -5.2 16.2 -1.5 5.1 -3.8 11.4 -5.1 14.1 -1.2 2.8 -2.2 5.9 -2.2 7 0 2.1 -4.7 15.1 -6.9 18.9 -0.7 1.2 -1.2 3 -1.2 4.2 0 1.3 -1.5 6 -3.5 10.6 -1.8 4.6 -3.5 9 -3.5 9.8 0 0.7 -1.8 5.5 -4 10.6 -2.2 5.2 -4 10.4 -4 11.7 0 1.3 -1.5 5.8 -3.5 9.8 -1.8 4.2 -3.5 8.3 -3.5 9.2 0 1.5 -3.6 11.9 -8.1 23.3 -4.3 10.9 -9.1 24 -13.4 36.7 -1.5 4.4 -4 10.5 -5.7 13.6 -1.6 3.2 -2.9 6.6 -2.9 7.5 0 0.8 -1.3 4.3 -2.8 7.6 -1.5 3.3 -3.1 7.4 -3.6 9 -0.5 1.6 -2.7 6.5 -4.7 10.7 -2.2 4.3 -3.9 8.4 -3.9 9.2 0 0.7 -1.5 4.4 -3.3 8.3 -1.8 3.8 -4.2 8.8 -5.2 11 -0.9 2.2 -2.8 5.9 -3.9 8.1 -1.3 2.2 -4 7.7 -6.1 12.1 -2.2 4.5 -5.3 10.3 -7 12.9 -1.8 2.7 -3.2 5.5 -3.2 6.6 0 0.9 -0.7 2.4 -1.5 3.2 -0.8 0.8 -2.8 3.8 -4.3 6.7 -1.6 2.9 -6.1 10.3 -10 16.4 -4 6.2 -7.3 11.6 -7.3 11.8 0 0.9 -9 13.9 -12 17.3 -1.6 1.8 -3 3.8 -3 4.3 0 0.5 -1.5 2.7 -3.5 4.7 -1.8 2.1 -3.5 4.2 -3.5 4.6 0 0.6 -1.5 2.7 -3.3 4.7 -3.1 3.5 -6.1 7.3 -11.3 14.7 -1 1.6 -3 3.9 -4.4 5.3 -1.3 1.3 -4.4 5.1 -6.9 8.4 -18.2 23.9 -33.5 40.1 -53.7 56.7 -6.6 5.4 -13.5 11.2 -15.4 13.1 -1.8 1.7 -3.7 3.1 -4.2 3.1 -0.5 0 -2.7 1.6 -4.7 3.5 -2.1 2 -4.3 3.5 -4.7 3.5 -0.5 0 -1.6 0.7 -2.5 1.6 -1.7 1.7 -12.9 9.5 -17.9 12.2 -1.7 0.9 -5.5 3.3 -8.4 5.4 -2.9 2 -8.5 5.3 -12.7 7.3 -4 2 -10.3 5.1 -13.7 6.9 -11.3 5.9 -32 12.4 -33.8 10.5 -1 -1 5.8 -5.9 8.3 -5.9 0.7 0 3.9 -1.8 7 -4 3.1 -2.2 6.2 -4 6.8 -4 0.6 0 1.8 -0.7 2.7 -1.5 0.8 -0.8 4.4 -3.3 7.9 -5.5 3.5 -2.3 7 -5 8 -6 0.8 -1.2 2.2 -2 3 -2 0.8 0 2.7 -1.3 4.2 -2.7 1.5 -1.5 3.6 -3.2 4.6 -3.8 7.9 -4.4 64 -60.5 71.5 -71.4 0.9 -1.4 2.7 -3.6 3.8 -4.9 5.8 -6.4 10 -11.6 10 -12.2 0 -0.8 3.2 -5 6.7 -8.5 0.7 -0.8 1.4 -1.8 1.4 -2.4 0 -0.6 1.5 -2.8 3.5 -5 1.8 -2.2 3.3 -4.4 3.5 -5 0 -0.5 1.8 -3.5 4 -6.6 2.2 -3.1 4 -6.1 4 -6.7 0 -0.6 0.9 -2 2.1 -3.2 1.2 -1.2 3.6 -5.2 5.3 -8.8 1.7 -3.6 3.9 -7.2 4.9 -8 0.9 -0.7 1.6 -2 1.6 -2.8 0 -0.8 1.8 -4.7 4 -8.7 2.2 -3.9 4 -7.5 4 -7.9 0 -0.5 1.5 -3.9 3.3 -7.7 5.3 -11.1 11.7 -25.4 11.7 -26.4 0 -0.6 1.5 -5.2 3.3 -10.4 8.1 -22.9 17.7 -57.4 19.1 -68.8 0.3 -2.9 1.4 -9.1 2.4 -13.9 2.4 -11.9 4.7 -30.4 6.6 -53.7 2.1 -27.1 1.7 -137 -0.7 -209.1 -2 -57.4 -2.5 -65.8 -5.9 -89.5 -1.2 -7.3 -2.4 -17.2 -2.9 -21.9 -0.9 -8.8 -4 -24.6 -5.1 -26.4 -0.3 -0.6 -1.2 -4.4 -1.7 -8.7 -0.6 -4.2 -2.7 -12.9 -4.7 -19.4 -2 -6.6 -5.1 -17.1 -7 -23.4 -2 -6.4 -5.1 -15.5 -7 -20.2 -1.8 -4.7 -3.9 -10.4 -4.6 -12.5 -0.6 -2.2 -2.3 -6.2 -3.9 -9.1 -1.5 -2.9 -2.8 -6.1 -2.9 -7.2 0 -1 -1 -3.3 -2.3 -5.3 -1.2 -1.8 -3 -5.3 -4 -7.5 -1 -2.2 -2.5 -5.3 -3.5 -6.9 -0.8 -1.6 -3.1 -6 -5.1 -9.8 -5 -9.6 -6.9 -12.9 -11.3 -19.4 -2 -3 -3.7 -6 -3.7 -6.7 0 -0.6 -0.9 -2 -2.1 -3.1 -1 -1 -3.3 -4.4 -5.1 -7.2 -1.6 -2.9 -4.2 -6.4 -5.4 -7.7 -1.4 -1.4 -2.4 -3 -2.4 -3.5 0 -0.5 -1.5 -2.7 -3.2 -4.9 -1.7 -2.2 -6.7 -8.4 -11.1 -13.9 -4.4 -5.4 -9.6 -11.8 -11.7 -14 -12 -12.9 -26.8 -27.1 -36.4 -35.1 -6 -5.1 -11.2 -9.5 -11.6 -9.9 -0.3 -0.5 -2.3 -1.7 -4.3 -2.8 -2.1 -1 -3.8 -2.3 -3.8 -2.9 0 -0.5 -1.4 -1.6 -3.1 -2.5 -1.8 -0.9 -4.3 -2.5 -5.5 -3.7 -1.3 -1.2 -3.8 -3 -5.8 -3.9 -1.8 -1 -5.2 -3.3 -7.3 -5.1 -2.1 -1.8 -4.3 -3.3 -5 -3.3 -0.7 0 -3.5 -1.5 -6.2 -3.5 -2.8 -1.8 -5.5 -3.5 -6 -3.5 -0.6 0 -3.1 -1.5 -5.7 -3.2 -2.4 -1.8 -6.4 -4 -8.5 -4.9 -2.2 -0.9 -5.7 -2.8 -7.6 -4.3 -2 -1.5 -4.2 -2.7 -4.9 -2.7 -0.8 0 -5 -1.8 -9.4 -4 -4.3 -2.2 -8.4 -4 -9 -4 -0.7 0 -3.5 -1.3 -6.4 -2.8 -2.8 -1.5 -8.2 -3.6 -11.9 -4.7 -3.7 -1 -9.4 -3.1 -12.5 -4.7 -3.2 -1.5 -6.7 -2.8 -7.9 -2.8 -1 0 -6.2 -1.5 -11.6 -3.3 -5.3 -1.8 -12 -3.7 -14.8 -4 -2.9 -0.5 -7.9 -1.6 -11 -2.5 -3.2 -0.9 -7.7 -2.2 -9.9 -2.9 -4 -1 -31 -4.9 -49.7 -7 -12.6 -1.4 -62.1 -1.4 -75.7 0 -32.8 3.5 -61.3 8.7 -82 15 -3.1 0.9 -9.9 2.9 -15 4.3 -14.1 4 -34.3 11.3 -40.1 14.4 -1.2 0.7 -2.8 1.2 -3.6 1.2 -0.8 0 -5.2 1.8 -9.7 4 -4.5 2.2 -8.5 4 -9 4 -0.7 0 -19.1 8.4 -23.1 10.6 -1.3 0.8 -7.7 4.2 -14.4 7.6 -15.1 7.7 -26.4 14.1 -30 16.6 -1.6 1.2 -3.3 2.1 -3.9 2.1 -0.6 0 -2 0.7 -2.9 1.6 -1 0.9 -4.7 3.1 -8.2 4.9 -3.5 1.7 -6.6 3.5 -6.9 3.9 -0.3 0.5 -3.7 2.5 -7.5 4.6 -3.8 2.1 -7.6 4.5 -8.4 5.4 -0.8 0.8 -2.1 1.5 -2.7 1.5 -1.4 0 -10.7 6 -11.2 7.3 -0.2 0.5 -1.2 0.8 -2.1 0.8 -0.8 0 -3.8 1.5 -6.5 3.2 -14.1 9.4 -17.9 11.8 -18.6 11.8 -0.5 0 -2.9 1.4 -5.4 3 -2.5 1.6 -6 3.9 -7.9 5 -5.2 2.9 -10.5 6.1 -16.6 10.3 -3.2 2 -6.2 3.7 -6.9 3.7 -1.3 0 -9.4 5.9 -9.9 7.3 -0.2 0.5 -1.3 0.8 -2.4 0.8 -1 0 -3.7 1.5 -5.9 3.5 -2.2 1.8 -4.5 3.3 -5 3.5 -0.6 0 -3.2 1.6 -6 3.5 -2.8 2 -5.4 3.5 -6 3.5 -0.6 0 -2.8 1.5 -5 3.3 -2.2 1.7 -5.5 4 -7.5 5.1 -1.8 0.9 -4.6 2.9 -6 4.2 -1.4 1.4 -3.3 2.4 -4.3 2.4 -0.9 0 -2.1 0.6 -2.4 1.2 -0.9 1.5 -17.6 13.9 -18.7 13.9 -0.5 0 -2.5 1.6 -4.5 3.6 -2.1 2 -4.7 4.2 -6 5 -3.5 2 -18.2 13.5 -24.5 19.2 -1.8 1.6 -5.4 4.7 -8.1 6.9 -7.9 6.7 -30 28.6 -30 29.8 0 0.6 -1.3 2 -2.9 3 -1.6 1.2 -3.5 3.2 -4 4.9 -0.6 1.5 -1.5 2.8 -2.1 2.8 -0.5 0 -4.7 5 -9.5 11 -4.7 6 -9 11 -9.5 11 -0.6 0 -0.9 0.6 -0.9 1.2 0 0.7 -3 5.4 -6.6 10.5 -3.7 5.2 -7.2 10.2 -7.9 11.2 -0.6 1.2 -2.9 4.4 -5 7.3 -2 3 -3.7 5.8 -3.7 6.1 0 0.5 -1.4 2.9 -3.1 5.7 -6.4 9.9 -18.8 34.2 -18.8 36.4 0 1 -0.7 2.7 -1.5 3.6 -2.1 2.7 -11.7 25.5 -14.7 35.3 -0.8 2.5 -2.1 6.2 -2.9 8.1 -3.6 8.8 -4 10 -4 12.1 0 2.5 -4.2 16.7 -5.9 19.9 -0.6 1.2 -1 3.7 -1 5.7 0 2.1 -0.5 5.5 -1 7.9 -3.5 12.9 -4.6 18.7 -5.2 24.9 -0.5 4.4 -0.2 6.1 0.3 4.6 2.2 -4.9 2.8 2 1.4 14.3 -3.8 34.4 -4.4 65.4 -1.3 83.3 0.6 3.5 1.6 17.6 2.3 31.2 1 22.9 1.8 28.5 6.9 53.8 0.7 3.2 2.5 9.2 4 13.3 1.6 3.9 2.9 8.2 2.9 9.2 0 2.1 5.5 15.6 11.6 28.2 1.7 3.8 3.9 8.8 4.7 11 0.8 2.2 3.8 8.4 6.7 13.9 2.8 5.4 6 11.7 7.2 13.9 1.2 2.2 3.3 5.8 5 8 1.6 2.2 3 4.9 3 5.9 0 0.9 1.5 3.6 3.3 5.8 1.7 2.2 3.6 5.2 4 6.5 0.5 1.4 1.8 3.7 3.1 5.2 1.4 1.5 4.2 5.4 6.4 8.7 2.2 3.2 6 8.3 8.5 11.2 2.5 2.9 4.6 5.7 4.6 6.4 0 0.6 1.4 2.7 3.2 4.5 1.7 2 4.7 5.4 6.6 8 10.4 13.3 34.4 37.3 47.9 47.8 2.8 2.2 6.5 5.4 8.2 7.3 1.7 1.7 3.6 3.1 4.2 3.1 0.6 0 2.5 1.6 4.4 3.5 1.8 2 3.9 3.5 4.7 3.5 0.8 0 2 0.7 2.4 1.6 0.5 0.8 3.6 3.3 6.8 5.4 11.7 7.7 19.5 13.1 20.1 13.7 0.3 0.5 2.4 1.7 4.6 3 2.2 1.2 5 2.9 6.1 3.8 2.2 1.8 4.2 3 11.3 6.9 4.9 2.5 17.8 10.6 24.4 15.2 1.7 1.3 3.7 2.2 4.3 2.2 0.7 0 4 1.8 7.5 4 3.5 2.2 6.7 4 7.2 4 0.5 0 4.2 1.6 8.2 3.5 3.9 2 8.1 3.5 9 3.5 1.7 0 4.6 1 14.2 5.3 3.3 1.5 6.8 2.8 7.9 2.8 1.7 0 8.8 4.5 9.5 6.1 0.2 0.5 1.3 0.8 2.3 0.8 1.2 0 4.7 1.8 8 4 3.3 2.2 6.8 4 7.7 4 0.9 0 2.4 0.8 3.3 1.7 0.9 0.9 4.7 3.2 8.4 5.1 13.6 6.9 14.9 7.6 15.5 8.2 0.3 0.3 2 1.3 3.8 2 1.7 0.8 3.1 2 3.1 2.5 0 0.6 1.8 1.4 4.2 1.7 2.2 0.5 4.4 1.6 4.7 2.5 0.3 0.8 1.6 1.6 2.8 1.6 1.3 0 2.5 0.8 2.9 1.7 0.5 0.9 2 1.7 3.5 1.7 1.7 0 2.8 0.7 2.8 1.7 0 0.9 -0.9 1.7 -2 1.7 -1.2 0 0.6 1.7 3.9 4 3.3 2.2 6.8 4 7.9 4 1 0 3.6 1.3 5.7 2.9 2.1 1.6 5.5 3.5 7.7 4.2 2.2 0.8 4.7 2 5.7 2.8 0.9 0.8 2.9 1.8 4.4 2.2 1.4 0.5 2.5 1.4 2.5 2 0 0.6 0.8 1 1.7 1 1 0 7.3 2.7 13.9 5.8 6.6 3.2 12.6 5.8 13.3 5.8 0.6 0 1.2 0.5 1.2 0.9 0 0.6 2.2 1.7 5 2.4 2.7 0.8 7.6 2.8 11 4.3 3.3 1.5 6.6 2.8 7 2.8 0.6 0 4.4 1.5 8.4 3.3 4.2 1.8 9.2 3.7 11.4 4.2 2.2 0.5 7 2.4 10.7 4.2 3.8 1.8 7.6 3.3 8.4 3.3 0.8 0 4.6 1.6 8.4 3.5 3.8 2 7.4 3.5 8 3.5 2.1 0 30.1 14 30.1 14.9 0 1.4 -10.4 3.6 -15.4 3.5 -2.1 -0.1 -8.1 -0.9 -13.5 -1.8z m-150.3 -84 c-0.2 -0.1 -3 -1.8 -6.2 -3.7 -3.7 -2.1 -5.2 -2.5 -4.2 -1.3 0.8 1 2.2 2 3 2 0.8 0 2.1 0.8 2.9 1.7 0.8 0.9 2.2 1.7 3.2 1.7 0.9 0 1.5 -0.2 1.3 -0.5z m-18.9 -10.5 c-3.7 -2.3 -6.9 -3.9 -7.2 -3.6 -0.8 0.7 10.5 7.4 12.8 7.5 0.7 0.1 -1.8 -1.7 -5.7 -3.9z m-8.8 -4.4 c-1.8 -1.4 -9.1 -5.2 -9.1 -4.9 0 0.8 7.3 5.2 8.5 5.2 0.6 0 0.8 -0.1 0.6 -0.3z m-349.8 -491 c0 -3 -0.7 -2.1 -1.6 2.2 -0.6 2.5 -0.5 3 0.5 1.7 0.6 -0.9 1.2 -2.8 1.2 -3.9z"/>
 </g>
 <g fill="#55c645">
  <path d="M1264.1 1789.2 c-2.5 -0.6 -11.3 -1.6 -19.6 -2.3 -31.6 -2.8 -37.3 -3.5 -47.9 -5.9 -6 -1.4 -13.5 -3 -16.7 -3.5 -3.1 -0.6 -9.4 -2 -13.9 -3.2 -4.4 -1.3 -10.6 -2.9 -13.9 -3.7 -23.7 -5.7 -56.2 -16.9 -67.8 -23.2 -12 -6.6 -22.8 -12 -31.8 -16.1 -3.3 -1.5 -6.1 -3.1 -6.1 -3.7 0 -0.5 -1.4 -1.3 -3.1 -1.6 -1.8 -0.5 -5.8 -2.5 -9 -4.7 -3.1 -2.1 -6.6 -3.8 -7.7 -3.8 -1 0 -2.1 -0.3 -2.3 -0.8 -0.7 -1.6 -7.7 -6.1 -9.5 -6.1 -1 0 -4.5 -1.3 -7.9 -2.8 -9.6 -4.3 -12.5 -5.3 -14.2 -5.3 -0.9 0 -5.1 -1.5 -9 -3.5 -4 -1.8 -7.7 -3.5 -8.2 -3.5 -0.5 0 -3.7 -1.8 -7.2 -4 -3.5 -2.2 -6.8 -4 -7.5 -4 -0.6 0 -2.5 -0.9 -4.3 -2.2 -6.6 -4.6 -19.5 -12.7 -24.4 -15.2 -7.2 -3.9 -9.1 -5.1 -11.3 -6.9 -1.2 -0.9 -3.9 -2.7 -6.1 -3.8 -2.2 -1.3 -4.3 -2.5 -4.6 -3 -0.6 -0.7 -8.4 -6 -20.1 -13.7 -3.2 -2.1 -6.4 -4.6 -6.8 -5.4 -0.5 -0.9 -1.6 -1.6 -2.4 -1.6 -0.8 0 -2.9 -1.5 -4.7 -3.5 -1.8 -1.8 -3.8 -3.5 -4.4 -3.5 -0.6 0 -2.4 -1.4 -4.2 -3.1 -1.7 -1.8 -5.4 -5.1 -8.2 -7.3 -13.5 -10.5 -37.5 -34.5 -47.9 -47.8 -1.8 -2.5 -4.9 -6 -6.6 -8 -1.8 -1.8 -3.2 -3.9 -3.2 -4.5 0 -0.7 -2.1 -3.5 -4.6 -6.4 -2.5 -2.9 -6.4 -8 -8.5 -11.2 -2.2 -3.2 -5 -7.2 -6.4 -8.7 -1.3 -1.5 -2.7 -3.8 -3.1 -5.2 -0.5 -1.3 -2.3 -4.3 -4 -6.5 -1.8 -2.2 -3.3 -4.9 -3.3 -5.8 0 -1 -1.4 -3.7 -3 -5.9 -1.6 -2.2 -3.8 -5.8 -5 -8 -1.2 -2.2 -4.4 -8.4 -7.2 -13.9 -2.9 -5.4 -5.9 -11.7 -6.7 -13.9 -0.8 -2.2 -3 -7.2 -4.7 -11 -6 -12.6 -11.6 -26.1 -11.6 -28.2 0 -1 -1.3 -5.3 -2.9 -9.2 -1.5 -4 -3.3 -10 -4 -13.3 -5.1 -25.2 -5.9 -31 -6.9 -53.2 -0.6 -13.3 -1.7 -27.8 -2.4 -32.2 -0.7 -4.4 -1.4 -19.2 -1.5 -32.9 -0.1 -22.4 0.3 -32.5 2.2 -45.2 0.3 -2.2 0.9 -7.4 1.3 -11.6 0.6 -7.9 4.6 -24 6.4 -25.9 0.6 -0.7 1 -2.1 1 -3.2 0 -1.2 1.5 -5.2 3.5 -9 1.8 -3.8 3.5 -7.6 3.5 -8.5 0 -0.9 1.8 -4.3 4 -7.6 2.2 -3.3 4 -6.2 4 -6.6 0 -0.3 3 -4.3 6.7 -8.8 3.6 -4.6 7.5 -9.7 8.5 -11.3 2.7 -4.3 36.6 -38 38.2 -38 0.7 0 5.5 4.4 10.9 9.7 l9.7 9.7 -1.8 4.4 c-4.4 10 -10.3 26.9 -11.7 33.4 -0.8 3.8 -2.3 9.8 -3.3 13.3 -7.6 27.6 -9.8 45.7 -9.8 81.1 0 26.8 0.3 32.7 3 50 2.7 17.6 6.2 32.2 11.7 47.9 5.3 15.5 7.4 20.9 10.7 28.3 7.2 15.8 10.9 23.1 13.5 26.7 1.5 2 2.7 3.9 2.7 4.4 0 0.5 1.8 3.6 4 6.9 2.2 3.3 4 6.7 4 7.5 0 0.7 0.5 1.3 1 1.3 0.5 0 2.9 2.9 5.2 6.4 2.3 3.6 5.3 7.3 6.5 8.4 1.3 1 2.3 2.5 2.3 3.2 0 0.8 1.3 2.4 2.9 3.7 1.5 1.3 3.5 3.6 4.2 5.3 0.8 1.6 2.1 3 2.9 3 0.8 0 2.9 1.8 4.6 4 1.6 2.2 3.7 4 4.6 4 0.8 0 2.1 0.9 2.7 2.1 0.6 1 4.2 4 8.1 6.6 3.8 2.5 7 5 7 5.5 0 0.5 0.7 0.8 1.5 0.8 0.8 0 2.5 0.9 3.8 2.1 1.2 1.2 5.2 3.8 9 6 3.7 2.2 8.1 4.9 9.8 5.9 11.9 7 47.4 23 51.2 23 1.2 0 6.2 1.6 11.6 3.5 5.2 2 10.5 3.5 11.9 3.5 1.4 0 6.4 1 11.1 2.2 17.2 4.4 32.3 5.9 59.7 5.9 26.1 0 36.8 -1 55.1 -5.2 4.5 -0.9 10.7 -2.3 13.9 -2.9 7.3 -1.5 21.4 -6.1 34.1 -11.2 12 -4.9 31.5 -14.2 32.3 -15.5 0.3 -0.6 2.4 -1.7 4.6 -2.7 2.2 -0.9 5.9 -3.1 8.3 -5 2.3 -1.7 5.9 -4.3 8 -5.5 9.1 -5.5 12 -8 22.2 -18.5 7.6 -7.7 17 -20.2 17 -22.4 0 -0.6 0.3 -1.3 0.9 -1.5 1.6 -0.7 7.2 -8.9 7.2 -10.6 0 -0.9 0.5 -2.1 1.2 -2.4 1.2 -0.7 12.7 -23.4 12.7 -25.1 0 -0.6 1 -3.2 2.2 -5.9 6.5 -14.4 11.6 -34.5 14 -55.4 2.9 -24.9 2.9 -38.9 0 -64 -2.8 -24.1 -8.4 -47.8 -18.7 -77.2 -1.3 -3.8 -2.9 -9 -3.6 -11.6 -0.6 -2.5 -2.7 -8.7 -4.4 -13.6 -1.8 -5 -3.3 -9.9 -3.3 -10.9 0 -0.9 -0.7 -3.3 -1.6 -5.3 -4 -9.2 -6.5 -15.8 -6.5 -17.3 0 -1 -1.6 -5.2 -3.5 -9.5 -1.8 -4.3 -3.5 -8.4 -3.5 -9.4 0 -4 -21.8 -47.1 -27.4 -54.2 -1.5 -1.7 -2.7 -3.9 -2.7 -4.7 0 -0.8 -0.7 -2 -1.5 -2.4 -0.9 -0.5 -3.1 -3.1 -5.1 -5.8 -2 -2.7 -5 -6.6 -6.8 -8.7 -3.5 -3.9 -18.2 -15.9 -19.6 -15.9 -0.3 0 -2.5 -1.5 -4.7 -3.5 -2.1 -1.8 -4.4 -3.5 -5.1 -3.5 -1.3 0 -8.3 -4.7 -8.9 -6 -0.2 -0.6 -1.2 -0.9 -2.2 -0.9 -0.9 0 -4.9 -1.8 -8.5 -4 -3.8 -2.2 -7.4 -4 -8.1 -4 -0.6 0 -4.2 -1.5 -8 -3.5 -3.8 -1.8 -7.5 -3.5 -8.4 -3.5 -0.8 0 -5.2 -1.8 -9.7 -4 -4.5 -2.2 -8.8 -4 -9.6 -4 -0.7 0 -4.2 -1.3 -7.5 -2.9 -3.5 -1.5 -7.7 -3.1 -9.5 -3.6 -15 -3.3 -17.7 -4.9 -27.6 -14.9 -5.5 -5.5 -9.7 -10.9 -9.7 -12.1 0 -1.3 4.2 -6.6 9.7 -12.1 9.2 -9.4 10 -9.8 17.6 -11.7 9.6 -2.3 40.3 -2.7 53.6 -0.6 30.6 4.7 57.8 10.5 77.4 16.4 6 1.7 12.6 3.6 14.4 3.9 4.9 1 24.7 7.2 36.4 11.2 5.4 2 11.9 3.9 14.4 4.4 2.5 0.5 7.5 2 11 3.3 3.5 1.4 8.3 3 11 3.6 2.5 0.5 8.3 2.3 12.7 4 4.5 1.7 10.2 3.6 12.7 4 2.5 0.6 8 2.3 12 3.9 4.2 1.7 8.2 3 9 3 1.8 0 20.9 7 31.9 11.7 4.3 1.8 8.5 3.3 9.5 3.3 2.8 0 50.1 22.8 56.9 27.4 2.1 1.5 4.3 2.7 5 2.7 0.6 0 2.5 0.9 4.3 2.1 13.2 8.9 19.8 12.9 20.8 12.9 0.8 0 1.4 0.3 1.4 0.9 0 0.5 3.3 3.1 7.5 5.9 4.2 2.8 7.5 5.4 7.5 5.9 0 0.6 0.9 1.3 2.2 1.7 1.2 0.3 3.5 1.8 5 3.2 1.6 1.4 5.4 4.6 8.5 7 3.1 2.5 19.6 18.7 36.6 35.8 32.3 32.8 36.6 37.2 36.6 38.7 0 0.5 1.6 2.3 3.5 4.2 2 1.8 3.5 3.9 3.5 4.7 0 0.7 0.8 2.1 1.8 2.9 1.6 1.4 9.5 12 12.6 17.1 0.6 1 2.8 4.5 4.9 7.9 2.1 3.2 3.8 6.4 3.8 6.8 0 0.5 1.3 2.4 2.8 4.4 2.8 3.7 18.2 34.9 19.8 40 0.5 1.6 2.3 6.1 4.2 10.2 1.8 4 3.3 8.1 3.3 8.9 0 0.9 1.4 5.2 3 9.5 1.7 4.4 3.5 9.9 3.9 12.5 0.5 2.5 2 8.8 3.5 13.9 1.4 5.1 3 12.4 3.5 16.2 0.6 3.8 1.8 11.7 2.8 17.3 0.9 5.8 2.5 19.2 3.7 29.9 1.7 18.4 1.7 20.8 -0.1 42.2 -1 12.5 -2.8 26.8 -3.7 31.9 -0.9 5.1 -2 11.6 -2.2 14.4 -0.7 6.5 -6.4 29 -11.1 44.5 -4.2 13.6 -14.1 38.1 -21.1 52.6 -3.2 6.6 -15.6 28 -17.8 30.8 -1.4 1.6 -2.4 3.5 -2.4 4 0 0.7 -1.5 3.1 -3.5 5.5 -1.8 2.4 -3.5 4.9 -3.5 5.3 0 0.6 -1.8 3.1 -4 5.5 -2.2 2.5 -4 5.1 -4 5.7 0 0.6 -1.3 2.4 -2.8 4 -1.5 1.7 -7.5 8.5 -13.2 15.2 -21.4 24.9 -80.5 80.8 -85.4 80.8 -0.7 0 -2.1 1 -3.2 2.3 -1.2 1.3 -4.7 3.9 -8 6 -3.2 2.1 -6.6 4.4 -7.4 5.2 -0.8 0.8 -2 1.5 -2.5 1.5 -0.6 0 -3.3 1.6 -6.1 3.5 -2.9 2 -5.5 3.5 -6.1 3.5 -0.5 0 -2.4 1.2 -4.4 2.7 -2 1.5 -8 4.9 -13.4 7.4 -22.3 10.7 -27.4 13.1 -28.5 13.1 -0.7 0 -4.7 1.6 -9 3.5 -4.3 2 -8.5 3.5 -9.5 3.5 -1 0 -7 1.7 -13.5 3.9 -6.5 2.1 -14.8 4.5 -18.6 5.3 -3.8 0.7 -11.3 2.3 -16.7 3.5 -5.4 1 -17.1 2.7 -26 3.5 -8.9 0.7 -19.8 1.8 -24.3 2.4 -12.6 1.7 -22.6 2.2 -27.7 1.2z"/>
 </g>
</svg>