<?xml version="1.0" encoding="UTF-8"?>
<svg xmlns="http://www.w3.org/2000/svg" xmlns:xlink="http://www.w3.org/1999/xlink" width="198pt" height="44pt" viewBox="0 0 198 44" version="1.1">
<g id="surface1">
<path style=" stroke:none;fill-rule:nonzero;fill:rgb(0%,0%,0%);fill-opacity:1;" d="M 8.542969 0.570312 C 5.050781 1.5625 3.300781 3.699219 3.300781 7.019531 C 3.300781 9.386719 4.671875 11.1875 7.03125 11.898438 C 8.542969 12.375 9.15625 12.28125 10.953125 11.476562 C 13.734375 10.242188 14.628906 8.394531 14.628906 3.605469 L 14.628906 0 L 12.414062 0.046875 C 11.140625 0.046875 9.441406 0.285156 8.542969 0.570312 Z M 8.542969 0.570312 "/>
<path style=" stroke:none;fill-rule:nonzero;fill:rgb(0%,0%,0%);fill-opacity:1;" d="M 93.925781 14.367188 C 89.300781 15.695312 86.183594 18.585938 84.484375 23.089844 C 83.066406 26.789062 83.304688 32.90625 84.910156 36.082031 C 86.417969 39.070312 88.96875 41.488281 91.75 42.71875 C 94.867188 44.09375 101.191406 44.1875 105.960938 43.003906 C 110.867188 41.769531 110.773438 41.867188 109.78125 38.214844 C 109.3125 36.507812 108.742188 35.085938 108.554688 35.085938 C 108.367188 35.085938 106.523438 35.417969 104.542969 35.84375 C 99.683594 36.839844 97.085938 36.460938 95.007812 34.375 C 94.160156 33.519531 93.453125 32.574219 93.453125 32.289062 C 93.453125 31.910156 96.144531 31.769531 102.183594 31.769531 L 110.917969 31.769531 L 110.917969 28.304688 C 110.917969 26.410156 110.585938 23.753906 110.207031 22.476562 C 109.355469 19.628906 106.761719 16.453125 104.214844 15.125 C 101.851562 13.894531 96.800781 13.5625 93.925781 14.367188 Z M 100.484375 22.144531 C 101.003906 22.617188 101.523438 23.519531 101.570312 24.179688 C 101.710938 25.367188 101.664062 25.367188 97.605469 25.507812 C 92.839844 25.648438 92.367188 25.175781 94.820312 22.710938 C 96.472656 21.101562 98.925781 20.863281 100.484375 22.144531 Z M 100.484375 22.144531 "/>
<path style=" stroke:none;fill-rule:nonzero;fill:rgb(0%,0%,0%);fill-opacity:1;" d="M 124.652344 14.226562 C 120.164062 15.171875 116.34375 18.585938 114.832031 22.996094 C 113.605469 26.457031 113.699219 33.1875 114.976562 36.082031 C 117.476562 41.488281 121.347656 43.761719 128.140625 43.8125 C 132.011719 43.8125 136.730469 42.863281 137.914062 41.769531 C 138.335938 41.394531 136.496094 35.085938 135.976562 35.085938 C 135.742188 35.085938 134.65625 35.417969 133.570312 35.796875 C 129.417969 37.269531 125.785156 36.367188 124.273438 33.519531 C 123.140625 31.386719 123.1875 26.3125 124.367188 24.324219 C 126.015625 21.480469 129.085938 20.71875 133.382812 22.046875 C 134.65625 22.425781 135.835938 22.757812 136.023438 22.757812 C 136.261719 22.757812 137.820312 16.878906 137.820312 15.929688 C 137.820312 15.410156 132.769531 14.226562 129.792969 13.988281 C 128.097656 13.894531 125.785156 13.988281 124.652344 14.226562 Z M 124.652344 14.226562 "/>
<path style=" stroke:none;fill-rule:nonzero;fill:rgb(0%,0%,0%);fill-opacity:1;" d="M 149.617188 14.226562 C 143.152344 15.601562 138.761719 21.621094 138.761719 29.160156 C 138.761719 35.371094 141.3125 39.96875 146.03125 42.4375 C 148.484375 43.667969 149.242188 43.8125 152.875 43.761719 C 159.8125 43.714844 163.589844 41.582031 166.230469 36.128906 C 167.648438 33.238281 167.789062 32.574219 167.789062 28.636719 C 167.742188 24.75 167.601562 24.039062 166.230469 21.242188 C 163.917969 16.5 160.566406 14.414062 154.855469 13.988281 C 153.160156 13.894531 150.796875 13.988281 149.617188 14.226562 Z M 155.707031 22.046875 C 157.875 23.136719 158.867188 27.167969 158.113281 31.480469 C 157.3125 35.84375 153.394531 37.929688 150.421875 35.5625 C 148.152344 33.757812 147.539062 27.261719 149.382812 23.707031 C 150.5625 21.429688 153.203125 20.71875 155.707031 22.046875 Z M 155.707031 22.046875 "/>
<path style=" stroke:none;fill-rule:nonzero;fill:rgb(0%,0%,0%);fill-opacity:1;" d="M 184.308594 14.414062 C 183.269531 14.746094 181.761719 15.363281 181.003906 15.742188 C 179.636719 16.453125 179.355469 16.453125 176.992188 15.601562 C 175.578125 15.125 173.59375 14.746094 172.652344 14.699219 L 170.859375 14.699219 L 170.859375 43.144531 L 180.296875 43.144531 L 180.296875 24.179688 L 181.476562 23.421875 C 183.316406 22.238281 186.289062 22 187.375 22.996094 C 188.273438 23.800781 188.320312 24.511719 188.320312 33.519531 L 188.320312 43.144531 L 197.855469 43.144531 L 197.664062 31.863281 C 197.523438 24.324219 197.285156 20.148438 196.863281 19.203125 C 195.023438 14.746094 189.6875 12.707031 184.308594 14.414062 Z M 184.308594 14.414062 "/>
<path style=" stroke:none;fill-rule:nonzero;fill:rgb(0%,0%,0%);fill-opacity:1;" d="M 76.554688 15.410156 L 74.050781 16.59375 L 71.269531 15.644531 C 69.710938 15.125 67.824219 14.699219 67.019531 14.699219 L 65.605469 14.699219 L 65.605469 43.144531 L 75.046875 43.144531 L 75.046875 33.710938 C 75.046875 22.949219 74.902344 23.375 79.199219 22.519531 L 81.839844 22 L 82.453125 19.15625 C 82.785156 17.636719 83.160156 15.882812 83.304688 15.269531 C 83.539062 14.320312 83.398438 14.226562 81.320312 14.226562 C 79.90625 14.226562 78.113281 14.699219 76.554688 15.410156 Z M 76.554688 15.410156 "/>
<path style=" stroke:none;fill-rule:nonzero;fill:rgb(0%,0%,0%);fill-opacity:1;" d="M 11.375 15.457031 C 4.484375 17.304688 0.332031 22.710938 0.332031 29.871094 C 0.332031 35.703125 2.644531 39.96875 7.125 42.4375 C 9.390625 43.714844 10.101562 43.855469 13.921875 43.855469 C 17.605469 43.855469 18.5 43.667969 20.863281 42.53125 L 23.503906 41.203125 L 26.382812 42.199219 C 30.394531 43.523438 32.660156 43.429688 31.195312 41.914062 C 30.914062 41.675781 30.394531 40.207031 30.019531 38.644531 C 29.453125 36.507812 29.261719 33.285156 29.261719 25.269531 L 29.261719 14.699219 L 21.617188 14.746094 C 16.472656 14.746094 13.074219 14.980469 11.375 15.457031 Z M 21.476562 27.121094 C 21.097656 31.8125 20.292969 33.332031 17.554688 34.707031 C 15.765625 35.5625 15.246094 35.605469 13.6875 35.132812 C 11.140625 34.375 9.910156 32.667969 9.910156 29.824219 C 9.910156 28.070312 10.195312 27.261719 11.183594 26.03125 C 12.933594 23.992188 14.773438 23.28125 18.597656 23.230469 L 21.851562 23.230469 Z M 21.476562 27.121094 "/>
<path style=" stroke:none;fill-rule:nonzero;fill:rgb(0%,0%,0%);fill-opacity:1;" d="M 33.984375 24.65625 C 33.984375 30.25 34.21875 35.65625 34.503906 37.078125 C 35.871094 43.382812 42.714844 45.800781 49.886719 42.480469 L 52.246094 41.34375 L 54.796875 42.246094 C 56.214844 42.71875 58.148438 43.101562 59.140625 43.144531 L 60.886719 43.144531 L 60.886719 14.699219 L 51.445312 14.699219 L 51.445312 33.664062 L 50.265625 34.421875 C 48.425781 35.605469 45.449219 35.84375 44.367188 34.851562 C 43.46875 34.042969 43.421875 33.332031 43.421875 24.324219 L 43.421875 14.699219 L 33.984375 14.699219 Z M 33.984375 24.65625 "/>
</g>
</svg>
