<?xml version="1.0" encoding="UTF-8"?>
<svg xmlns="http://www.w3.org/2000/svg" xmlns:xlink="http://www.w3.org/1999/xlink" width="181pt" height="60pt" viewBox="0 0 181 60" version="1.1">
<g id="surface1">
<path style=" stroke:none;fill-rule:nonzero;fill:rgb(0%,0%,0%);fill-opacity:1;" d="M 30.375 9.144531 L 27.96875 9.183594 L 27.132812 10.796875 C 25.117188 14.691406 23 19.496094 21.503906 23.554688 C 20.464844 26.371094 18.347656 32.71875 17.378906 35.925781 C 15.925781 40.726562 13.5625 49.773438 13.730469 49.894531 C 13.746094 49.910156 14.296875 50.148438 14.949219 50.425781 L 16.140625 50.933594 L 18.613281 51.101562 C 19.972656 51.1875 21.113281 51.246094 21.144531 51.230469 C 21.175781 51.214844 21.949219 50.742188 22.863281 50.179688 L 24.527344 49.15625 L 24.566406 48.613281 C 24.578125 48.3125 24.640625 47.222656 24.679688 46.183594 C 24.757812 44.5 24.792969 44.132812 25.070312 42.734375 C 25.230469 41.871094 25.386719 41.15625 25.402344 41.132812 C 25.476562 41.066406 29.910156 40.367188 33.160156 39.921875 C 35.105469 39.652344 39.445312 39.113281 39.667969 39.113281 C 39.800781 39.113281 39.953125 39.550781 40.472656 41.457031 C 41.261719 44.332031 41.714844 46.558594 41.859375 48.34375 C 41.914062 48.910156 41.960938 49.378906 41.96875 49.394531 C 41.984375 49.402344 42.558594 49.804688 43.265625 50.277344 L 44.53125 51.148438 L 47.089844 50.941406 L 49.644531 50.734375 L 50.777344 50.371094 C 51.40625 50.171875 51.90625 49.972656 51.90625 49.917969 C 51.90625 49.808594 51.367188 47.828125 50.921875 46.296875 C 50.753906 45.707031 50.402344 44.421875 50.140625 43.457031 C 47.328125 32.941406 46.675781 30.761719 45.25 27.085938 C 44.957031 26.328125 44.515625 25.136719 44.277344 24.4375 C 44.03125 23.738281 43.609375 22.628906 43.339844 21.976562 C 43.066406 21.324219 42.582031 20.125 42.253906 19.328125 C 40.925781 16.097656 39.246094 12.585938 37.890625 10.21875 L 37.300781 9.183594 L 35.039062 9.144531 C 33.796875 9.121094 31.695312 9.121094 30.375 9.144531 Z M 33.097656 20.632812 C 33.183594 20.695312 33.367188 21.007812 33.503906 21.332031 C 33.796875 22.046875 35.804688 27.488281 35.804688 27.578125 C 35.804688 27.617188 35.089844 28.03125 34.21875 28.507812 C 32.300781 29.554688 28.550781 31.636719 28.3125 31.796875 C 28.214844 31.859375 28.136719 31.890625 28.136719 31.859375 C 28.136719 31.835938 28.4375 31.046875 28.796875 30.109375 C 30.300781 26.195312 30.867188 24.699219 31.441406 23.089844 C 32.214844 20.941406 32.191406 21 32.414062 20.742188 C 32.613281 20.496094 32.851562 20.457031 33.097656 20.632812 Z M 33.097656 20.632812 "/>
<path style=" stroke:none;fill-rule:nonzero;fill:rgb(0%,0%,0%);fill-opacity:1;" d="M 119.183594 21.410156 C 118.5625 21.5 117.75 21.707031 117.242188 21.910156 C 115.601562 22.5625 114.351562 23.914062 113.785156 25.664062 C 113.433594 26.734375 113.378906 27.441406 113.417969 30.5625 C 113.4375 33.21875 113.460938 33.519531 113.609375 34.097656 C 114.4375 37.285156 116.75 38.960938 120.332031 38.960938 C 122.6875 38.960938 124.335938 38.328125 125.628906 36.9375 C 126.550781 35.957031 127.085938 34.695312 127.269531 33.058594 C 127.410156 31.867188 127.332031 27.1875 127.15625 26.433594 C 126.558594 23.789062 124.886719 22.125 122.257812 21.539062 C 121.726562 21.425781 119.671875 21.339844 119.183594 21.410156 Z M 121.390625 23.859375 C 122.792969 24.152344 123.789062 25.257812 124.089844 26.839844 C 124.257812 27.742188 124.25 32.726562 124.082031 33.566406 C 123.757812 35.140625 122.792969 36.1875 121.359375 36.5 C 120.714844 36.648438 119.375 36.5625 118.828125 36.355469 C 117.511719 35.847656 116.757812 34.765625 116.527344 33.027344 C 116.476562 32.675781 116.460938 31.382812 116.476562 29.761719 C 116.515625 26.847656 116.535156 26.671875 116.996094 25.6875 C 117.695312 24.183594 119.457031 23.445312 121.390625 23.859375 Z M 121.390625 23.859375 "/>
<path style=" stroke:none;fill-rule:nonzero;fill:rgb(0%,0%,0%);fill-opacity:1;" d="M 135.78125 21.453125 C 133.59375 21.761719 131.792969 23.152344 131.074219 25.066406 C 130.683594 26.097656 130.636719 26.527344 130.589844 29.355469 C 130.527344 33.273438 130.660156 34.464844 131.304688 35.761719 C 131.976562 37.125 133.105469 38.089844 134.621094 38.613281 C 135.472656 38.898438 136.1875 38.984375 137.445312 38.9375 C 138.777344 38.890625 139.484375 38.738281 140.457031 38.261719 C 141.9375 37.53125 143.011719 35.925781 143.1875 34.15625 L 143.242188 33.65625 L 140.320312 33.65625 L 140.265625 34.097656 C 140.050781 35.808594 138.824219 36.683594 136.824219 36.554688 C 135.058594 36.441406 134.023438 35.394531 133.789062 33.488281 C 133.6875 32.660156 133.6875 27.65625 133.796875 26.820312 C 134.023438 24.945312 135.097656 23.882812 136.871094 23.769531 C 138.832031 23.636719 139.996094 24.492188 140.210938 26.203125 L 140.265625 26.625 L 141.707031 26.648438 L 143.140625 26.664062 L 143.140625 26.296875 C 143.140625 26.089844 143.070312 25.652344 142.988281 25.3125 C 142.449219 23.199219 140.957031 21.902344 138.554688 21.476562 C 137.898438 21.355469 136.539062 21.347656 135.78125 21.453125 Z M 135.78125 21.453125 "/>
<path style=" stroke:none;fill-rule:nonzero;fill:rgb(0%,0%,0%);fill-opacity:1;" d="M 70.613281 21.863281 C 70.574219 21.96875 69.417969 25.734375 68.042969 30.238281 C 66.671875 34.742188 65.527344 38.476562 65.507812 38.539062 C 65.46875 38.636719 65.667969 38.652344 67.015625 38.652344 L 68.582031 38.652344 L 69.109375 36.785156 C 69.410156 35.761719 69.691406 34.765625 69.753906 34.558594 L 69.859375 34.195312 L 72.773438 34.210938 L 75.6875 34.234375 L 76.386719 36.441406 L 77.082031 38.652344 L 80.265625 38.652344 L 80.042969 37.976562 C 79.652344 36.816406 74.828125 21.738281 74.828125 21.707031 C 74.828125 21.683594 73.894531 21.671875 72.757812 21.671875 L 70.6875 21.671875 Z M 73.871094 27.917969 C 74.4375 29.9375 74.90625 31.621094 74.90625 31.660156 C 74.90625 31.707031 74.054688 31.738281 72.710938 31.738281 C 70.664062 31.738281 70.527344 31.730469 70.566406 31.597656 C 70.589844 31.527344 71.058594 29.839844 71.609375 27.855469 C 72.160156 25.867188 72.636719 24.175781 72.660156 24.089844 L 72.707031 23.9375 L 72.765625 24.089844 C 72.804688 24.175781 73.304688 25.898438 73.871094 27.917969 Z M 73.871094 27.917969 "/>
<path style=" stroke:none;fill-rule:nonzero;fill:rgb(0%,0%,0%);fill-opacity:1;" d="M 82.511719 28.023438 C 82.542969 34.320312 82.542969 34.394531 82.710938 35.003906 C 83 36.070312 83.4375 36.847656 84.097656 37.5 C 84.742188 38.136719 85.292969 38.46875 86.175781 38.746094 C 86.683594 38.898438 86.902344 38.921875 88.054688 38.921875 C 89.203125 38.921875 89.425781 38.898438 89.933594 38.746094 C 90.699219 38.5 91.550781 38.054688 92.132812 37.578125 C 92.394531 37.371094 92.625 37.214844 92.640625 37.253906 C 92.660156 37.285156 92.699219 37.609375 92.730469 37.976562 L 92.785156 38.652344 L 95.53125 38.652344 L 95.53125 21.671875 L 92.460938 21.671875 L 92.460938 34.765625 L 91.910156 35.308594 C 90.992188 36.210938 90.078125 36.578125 88.730469 36.578125 C 86.910156 36.578125 85.882812 35.742188 85.640625 34.074219 C 85.59375 33.757812 85.5625 31.152344 85.5625 27.601562 L 85.5625 21.671875 L 82.488281 21.671875 Z M 82.511719 28.023438 "/>
<path style=" stroke:none;fill-rule:nonzero;fill:rgb(0%,0%,0%);fill-opacity:1;" d="M 98.671875 22.859375 L 98.671875 24.050781 L 103.425781 24.050781 L 103.425781 38.652344 L 106.492188 38.652344 L 106.492188 24.050781 L 111.246094 24.050781 L 111.246094 21.671875 L 98.671875 21.671875 Z M 98.671875 22.859375 "/>
<path style=" stroke:none;fill-rule:nonzero;fill:rgb(0%,0%,0%);fill-opacity:1;" d="M 147.671875 30.070312 C 146.269531 34.679688 145.097656 38.507812 145.082031 38.554688 C 145.050781 38.628906 145.386719 38.652344 146.597656 38.652344 L 148.164062 38.652344 L 148.652344 36.902344 C 148.929688 35.941406 149.214844 34.941406 149.289062 34.671875 L 149.433594 34.195312 L 155.246094 34.195312 L 155.714844 35.671875 C 155.976562 36.484375 156.296875 37.492188 156.425781 37.898438 L 156.664062 38.652344 L 159.832031 38.652344 L 159.003906 36.054688 C 158.542969 34.632812 157.316406 30.816406 156.273438 27.5625 L 154.386719 21.671875 L 150.234375 21.671875 Z M 153.40625 27.792969 C 154.003906 29.878906 154.488281 31.613281 154.488281 31.660156 C 154.488281 31.714844 153.746094 31.738281 152.296875 31.738281 C 150.25 31.738281 150.109375 31.730469 150.148438 31.597656 C 150.171875 31.527344 150.609375 29.960938 151.113281 28.125 C 152.273438 23.9375 152.265625 23.953125 152.304688 23.984375 C 152.316406 24.007812 152.816406 25.71875 153.40625 27.792969 Z M 153.40625 27.792969 "/>
<path style=" stroke:none;fill-rule:nonzero;fill:rgb(0%,0%,0%);fill-opacity:1;" d="M 162.921875 30.152344 L 162.921875 38.652344 L 165.941406 38.652344 C 168.3125 38.652344 169.101562 38.628906 169.636719 38.539062 C 172.996094 37.953125 174.929688 35.949219 175.34375 32.628906 C 175.441406 31.84375 175.441406 28.117188 175.34375 27.363281 C 174.949219 24.34375 173.363281 22.5625 170.433594 21.847656 C 170.027344 21.746094 169.277344 21.714844 166.433594 21.691406 L 162.921875 21.65625 Z M 169.285156 24.128906 C 170.75 24.367188 171.753906 25.320312 172.175781 26.894531 C 172.375 27.617188 172.375 32.335938 172.183594 33.171875 C 171.800781 34.832031 170.824219 35.816406 169.238281 36.15625 C 168.894531 36.230469 168.25 36.269531 167.351562 36.269531 L 165.988281 36.269531 L 165.988281 24.050781 L 167.390625 24.050781 C 168.15625 24.050781 169.007812 24.089844 169.285156 24.128906 Z M 169.285156 24.128906 "/>
<path style=" stroke:none;fill-rule:nonzero;fill:rgb(0%,0%,0%);fill-opacity:1;" d="M 178.316406 21.871094 C 177.816406 22.023438 177.320312 22.53125 177.144531 23.054688 C 176.953125 23.644531 177.011719 24.453125 177.289062 24.929688 C 177.765625 25.742188 178.761719 26.082031 179.773438 25.78125 C 180.257812 25.636719 180.6875 25.273438 180.871094 24.859375 C 181.085938 24.398438 181.070312 23.214844 180.855469 22.769531 C 180.457031 21.9375 179.359375 21.546875 178.316406 21.871094 Z M 179.773438 22.175781 C 180.101562 22.316406 180.449219 22.621094 180.601562 22.914062 C 180.671875 23.054688 180.707031 23.367188 180.707031 23.828125 C 180.707031 24.445312 180.6875 24.582031 180.515625 24.867188 C 180.035156 25.695312 178.585938 25.851562 177.847656 25.144531 C 177.542969 24.851562 177.417969 24.597656 177.367188 24.105469 C 177.265625 23.230469 177.6875 22.40625 178.371094 22.167969 C 178.777344 22.023438 179.421875 22.023438 179.773438 22.175781 Z M 179.773438 22.175781 "/>
<path style=" stroke:none;fill-rule:nonzero;fill:rgb(0%,0%,0%);fill-opacity:1;" d="M 178.410156 23.777344 C 178.410156 24.921875 178.417969 24.972656 178.5625 24.972656 C 178.699219 24.972656 178.714844 24.921875 178.714844 24.503906 C 178.714844 24.042969 178.714844 24.042969 178.929688 24.066406 C 179.089844 24.082031 179.183594 24.175781 179.351562 24.492188 C 179.574219 24.914062 179.796875 25.097656 179.988281 25.019531 C 180.125 24.964844 180.125 24.742188 179.988281 24.742188 C 179.925781 24.742188 179.789062 24.589844 179.671875 24.398438 L 179.472656 24.042969 L 179.671875 23.882812 C 179.851562 23.746094 179.871094 23.683594 179.851562 23.335938 C 179.820312 22.832031 179.613281 22.667969 178.914062 22.617188 L 178.410156 22.570312 Z M 179.390625 23.023438 C 179.574219 23.152344 179.621094 23.5 179.464844 23.652344 C 179.414062 23.707031 179.230469 23.746094 179.046875 23.746094 L 178.714844 23.746094 L 178.714844 22.898438 L 178.96875 22.898438 C 179.105469 22.898438 179.296875 22.953125 179.390625 23.023438 Z M 179.390625 23.023438 "/>
</g>
</svg>
