<?xml version="1.0" encoding="UTF-8"?>
<svg xmlns="http://www.w3.org/2000/svg" xmlns:xlink="http://www.w3.org/1999/xlink" width="300pt" height="200pt" viewBox="0 0 300 200" version="1.1">
<g id="surface1">
<path style=" stroke:none;fill-rule:nonzero;fill:rgb(0%,0%,0%);fill-opacity:1;" d="M 30.300781 79.199219 C 29.800781 79.898438 26.699219 86.699219 23.398438 94.398438 L 17.601562 108.300781 L 21.101562 114.898438 C 24.300781 120.800781 25 121.5 27.601562 121.398438 C 29.199219 121.300781 34.101562 119.101562 38.398438 116.398438 L 46.398438 111.5 L 32.898438 111 C 21.699219 110.601562 19.601562 110.300781 19.800781 109 C 20.398438 106.300781 30.300781 84.5 31.601562 83.101562 C 32.601562 81.898438 33.101562 82.300781 34.398438 85.398438 C 35.699219 88.601562 35.699219 89.5 34.601562 92.300781 C 30.800781 101 28 108.199219 28 109.101562 C 28 113 33.601562 102 37.398438 90.699219 C 37.699219 89.699219 37.398438 87.699219 36.601562 86.199219 C 34.601562 82.300781 33.601562 78.601562 34.699219 79.300781 C 35.199219 79.601562 37.5 80 39.800781 80.101562 C 43.601562 80.398438 44.101562 80.699219 46 84.699219 C 47.101562 87 48 89.199219 48 89.5 C 48 89.800781 48.699219 91.699219 49.601562 93.800781 C 50.601562 95.800781 51.398438 97.898438 51.601562 98.5 C 51.699219 99 53.699219 103.699219 55.898438 108.898438 C 58.199219 114.199219 59.601562 118.800781 59.199219 119.199219 C 58.699219 119.699219 57.101562 119.800781 55.699219 119.5 C 53.699219 119 52.5 117.199219 49.398438 109.699219 C 47.300781 104.601562 45.300781 100 45 99.5 C 44.601562 98.898438 43.699219 96.800781 43.101562 94.800781 C 41.699219 90.601562 39 87.699219 39 90.398438 C 39 91.300781 41.800781 98.800781 45.300781 107 L 51.5 121.898438 L 57.898438 122 C 62.601562 122 64.101562 121.699219 63.699219 120.699219 C 63.398438 120.101562 59.300781 110.199219 54.5 98.699219 L 45.699219 78 L 38.5 78 C 33.898438 78 30.898438 78.5 30.300781 79.199219 Z M 36.800781 112.898438 C 37.5 113 37.800781 113.5 37.5 114 C 36.601562 115.398438 29.398438 119 27.601562 119 C 26 119 22.699219 113.699219 23.601562 112.699219 C 23.898438 112.398438 26.699219 112.398438 29.800781 112.5 C 32.898438 112.699219 36.101562 112.898438 36.800781 112.898438 Z M 36.800781 112.898438 "/>
<path style=" stroke:none;fill-rule:nonzero;fill:rgb(0%,0%,0%);fill-opacity:1;" d="M 83.199219 86.699219 C 81.699219 89.601562 73 109.800781 73 110.398438 C 73 110.699219 73.898438 111 75.101562 111 C 76.398438 111 77.601562 109.898438 78.5 107.699219 C 79.800781 104.5 79.800781 104.5 86 104.800781 C 91.800781 105.199219 92.199219 105.398438 93.199219 108.101562 C 93.898438 110.300781 94.800781 111 96.699219 111 C 98 111 99 110.601562 98.800781 110.101562 C 98.699219 109.699219 96.101562 103.800781 93.101562 97.101562 C 89.101562 88 87.300781 85 85.898438 85 C 84.898438 85 83.699219 85.800781 83.199219 86.699219 Z M 88 95.601562 C 89.101562 98.199219 90 100.398438 90 100.601562 C 90 100.800781 88 101 85.601562 101 L 81.199219 101 L 83.300781 96 C 84.398438 93.199219 85.5 91 85.699219 91 C 85.800781 91 86.800781 93.101562 88 95.601562 Z M 88 95.601562 "/>
<path style=" stroke:none;fill-rule:nonzero;fill:rgb(0%,0%,0%);fill-opacity:1;" d="M 101 94 C 101 98.898438 101.5 104.101562 102.199219 105.5 C 104.5 110.601562 113.101562 112.699219 117.898438 109.398438 C 121.5 106.898438 123 101.898438 123 93 C 123 85.101562 123 85 120.5 85 C 118 85 118 85 118 94.300781 C 118 104.699219 116.800781 107 111.699219 107 C 106.5 107 104.398438 101.898438 105.199219 91 C 105.601562 85.300781 105.5 85 103.300781 85 C 101.101562 85 101 85.300781 101 94 Z M 101 94 "/>
<path style=" stroke:none;fill-rule:nonzero;fill:rgb(0%,0%,0%);fill-opacity:1;" d="M 127.699219 85.699219 C 126.398438 88.398438 127.699219 89.5 131.800781 89.300781 L 136 89.101562 L 136 100.101562 C 136 110.300781 136.101562 111 138 111 C 139.898438 111 140 110.300781 140 100 L 140 88.898438 L 143.300781 89.5 C 146.199219 90.101562 146.800781 89.800781 147.800781 87.601562 L 149 85 L 138.5 85 C 132.800781 85 127.898438 85.300781 127.699219 85.699219 Z M 127.699219 85.699219 "/>
<path style=" stroke:none;fill-rule:nonzero;fill:rgb(0%,0%,0%);fill-opacity:1;" d="M 155.398438 86.898438 C 152.199219 88.898438 149 94.300781 149 97.898438 C 149 101.800781 151.800781 106.898438 155.199219 109 C 160.398438 112.300781 167.398438 111.300781 171.699219 106.601562 C 181.699219 95.699219 168 79.199219 155.398438 86.898438 Z M 168.101562 91.898438 C 170.101562 93.898438 171 95.800781 171 98 C 171 102.300781 166.300781 107 162 107 C 157.398438 107 154 103.199219 154 98 C 154 89.601562 162.199219 86.101562 168.101562 91.898438 Z M 168.101562 91.898438 "/>
<path style=" stroke:none;fill-rule:nonzero;fill:rgb(0%,0%,0%);fill-opacity:1;" d="M 180 98 L 180 111 L 185.5 111 C 195.199219 111 201.699219 106.601562 202.699219 99.300781 C 203.699219 91.398438 196.199219 85 185.800781 85 L 180 85 Z M 195.800781 92.199219 C 197.300781 93.699219 198 95.5 198 97.898438 C 197.898438 103.601562 194.101562 107 187.800781 107 L 184.5 107 L 184.699219 98.300781 C 184.800781 93.398438 184.898438 89.398438 184.898438 89.300781 C 185 89.199219 186.898438 89.300781 189.300781 89.601562 C 191.601562 89.898438 194.5 91.101562 195.800781 92.199219 Z M 195.800781 92.199219 "/>
<path style=" stroke:none;fill-rule:nonzero;fill:rgb(0%,0%,0%);fill-opacity:1;" d="M 207 98 L 207 111 L 216.300781 111 C 224.898438 111 225.601562 110.898438 225.601562 109 C 225.601562 107.199219 224.898438 107 218.800781 107 L 212 107 L 212 103.5 C 212 100 212 100 216.5 100 C 220.300781 100 221 99.699219 221 98 C 221 96.300781 220.300781 96 216.5 96 C 212.101562 96 212 95.898438 212 92.699219 L 212 89.398438 L 218.5 89.800781 C 224.898438 90.199219 225 90.199219 225 87.601562 L 225 85 L 207 85 Z M 207 98 "/>
<path style=" stroke:none;fill-rule:nonzero;fill:rgb(0%,0%,0%);fill-opacity:1;" d="M 232.601562 87.101562 C 229.5 89.5 229.101562 93.898438 231.800781 96.199219 C 232.699219 97 235.699219 98.5 238.300781 99.5 C 243.601562 101.5 244.898438 103.199219 243 105.5 C 241.398438 107.398438 237.300781 107.398438 234 105.5 C 230.699219 103.601562 230.300781 103.601562 229.699219 106 C 228.699219 110 239 112.699219 244.300781 109.898438 C 247.300781 108.300781 248 107.101562 248 103.398438 C 248 99.699219 246.101562 97.898438 239.800781 95.601562 C 234.300781 93.601562 233.300781 92.5 235 90.5 C 236.398438 88.800781 241.300781 88.5 244 90 C 245.398438 90.699219 246 90.601562 246.5 89.300781 C 248.101562 85 237.398438 83.300781 232.601562 87.101562 Z M 232.601562 87.101562 "/>
<path style=" stroke:none;fill-rule:nonzero;fill:rgb(0%,0%,0%);fill-opacity:1;" d="M 253 98 C 253 110.300781 253.101562 111 255 111 C 256.800781 111 257 110.300781 257 104.199219 L 257 97.5 L 263.601562 104.199219 C 268.398438 109.199219 270.898438 111 272.800781 111 C 275.300781 111 275 110.5 269 104.5 L 262.601562 98 L 265 95.300781 C 266.398438 93.699219 269 90.800781 270.898438 88.699219 L 274.398438 85 L 271.800781 85 C 269.898438 85 267.5 86.699219 263.101562 91.199219 L 257 97.5 L 257 91.199219 C 257 85.699219 256.800781 85 255 85 C 253.101562 85 253 85.699219 253 98 Z M 253 98 "/>
<path style=" stroke:none;fill-rule:nonzero;fill:rgb(0%,0%,0%);fill-opacity:1;" d="M 277.398438 107.5 C 277 108.398438 277.199219 109.601562 277.800781 110.199219 C 279.300781 111.699219 282.199219 110.300781 281.800781 108.300781 C 281.398438 106 278.199219 105.398438 277.398438 107.5 Z M 280.101562 107.898438 C 280.800781 106.800781 281 106.898438 281 108.199219 C 281 109.199219 280.300781 110 279.5 110 C 278.699219 110 278 109.199219 278.101562 108.199219 C 278.101562 107 278.300781 106.898438 278.699219 107.898438 C 279.199219 109 279.398438 109 280.101562 107.898438 Z M 280.101562 107.898438 "/>
</g>
</svg>
