<?xml version="1.0" encoding="UTF-8"?>
<svg xmlns="http://www.w3.org/2000/svg" xmlns:xlink="http://www.w3.org/1999/xlink" width="199pt" height="92pt" viewBox="0 0 199 92" version="1.1">
<g id="surface1">
<path style=" stroke:none;fill-rule:nonzero;fill:rgb(0%,0%,0%);fill-opacity:1;" d="M 121.640625 3.132812 C 117.949219 5.671875 113.925781 8.652344 113.691406 9.039062 C 113.589844 9.195312 113.097656 9.117188 112.324219 8.78125 C 101.539062 4.144531 89.125 9.144531 84.871094 19.839844 C 83.757812 22.613281 83.347656 24.8125 83.347656 28.101562 C 83.347656 32.480469 84.480469 36.054688 86.984375 39.628906 L 88.042969 41.15625 L 86.960938 44.210938 C 85.460938 48.511719 84.894531 51.023438 84.894531 53.613281 C 84.894531 56.359375 85.4375 57.65625 87.011719 58.796875 C 88.070312 59.597656 88.199219 59.625 90.082031 59.519531 C 92.609375 59.363281 95.0625 58.199219 98.210938 55.558594 C 100.402344 53.746094 102.984375 51.023438 102.519531 51.023438 C 102.390625 51.023438 101.304688 51.644531 100.09375 52.398438 C 94.03125 56.203125 90.882812 56.050781 90.183594 51.878906 C 89.925781 50.195312 91.089844 44.808594 91.707031 44.808594 C 91.785156 44.808594 92.972656 45.378906 94.363281 46.105469 C 96.300781 47.085938 97.4375 47.476562 99.214844 47.789062 C 102.234375 48.277344 106.777344 48.304688 108.761719 47.789062 C 110.90625 47.242188 114.648438 45.378906 116.554688 43.929688 L 118.15625 42.710938 L 118.90625 43.253906 L 119.628906 43.796875 L 127.367188 43.410156 C 131.601562 43.175781 138.617188 42.890625 142.953125 42.738281 C 150.332031 42.503906 153.921875 42.269531 153.738281 42.089844 C 153.6875 42.039062 151.625 41.804688 149.148438 41.597656 C 137.5625 40.507812 129.226562 38.980469 124.167969 36.988281 C 122.980469 36.519531 122.800781 36.363281 122.929688 35.898438 C 124.21875 31.339844 124.246094 31.210938 124.246094 27.714844 C 124.246094 24.789062 124.144531 23.90625 123.652344 22.300781 C 122.335938 18.105469 119.9375 14.296875 116.917969 11.679688 C 116.039062 10.929688 115.34375 10.230469 115.394531 10.128906 C 115.5 9.921875 119.730469 5.878906 122.828125 3.054688 C 124.039062 1.941406 124.941406 1.035156 124.867188 1.035156 C 124.789062 1.035156 123.34375 1.996094 121.640625 3.132812 Z M 107.601562 8.960938 C 109.640625 9.351562 111.730469 10.023438 111.730469 10.28125 C 111.730469 10.359375 109.769531 12.457031 107.371094 14.972656 C 99.601562 23.15625 96.609375 26.859375 92.507812 33.464844 C 89.359375 38.539062 88.894531 39.238281 88.664062 39.214844 C 88.273438 39.164062 86.519531 36.105469 85.925781 34.5 C 85.644531 33.722656 85.203125 31.960938 84.972656 30.589844 C 84.300781 26.652344 84.921875 22.949219 86.960938 18.804688 C 89.359375 13.910156 95.421875 9.480469 100.765625 8.730469 C 102.597656 8.46875 105.640625 8.574219 107.601562 8.960938 Z M 115.910156 12.796875 C 117.097656 13.726562 119.445312 16.628906 120.582031 18.648438 C 122.464844 21.964844 123.214844 26.960938 122.464844 31.289062 C 121.921875 34.421875 121.484375 35.484375 120.738281 35.484375 C 119.9375 35.484375 115.808594 33.152344 113.539062 31.417969 C 112.503906 30.640625 111.730469 30.097656 111.78125 30.199219 C 111.859375 30.328125 113.125 32.636719 114.570312 35.355469 C 116.015625 38.046875 117.304688 40.378906 117.433594 40.535156 C 117.847656 40.976562 117.691406 41.183594 115.652344 42.683594 C 113.433594 44.34375 110.878906 45.585938 108.375 46.285156 C 106.105469 46.90625 101.667969 46.90625 99.191406 46.257812 C 96.816406 45.664062 92.53125 43.539062 92.429688 42.917969 C 92.199219 41.726562 97.152344 32.996094 101.667969 26.679688 C 106.285156 20.152344 113.382812 11.914062 114.363281 11.914062 C 114.570312 11.914062 115.265625 12.304688 115.910156 12.796875 Z M 115.910156 12.796875 "/>
<path style=" stroke:none;fill-rule:nonzero;fill:rgb(0%,0%,0%);fill-opacity:1;" d="M 9.625 76.875 C 1.910156 87.207031 0.414062 89.332031 0.644531 89.566406 C 0.929688 89.851562 18.242188 89.929688 22.964844 89.667969 C 28.28125 89.359375 28.902344 89.125 31.894531 86.144531 C 34.371094 83.632812 35.273438 82.003906 34.859375 80.757812 C 34.707031 80.320312 34.578125 79.851562 34.578125 79.75 C 34.578125 79.621094 35.378906 79.128906 36.359375 78.636719 C 38.9375 77.3125 42.214844 73.351562 42.5 71.175781 C 42.628906 70.269531 42.550781 70.0625 41.648438 69.128906 L 40.667969 68.121094 L 28.382812 68.121094 L 16.128906 68.144531 Z M 29.234375 72.910156 C 29.828125 73.144531 29.804688 73.558594 29.105469 74.59375 C 27.972656 76.253906 27.351562 76.511719 24.332031 76.613281 L 21.570312 76.71875 L 22.035156 75.992188 C 22.292969 75.578125 22.992188 74.621094 23.585938 73.84375 L 24.617188 72.445312 L 26.707031 72.601562 C 27.84375 72.679688 28.976562 72.808594 29.234375 72.910156 Z M 23.351562 81.585938 C 23.53125 81.898438 22.21875 84.101562 21.46875 84.746094 C 21.183594 85.03125 20.179688 85.214844 18.371094 85.34375 C 15.070312 85.550781 14.964844 85.394531 16.695312 83.039062 L 17.933594 81.355469 L 20.566406 81.328125 C 22.113281 81.328125 23.25 81.433594 23.351562 81.585938 Z M 23.351562 81.585938 "/>
<path style=" stroke:none;fill-rule:nonzero;fill:rgb(0%,0%,0%);fill-opacity:1;" d="M 55.609375 68.300781 C 52.847656 68.921875 52.253906 69.207031 50.371094 71.046875 C 48.640625 72.730469 43.351562 79.566406 40.023438 84.410156 C 38.242188 87 38.320312 88.191406 40.332031 89.304688 C 41.078125 89.695312 42.113281 89.746094 51.09375 89.722656 C 61.414062 89.722656 62.730469 89.589844 64.792969 88.554688 C 66.472656 87.699219 68.277344 85.707031 72.433594 80.113281 C 76.84375 74.207031 78.445312 71.71875 78.445312 70.789062 C 78.445312 70.449219 78.03125 69.726562 77.515625 69.15625 L 76.585938 68.121094 L 66.34375 68.144531 C 60.714844 68.171875 55.890625 68.222656 55.609375 68.300781 Z M 65.050781 72.9375 C 65.671875 73.300781 64.84375 74.722656 60.714844 80.1875 C 57.722656 84.203125 56.691406 85.109375 54.886719 85.34375 C 53.492188 85.523438 51.609375 85.164062 51.609375 84.695312 C 51.609375 84.359375 53.492188 81.640625 55.867188 78.609375 C 59.660156 73.714844 60.253906 73.09375 61.492188 72.808594 C 62.546875 72.546875 64.5625 72.625 65.050781 72.9375 Z M 65.050781 72.9375 "/>
<path style=" stroke:none;fill-rule:nonzero;fill:rgb(0%,0%,0%);fill-opacity:1;" d="M 84.300781 73.351562 C 82.109375 76.253906 78.519531 81.042969 76.300781 84.046875 L 72.25 89.488281 L 73.617188 89.667969 C 74.339844 89.746094 79.554688 89.824219 85.152344 89.851562 L 95.34375 89.851562 L 96.765625 87.933594 C 97.539062 86.871094 98.210938 85.886719 98.261719 85.757812 C 98.3125 85.628906 96.121094 85.5 93.179688 85.445312 C 90.03125 85.371094 87.914062 85.238281 87.734375 85.058594 C 87.554688 84.878906 87.835938 84.28125 88.664062 83.0625 L 89.847656 81.328125 L 95.835938 81.328125 L 101.796875 81.304688 L 103.320312 79.230469 C 104.144531 78.089844 104.738281 77.082031 104.660156 76.976562 C 104.558594 76.898438 102.15625 76.746094 99.34375 76.667969 C 96.53125 76.589844 94.160156 76.460938 94.082031 76.382812 C 94.003906 76.304688 94.492188 75.421875 95.164062 74.4375 L 96.378906 72.652344 L 102.390625 72.574219 L 108.375 72.523438 L 109.820312 70.554688 C 110.621094 69.492188 111.1875 68.507812 111.085938 68.429688 C 110.984375 68.328125 105.820312 68.222656 99.601562 68.171875 L 88.300781 68.09375 Z M 84.300781 73.351562 "/>
<path style=" stroke:none;fill-rule:nonzero;fill:rgb(0%,0%,0%);fill-opacity:1;" d="M 111.707031 77.003906 C 108.066406 81.871094 104.507812 86.691406 103.785156 87.699219 L 102.492188 89.539062 L 103.808594 89.722656 C 104.558594 89.796875 107.085938 89.875 109.433594 89.875 L 113.71875 89.875 L 119.007812 82.804688 C 128.8125 69.75 129.640625 68.558594 129.097656 68.351562 C 128.839844 68.25 126.308594 68.144531 123.472656 68.144531 L 118.3125 68.121094 Z M 111.707031 77.003906 "/>
<path style=" stroke:none;fill-rule:nonzero;fill:rgb(0%,0%,0%);fill-opacity:1;" d="M 135.339844 70.917969 C 124.503906 85.421875 121.589844 89.488281 122 89.667969 C 122.257812 89.773438 123.910156 89.851562 125.691406 89.851562 L 128.96875 89.875 L 130.824219 87.335938 C 133.949219 83.167969 136.8125 79.515625 136.992188 79.515625 C 137.097656 79.515625 137.742188 81.847656 138.4375 84.695312 L 139.703125 89.875 L 148.835938 89.875 L 153.996094 82.933594 C 163.984375 69.492188 164.65625 68.558594 164.292969 68.328125 C 164.140625 68.222656 162.488281 68.121094 160.628906 68.144531 L 157.273438 68.144531 L 154.824219 71.410156 C 150.851562 76.71875 149.40625 78.503906 149.148438 78.351562 C 149.042969 78.273438 148.371094 75.941406 147.703125 73.171875 L 146.488281 68.121094 L 141.949219 68.121094 L 137.40625 68.144531 Z M 135.339844 70.917969 "/>
<path style=" stroke:none;fill-rule:nonzero;fill:rgb(0%,0%,0%);fill-opacity:1;" d="M 176.371094 68.378906 C 173.480469 68.585938 171.542969 69.492188 169.636719 71.511719 C 168.035156 73.246094 159.90625 84.074219 159.210938 85.472656 C 158.539062 86.820312 158.566406 87.441406 159.363281 88.605469 L 160.011719 89.566406 L 165.351562 89.746094 C 172.9375 90.03125 181.425781 89.773438 183.078125 89.230469 C 185.144531 88.527344 186.589844 87.441406 188.601562 85.085938 C 189.632812 83.867188 190.71875 82.832031 191.027344 82.777344 C 191.335938 82.703125 192.007812 82.597656 192.523438 82.496094 C 193.296875 82.390625 193.660156 82.054688 194.769531 80.550781 C 195.515625 79.566406 196.109375 78.636719 196.109375 78.503906 C 196.109375 78.296875 193.839844 78.222656 189.066406 78.222656 L 182.046875 78.222656 L 180.5 80.34375 C 177.453125 84.59375 176.652344 85.214844 174.203125 85.214844 C 172.449219 85.214844 171.855469 85.058594 171.855469 84.539062 C 171.855469 83.710938 177.816406 75.628906 179.984375 73.558594 C 180.886719 72.679688 180.988281 72.652344 182.820312 72.652344 C 185.503906 72.679688 185.609375 72.808594 184.628906 75.164062 C 184.445312 75.605469 184.808594 75.628906 190.125 75.628906 L 195.800781 75.628906 L 197.011719 73.84375 C 197.992188 72.394531 198.25 71.824219 198.25 70.96875 C 198.25 69.363281 197.476562 68.714844 195.207031 68.378906 C 193.21875 68.09375 180.058594 68.09375 176.371094 68.378906 Z M 176.371094 68.378906 "/>
</g>
</svg>
