<?xml version="1.0" encoding="UTF-8"?>
<svg xmlns="http://www.w3.org/2000/svg" xmlns:xlink="http://www.w3.org/1999/xlink" width="200pt" height="95pt" viewBox="0 0 200 95" version="1.1">
<g id="surface1">
<path style=" stroke:none;fill-rule:nonzero;fill:rgb(0%,0%,0%);fill-opacity:1;" d="M 74.496094 1.457031 C 73.765625 2.183594 74.714844 3.640625 75.664062 3.292969 C 76.453125 2.976562 76.199219 1.457031 75.378906 1.328125 C 75 1.265625 74.621094 1.328125 74.496094 1.457031 Z M 74.496094 1.457031 "/>
<path style=" stroke:none;fill-rule:nonzero;fill:rgb(0%,0%,0%);fill-opacity:1;" d="M 84.386719 2.816406 C 83.945312 3.703125 84.957031 4.910156 85.902344 4.625 C 86.726562 4.339844 87.105469 3.292969 86.597656 2.691406 C 86.03125 2.027344 84.796875 2.121094 84.386719 2.816406 Z M 84.386719 2.816406 "/>
<path style=" stroke:none;fill-rule:nonzero;fill:rgb(0%,0%,0%);fill-opacity:1;" d="M 79.171875 3.324219 C 77.527344 4.941406 78.667969 7.917969 80.910156 7.917969 C 82.175781 7.917969 83.753906 6.429688 83.753906 5.226562 C 83.753906 4.71875 83.375 4.023438 82.839844 3.453125 C 81.636719 2.28125 80.246094 2.214844 79.171875 3.324219 Z M 79.171875 3.324219 "/>
<path style=" stroke:none;fill-rule:nonzero;fill:rgb(0%,0%,0%);fill-opacity:1;" d="M 66.847656 6.523438 C 66.277344 7.09375 66.339844 7.566406 67.066406 8.011719 C 67.730469 8.453125 68.585938 8.074219 68.585938 7.316406 C 68.585938 6.363281 67.507812 5.890625 66.847656 6.523438 Z M 66.847656 6.523438 "/>
<path style=" stroke:none;fill-rule:nonzero;fill:rgb(0%,0%,0%);fill-opacity:1;" d="M 76.042969 7.316406 C 75.0625 8.105469 74.96875 9.246094 75.851562 10.132812 C 76.613281 10.894531 77.371094 10.925781 78.320312 10.261719 C 79.015625 9.785156 79.265625 8.453125 78.761719 7.726562 C 78.570312 7.410156 77.339844 6.648438 77.023438 6.648438 C 76.960938 6.648438 76.515625 6.933594 76.042969 7.316406 Z M 76.042969 7.316406 "/>
<path style=" stroke:none;fill-rule:nonzero;fill:rgb(0%,0%,0%);fill-opacity:1;" d="M 84.164062 7.472656 C 83.691406 8.234375 83.691406 8.390625 84.101562 9.152344 C 84.734375 10.292969 86.347656 10.449219 87.042969 9.4375 C 87.707031 8.519531 87.675781 7.820312 86.976562 7.1875 C 86.09375 6.363281 84.796875 6.523438 84.164062 7.472656 Z M 84.164062 7.472656 "/>
<path style=" stroke:none;fill-rule:nonzero;fill:rgb(0%,0%,0%);fill-opacity:1;" d="M 96.269531 7.15625 C 95.289062 8.105469 96.019531 9.339844 97.410156 9.121094 C 98.230469 9.023438 98.578125 7.820312 97.976562 7.09375 C 97.472656 6.523438 96.871094 6.523438 96.269531 7.15625 Z M 96.269531 7.15625 "/>
<path style=" stroke:none;fill-rule:nonzero;fill:rgb(0%,0%,0%);fill-opacity:1;" d="M 71.777344 7.25 C 71.554688 7.410156 71.429688 7.851562 71.492188 8.265625 C 71.617188 9.308594 73.136719 9.375 73.261719 8.328125 C 73.386719 7.535156 72.410156 6.871094 71.777344 7.25 Z M 71.777344 7.25 "/>
<path style=" stroke:none;fill-rule:nonzero;fill:rgb(0%,0%,0%);fill-opacity:1;" d="M 92.160156 9.46875 C 91.5 10.195312 91.65625 10.894531 92.574219 11.398438 C 93.109375 11.652344 93.363281 11.589844 93.898438 11.050781 C 94.46875 10.480469 94.5 10.324219 94.089844 9.722656 C 93.488281 8.804688 92.855469 8.707031 92.160156 9.46875 Z M 92.160156 9.46875 "/>
<path style=" stroke:none;fill-rule:nonzero;fill:rgb(0%,0%,0%);fill-opacity:1;" d="M 87.609375 10.195312 C 86.757812 11.050781 87.769531 12.507812 88.8125 11.875 C 89.316406 11.558594 89.191406 10.226562 88.621094 10.007812 C 87.988281 9.753906 88.054688 9.753906 87.609375 10.195312 Z M 87.609375 10.195312 "/>
<path style=" stroke:none;fill-rule:nonzero;fill:rgb(0%,0%,0%);fill-opacity:1;" d="M 70.671875 12.539062 C 70.386719 12.792969 70.164062 13.363281 70.164062 13.773438 C 70.164062 14.1875 70.386719 14.757812 70.671875 15.011719 C 70.921875 15.296875 71.492188 15.515625 71.902344 15.515625 C 72.3125 15.515625 72.882812 15.296875 73.136719 15.011719 C 74.210938 13.933594 73.417969 12.035156 71.902344 12.035156 C 71.492188 12.035156 70.921875 12.253906 70.671875 12.539062 Z M 70.671875 12.539062 "/>
<path style=" stroke:none;fill-rule:nonzero;fill:rgb(0%,0%,0%);fill-opacity:1;" d="M 82.207031 12.636719 C 81.796875 13.394531 82.492188 14.441406 83.25 14.15625 C 83.976562 13.871094 84.230469 13.078125 83.753906 12.507812 C 83.21875 11.875 82.585938 11.90625 82.207031 12.636719 Z M 82.207031 12.636719 "/>
<path style=" stroke:none;fill-rule:nonzero;fill:rgb(0%,0%,0%);fill-opacity:1;" d="M 93.867188 12.667969 C 93.617188 13.109375 93.617188 13.488281 93.867188 13.933594 C 94.3125 14.757812 95.636719 14.757812 96.082031 13.964844 C 96.492188 13.171875 96.492188 13.109375 95.890625 12.539062 C 95.226562 11.84375 94.28125 11.90625 93.867188 12.667969 Z M 93.867188 12.667969 "/>
<path style=" stroke:none;fill-rule:nonzero;fill:rgb(0%,0%,0%);fill-opacity:1;" d="M 66.433594 13.171875 C 65.675781 13.710938 65.488281 15.136719 66.117188 15.769531 C 67.289062 16.941406 69.691406 15.390625 68.898438 13.964844 C 68.617188 13.425781 67.667969 12.667969 67.257812 12.667969 C 67.195312 12.667969 66.8125 12.886719 66.433594 13.171875 Z M 66.433594 13.171875 "/>
<path style=" stroke:none;fill-rule:nonzero;fill:rgb(0%,0%,0%);fill-opacity:1;" d="M 86.914062 13.238281 C 85.335938 13.742188 84.765625 15.863281 85.96875 16.941406 C 87.324219 18.175781 89.761719 17.195312 89.761719 15.390625 C 89.761719 13.964844 88.242188 12.824219 86.914062 13.238281 Z M 86.914062 13.238281 "/>
<path style=" stroke:none;fill-rule:nonzero;fill:rgb(0%,0%,0%);fill-opacity:1;" d="M 78.414062 14.660156 C 77.242188 15.230469 76.894531 16.65625 77.65625 17.703125 C 78.949219 19.410156 81.542969 18.714844 81.542969 16.65625 C 81.542969 15.484375 81.320312 15.105469 80.371094 14.597656 C 79.519531 14.15625 79.363281 14.15625 78.414062 14.660156 Z M 78.414062 14.660156 "/>
<path style=" stroke:none;fill-rule:nonzero;fill:rgb(0%,0%,0%);fill-opacity:1;" d="M 91.402344 14.945312 C 90.898438 15.453125 90.929688 15.675781 91.53125 16.277344 C 92.195312 16.972656 93.300781 16.371094 93.171875 15.421875 C 93.078125 14.628906 92.003906 14.34375 91.402344 14.945312 Z M 91.402344 14.945312 "/>
<path style=" stroke:none;fill-rule:nonzero;fill:rgb(0%,0%,0%);fill-opacity:1;" d="M 96.332031 16.816406 C 95.070312 17.542969 96.144531 19.632812 97.472656 19.125 C 98.292969 18.808594 98.484375 17.386719 97.820312 16.878906 C 97.125 16.402344 97.027344 16.371094 96.332031 16.816406 Z M 96.332031 16.816406 "/>
<path style=" stroke:none;fill-rule:nonzero;fill:rgb(0%,0%,0%);fill-opacity:1;" d="M 72.503906 17.417969 C 71.554688 17.796875 70.796875 18.96875 70.796875 20.046875 C 70.796875 22.101562 73.703125 23.339844 75.285156 21.945312 C 75.601562 21.660156 76.042969 21.535156 76.296875 21.628906 C 76.929688 21.882812 77.78125 21.027344 77.558594 20.425781 C 77.433594 20.171875 77.085938 19.949219 76.769531 19.949219 C 76.453125 19.949219 76.167969 19.761719 76.167969 19.507812 C 76.167969 18.777344 74.84375 17.449219 73.957031 17.289062 C 73.515625 17.195312 72.851562 17.257812 72.503906 17.417969 Z M 72.503906 17.417969 "/>
<path style=" stroke:none;fill-rule:nonzero;fill:rgb(0%,0%,0%);fill-opacity:1;" d="M 99.460938 18.9375 C 98.230469 20.265625 99.179688 22.484375 100.917969 22.484375 C 102.71875 22.484375 103.730469 20.046875 102.464844 18.90625 C 101.675781 18.207031 100.09375 18.238281 99.460938 18.9375 Z M 99.460938 18.9375 "/>
<path style=" stroke:none;fill-rule:nonzero;fill:rgb(0%,0%,0%);fill-opacity:1;" d="M 82.175781 19.539062 C 81.382812 20.550781 81.542969 21.722656 82.554688 22.546875 C 83.945312 23.75 85.96875 22.769531 85.96875 20.898438 C 85.96875 18.808594 83.46875 17.921875 82.175781 19.539062 Z M 82.175781 19.539062 "/>
<path style=" stroke:none;fill-rule:nonzero;fill:rgb(0%,0%,0%);fill-opacity:1;" d="M 91.023438 19.539062 C 90.265625 19.792969 89.761719 20.613281 89.761719 21.535156 C 89.761719 22.546875 90.929688 23.75 91.910156 23.75 C 93.457031 23.75 94.4375 21.46875 93.488281 20.171875 C 93.046875 19.601562 91.75 19.253906 91.023438 19.539062 Z M 91.023438 19.539062 "/>
<path style=" stroke:none;fill-rule:nonzero;fill:rgb(0%,0%,0%);fill-opacity:1;" d="M 67.792969 22.101562 C 65.140625 22.640625 64.917969 26.378906 67.476562 27.234375 C 70.226562 28.152344 72.15625 24.667969 69.976562 22.769531 C 69.214844 22.136719 68.585938 21.945312 67.792969 22.101562 Z M 67.792969 22.101562 "/>
<path style=" stroke:none;fill-rule:nonzero;fill:rgb(0%,0%,0%);fill-opacity:1;" d="M 59.164062 22.863281 C 58.660156 23.371094 58.691406 23.589844 59.292969 24.191406 C 59.957031 24.890625 61.0625 24.289062 60.933594 23.339844 C 60.839844 22.546875 59.765625 22.261719 59.164062 22.863281 Z M 59.164062 22.863281 "/>
<path style=" stroke:none;fill-rule:nonzero;fill:rgb(0%,0%,0%);fill-opacity:1;" d="M 87.136719 22.671875 C 86.410156 23.402344 87.359375 24.859375 88.304688 24.511719 C 89.097656 24.191406 88.84375 22.671875 88.023438 22.546875 C 87.640625 22.484375 87.261719 22.546875 87.136719 22.671875 Z M 87.136719 22.671875 "/>
<path style=" stroke:none;fill-rule:nonzero;fill:rgb(0%,0%,0%);fill-opacity:1;" d="M 80.625 23.210938 C 80.058594 23.941406 80.5625 24.761719 81.511719 24.636719 C 82.144531 24.574219 82.332031 24.382812 82.332031 23.75 C 82.332031 22.832031 81.257812 22.484375 80.625 23.210938 Z M 80.625 23.210938 "/>
<path style=" stroke:none;fill-rule:nonzero;fill:rgb(0%,0%,0%);fill-opacity:1;" d="M 74.621094 23.84375 C 73.832031 24.828125 75.03125 25.933594 76.074219 25.175781 C 76.515625 24.828125 76.582031 24.605469 76.296875 24.160156 C 75.851562 23.433594 75.09375 23.273438 74.621094 23.84375 Z M 74.621094 23.84375 "/>
<path style=" stroke:none;fill-rule:nonzero;fill:rgb(0%,0%,0%);fill-opacity:1;" d="M 59.890625 25.808594 C 59.449219 26.21875 59.101562 26.917969 59.101562 27.328125 C 59.101562 28.277344 60.335938 29.449219 61.347656 29.449219 C 62.324219 29.449219 63.527344 28.246094 63.527344 27.265625 C 63.527344 26.378906 62.199219 25.015625 61.316406 25.015625 C 60.96875 25.015625 60.304688 25.363281 59.890625 25.808594 Z M 59.890625 25.808594 "/>
<path style=" stroke:none;fill-rule:nonzero;fill:rgb(0%,0%,0%);fill-opacity:1;" d="M 81.605469 25.933594 C 81.351562 26.09375 81.226562 26.601562 81.289062 27.105469 C 81.351562 27.835938 81.574219 28.058594 82.238281 28.121094 C 82.933594 28.214844 83.1875 28.058594 83.46875 27.421875 C 84.070312 26.125 82.839844 25.144531 81.605469 25.933594 Z M 81.605469 25.933594 "/>
<path style=" stroke:none;fill-rule:nonzero;fill:rgb(0%,0%,0%);fill-opacity:1;" d="M 86.09375 26.09375 C 85.777344 26.917969 86.21875 27.550781 87.074219 27.550781 C 87.800781 27.550781 87.894531 27.421875 87.800781 26.664062 C 87.707031 25.683594 86.410156 25.238281 86.09375 26.09375 Z M 86.09375 26.09375 "/>
<path style=" stroke:none;fill-rule:nonzero;fill:rgb(0%,0%,0%);fill-opacity:1;" d="M 77.148438 27.644531 C 76.582031 28.375 77.085938 29.195312 78.035156 29.070312 C 78.667969 29.007812 78.855469 28.816406 78.855469 28.183594 C 78.855469 27.265625 77.78125 26.917969 77.148438 27.644531 Z M 77.148438 27.644531 "/>
<path style=" stroke:none;fill-rule:nonzero;fill:rgb(0%,0%,0%);fill-opacity:1;" d="M 72.28125 29.671875 C 71.964844 29.765625 71.554688 30.179688 71.398438 30.652344 C 71.144531 31.316406 71.207031 31.636719 71.679688 32.269531 C 72.441406 33.3125 73.417969 33.472656 74.242188 32.648438 C 75.695312 31.191406 74.335938 29.164062 72.28125 29.671875 Z M 72.28125 29.671875 "/>
<path style=" stroke:none;fill-rule:nonzero;fill:rgb(0%,0%,0%);fill-opacity:1;" d="M 68.078125 30.242188 C 67.792969 30.96875 68.171875 31.667969 68.867188 31.667969 C 69.660156 31.667969 69.941406 31.222656 69.691406 30.398438 C 69.46875 29.671875 68.332031 29.546875 68.078125 30.242188 Z M 68.078125 30.242188 "/>
<path style=" stroke:none;fill-rule:nonzero;fill:rgb(0%,0%,0%);fill-opacity:1;" d="M 84.957031 30.875 C 84.511719 31.886719 85.113281 32.679688 86.25 32.554688 C 86.882812 32.488281 87.105469 32.269531 87.167969 31.539062 C 87.359375 30.019531 85.585938 29.480469 84.957031 30.875 Z M 84.957031 30.875 "/>
<path style=" stroke:none;fill-rule:nonzero;fill:rgb(0%,0%,0%);fill-opacity:1;" d="M 79.394531 31.097656 C 79.171875 31.316406 79.015625 31.730469 79.015625 32.015625 C 79.015625 33.375 81.289062 33.691406 81.480469 32.363281 C 81.667969 31.035156 80.308594 30.179688 79.394531 31.097656 Z M 79.394531 31.097656 "/>
<path style=" stroke:none;fill-rule:nonzero;fill:rgb(0%,0%,0%);fill-opacity:1;" d="M 92.605469 30.96875 C 91.023438 31.476562 90.519531 33.375 91.65625 34.515625 C 92.953125 35.816406 95.132812 34.929688 95.132812 33.125 C 95.132812 31.730469 93.804688 30.589844 92.605469 30.96875 Z M 92.605469 30.96875 "/>
<path style=" stroke:none;fill-rule:nonzero;fill:rgb(0%,0%,0%);fill-opacity:1;" d="M 97.503906 31.507812 C 96.492188 32.488281 96.492188 33.375 97.535156 34.390625 C 98.136719 35.023438 98.515625 35.148438 99.179688 35.023438 C 100.191406 34.769531 101.136719 33.757812 101.136719 32.871094 C 101.136719 32.078125 99.746094 30.714844 98.925781 30.714844 C 98.578125 30.714844 97.914062 31.066406 97.503906 31.507812 Z M 97.503906 31.507812 "/>
<path style=" stroke:none;fill-rule:nonzero;fill:rgb(0%,0%,0%);fill-opacity:1;" d="M 64.539062 31.253906 C 64.316406 31.351562 63.9375 31.824219 63.652344 32.332031 C 63.273438 33.125 63.242188 33.410156 63.589844 34.136719 C 64.160156 35.308594 65.488281 35.941406 66.433594 35.433594 C 68.109375 34.546875 68.394531 33.027344 67.160156 31.824219 C 66.433594 31.097656 65.488281 30.875 64.539062 31.253906 Z M 64.539062 31.253906 "/>
<path style=" stroke:none;fill-rule:nonzero;fill:rgb(0%,0%,0%);fill-opacity:1;" d="M 57.839844 31.984375 C 56.828125 32.996094 57.046875 34.074219 58.40625 34.800781 C 58.914062 35.054688 59.292969 35.085938 59.734375 34.832031 C 60.714844 34.296875 61.09375 33.375 60.652344 32.523438 C 59.925781 31.191406 58.847656 30.96875 57.839844 31.984375 Z M 57.839844 31.984375 "/>
<path style=" stroke:none;fill-rule:nonzero;fill:rgb(0%,0%,0%);fill-opacity:1;" d="M 101.894531 31.792969 C 101.582031 32.617188 102.023438 33.3125 102.78125 33.1875 C 103.320312 33.125 103.507812 32.871094 103.507812 32.300781 C 103.507812 31.730469 103.320312 31.476562 102.78125 31.414062 C 102.371094 31.351562 101.992188 31.507812 101.894531 31.792969 Z M 101.894531 31.792969 "/>
<path style=" stroke:none;fill-rule:nonzero;fill:rgb(0%,0%,0%);fill-opacity:1;" d="M 73.007812 35.308594 C 72.09375 36.289062 71.996094 38 72.820312 38.917969 C 74.148438 40.375 76.738281 39.867188 77.371094 38 C 78.320312 35.339844 74.9375 33.25 73.007812 35.308594 Z M 73.007812 35.308594 "/>
<path style=" stroke:none;fill-rule:nonzero;fill:rgb(0%,0%,0%);fill-opacity:1;" d="M 86.726562 35.816406 C 86.410156 36.351562 87.136719 36.953125 87.578125 36.511719 C 87.957031 36.132812 87.707031 35.464844 87.230469 35.464844 C 87.074219 35.464844 86.851562 35.625 86.726562 35.816406 Z M 86.726562 35.816406 "/>
<path style=" stroke:none;fill-rule:nonzero;fill:rgb(0%,0%,0%);fill-opacity:1;" d="M 57.523438 38.539062 C 57.078125 39.109375 56.890625 39.742188 56.953125 40.25 C 57.078125 40.945312 56.953125 41.070312 56.320312 41.070312 C 54.992188 41.070312 54.488281 42.78125 55.625 43.382812 C 56.449219 43.828125 57.523438 43.289062 57.523438 42.402344 C 57.523438 41.894531 57.617188 41.832031 58.121094 42.117188 C 59.070312 42.589844 60.304688 42.496094 60.933594 41.863281 C 61.25 41.546875 61.914062 41.292969 62.453125 41.292969 C 63.179688 41.324219 63.402344 41.167969 63.464844 40.566406 C 63.589844 39.710938 62.988281 39.203125 62.199219 39.457031 C 61.882812 39.550781 61.628906 39.488281 61.628906 39.296875 C 61.628906 38.570312 60.335938 37.683594 59.292969 37.683594 C 58.46875 37.683594 58.027344 37.90625 57.523438 38.539062 Z M 57.523438 38.539062 "/>
<path style=" stroke:none;fill-rule:nonzero;fill:rgb(0%,0%,0%);fill-opacity:1;" d="M 96.460938 38.539062 C 96.585938 39.203125 97.503906 39.328125 97.503906 38.632812 C 97.503906 38.378906 97.25 38.125 96.933594 38.0625 C 96.492188 37.96875 96.367188 38.09375 96.460938 38.539062 Z M 96.460938 38.539062 "/>
<path style=" stroke:none;fill-rule:nonzero;fill:rgb(0%,0%,0%);fill-opacity:1;" d="M 65.644531 38.855469 C 64.191406 40.5 65.644531 43.097656 67.730469 42.589844 C 68.300781 42.433594 68.457031 42.527344 68.488281 43.097656 C 68.617188 44.554688 70.257812 45.601562 71.492188 44.933594 C 72.472656 44.429688 72.691406 44.046875 72.691406 42.875 C 72.691406 41.609375 71.839844 40.851562 70.449219 40.851562 C 69.53125 40.851562 69.34375 40.722656 69.3125 40.121094 C 69.214844 39.203125 68.109375 38.316406 67.003906 38.316406 C 66.53125 38.316406 65.929688 38.570312 65.644531 38.855469 Z M 65.644531 38.855469 "/>
<path style=" stroke:none;fill-rule:nonzero;fill:rgb(0%,0%,0%);fill-opacity:1;" d="M 87.546875 39.265625 C 86.25 40.566406 87.230469 42.75 89.066406 42.75 C 90.171875 42.75 91.117188 41.800781 91.117188 40.691406 C 91.117188 38.855469 88.84375 37.96875 87.546875 39.265625 Z M 87.546875 39.265625 "/>
<path style=" stroke:none;fill-rule:nonzero;fill:rgb(0%,0%,0%);fill-opacity:1;" d="M 50.886719 41.355469 C 50.570312 41.703125 50.570312 41.894531 50.886719 42.242188 C 51.359375 42.84375 52.148438 42.558594 52.148438 41.800781 C 52.148438 41.039062 51.359375 40.753906 50.886719 41.355469 Z M 50.886719 41.355469 "/>
<path style=" stroke:none;fill-rule:nonzero;fill:rgb(0%,0%,0%);fill-opacity:1;" d="M 76.359375 41.988281 C 76.074219 42.6875 76.738281 43.445312 77.558594 43.320312 C 78.035156 43.257812 78.222656 43.003906 78.222656 42.433594 C 78.222656 41.800781 78.035156 41.609375 77.402344 41.546875 C 76.832031 41.484375 76.484375 41.640625 76.359375 41.988281 Z M 76.359375 41.988281 "/>
<path style=" stroke:none;fill-rule:nonzero;fill:rgb(0%,0%,0%);fill-opacity:1;" d="M 81.921875 42.496094 C 81.414062 43.003906 81.449219 43.226562 82.046875 43.828125 C 82.710938 44.523438 83.816406 43.921875 83.691406 42.972656 C 83.597656 42.179688 82.523438 41.894531 81.921875 42.496094 Z M 81.921875 42.496094 "/>
<path style=" stroke:none;fill-rule:nonzero;fill:rgb(0%,0%,0%);fill-opacity:1;" d="M 48.039062 43.382812 C 47.25 44.175781 47.21875 45.664062 47.976562 46.328125 C 48.765625 47.023438 50.347656 46.992188 50.980469 46.296875 C 52.148438 45 51.167969 42.75 49.460938 42.75 C 49.019531 42.75 48.386719 43.035156 48.039062 43.382812 Z M 48.039062 43.382812 "/>
<path style=" stroke:none;fill-rule:nonzero;fill:rgb(0%,0%,0%);fill-opacity:1;" d="M 59.101562 44.964844 C 58.1875 45.886719 58.28125 47.308594 59.324219 48.101562 C 60.207031 48.828125 61.03125 48.765625 62.042969 47.878906 C 63.273438 46.804688 62.230469 44.332031 60.523438 44.332031 C 60.082031 44.332031 59.449219 44.617188 59.101562 44.964844 Z M 59.101562 44.964844 "/>
<path style=" stroke:none;fill-rule:nonzero;fill:rgb(0%,0%,0%);fill-opacity:1;" d="M 54.488281 45.949219 C 54.171875 46.488281 54.898438 47.089844 55.339844 46.644531 C 55.71875 46.265625 55.46875 45.601562 54.992188 45.601562 C 54.835938 45.601562 54.613281 45.757812 54.488281 45.949219 Z M 54.488281 45.949219 "/>
<path style=" stroke:none;fill-rule:nonzero;fill:rgb(0%,0%,0%);fill-opacity:1;" d="M 43.425781 46.265625 C 43.109375 46.804688 43.835938 47.40625 44.28125 46.960938 C 44.660156 46.582031 44.40625 45.917969 43.933594 45.917969 C 43.773438 45.917969 43.550781 46.074219 43.425781 46.265625 Z M 43.425781 46.265625 "/>
<path style=" stroke:none;fill-rule:nonzero;fill:rgb(0%,0%,0%);fill-opacity:1;" d="M 66.59375 46.453125 C 66.464844 46.550781 66.371094 46.835938 66.371094 47.089844 C 66.371094 47.5625 67.195312 47.660156 67.445312 47.214844 C 67.667969 46.867188 66.878906 46.171875 66.59375 46.453125 Z M 66.59375 46.453125 "/>
<path style=" stroke:none;fill-rule:nonzero;fill:rgb(0%,0%,0%);fill-opacity:1;" d="M 46.554688 48.007812 C 46.332031 48.101562 46.144531 48.511719 46.144531 48.925781 C 46.144531 50.316406 47.722656 50.824219 48.484375 49.621094 C 49.113281 48.609375 47.789062 47.5 46.554688 48.007812 Z M 46.554688 48.007812 "/>
<path style=" stroke:none;fill-rule:nonzero;fill:rgb(0%,0%,0%);fill-opacity:1;" d="M 40.769531 48.578125 C 40.171875 49.304688 40.519531 50.507812 41.339844 50.601562 C 42.730469 50.824219 43.457031 49.589844 42.476562 48.640625 C 41.878906 48.007812 41.277344 48.007812 40.769531 48.578125 Z M 40.769531 48.578125 "/>
<path style=" stroke:none;fill-rule:nonzero;fill:rgb(0%,0%,0%);fill-opacity:1;" d="M 36.726562 49.148438 C 36.503906 49.367188 36.347656 49.714844 36.347656 49.9375 C 36.347656 50.160156 36.0625 50.351562 35.746094 50.351562 C 34.640625 50.351562 33.40625 51.710938 33.40625 52.882812 C 33.40625 53.992188 34.640625 55.417969 35.585938 55.417969 C 37.199219 55.417969 38.527344 53.675781 38.085938 52.21875 C 37.957031 51.839844 38.148438 51.300781 38.527344 50.792969 C 39.03125 50.160156 39.097656 49.8125 38.84375 49.367188 C 38.496094 48.703125 37.292969 48.578125 36.726562 49.148438 Z M 36.726562 49.148438 "/>
<path style=" stroke:none;fill-rule:nonzero;fill:rgb(0%,0%,0%);fill-opacity:1;" d="M 31.730469 49.558594 C 31.605469 49.84375 31.667969 50.222656 31.859375 50.414062 C 32.363281 50.921875 33.34375 50.570312 33.34375 49.875 C 33.34375 49.050781 32.015625 48.796875 31.730469 49.558594 Z M 31.730469 49.558594 "/>
<path style=" stroke:none;fill-rule:nonzero;fill:rgb(0%,0%,0%);fill-opacity:1;" d="M 54.046875 50 C 53.320312 51.425781 54.992188 52.566406 56.003906 51.300781 C 56.414062 50.761719 56.480469 50.476562 56.257812 50 C 55.816406 49.210938 54.488281 49.210938 54.046875 50 Z M 54.046875 50 "/>
<path style=" stroke:none;fill-rule:nonzero;fill:rgb(0%,0%,0%);fill-opacity:1;" d="M 24.96875 50.601562 C 23.894531 50.984375 23.703125 52.375 24.652344 52.882812 C 25.539062 53.359375 26.546875 52.757812 26.546875 51.773438 C 26.546875 50.953125 25.726562 50.351562 24.96875 50.601562 Z M 24.96875 50.601562 "/>
<path style=" stroke:none;fill-rule:nonzero;fill:rgb(0%,0%,0%);fill-opacity:1;" d="M 42.542969 51.679688 C 41.941406 52.535156 42.382812 53.515625 43.394531 53.515625 C 44.753906 53.515625 45.289062 52.410156 44.375 51.488281 C 43.710938 50.792969 43.109375 50.855469 42.542969 51.679688 Z M 42.542969 51.679688 "/>
<path style=" stroke:none;fill-rule:nonzero;fill:rgb(0%,0%,0%);fill-opacity:1;" d="M 46.648438 52.28125 C 45.070312 53.515625 45.953125 56.050781 48.007812 56.050781 C 48.640625 56.050781 49.148438 55.765625 49.589844 55.226562 C 50.441406 54.117188 50.410156 53.359375 49.460938 52.410156 C 48.515625 51.457031 47.757812 51.425781 46.648438 52.28125 Z M 46.648438 52.28125 "/>
<path style=" stroke:none;fill-rule:nonzero;fill:rgb(0%,0%,0%);fill-opacity:1;" d="M 16.75 52.410156 C 16.214844 53.042969 16.59375 53.832031 17.382812 53.832031 C 17.730469 53.832031 18.109375 53.613281 18.203125 53.359375 C 18.394531 52.882812 17.855469 51.933594 17.382812 51.933594 C 17.257812 51.933594 16.972656 52.15625 16.75 52.410156 Z M 16.75 52.410156 "/>
<path style=" stroke:none;fill-rule:nonzero;fill:rgb(0%,0%,0%);fill-opacity:1;" d="M 53.445312 53.011719 C 53.160156 53.328125 53.191406 53.515625 53.570312 53.832031 C 54.171875 54.339844 54.867188 53.800781 54.582031 53.074219 C 54.328125 52.441406 53.917969 52.441406 53.445312 53.011719 Z M 53.445312 53.011719 "/>
<path style=" stroke:none;fill-rule:nonzero;fill:rgb(0%,0%,0%);fill-opacity:1;" d="M 20.542969 53.707031 C 20.195312 54.085938 20.226562 54.277344 20.636719 54.71875 C 21.144531 55.195312 21.207031 55.195312 21.714844 54.71875 C 22.125 54.277344 22.15625 54.085938 21.808594 53.707031 C 21.585938 53.421875 21.300781 53.199219 21.175781 53.199219 C 21.050781 53.199219 20.765625 53.421875 20.542969 53.707031 Z M 20.542969 53.707031 "/>
<path style=" stroke:none;fill-rule:nonzero;fill:rgb(0%,0%,0%);fill-opacity:1;" d="M 38.96875 53.769531 C 36.851562 55.449219 38.652344 58.933594 41.152344 57.980469 C 42.097656 57.632812 42.574219 57.0625 42.824219 55.988281 C 43.015625 55.289062 42.855469 54.941406 42.097656 54.148438 C 41.023438 53.074219 40.011719 52.945312 38.96875 53.769531 Z M 38.96875 53.769531 "/>
<path style=" stroke:none;fill-rule:nonzero;fill:rgb(0%,0%,0%);fill-opacity:1;" d="M 10.460938 54.339844 C 9.609375 55.417969 9.609375 56.367188 10.460938 57.441406 C 11.789062 59.152344 14.539062 58.109375 14.539062 55.890625 C 14.539062 53.613281 11.820312 52.597656 10.460938 54.339844 Z M 10.460938 54.339844 "/>
<path style=" stroke:none;fill-rule:nonzero;fill:rgb(0%,0%,0%);fill-opacity:1;" d="M 16.308594 55.289062 C 15.707031 55.859375 15.644531 57.347656 16.183594 57.886719 C 16.71875 58.425781 18.203125 58.363281 18.773438 57.761719 C 19.4375 57.09375 19.40625 55.953125 18.710938 55.320312 C 17.984375 54.65625 16.941406 54.625 16.308594 55.289062 Z M 16.308594 55.289062 "/>
<path style=" stroke:none;fill-rule:nonzero;fill:rgb(0%,0%,0%);fill-opacity:1;" d="M 28.539062 55.101562 C 27.65625 55.449219 27.179688 56.367188 27.179688 57.726562 C 27.179688 60.738281 31.667969 61.085938 32.425781 58.140625 C 32.679688 57.125 31.796875 55.480469 30.785156 55.101562 C 29.835938 54.71875 29.457031 54.71875 28.539062 55.101562 Z M 28.539062 55.101562 "/>
<path style=" stroke:none;fill-rule:nonzero;fill:rgb(0%,0%,0%);fill-opacity:1;" d="M 35.523438 57.476562 C 35.398438 57.761719 35.460938 58.140625 35.652344 58.328125 C 36.15625 58.835938 37.136719 58.488281 37.136719 57.792969 C 37.136719 56.96875 35.808594 56.714844 35.523438 57.476562 Z M 35.523438 57.476562 "/>
<path style=" stroke:none;fill-rule:nonzero;fill:rgb(0%,0%,0%);fill-opacity:1;" d="M 41.402344 59.691406 C 41.054688 60.101562 41.054688 60.292969 41.5 60.703125 C 42.160156 61.371094 43.046875 60.988281 42.921875 60.101562 C 42.792969 59.214844 41.972656 58.996094 41.402344 59.691406 Z M 41.402344 59.691406 "/>
<path style=" stroke:none;fill-rule:nonzero;fill:rgb(0%,0%,0%);fill-opacity:1;" d="M 7.996094 60.671875 C 7.902344 60.925781 8.058594 61.402344 8.34375 61.6875 C 8.816406 62.160156 8.882812 62.160156 9.355469 61.6875 C 10.019531 61.023438 9.703125 60.167969 8.847656 60.167969 C 8.5 60.167969 8.121094 60.386719 7.996094 60.671875 Z M 7.996094 60.671875 "/>
<path style=" stroke:none;fill-rule:nonzero;fill:rgb(0%,0%,0%);fill-opacity:1;" d="M 26.644531 61.308594 C 26.546875 61.558594 26.707031 62.035156 26.992188 62.320312 C 27.464844 62.796875 27.527344 62.796875 28.003906 62.320312 C 28.667969 61.65625 28.351562 60.800781 27.496094 60.800781 C 27.148438 60.800781 26.769531 61.023438 26.644531 61.308594 Z M 26.644531 61.308594 "/>
<path style=" stroke:none;fill-rule:nonzero;fill:rgb(0%,0%,0%);fill-opacity:1;" d="M 32.773438 61.371094 C 32.078125 62.160156 32.109375 62.574219 32.933594 63.144531 C 33.40625 63.492188 33.753906 63.523438 34.195312 63.300781 C 34.957031 62.890625 34.925781 61.558594 34.164062 61.117188 C 33.375 60.703125 33.375 60.703125 32.773438 61.371094 Z M 32.773438 61.371094 "/>
<path style=" stroke:none;fill-rule:nonzero;fill:rgb(0%,0%,0%);fill-opacity:1;" d="M 37.199219 61.339844 C 36.789062 61.71875 36.976562 62.730469 37.484375 62.921875 C 38.210938 63.207031 39 62.128906 38.527344 61.527344 C 38.148438 61.085938 37.515625 60.988281 37.199219 61.339844 Z M 37.199219 61.339844 "/>
<path style=" stroke:none;fill-rule:nonzero;fill:rgb(0%,0%,0%);fill-opacity:1;" d="M 43.425781 61.6875 C 43.238281 61.8125 42.921875 62.226562 42.699219 62.636719 C 41.65625 64.601562 44.46875 66.59375 46.144531 65.074219 C 46.933594 64.347656 46.964844 62.667969 46.207031 61.972656 C 45.605469 61.433594 44.058594 61.273438 43.425781 61.6875 Z M 43.425781 61.6875 "/>
<path style=" stroke:none;fill-rule:nonzero;fill:rgb(0%,0%,0%);fill-opacity:1;" d="M 22.25 62.226562 C 21.996094 62.828125 22.34375 63.332031 23.070312 63.332031 C 23.671875 63.332031 24.019531 62.796875 23.800781 62.128906 C 23.609375 61.589844 22.472656 61.65625 22.25 62.226562 Z M 22.25 62.226562 "/>
<path style=" stroke:none;fill-rule:nonzero;fill:rgb(0%,0%,0%);fill-opacity:1;" d="M 2.023438 62.542969 C 1.769531 63.207031 2.085938 63.964844 2.625 63.964844 C 2.875 63.964844 3.253906 63.746094 3.476562 63.492188 C 3.792969 63.113281 3.792969 62.921875 3.476562 62.542969 C 3.253906 62.289062 2.875 62.066406 2.625 62.066406 C 2.402344 62.066406 2.117188 62.289062 2.023438 62.542969 Z M 2.023438 62.542969 "/>
<path style=" stroke:none;fill-rule:nonzero;fill:rgb(0%,0%,0%);fill-opacity:1;" d="M 11.125 63.523438 C 10.238281 64.125 10.207031 65.328125 11.0625 66.183594 C 11.820312 66.941406 12.261719 66.976562 13.210938 66.308594 C 13.652344 65.992188 13.90625 65.488281 13.90625 64.917969 C 13.90625 64.03125 12.957031 63.015625 12.167969 63.015625 C 11.976562 63.015625 11.503906 63.238281 11.125 63.523438 Z M 11.125 63.523438 "/>
<path style=" stroke:none;fill-rule:nonzero;fill:rgb(0%,0%,0%);fill-opacity:1;" d="M 27.402344 64.851562 C 26.707031 65.613281 26.738281 66.59375 27.433594 67.226562 C 28.253906 67.988281 29.582031 67.894531 30.152344 67.070312 C 30.816406 66.121094 30.785156 65.675781 30.023438 64.917969 C 29.234375 64.125 28.066406 64.09375 27.402344 64.851562 Z M 27.402344 64.851562 "/>
<path style=" stroke:none;fill-rule:nonzero;fill:rgb(0%,0%,0%);fill-opacity:1;" d="M 54.046875 69 L 54.046875 73.785156 L 56.730469 73.785156 C 59.542969 73.785156 61.0625 73.308594 61.441406 72.359375 C 61.820312 71.3125 61.597656 70.238281 60.839844 69.539062 C 60.082031 68.84375 60.082031 68.8125 60.683594 68.304688 C 61.535156 67.578125 61.503906 65.835938 60.652344 65.042969 C 60.113281 64.566406 59.386719 64.410156 57.015625 64.347656 L 54.046875 64.21875 Z M 59.039062 66.152344 C 59.292969 66.277344 59.417969 66.753906 59.355469 67.164062 C 59.261719 67.863281 59.070312 67.925781 57.457031 68.019531 L 55.625 68.113281 L 55.625 65.867188 L 57.144531 65.867188 C 57.964844 65.867188 58.816406 65.992188 59.039062 66.152344 Z M 59.542969 70.363281 C 60.175781 71.410156 59.417969 72.042969 57.394531 72.136719 L 55.625 72.230469 L 55.625 69.636719 L 57.394531 69.730469 C 58.691406 69.792969 59.292969 69.984375 59.542969 70.363281 Z M 59.542969 70.363281 "/>
<path style=" stroke:none;fill-rule:nonzero;fill:rgb(0%,0%,0%);fill-opacity:1;" d="M 65.421875 69.035156 L 65.421875 73.785156 L 66.214844 73.785156 C 66.972656 73.785156 67.003906 73.6875 67.003906 72.042969 C 67.003906 70.332031 67.035156 70.300781 67.921875 70.300781 C 68.710938 70.300781 68.964844 70.554688 69.722656 72.042969 C 70.542969 73.625 70.734375 73.785156 71.679688 73.785156 L 72.722656 73.785156 L 71.777344 72.074219 L 70.796875 70.363281 L 71.746094 69.414062 C 72.410156 68.75 72.691406 68.148438 72.691406 67.449219 C 72.691406 65.203125 71.207031 64.285156 67.636719 64.285156 L 65.421875 64.285156 Z M 70.195312 66.183594 C 70.859375 66.5625 70.984375 67.765625 70.417969 68.335938 C 70.195312 68.558594 69.34375 68.714844 68.519531 68.714844 L 67.003906 68.714844 L 67.003906 65.867188 L 68.300781 65.867188 C 68.996094 65.867188 69.847656 66.023438 70.195312 66.183594 Z M 70.195312 66.183594 "/>
<path style=" stroke:none;fill-rule:nonzero;fill:rgb(0%,0%,0%);fill-opacity:1;" d="M 78.476562 64.789062 C 75.285156 66.375 75.253906 71.503906 78.382812 73.183594 C 80.816406 74.511719 83.882812 73.59375 85.113281 71.25 C 85.839844 69.855469 85.683594 67.449219 84.796875 66.246094 C 83.46875 64.410156 80.5625 63.777344 78.476562 64.789062 Z M 82.839844 66.785156 C 83.566406 67.511719 83.753906 67.988281 83.753906 69.035156 C 83.753906 72.546875 79.140625 73.433594 78.066406 70.140625 C 76.992188 66.878906 80.46875 64.441406 82.839844 66.785156 Z M 82.839844 66.785156 "/>
<path style=" stroke:none;fill-rule:nonzero;fill:rgb(0%,0%,0%);fill-opacity:1;" d="M 89.824219 68.464844 C 88.9375 70.773438 88.117188 72.929688 87.988281 73.214844 C 87.832031 73.6875 87.988281 73.785156 88.90625 73.785156 C 89.824219 73.785156 90.042969 73.65625 90.203125 72.992188 C 90.390625 72.230469 90.519531 72.199219 92.605469 72.199219 C 94.691406 72.199219 94.816406 72.230469 95.007812 72.992188 C 95.164062 73.65625 95.386719 73.785156 96.300781 73.785156 C 96.902344 73.785156 97.34375 73.65625 97.28125 73.53125 C 97.25 73.371094 96.429688 71.25 95.480469 68.78125 L 93.773438 64.285156 L 91.433594 64.285156 Z M 93.394531 68.148438 C 93.710938 69.066406 94.027344 70.015625 94.121094 70.203125 C 94.214844 70.488281 93.773438 70.617188 92.605469 70.617188 C 91.433594 70.617188 90.992188 70.488281 91.085938 70.203125 C 91.183594 70.015625 91.5 69.066406 91.8125 68.148438 C 92.160156 67.261719 92.507812 66.5 92.605469 66.5 C 92.699219 66.5 93.046875 67.261719 93.394531 68.148438 Z M 93.394531 68.148438 "/>
<path style=" stroke:none;fill-rule:nonzero;fill:rgb(0%,0%,0%);fill-opacity:1;" d="M 100.503906 69.035156 L 100.503906 73.878906 L 103.128906 73.71875 C 106.195312 73.5625 107.554688 72.929688 108.4375 71.25 C 109.609375 69.097656 108.914062 66.4375 106.890625 65.171875 C 106.035156 64.664062 105.121094 64.441406 103.128906 64.347656 L 100.503906 64.1875 Z M 105.40625 66.308594 C 106.636719 66.847656 107.144531 67.640625 107.144531 69.035156 C 107.144531 69.570312 106.984375 70.300781 106.796875 70.679688 C 106.382812 71.441406 104.675781 72.199219 103.351562 72.199219 L 102.402344 72.199219 L 102.402344 65.867188 L 103.351562 65.867188 C 103.886719 65.867188 104.804688 66.058594 105.40625 66.308594 Z M 105.40625 66.308594 "/>
<path style=" stroke:none;fill-rule:nonzero;fill:rgb(0%,0%,0%);fill-opacity:1;" d="M 113.8125 64.726562 C 112.988281 65.171875 112.230469 66.339844 112.199219 67.164062 C 112.199219 68.179688 113.402344 69.191406 115.390625 69.824219 C 117.160156 70.394531 117.414062 70.554688 117.414062 71.25 C 117.414062 71.945312 117.257812 72.042969 116.054688 72.136719 C 115.171875 72.199219 114.378906 72.042969 113.90625 71.726562 C 113.273438 71.3125 113.023438 71.28125 112.640625 71.597656 C 112.390625 71.789062 112.199219 72.136719 112.199219 72.359375 C 112.199219 72.992188 114.222656 73.785156 115.835938 73.785156 C 118.269531 73.785156 119.4375 72.832031 119.46875 70.871094 C 119.46875 69.445312 118.550781 68.621094 116.308594 68.082031 C 114.476562 67.640625 113.8125 67.039062 114.414062 66.339844 C 114.917969 65.738281 116.402344 65.738281 117.574219 66.339844 C 118.425781 66.785156 118.519531 66.785156 118.835938 66.214844 C 119.3125 65.328125 119.28125 65.234375 118.046875 64.726562 C 116.71875 64.1875 114.824219 64.15625 113.8125 64.726562 Z M 113.8125 64.726562 "/>
<path style=" stroke:none;fill-rule:nonzero;fill:rgb(0%,0%,0%);fill-opacity:1;" d="M 123.261719 69.035156 L 123.261719 73.785156 L 124.050781 73.785156 C 124.808594 73.785156 124.84375 73.6875 124.84375 72.042969 L 124.84375 70.300781 L 126.769531 70.300781 C 128.476562 70.300781 128.792969 70.203125 129.613281 69.382812 C 130.59375 68.398438 130.816406 67.007812 130.183594 65.804688 C 129.675781 64.851562 127.9375 64.285156 125.472656 64.285156 L 123.261719 64.285156 Z M 128.035156 66.183594 C 128.699219 66.5625 128.824219 67.765625 128.253906 68.335938 C 128.035156 68.558594 127.179688 68.714844 126.359375 68.714844 L 124.84375 68.714844 L 124.84375 65.867188 L 126.136719 65.867188 C 126.832031 65.867188 127.6875 66.023438 128.035156 66.183594 Z M 128.035156 66.183594 "/>
<path style=" stroke:none;fill-rule:nonzero;fill:rgb(0%,0%,0%);fill-opacity:1;" d="M 134.007812 69.035156 L 134.007812 73.785156 L 140.644531 73.785156 L 140.644531 72.992188 C 140.644531 72.230469 140.582031 72.199219 138.273438 72.199219 L 135.902344 72.199219 L 135.902344 69.667969 L 138.117188 69.667969 C 140.265625 69.667969 140.328125 69.636719 140.328125 68.875 C 140.328125 68.113281 140.265625 68.082031 138.117188 68.082031 L 135.902344 68.082031 L 135.902344 65.867188 L 138.273438 65.867188 C 140.582031 65.867188 140.644531 65.835938 140.644531 65.074219 L 140.644531 64.285156 L 134.007812 64.285156 Z M 134.007812 69.035156 "/>
<path style=" stroke:none;fill-rule:nonzero;fill:rgb(0%,0%,0%);fill-opacity:1;" d="M 146.367188 64.851562 C 144.785156 65.644531 144.027344 66.847656 143.898438 68.78125 C 143.804688 70.078125 143.933594 70.679688 144.40625 71.503906 C 145.828125 73.75 148.957031 74.511719 151.074219 73.054688 C 152.402344 72.167969 152.558594 71.691406 151.738281 71.25 C 151.199219 70.996094 150.980469 71.027344 150.441406 71.566406 C 148.765625 73.246094 145.703125 71.597656 145.703125 69.035156 C 145.703125 66.46875 148.640625 64.886719 150.378906 66.5 C 150.949219 67.039062 151.199219 67.101562 151.738281 66.816406 C 152.558594 66.375 152.402344 65.898438 151.074219 64.980469 C 149.808594 64.125 147.882812 64.0625 146.367188 64.851562 Z M 146.367188 64.851562 "/>
<path style=" stroke:none;fill-rule:nonzero;fill:rgb(0%,0%,0%);fill-opacity:1;" d="M 155.5 65.074219 C 155.5 65.773438 155.625 65.867188 156.761719 65.867188 L 158.027344 65.867188 L 158.027344 73.785156 L 159.925781 73.785156 L 159.925781 65.867188 L 161.347656 65.867188 C 162.640625 65.867188 162.769531 65.804688 162.769531 65.074219 L 162.769531 64.285156 L 155.5 64.285156 Z M 155.5 65.074219 "/>
<path style=" stroke:none;fill-rule:nonzero;fill:rgb(0%,0%,0%);fill-opacity:1;" d="M 166.246094 69 L 166.246094 73.785156 L 167.195312 73.785156 C 168.140625 73.785156 168.140625 73.75 168.140625 72.042969 C 168.140625 70.394531 168.171875 70.300781 168.898438 70.300781 C 169.53125 70.300781 169.878906 70.648438 170.574219 71.945312 C 171.332031 73.402344 171.585938 73.625 172.535156 73.71875 L 173.609375 73.816406 L 171.585938 70.269531 L 172.566406 69.476562 C 173.800781 68.433594 173.894531 66.660156 172.757812 65.328125 C 172.027344 64.503906 171.808594 64.441406 169.121094 64.347656 L 166.246094 64.21875 Z M 171.019531 66.183594 C 171.679688 66.5625 171.808594 67.765625 171.238281 68.335938 C 171.019531 68.558594 170.257812 68.714844 169.5 68.714844 L 168.140625 68.714844 L 168.140625 67.292969 C 168.140625 65.867188 168.140625 65.867188 169.28125 65.867188 C 169.878906 65.867188 170.671875 66.023438 171.019531 66.183594 Z M 171.019531 66.183594 "/>
<path style=" stroke:none;fill-rule:nonzero;fill:rgb(0%,0%,0%);fill-opacity:1;" d="M 177.308594 67.609375 C 177.308594 72.515625 178.222656 73.785156 181.761719 73.785156 C 183.1875 73.785156 183.5 73.65625 184.449219 72.707031 L 185.523438 71.628906 L 185.523438 64.285156 L 183.628906 64.285156 L 183.628906 67.703125 C 183.628906 71.566406 183.34375 72.199219 181.480469 72.199219 C 179.613281 72.199219 179.203125 71.375 179.203125 67.609375 L 179.203125 64.285156 L 177.308594 64.285156 Z M 177.308594 67.609375 "/>
<path style=" stroke:none;fill-rule:nonzero;fill:rgb(0%,0%,0%);fill-opacity:1;" d="M 189.632812 69.035156 L 189.632812 73.785156 L 191.5 73.785156 L 191.59375 70.394531 L 191.6875 66.976562 L 192.984375 70.300781 C 193.710938 72.167969 194.46875 73.625 194.722656 73.625 C 194.941406 73.625 195.703125 72.199219 196.398438 70.457031 L 197.691406 67.292969 L 197.789062 70.523438 L 197.882812 73.785156 L 199.746094 73.785156 L 199.746094 64.25 L 198.417969 64.347656 L 197.0625 64.441406 L 195.953125 67.195312 C 195.355469 68.714844 194.785156 69.984375 194.691406 69.984375 C 194.59375 69.984375 194.027344 68.683594 193.425781 67.132812 L 192.320312 64.285156 L 189.632812 64.285156 Z M 189.632812 69.035156 "/>
<path style=" stroke:none;fill-rule:nonzero;fill:rgb(0%,0%,0%);fill-opacity:1;" d="M 34.890625 65.074219 C 34.640625 65.738281 34.957031 66.5 35.492188 66.5 C 35.746094 66.5 36.125 66.277344 36.347656 66.023438 C 36.664062 65.644531 36.664062 65.453125 36.347656 65.074219 C 36.125 64.820312 35.746094 64.601562 35.492188 64.601562 C 35.273438 64.601562 34.988281 64.820312 34.890625 65.074219 Z M 34.890625 65.074219 "/>
<path style=" stroke:none;fill-rule:nonzero;fill:rgb(0%,0%,0%);fill-opacity:1;" d="M 15.804688 65.390625 C 15.011719 66.339844 16.277344 67.609375 17.226562 66.816406 C 17.824219 66.308594 17.824219 66.023438 17.195312 65.421875 C 16.59375 64.789062 16.308594 64.789062 15.804688 65.390625 Z M 15.804688 65.390625 "/>
<path style=" stroke:none;fill-rule:nonzero;fill:rgb(0%,0%,0%);fill-opacity:1;" d="M 20.828125 67.101562 C 20.324219 67.609375 19.910156 68.367188 19.910156 68.75 C 19.910156 69.414062 19.878906 69.414062 19.34375 68.9375 C 18.550781 68.210938 17.507812 68.273438 16.75 69.035156 C 15.992188 69.792969 15.960938 70.238281 16.625 71.1875 C 17.351562 72.230469 18.835938 72.136719 19.53125 70.964844 L 20.101562 70.046875 L 20.765625 70.808594 C 22.28125 72.515625 25.285156 71.28125 25.285156 68.90625 C 25.285156 68.082031 25.0625 67.640625 24.304688 67.007812 C 23.039062 65.929688 21.964844 65.960938 20.828125 67.101562 Z M 20.828125 67.101562 "/>
<path style=" stroke:none;fill-rule:nonzero;fill:rgb(0%,0%,0%);fill-opacity:1;" d="M 1.296875 67.101562 C -0.472656 68.875 1.582031 71.597656 3.792969 70.457031 C 5.023438 69.824219 5.339844 68.589844 4.519531 67.511719 C 3.699219 66.40625 2.179688 66.214844 1.296875 67.101562 Z M 1.296875 67.101562 "/>
<path style=" stroke:none;fill-rule:nonzero;fill:rgb(0%,0%,0%);fill-opacity:1;" d="M 9.164062 67.609375 C 8.816406 68.019531 8.816406 68.179688 9.230469 68.589844 C 9.859375 69.222656 10.808594 68.8125 10.683594 67.957031 C 10.554688 67.132812 9.734375 66.941406 9.164062 67.609375 Z M 9.164062 67.609375 "/>
<path style=" stroke:none;fill-rule:nonzero;fill:rgb(0%,0%,0%);fill-opacity:1;" d="M 33.5 68.210938 C 32.902344 68.9375 33.25 70.140625 34.070312 70.238281 C 35.460938 70.457031 36.1875 69.222656 35.207031 68.273438 C 34.609375 67.640625 34.007812 67.640625 33.5 68.210938 Z M 33.5 68.210938 "/>
<path style=" stroke:none;fill-rule:nonzero;fill:rgb(0%,0%,0%);fill-opacity:1;" d="M 42.226562 68.75 C 41.246094 69.507812 41.183594 70.394531 42.035156 71.25 C 43.109375 72.328125 44.5625 71.882812 45.039062 70.394531 C 45.164062 69.855469 45.007812 69.476562 44.4375 68.875 C 43.488281 67.925781 43.300781 67.894531 42.226562 68.75 Z M 42.226562 68.75 "/>
<path style=" stroke:none;fill-rule:nonzero;fill:rgb(0%,0%,0%);fill-opacity:1;" d="M 11.441406 69.539062 C 10.144531 70.425781 10.871094 72.832031 12.421875 72.832031 C 13.117188 72.832031 14.222656 71.726562 14.222656 70.996094 C 14.222656 69.601562 12.578125 68.714844 11.441406 69.539062 Z M 11.441406 69.539062 "/>
<path style=" stroke:none;fill-rule:nonzero;fill:rgb(0%,0%,0%);fill-opacity:1;" d="M 29.363281 70.457031 C 27.71875 71.34375 27.433594 73.941406 28.886719 74.890625 C 30.246094 75.777344 31.132812 75.777344 32.175781 74.890625 C 32.964844 74.226562 33.1875 73.816406 33.1875 72.863281 C 33.1875 70.839844 31.066406 69.507812 29.363281 70.457031 Z M 29.363281 70.457031 "/>
<path style=" stroke:none;fill-rule:nonzero;fill:rgb(0%,0%,0%);fill-opacity:1;" d="M 8.089844 70.808594 C 7.804688 71.058594 7.585938 71.503906 7.585938 71.726562 C 7.585938 72.136719 8.40625 73.148438 8.722656 73.148438 C 8.816406 73.148438 9.164062 72.992188 9.511719 72.832031 C 10.304688 72.390625 10.304688 71.058594 9.511719 70.617188 C 8.722656 70.203125 8.660156 70.203125 8.089844 70.808594 Z M 8.089844 70.808594 "/>
<path style=" stroke:none;fill-rule:nonzero;fill:rgb(0%,0%,0%);fill-opacity:1;" d="M 4.867188 71.058594 C 4.742188 71.34375 4.328125 71.441406 3.351562 71.34375 C 2.148438 71.1875 1.929688 71.28125 1.136719 72.230469 C 0.441406 73.054688 0.316406 73.464844 0.441406 74.226562 C 0.949219 76.664062 3.761719 77.363281 5.277344 75.398438 C 5.5 75.113281 5.6875 74.417969 5.6875 73.847656 C 5.6875 73.277344 5.847656 72.546875 6.066406 72.230469 C 6.257812 71.914062 6.320312 71.410156 6.226562 71.125 C 5.972656 70.488281 5.089844 70.457031 4.867188 71.058594 Z M 4.867188 71.058594 "/>
<path style=" stroke:none;fill-rule:nonzero;fill:rgb(0%,0%,0%);fill-opacity:1;" d="M 20.007812 71.789062 C 19.785156 71.882812 19.59375 72.296875 19.59375 72.707031 C 19.59375 73.308594 19.753906 73.464844 20.386719 73.464844 C 21.019531 73.464844 21.175781 73.308594 21.175781 72.707031 C 21.175781 71.914062 20.703125 71.566406 20.007812 71.789062 Z M 20.007812 71.789062 "/>
<path style=" stroke:none;fill-rule:nonzero;fill:rgb(0%,0%,0%);fill-opacity:1;" d="M 24.273438 72.359375 C 23.988281 73.023438 23.988281 73.277344 24.398438 73.6875 C 25.15625 74.417969 26.546875 74.003906 26.546875 73.054688 C 26.546875 71.503906 24.90625 71.027344 24.273438 72.359375 Z M 24.273438 72.359375 "/>
<path style=" stroke:none;fill-rule:nonzero;fill:rgb(0%,0%,0%);fill-opacity:1;" d="M 36.125 72.707031 C 35.902344 72.800781 35.714844 73.214844 35.714844 73.625 C 35.714844 75.019531 37.292969 75.523438 38.054688 74.320312 C 38.683594 73.308594 37.359375 72.199219 36.125 72.707031 Z M 36.125 72.707031 "/>
<path style=" stroke:none;fill-rule:nonzero;fill:rgb(0%,0%,0%);fill-opacity:1;" d="M 15.296875 73.53125 C 14.601562 73.847656 13.90625 75.019531 13.90625 75.839844 C 13.90625 76.761719 15.359375 77.996094 16.433594 77.996094 C 17.195312 77.996094 17.699219 77.773438 18.238281 77.140625 C 19.214844 76 19.152344 75.207031 18.046875 74.066406 C 17.066406 73.117188 16.402344 72.960938 15.296875 73.53125 Z M 15.296875 73.53125 "/>
<path style=" stroke:none;fill-rule:nonzero;fill:rgb(0%,0%,0%);fill-opacity:1;" d="M 23.386719 76.792969 C 23.039062 77.203125 23.039062 77.394531 23.484375 77.804688 C 24.148438 78.46875 25.03125 78.089844 24.90625 77.203125 C 24.777344 76.316406 23.957031 76.09375 23.386719 76.792969 Z M 23.386719 76.792969 "/>
<path style=" stroke:none;fill-rule:nonzero;fill:rgb(0%,0%,0%);fill-opacity:1;" d="M 8.089844 78.40625 C 7.964844 78.722656 8.058594 79.167969 8.3125 79.386719 C 8.914062 79.988281 9.859375 79.546875 9.734375 78.722656 C 9.609375 77.867188 8.375 77.648438 8.089844 78.40625 Z M 8.089844 78.40625 "/>
<path style=" stroke:none;fill-rule:nonzero;fill:rgb(0%,0%,0%);fill-opacity:1;" d="M 2.433594 79.039062 C 2.085938 79.421875 2.179688 80.339844 2.625 80.71875 C 3.222656 81.191406 4.203125 80.433594 4.046875 79.609375 C 3.949219 79.007812 2.84375 78.628906 2.433594 79.039062 Z M 2.433594 79.039062 "/>
<path style=" stroke:none;fill-rule:nonzero;fill:rgb(0%,0%,0%);fill-opacity:1;" d="M 26.894531 79.800781 C 26.675781 79.925781 26.546875 80.308594 26.613281 80.625 C 26.738281 81.320312 27.78125 81.605469 28.128906 81.035156 C 28.632812 80.242188 27.6875 79.292969 26.894531 79.800781 Z M 26.894531 79.800781 "/>
<path style=" stroke:none;fill-rule:nonzero;fill:rgb(0%,0%,0%);fill-opacity:1;" d="M 21.367188 80.589844 C 21.082031 81.351562 21.492188 82.015625 22.28125 82.015625 C 22.691406 82.015625 23.070312 81.796875 23.199219 81.542969 C 23.484375 80.78125 23.070312 80.117188 22.28125 80.117188 C 21.871094 80.117188 21.492188 80.339844 21.367188 80.589844 Z M 21.367188 80.589844 "/>
<path style=" stroke:none;fill-rule:nonzero;fill:rgb(0%,0%,0%);fill-opacity:1;" d="M 17.890625 81.257812 C 17.605469 81.511719 17.382812 81.953125 17.382812 82.175781 C 17.382812 82.585938 18.203125 83.601562 18.519531 83.601562 C 19.152344 83.601562 19.910156 82.808594 19.910156 82.175781 C 19.910156 81.730469 19.660156 81.257812 19.3125 81.066406 C 18.519531 80.65625 18.457031 80.65625 17.890625 81.257812 Z M 17.890625 81.257812 "/>
<path style=" stroke:none;fill-rule:nonzero;fill:rgb(0%,0%,0%);fill-opacity:1;" d="M 33.058594 82.523438 C 32.773438 83.21875 33.597656 84.074219 34.292969 83.789062 C 34.609375 83.695312 34.765625 83.316406 34.703125 82.902344 C 34.578125 81.984375 33.375 81.730469 33.058594 82.523438 Z M 33.058594 82.523438 "/>
<path style=" stroke:none;fill-rule:nonzero;fill:rgb(0%,0%,0%);fill-opacity:1;" d="M 7.300781 83.15625 C 6.449219 84.265625 6.480469 85.023438 7.425781 85.976562 C 8.375 86.957031 9.480469 86.988281 10.367188 86.039062 C 11.25 85.121094 11.25 83.917969 10.429688 83.03125 C 9.511719 82.046875 8.121094 82.113281 7.300781 83.15625 Z M 7.300781 83.15625 "/>
<path style=" stroke:none;fill-rule:nonzero;fill:rgb(0%,0%,0%);fill-opacity:1;" d="M 37.957031 83.25 C 36.1875 85.023438 38.273438 87.75 40.457031 86.609375 C 41.6875 85.976562 42.003906 84.738281 41.183594 83.664062 C 40.359375 82.554688 38.84375 82.363281 37.957031 83.25 Z M 37.957031 83.25 "/>
<path style=" stroke:none;fill-rule:nonzero;fill:rgb(0%,0%,0%);fill-opacity:1;" d="M 4.644531 83.1875 C 4.234375 83.566406 4.425781 84.488281 4.960938 84.675781 C 5.625 84.960938 6.414062 84.171875 6.132812 83.503906 C 5.941406 82.964844 5.023438 82.777344 4.644531 83.1875 Z M 4.644531 83.1875 "/>
<path style=" stroke:none;fill-rule:nonzero;fill:rgb(0%,0%,0%);fill-opacity:1;" d="M 20.765625 85.722656 C 20.355469 86.101562 20.542969 87.019531 21.082031 87.210938 C 21.746094 87.496094 22.535156 86.703125 22.25 86.039062 C 22.0625 85.5 21.144531 85.308594 20.765625 85.722656 Z M 20.765625 85.722656 "/>
<path style=" stroke:none;fill-rule:nonzero;fill:rgb(0%,0%,0%);fill-opacity:1;" d="M 29.234375 86.164062 C 27.6875 87.019531 27.339844 88.699219 28.445312 89.871094 C 29.804688 91.296875 31.890625 90.945312 32.554688 89.109375 C 33.28125 87.242188 30.972656 85.183594 29.234375 86.164062 Z M 29.234375 86.164062 "/>
<path style=" stroke:none;fill-rule:nonzero;fill:rgb(0%,0%,0%);fill-opacity:1;" d="M 11.726562 88.539062 C 11.347656 89.015625 11.0625 89.648438 11.0625 89.996094 C 11.0625 90.757812 12.453125 92.148438 13.210938 92.148438 C 14.253906 92.148438 15.488281 90.945312 15.488281 89.902344 C 15.488281 87.84375 12.957031 86.957031 11.726562 88.539062 Z M 11.726562 88.539062 "/>
<path style=" stroke:none;fill-rule:nonzero;fill:rgb(0%,0%,0%);fill-opacity:1;" d="M 22.820312 90.34375 C 21.902344 91.296875 21.933594 92.308594 22.914062 93.257812 C 23.863281 94.207031 24.621094 94.238281 25.726562 93.386719 C 26.769531 92.5625 26.800781 91.230469 25.820312 90.3125 C 24.875 89.425781 23.671875 89.425781 22.820312 90.34375 Z M 22.820312 90.34375 "/>
<path style=" stroke:none;fill-rule:nonzero;fill:rgb(0%,0%,0%);fill-opacity:1;" d="M 33.375 91.042969 C 33.28125 91.328125 33.40625 91.613281 33.691406 91.738281 C 34.292969 91.960938 34.578125 91.675781 34.355469 91.042969 C 34.101562 90.441406 33.628906 90.441406 33.375 91.042969 Z M 33.375 91.042969 "/>
</g>
</svg>
