<?xml version="1.0" encoding="UTF-8"?>
<svg xmlns="http://www.w3.org/2000/svg" xmlns:xlink="http://www.w3.org/1999/xlink" width="199pt" height="54pt" viewBox="0 0 199 54" version="1.1">
<g id="surface1">
<path style=" stroke:none;fill-rule:nonzero;fill:rgb(0%,0%,0%);fill-opacity:1;" d="M 49.121094 1.851562 C 41.679688 3.21875 34.234375 7.726562 29.652344 13.695312 L 28.585938 15.109375 L 36.03125 15.109375 L 36.757812 14.355469 C 39.542969 11.429688 44.421875 8.75 49.027344 7.628906 C 51.738281 6.96875 57.875 7.019531 60.542969 7.75 C 64.710938 8.871094 68.832031 11.113281 71.792969 13.84375 L 73.175781 15.109375 L 76.714844 15.109375 C 78.652344 15.109375 80.253906 15.039062 80.253906 14.941406 C 80.253906 14.578125 78.121094 12.066406 76.253906 10.261719 C 71.839844 5.996094 66.3125 3.144531 60.203125 1.949219 C 57.171875 1.363281 52.054688 1.316406 49.121094 1.851562 Z M 49.121094 1.851562 "/>
<path style=" stroke:none;fill-rule:nonzero;fill:rgb(0%,0%,0%);fill-opacity:1;" d="M 86.632812 9.457031 C 85.804688 9.945312 85.078125 10.554688 85.007812 10.796875 C 84.957031 11.066406 84.910156 20.378906 84.933594 31.539062 L 84.984375 51.792969 L 86.753906 51.867188 L 88.496094 51.941406 L 88.496094 47.722656 L 90.195312 49.332031 C 92.886719 51.867188 95.289062 52.820312 98.535156 52.597656 C 100.886719 52.429688 102.65625 51.671875 104.332031 50.1875 C 107.578125 47.285156 109.347656 42.191406 109.347656 35.757812 C 109.347656 28.007812 107 22.816406 102.609375 20.765625 C 100.648438 19.863281 97.664062 19.71875 95.359375 20.425781 C 93.445312 21.011719 91.238281 22.398438 89.832031 23.863281 C 88.8125 24.933594 88.453125 25.105469 88.523438 24.421875 C 88.644531 23.105469 88.472656 8.53125 88.328125 8.554688 C 88.207031 8.554688 87.453125 8.96875 86.632812 9.457031 Z M 100.5 23.742188 C 104.015625 25.375 105.714844 29.441406 105.714844 36.121094 C 105.691406 42.945312 104.066406 47.238281 100.9375 48.773438 C 99.3125 49.578125 95.53125 49.601562 93.734375 48.773438 C 92.0625 48.015625 90.316406 46.675781 89.347656 45.382812 L 88.496094 44.285156 L 88.496094 28.007812 L 89.589844 26.832031 C 91.914062 24.324219 94.367188 23.179688 97.347656 23.15625 C 98.878906 23.15625 99.554688 23.277344 100.5 23.742188 Z M 100.5 23.742188 "/>
<path style=" stroke:none;fill-rule:nonzero;fill:rgb(0%,0%,0%);fill-opacity:1;" d="M 177.433594 9.457031 L 175.785156 10.359375 L 175.785156 51.914062 L 179.421875 51.914062 L 179.421875 42.972656 L 182.28125 38.921875 C 183.835938 36.707031 185.214844 34.90625 185.339844 34.949219 C 185.460938 34.976562 187.324219 38.777344 189.507812 43.382812 L 193.460938 51.792969 L 195.398438 51.867188 C 196.492188 51.914062 197.363281 51.894531 197.363281 51.84375 C 197.363281 51.792969 195.398438 47.648438 192.972656 42.628906 C 190.550781 37.609375 188.390625 33.050781 188.152344 32.511719 L 187.714844 31.492188 L 191.570312 26.179688 C 193.679688 23.253906 195.425781 20.765625 195.425781 20.695312 C 195.425781 20.546875 193.023438 20.570312 191.738281 20.695312 C 191.570312 20.714844 182.476562 33.808594 180.632812 36.683594 L 179.542969 38.390625 L 179.46875 23.449219 C 179.445312 15.257812 179.347656 8.53125 179.230469 8.53125 C 179.128906 8.554688 178.332031 8.96875 177.433594 9.457031 Z M 177.433594 9.457031 "/>
<path style=" stroke:none;fill-rule:nonzero;fill:rgb(0%,0%,0%);fill-opacity:1;" d="M 53.414062 12.355469 L 50.429688 13.96875 L 50.429688 20.472656 L 45.097656 20.472656 L 45.097656 26.324219 L 50.429688 26.324219 L 50.429688 35.707031 C 50.429688 41.703125 50.527344 45.53125 50.699219 46.359375 C 51.304688 49.210938 52.976562 51.285156 55.355469 52.0625 C 57.125 52.648438 60.300781 52.453125 62.070312 51.648438 L 63.402344 51.011719 L 64.082031 48.238281 C 64.445312 46.703125 64.738281 45.382812 64.738281 45.289062 C 64.738281 45.1875 64.082031 45.433594 63.257812 45.820312 C 60.566406 47.089844 58.242188 47.015625 57.292969 45.628906 C 56.882812 45.019531 56.859375 44.214844 56.78125 35.636719 L 56.710938 26.324219 L 63.285156 26.324219 L 63.285156 20.472656 L 56.738281 20.472656 L 56.738281 15.597656 C 56.738281 12.917969 56.664062 10.726562 56.566406 10.726562 C 56.445312 10.75 55.039062 11.480469 53.414062 12.355469 Z M 53.414062 12.355469 "/>
<path style=" stroke:none;fill-rule:nonzero;fill:rgb(0%,0%,0%);fill-opacity:1;" d="M 13.167969 20.472656 C 5.722656 22.421875 1.453125 28.175781 1.453125 36.195312 C 1.453125 44.140625 5.675781 49.894531 12.972656 51.941406 C 15.273438 52.597656 19.273438 52.695312 21.339844 52.1875 C 23.375 51.671875 25.894531 50.234375 27.59375 48.625 L 29.117188 47.164062 L 27.519531 45.210938 C 26.621094 44.140625 25.820312 43.167969 25.699219 43.042969 C 25.605469 42.945312 24.800781 43.382812 23.929688 44.070312 C 21.578125 45.871094 20.050781 46.359375 17.214844 46.261719 C 14.375 46.164062 12.632812 45.433594 10.742188 43.582031 C 6.742188 39.632812 6.886719 32.367188 11.03125 28.539062 C 12.949219 26.789062 14.546875 26.226562 17.578125 26.203125 C 19.808594 26.203125 20.125 26.273438 21.628906 26.984375 C 22.527344 27.398438 23.734375 28.203125 24.339844 28.761719 L 25.410156 29.757812 L 27.304688 27.492188 L 29.167969 25.226562 L 27.519531 23.714844 C 24.488281 20.9375 21.917969 19.984375 17.554688 20.011719 C 15.785156 20.011719 14.332031 20.15625 13.167969 20.472656 Z M 13.167969 20.472656 "/>
<path style=" stroke:none;fill-rule:nonzero;fill:rgb(0%,0%,0%);fill-opacity:1;" d="M 121.980469 20.351562 C 120.019531 20.789062 117.542969 21.621094 116.988281 22.035156 C 116.578125 22.328125 116.578125 22.421875 117.109375 23.742188 C 117.425781 24.496094 117.8125 25.082031 117.933594 25.007812 C 122.394531 23.179688 124.1875 22.765625 126.953125 22.984375 C 129.132812 23.15625 130.542969 23.765625 131.707031 25.054688 C 132.988281 26.496094 133.355469 27.980469 133.355469 31.734375 C 133.355469 33.441406 133.304688 34.855469 133.257812 34.855469 C 133.207031 34.855469 132.578125 34.585938 131.824219 34.246094 C 129.039062 32.953125 124.9375 32.5625 121.664062 33.246094 C 115.800781 34.511719 112.769531 38.878906 113.664062 44.800781 C 114.054688 47.238281 114.902344 48.941406 116.40625 50.308594 C 117.933594 51.699219 119.824219 52.429688 122.320312 52.574219 C 125.933594 52.820312 129.132812 51.621094 131.851562 49.015625 L 133.355469 47.578125 L 133.355469 51.914062 L 137.015625 51.914062 L 136.941406 39.167969 L 136.867188 26.445312 L 136.167969 24.933594 C 135.003906 22.398438 133.039062 20.910156 130.007812 20.257812 C 128.285156 19.890625 123.894531 19.9375 121.980469 20.351562 Z M 129.234375 36.074219 C 129.839844 36.21875 131.003906 36.609375 131.851562 36.949219 L 133.355469 37.582031 L 133.355469 44.875 L 132.238281 46.066406 C 130.03125 48.453125 127.167969 49.722656 124.066406 49.722656 C 120.914062 49.722656 118.953125 48.652344 117.859375 46.335938 C 117.328125 45.167969 117.230469 44.652344 117.230469 42.652344 C 117.230469 40.730469 117.328125 40.167969 117.765625 39.339844 C 118.46875 37.996094 119.996094 36.730469 121.425781 36.246094 C 122.757812 35.804688 127.484375 35.707031 129.234375 36.074219 Z M 129.234375 36.074219 "/>
<path style=" stroke:none;fill-rule:nonzero;fill:rgb(0%,0%,0%);fill-opacity:1;" d="M 154.566406 20.328125 C 152.292969 21.058594 150.6875 22.207031 149.332031 24.078125 L 148.386719 25.421875 L 148.386719 20.472656 L 144.75 20.472656 L 144.75 51.914062 L 148.386719 51.914062 L 148.386719 41.847656 C 148.386719 35.683594 148.484375 31.222656 148.652344 30.347656 C 149.234375 27.175781 150.640625 25.105469 153.042969 23.886719 C 154.328125 23.253906 154.789062 23.15625 156.53125 23.15625 C 160.316406 23.15625 162.496094 24.59375 163.683594 27.859375 C 164.242188 29.347656 164.242188 29.613281 164.339844 40.628906 L 164.414062 51.914062 L 168.027344 51.914062 L 168.027344 40.972656 C 168.027344 28.859375 167.929688 27.808594 166.570312 25.082031 C 165.285156 22.523438 163.199219 20.867188 160.460938 20.230469 C 159.027344 19.914062 155.734375 19.960938 154.566406 20.328125 Z M 154.566406 20.328125 "/>
<path style=" stroke:none;fill-rule:nonzero;fill:rgb(0%,0%,0%);fill-opacity:1;" d="M 32.730469 36.195312 L 32.730469 51.914062 L 39.277344 51.914062 L 39.277344 20.472656 L 32.730469 20.472656 Z M 32.730469 36.195312 "/>
<path style=" stroke:none;fill-rule:nonzero;fill:rgb(0%,0%,0%);fill-opacity:1;" d="M 69.828125 36.195312 L 69.828125 51.914062 L 76.375 51.914062 L 76.375 20.472656 L 69.828125 20.472656 Z M 69.828125 36.195312 "/>
</g>
</svg>
