<?xml version="1.0" encoding="UTF-8"?>
<svg xmlns="http://www.w3.org/2000/svg" xmlns:xlink="http://www.w3.org/1999/xlink" width="200pt" height="200pt" viewBox="0 0 200 200" version="1.1">
<g id="surface1">
<path style=" stroke:none;fill-rule:nonzero;fill:rgb(7.058824%,47.45098%,9.019608%);fill-opacity:1;" d="M 97.949219 192.492188 C 96.527344 192.40625 95.992188 192.355469 93.644531 192.0625 C 91.878906 191.84375 91.167969 191.730469 90.347656 191.550781 C 89.964844 191.464844 89.375 191.351562 89.046875 191.296875 C 88.71875 191.246094 88.199219 191.144531 87.894531 191.046875 C 87.59375 190.96875 87.054688 190.8125 86.691406 190.734375 C 85.601562 190.476562 84.847656 190.269531 84.746094 190.183594 C 84.691406 190.136719 84.46875 190.070312 84.242188 190.035156 C 84.027344 189.992188 83.210938 189.75 82.441406 189.472656 C 81.671875 189.195312 80.753906 188.882812 80.390625 188.761719 C 80.027344 188.648438 79.722656 188.527344 79.6875 188.492188 C 79.664062 188.449219 79.488281 188.382812 79.316406 188.347656 C 79.132812 188.320312 78.988281 188.234375 78.988281 188.191406 C 78.988281 188.136719 78.902344 188.105469 78.789062 188.105469 C 78.675781 188.105469 78.511719 188.0625 78.40625 188 C 78.09375 187.828125 77.117188 187.402344 77.039062 187.402344 C 76.976562 187.402344 76.304688 187.089844 74.988281 186.476562 C 74.734375 186.355469 74.527344 186.226562 74.511719 186.191406 C 74.492188 186.136719 74.390625 186.113281 74.277344 186.113281 C 74.171875 186.113281 73.871094 185.984375 73.609375 185.808594 C 73.34375 185.652344 73.046875 185.507812 72.960938 185.507812 C 72.875 185.507812 72.746094 185.445312 72.675781 185.375 C 72.605469 185.308594 71.984375 184.96875 71.296875 184.613281 C 70.605469 184.277344 69.742188 183.816406 69.351562 183.601562 C 68.96875 183.394531 68.371094 183.074219 68.035156 182.890625 C 67.6875 182.710938 67.402344 182.527344 67.402344 182.492188 C 67.402344 182.449219 67.28125 182.390625 67.132812 182.355469 C 66.988281 182.328125 66.746094 182.207031 66.597656 182.09375 C 66.449219 181.992188 66.277344 181.90625 66.214844 181.90625 C 66.15625 181.90625 66.105469 181.863281 66.105469 181.828125 C 66.105469 181.785156 65.957031 181.679688 65.785156 181.59375 C 65.152344 181.289062 64.25 180.777344 64.105469 180.648438 C 64.015625 180.570312 63.773438 180.433594 63.550781 180.328125 C 63.332031 180.226562 63.011719 180.050781 62.832031 179.929688 C 62.65625 179.800781 62.492188 179.695312 62.449219 179.695312 C 62.425781 179.695312 62.136719 179.542969 61.84375 179.351562 C 61.542969 179.160156 61.238281 179.003906 61.160156 179.003906 C 61.082031 179.003906 61.003906 178.960938 60.976562 178.917969 C 60.953125 178.847656 60.390625 178.511719 58.953125 177.707031 C 58.734375 177.585938 58.484375 177.4375 58.398438 177.367188 C 58.320312 177.308594 57.992188 177.125 57.679688 176.960938 C 57.359375 176.804688 57.097656 176.632812 57.097656 176.589844 C 57.097656 176.546875 57.039062 176.511719 56.960938 176.511719 C 56.882812 176.511719 56.589844 176.355469 56.304688 176.164062 C 56.015625 175.972656 55.730469 175.816406 55.664062 175.816406 C 55.601562 175.816406 55.375 175.679688 55.160156 175.515625 C 54.945312 175.34375 54.71875 175.210938 54.667969 175.210938 C 54.613281 175.210938 54.347656 175.054688 54.085938 174.867188 C 53.816406 174.675781 53.507812 174.519531 53.394531 174.519531 C 53.28125 174.519531 53.195312 174.46875 53.195312 174.414062 C 53.195312 174.355469 53.089844 174.269531 52.976562 174.214844 C 52.847656 174.15625 52.589844 174.015625 52.382812 173.886719 C 52.183594 173.765625 51.800781 173.542969 51.53125 173.375 C 51.273438 173.222656 50.890625 172.988281 50.691406 172.855469 C 50.503906 172.726562 50.304688 172.613281 50.25 172.613281 C 50.207031 172.613281 49.984375 172.457031 49.742188 172.269531 C 49.507812 172.078125 49.28125 171.921875 49.230469 171.921875 C 49.175781 171.921875 48.960938 171.792969 48.734375 171.617188 C 48.527344 171.464844 48.304688 171.316406 48.257812 171.316406 C 48.214844 171.316406 47.957031 171.160156 47.695312 170.96875 C 47.4375 170.777344 47.1875 170.625 47.144531 170.625 C 47.097656 170.625 46.902344 170.492188 46.691406 170.320312 C 46.484375 170.164062 46.269531 170.015625 46.214844 170.015625 C 46.15625 170.015625 46.09375 169.972656 46.078125 169.929688 C 46.070312 169.886719 45.792969 169.679688 45.472656 169.472656 C 45.152344 169.273438 44.8125 169.039062 44.71875 168.953125 C 44.398438 168.675781 43.609375 168.121094 43.53125 168.121094 C 43.480469 168.121094 43.289062 167.964844 43.097656 167.773438 C 42.910156 167.585938 42.710938 167.429688 42.648438 167.429688 C 42.589844 167.429688 42.40625 167.296875 42.25 167.125 C 42.09375 166.96875 41.914062 166.824219 41.84375 166.824219 C 41.785156 166.824219 41.664062 166.746094 41.59375 166.648438 C 41.515625 166.5625 41.117188 166.214844 40.703125 165.894531 C 40.292969 165.566406 39.6875 165.066406 39.359375 164.789062 C 39.039062 164.503906 38.589844 164.105469 38.371094 163.921875 C 38.136719 163.730469 37.835938 163.417969 37.664062 163.253906 C 37.507812 163.074219 37.332031 162.925781 37.296875 162.925781 C 37.222656 162.925781 33.894531 159.617188 33.894531 159.53125 C 33.894531 159.507812 33.636719 159.222656 33.324219 158.925781 C 33.011719 158.625 32.683594 158.257812 32.597656 158.105469 C 32.511719 157.957031 32.320312 157.730469 32.164062 157.628906 C 32.015625 157.507812 31.894531 157.351562 31.894531 157.265625 C 31.894531 157.1875 31.851562 157.125 31.808594 157.125 C 31.757812 157.125 31.429688 156.753906 31.082031 156.3125 C 30.746094 155.863281 30.371094 155.402344 30.285156 155.28125 C 29.785156 154.683594 29.402344 154.164062 29.402344 154.09375 C 29.402344 154.042969 29.332031 153.949219 29.253906 153.851562 C 29.054688 153.664062 28.304688 152.582031 28.113281 152.234375 C 28.035156 152.09375 27.914062 151.929688 27.84375 151.871094 C 27.785156 151.816406 27.601562 151.550781 27.453125 151.273438 C 27.308594 151.003906 27.089844 150.675781 26.996094 150.535156 C 26.890625 150.40625 26.804688 150.257812 26.804688 150.207031 C 26.804688 150.121094 26.457031 149.585938 26.226562 149.351562 C 26.164062 149.28125 26.105469 149.167969 26.105469 149.109375 C 26.105469 149.046875 25.972656 148.777344 25.800781 148.511719 C 25.644531 148.25 25.496094 147.984375 25.496094 147.921875 C 25.496094 147.863281 25.394531 147.671875 25.28125 147.496094 C 25.003906 147.109375 24.804688 146.734375 24.804688 146.597656 C 24.804688 146.546875 24.675781 146.277344 24.503906 146.007812 C 24.347656 145.75 24.199219 145.445312 24.199219 145.351562 C 24.199219 145.246094 24.15625 145.132812 24.113281 145.082031 C 23.957031 144.902344 23.507812 144.035156 23.507812 143.894531 C 23.507812 143.828125 23.386719 143.550781 23.246094 143.273438 C 23.097656 143.003906 22.917969 142.5625 22.839844 142.285156 C 22.761719 142.015625 22.65625 141.75 22.605469 141.6875 C 22.5625 141.636719 22.457031 141.34375 22.355469 141.039062 C 22.269531 140.734375 22.121094 140.335938 22.042969 140.15625 C 21.800781 139.636719 21.003906 137.132812 21.003906 136.925781 C 21.003906 136.8125 20.960938 136.65625 20.917969 136.554688 C 20.769531 136.25 20.390625 134.925781 20.3125 134.398438 C 20.269531 134.121094 20.121094 133.4375 19.984375 132.890625 C 19.84375 132.335938 19.652344 131.445312 19.574219 130.890625 C 19.488281 130.335938 19.34375 129.53125 19.253906 129.089844 C 19.175781 128.648438 19.066406 127.863281 19.023438 127.34375 C 18.96875 126.824219 18.867188 125.765625 18.769531 124.996094 C 18.371094 121.515625 18.363281 121.34375 18.363281 106.847656 C 18.363281 92.3125 18.371094 92.078125 18.769531 88.597656 C 18.847656 87.886719 18.960938 86.847656 19.011719 86.292969 C 19.074219 85.742188 19.1875 84.933594 19.265625 84.492188 C 19.34375 84.050781 19.480469 83.246094 19.574219 82.691406 C 19.652344 82.136719 19.84375 81.246094 19.984375 80.691406 C 20.121094 80.136719 20.269531 79.464844 20.3125 79.167969 C 20.363281 78.890625 20.527344 78.226562 20.703125 77.695312 C 20.875 77.175781 21.011719 76.667969 21.011719 76.5625 C 21.011719 76.414062 21.1875 75.871094 21.410156 75.28125 C 21.453125 75.167969 21.59375 74.769531 21.714844 74.382812 C 21.835938 74 21.992188 73.550781 22.0625 73.375 C 22.128906 73.222656 22.25 72.902344 22.3125 72.675781 C 22.382812 72.457031 22.546875 72.035156 22.675781 71.75 C 22.804688 71.464844 22.917969 71.160156 22.917969 71.082031 C 22.917969 70.996094 23.054688 70.675781 23.222656 70.363281 C 23.394531 70.050781 23.523438 69.742188 23.523438 69.671875 C 23.523438 69.53125 23.972656 68.65625 24.128906 68.484375 C 24.183594 68.433594 24.214844 68.3125 24.214844 68.214844 C 24.214844 68.113281 24.328125 67.851562 24.46875 67.636719 C 24.605469 67.417969 24.789062 67.046875 24.890625 66.8125 C 24.976562 66.570312 25.109375 66.3125 25.175781 66.234375 C 25.246094 66.15625 25.496094 65.707031 25.742188 65.230469 C 25.984375 64.761719 26.320312 64.15625 26.503906 63.894531 C 26.675781 63.636719 26.824219 63.375 26.824219 63.332031 C 26.824219 63.28125 26.910156 63.144531 27.011719 63.011719 C 27.117188 62.875 27.324219 62.546875 27.472656 62.277344 C 27.617188 62 27.835938 61.695312 27.929688 61.59375 C 28.042969 61.488281 28.121094 61.351562 28.121094 61.273438 C 28.121094 61.195312 28.183594 61.089844 28.25 61.054688 C 28.320312 61.011719 28.519531 60.746094 28.703125 60.46875 C 28.882812 60.191406 29.109375 59.878906 29.222656 59.773438 C 29.332031 59.671875 29.417969 59.542969 29.417969 59.488281 C 29.417969 59.429688 29.550781 59.222656 29.695312 59.03125 C 29.851562 58.839844 30.15625 58.457031 30.363281 58.183594 C 30.945312 57.410156 31.332031 56.933594 31.644531 56.632812 C 31.792969 56.476562 31.914062 56.3125 31.914062 56.257812 C 31.914062 56.207031 32.0625 56.027344 32.242188 55.863281 C 32.414062 55.6875 32.703125 55.386719 32.867188 55.175781 C 33.230469 54.726562 33.472656 54.457031 35.601562 52.292969 C 36.511719 51.375 37.273438 50.625 37.316406 50.625 C 37.34375 50.625 37.515625 50.476562 37.679688 50.292969 C 37.835938 50.121094 38.171875 49.816406 38.398438 49.628906 C 38.867188 49.246094 39.429688 48.746094 39.816406 48.363281 C 39.957031 48.234375 40.09375 48.121094 40.136719 48.121094 C 40.183594 48.121094 40.320312 48.015625 40.449219 47.886719 C 40.667969 47.679688 41.417969 47.074219 42.269531 46.414062 C 43.351562 45.585938 43.542969 45.445312 44.015625 45.117188 C 44.292969 44.925781 44.675781 44.648438 44.847656 44.492188 C 45.023438 44.335938 45.195312 44.214844 45.246094 44.214844 C 45.351562 44.214844 46.0625 43.695312 46.09375 43.59375 C 46.113281 43.542969 46.183594 43.515625 46.25 43.515625 C 46.3125 43.515625 46.519531 43.386719 46.710938 43.210938 C 46.902344 43.054688 47.117188 42.925781 47.1875 42.910156 C 47.253906 42.910156 47.417969 42.824219 47.53125 42.710938 C 47.722656 42.519531 48.363281 42.121094 49.125 41.6875 C 49.28125 41.601562 49.496094 41.453125 49.585938 41.375 C 49.742188 41.238281 49.914062 41.125 50.890625 40.554688 C 51.074219 40.441406 51.453125 40.207031 51.722656 40.035156 C 52 39.851562 52.257812 39.707031 52.304688 39.707031 C 52.433594 39.707031 53.203125 39.175781 53.203125 39.082031 C 53.203125 39.039062 53.289062 39.003906 53.394531 39.003906 C 53.496094 39.003906 53.816406 38.855469 54.085938 38.683594 C 55.253906 37.929688 55.480469 37.800781 56.753906 37.125 C 56.925781 37.046875 57.074219 36.933594 57.097656 36.890625 C 57.125 36.847656 57.410156 36.683594 57.730469 36.519531 C 58.042969 36.363281 58.363281 36.183594 58.433594 36.121094 C 58.554688 36.015625 58.890625 35.835938 59.851562 35.296875 C 60.769531 34.789062 61.003906 34.648438 61.003906 34.582031 C 61.003906 34.527344 61.066406 34.503906 61.144531 34.503906 C 61.28125 34.503906 61.828125 34.199219 62.753906 33.609375 C 62.96875 33.472656 63.351562 33.246094 63.601562 33.117188 C 64.328125 32.726562 64.734375 32.492188 65.152344 32.234375 C 65.367188 32.105469 65.664062 31.949219 65.800781 31.886719 C 65.929688 31.828125 66.070312 31.75 66.105469 31.707031 C 66.128906 31.664062 66.425781 31.507812 66.753906 31.34375 C 67.082031 31.167969 67.375 31.011719 67.402344 30.976562 C 67.464844 30.902344 68.554688 30.285156 69.253906 29.949219 C 69.53125 29.808594 69.863281 29.636719 70.007812 29.558594 C 70.5625 29.246094 71.082031 28.96875 71.410156 28.824219 C 71.601562 28.734375 71.992188 28.5625 72.257812 28.433594 C 73.496094 27.863281 76.753906 26.796875 77.238281 26.796875 L 77.664062 26.804688 L 77.265625 26.996094 C 77.046875 27.097656 76.613281 27.296875 76.3125 27.4375 C 75.707031 27.722656 74.632812 28.363281 74.433594 28.570312 C 74.363281 28.640625 74.25 28.703125 74.199219 28.703125 C 74.148438 28.703125 73.808594 28.945312 73.429688 29.230469 C 72.726562 29.765625 72.691406 29.800781 72.09375 30.304688 C 71.894531 30.457031 71.6875 30.605469 71.628906 30.605469 C 71.566406 30.605469 71.453125 30.667969 71.386719 30.746094 C 71.308594 30.824219 70.976562 31.03125 70.648438 31.210938 C 70.328125 31.394531 70.042969 31.574219 70.007812 31.601562 C 69.984375 31.644531 69.707031 31.808594 69.402344 31.984375 C 69.089844 32.164062 68.777344 32.371094 68.710938 32.449219 C 68.640625 32.527344 68.527344 32.597656 68.449219 32.597656 C 68.382812 32.597656 68.257812 32.65625 68.191406 32.726562 C 68.015625 32.882812 67.230469 33.394531 67.152344 33.394531 C 67.125 33.394531 66.960938 33.507812 66.789062 33.644531 C 66.632812 33.785156 66.425781 33.894531 66.355469 33.894531 C 66.277344 33.894531 66.171875 33.957031 66.136719 34.027344 C 66.070312 34.136719 65.1875 34.753906 64.390625 35.246094 C 64.25 35.332031 63.210938 36.042969 62.570312 36.492188 C 62.449219 36.570312 62.199219 36.734375 62.015625 36.839844 C 61.835938 36.953125 61.496094 37.1875 61.253906 37.367188 C 61.011719 37.542969 60.789062 37.6875 60.734375 37.6875 C 60.683594 37.6875 60.476562 37.84375 60.257812 38.035156 C 60.042969 38.226562 59.75 38.433594 59.609375 38.503906 C 59.472656 38.570312 59.230469 38.734375 59.082031 38.847656 C 58.925781 38.976562 58.734375 39.082031 58.65625 39.082031 C 58.582031 39.082031 58.476562 39.144531 58.441406 39.210938 C 58.398438 39.289062 58.09375 39.523438 57.757812 39.730469 C 57.429688 39.9375 57.132812 40.136719 57.109375 40.183594 C 57.082031 40.207031 56.988281 40.269531 56.910156 40.3125 C 56.832031 40.355469 56.414062 40.632812 56.007812 40.933594 C 55.601562 41.238281 55.160156 41.53125 55.039062 41.585938 C 54.917969 41.636719 54.71875 41.773438 54.605469 41.886719 C 54.484375 42.007812 54.269531 42.171875 54.105469 42.269531 C 53.550781 42.597656 52.734375 43.175781 52.613281 43.324219 C 52.535156 43.410156 52.414062 43.480469 52.347656 43.480469 C 52.269531 43.480469 52.128906 43.558594 52.027344 43.664062 C 51.9375 43.75 51.464844 44.105469 51.003906 44.433594 C 50.535156 44.753906 50.050781 45.125 49.929688 45.253906 C 49.808594 45.386719 49.644531 45.488281 49.550781 45.488281 C 49.472656 45.488281 49.402344 45.515625 49.402344 45.566406 C 49.402344 45.609375 49.117188 45.871094 48.753906 46.136719 C 48.390625 46.40625 48.105469 46.65625 48.105469 46.710938 C 48.105469 46.753906 48.042969 46.789062 47.964844 46.789062 C 47.886719 46.789062 47.6875 46.925781 47.523438 47.089844 C 47.351562 47.265625 47.1875 47.394531 47.144531 47.394531 C 47.097656 47.394531 46.933594 47.523438 46.761719 47.679688 C 46.589844 47.835938 46.070312 48.304688 45.601562 48.703125 C 42.960938 50.945312 41.175781 52.710938 39.585938 54.683594 C 39.351562 54.960938 39.132812 55.195312 39.082031 55.195312 C 39.039062 55.195312 39.003906 55.253906 39.003906 55.332031 C 39.003906 55.410156 38.902344 55.566406 38.769531 55.664062 C 38.648438 55.765625 38.457031 55.984375 38.363281 56.136719 C 38.25 56.3125 38.113281 56.484375 38.050781 56.535156 C 37.929688 56.640625 36.734375 58.257812 36.554688 58.5625 C 36.503906 58.648438 36.335938 58.890625 36.191406 59.082031 C 36.050781 59.273438 35.828125 59.617188 35.695312 59.863281 C 35.566406 60.09375 35.429688 60.285156 35.386719 60.285156 C 35.34375 60.285156 35.265625 60.40625 35.203125 60.554688 C 35.144531 60.710938 34.960938 61.011719 34.796875 61.238281 C 34.640625 61.453125 34.511719 61.695312 34.492188 61.765625 C 34.492188 61.835938 34.382812 62.042969 34.25 62.214844 C 34.121094 62.398438 33.878906 62.777344 33.730469 63.066406 C 33.574219 63.367188 33.359375 63.75 33.273438 63.914062 C 33.167969 64.085938 33.054688 64.335938 32.996094 64.476562 C 32.945312 64.625 32.855469 64.804688 32.804688 64.882812 C 32.597656 65.230469 31.964844 66.570312 31.722656 67.167969 C 31.585938 67.53125 31.4375 67.871094 31.386719 67.929688 C 31.332031 67.984375 31.296875 68.085938 31.296875 68.183594 C 31.296875 68.335938 31.125 68.769531 30.890625 69.203125 C 30.769531 69.445312 30.121094 71.316406 29.949219 71.929688 C 29.871094 72.207031 29.714844 72.753906 29.609375 73.132812 C 29.074219 74.996094 28.855469 75.828125 28.691406 76.875 C 28.582031 77.496094 28.476562 78.050781 28.441406 78.105469 C 28.363281 78.234375 28.199219 79.289062 28.105469 80.335938 C 28.050781 80.839844 27.972656 81.671875 27.914062 82.191406 C 27.757812 83.722656 27.601562 85.992188 27.601562 87.046875 C 27.601562 88.292969 27.871094 92.277344 28 92.917969 C 28.0625 93.175781 28.105469 93.695312 28.105469 94.0625 C 28.105469 94.425781 28.148438 94.882812 28.191406 95.082031 C 28.242188 95.28125 28.335938 95.765625 28.398438 96.136719 C 28.457031 96.527344 28.597656 97.359375 28.710938 97.992188 C 28.8125 98.625 28.96875 99.429688 29.054688 99.792969 C 29.132812 100.15625 29.296875 100.847656 29.394531 101.359375 C 29.496094 101.863281 29.671875 102.589844 29.785156 102.96875 C 29.90625 103.351562 29.992188 103.75 29.992188 103.863281 C 29.992188 104.070312 30.207031 104.847656 30.449219 105.523438 C 30.527344 105.722656 30.589844 106 30.589844 106.128906 C 30.589844 106.257812 30.746094 106.839844 30.933594 107.417969 C 31.125 108 31.28125 108.5625 31.28125 108.65625 C 31.28125 108.761719 31.417969 109.289062 31.59375 109.835938 C 32.640625 113.273438 32.710938 113.523438 33.054688 114.839844 C 33.144531 115.167969 33.367188 115.914062 33.550781 116.492188 C 33.730469 117.074219 33.914062 117.707031 33.9375 117.894531 C 33.984375 118.085938 34.042969 118.292969 34.078125 118.347656 C 34.121094 118.40625 34.226562 118.734375 34.328125 119.097656 C 34.433594 119.464844 34.65625 120.25 34.839844 120.847656 C 35.03125 121.453125 35.238281 122.183594 35.316406 122.449219 C 35.394531 122.726562 35.53125 123.152344 35.617188 123.402344 C 35.695312 123.652344 35.816406 124.035156 35.886719 124.25 C 35.949219 124.46875 36.035156 124.746094 36.085938 124.847656 C 36.335938 125.410156 36.484375 125.835938 36.484375 126 C 36.484375 126.105469 36.613281 126.511719 36.789062 126.910156 C 36.945312 127.316406 37.089844 127.730469 37.089844 127.828125 C 37.089844 127.929688 37.230469 128.269531 37.394531 128.597656 C 37.566406 128.925781 37.695312 129.253906 37.695312 129.324219 C 37.695312 129.453125 38.136719 130.546875 38.703125 131.792969 C 38.855469 132.15625 39.046875 132.613281 39.125 132.824219 C 39.1875 133.023438 39.28125 133.195312 39.324219 133.195312 C 39.367188 133.195312 39.402344 133.246094 39.402344 133.308594 C 39.402344 133.367188 39.472656 133.574219 39.558594 133.773438 C 39.695312 134.105469 39.792969 134.285156 40.121094 134.890625 C 40.164062 134.96875 40.257812 135.203125 40.355469 135.394531 C 40.433594 135.585938 40.675781 136.0625 40.890625 136.441406 C 41.109375 136.832031 41.386719 137.332031 41.488281 137.558594 C 41.601562 137.792969 41.816406 138.183594 41.984375 138.40625 C 42.136719 138.648438 42.304688 138.925781 42.347656 139.039062 C 42.371094 139.152344 42.519531 139.359375 42.65625 139.507812 C 42.796875 139.652344 42.910156 139.84375 42.910156 139.929688 C 42.910156 140.007812 42.960938 140.113281 43.011719 140.136719 C 43.074219 140.183594 43.253906 140.441406 43.410156 140.71875 C 43.566406 141.003906 43.816406 141.367188 43.964844 141.53125 C 44.105469 141.6875 44.214844 141.863281 44.214844 141.914062 C 44.214844 141.992188 45.359375 143.542969 45.851562 144.15625 C 45.992188 144.335938 46.113281 144.503906 46.113281 144.546875 C 46.113281 144.589844 46.234375 144.734375 46.390625 144.882812 C 46.535156 145.023438 46.796875 145.324219 46.960938 145.53125 C 48.035156 146.925781 49.816406 148.769531 51.558594 150.285156 C 52.277344 150.910156 52.976562 151.523438 53.125 151.652344 C 53.265625 151.785156 53.429688 151.894531 53.472656 151.894531 C 53.523438 151.894531 53.707031 152.050781 53.894531 152.242188 C 54.078125 152.433594 54.269531 152.589844 54.328125 152.589844 C 54.382812 152.589844 54.484375 152.648438 54.5625 152.71875 C 54.640625 152.777344 54.867188 152.953125 55.066406 153.089844 C 55.265625 153.230469 55.574219 153.453125 55.75 153.59375 C 56.078125 153.851562 56.269531 153.984375 56.761719 154.277344 C 56.917969 154.363281 57.253906 154.597656 57.515625 154.777344 C 57.765625 154.953125 58.042969 155.125 58.121094 155.167969 C 58.199219 155.195312 58.382812 155.308594 58.519531 155.410156 C 58.882812 155.652344 60.65625 156.632812 61.316406 156.953125 C 61.507812 157.039062 61.757812 157.167969 61.871094 157.222656 C 61.984375 157.28125 62.304688 157.4375 62.570312 157.566406 C 62.847656 157.707031 63.332031 157.949219 63.652344 158.105469 C 63.964844 158.257812 64.277344 158.390625 64.335938 158.390625 C 64.40625 158.390625 64.726562 158.519531 65.066406 158.675781 C 65.394531 158.824219 65.921875 159.039062 66.226562 159.132812 C 66.527344 159.238281 66.796875 159.34375 66.824219 159.375 C 66.890625 159.453125 67.550781 159.6875 67.722656 159.6875 C 67.800781 159.6875 68.199219 159.816406 68.613281 159.972656 C 69.707031 160.382812 71.644531 160.996094 71.863281 160.988281 C 71.972656 160.988281 72.433594 161.097656 72.890625 161.238281 C 73.34375 161.375 74.171875 161.574219 74.746094 161.679688 C 75.316406 161.792969 76.113281 161.949219 76.527344 162.042969 C 76.933594 162.128906 77.636719 162.242188 78.078125 162.285156 C 78.519531 162.335938 79.023438 162.40625 79.175781 162.433594 C 80.257812 162.640625 81.609375 162.804688 83.125 162.890625 C 84.085938 162.945312 85.308594 163.039062 85.828125 163.089844 C 87.324219 163.246094 91.039062 163.410156 95.324219 163.488281 C 97.496094 163.53125 101.046875 163.617188 103.203125 163.679688 C 106.292969 163.785156 107.757812 163.785156 110 163.679688 C 115.6875 163.4375 115.550781 163.445312 118.71875 162.988281 C 120.292969 162.769531 120.890625 162.65625 121.417969 162.527344 C 121.722656 162.449219 122.242188 162.335938 122.570312 162.285156 C 122.902344 162.234375 123.417969 162.113281 123.722656 162.027344 C 124.027344 161.9375 124.683594 161.765625 125.167969 161.636719 C 125.671875 161.507812 126.335938 161.316406 126.65625 161.195312 C 126.988281 161.074219 127.316406 160.988281 127.410156 160.988281 C 127.496094 160.988281 127.964844 160.832031 128.425781 160.640625 C 128.882812 160.449219 129.332031 160.292969 129.410156 160.292969 C 129.488281 160.292969 129.84375 160.15625 130.191406 159.992188 C 130.527344 159.835938 130.902344 159.6875 131.003906 159.6875 C 131.089844 159.6875 131.324219 159.601562 131.515625 159.480469 C 131.695312 159.367188 132.078125 159.195312 132.347656 159.082031 C 133.054688 158.804688 134.113281 158.3125 134.527344 158.078125 C 134.71875 157.964844 135.082031 157.792969 135.324219 157.679688 C 135.566406 157.566406 135.792969 157.4375 135.828125 157.402344 C 135.851562 157.359375 136.015625 157.273438 136.171875 157.195312 C 136.511719 157.023438 137.707031 156.335938 138.105469 156.078125 C 138.25 155.972656 138.46875 155.863281 138.570312 155.808594 C 138.683594 155.757812 138.855469 155.652344 138.96875 155.558594 C 139.082031 155.472656 139.550781 155.152344 140.007812 154.847656 C 140.46875 154.546875 140.925781 154.226562 141.039062 154.136719 C 141.144531 154.035156 141.296875 153.921875 141.410156 153.863281 C 141.816406 153.609375 142.917969 152.761719 142.917969 152.683594 C 142.917969 152.640625 142.96875 152.605469 143.039062 152.605469 C 143.109375 152.605469 143.296875 152.476562 143.464844 152.304688 C 143.636719 152.148438 144 151.828125 144.277344 151.59375 C 145.046875 150.945312 146.613281 149.488281 147.011719 149.054688 C 147.210938 148.839844 147.523438 148.503906 147.714844 148.304688 C 148.371094 147.636719 149.445312 146.390625 149.402344 146.355469 C 149.386719 146.328125 149.1875 146.511719 148.960938 146.761719 C 148.753906 147.011719 148.242188 147.550781 147.851562 147.972656 C 147.195312 148.667969 147.125 148.703125 147.125 148.46875 C 147.125 148.277344 147.175781 148.207031 147.324219 148.207031 C 147.453125 148.207031 147.523438 148.136719 147.523438 148.007812 C 147.523438 147.894531 147.59375 147.808594 147.671875 147.808594 C 147.75 147.808594 147.816406 147.742188 147.816406 147.664062 C 147.816406 147.585938 147.90625 147.515625 148.015625 147.515625 C 148.148438 147.515625 148.214844 147.445312 148.214844 147.316406 C 148.214844 147.203125 148.269531 147.117188 148.320312 147.117188 C 148.382812 147.117188 148.425781 147.046875 148.425781 146.96875 C 148.425781 146.890625 148.484375 146.824219 148.5625 146.824219 C 148.632812 146.824219 148.71875 146.734375 148.753906 146.625 C 148.777344 146.511719 148.875 146.425781 148.953125 146.425781 C 149.054688 146.425781 149.125 146.3125 149.144531 146.15625 C 149.160156 145.964844 149.230469 145.871094 149.386719 145.84375 C 149.515625 145.828125 149.617188 145.707031 149.6875 145.496094 C 149.75 145.265625 149.84375 145.167969 150.015625 145.152344 L 150.269531 145.109375 L 150.078125 145.394531 C 149.992188 145.542969 149.792969 145.800781 149.636719 145.964844 C 149.394531 146.226562 149.394531 146.242188 149.59375 146.136719 C 149.722656 146.078125 149.871094 145.929688 149.929688 145.800781 C 149.992188 145.679688 150.164062 145.453125 150.3125 145.28125 C 150.753906 144.804688 151.144531 144.234375 151.039062 144.234375 C 150.988281 144.234375 150.824219 144.425781 150.65625 144.667969 C 150.390625 145.066406 150.371094 145.074219 150.335938 144.839844 C 150.320312 144.710938 150.347656 144.582031 150.40625 144.5625 C 150.46875 144.546875 150.519531 144.457031 150.519531 144.382812 C 150.519531 144.304688 150.589844 144.242188 150.667969 144.242188 C 150.746094 144.242188 150.8125 144.164062 150.8125 144.050781 C 150.8125 143.949219 150.925781 143.722656 151.066406 143.53125 C 151.195312 143.34375 151.410156 143.03125 151.558594 142.839844 C 151.6875 142.648438 151.90625 142.382812 152.035156 142.242188 C 152.164062 142.105469 152.304688 141.914062 152.347656 141.816406 C 152.371094 141.714844 152.457031 141.636719 152.519531 141.636719 C 152.570312 141.636719 152.625 141.566406 152.625 141.488281 C 152.625 141.402344 152.691406 141.308594 152.769531 141.28125 C 152.847656 141.253906 152.945312 141.132812 152.976562 141.011719 C 153.003906 140.902344 153.125 140.710938 153.238281 140.605469 C 153.4375 140.398438 154.214844 139.265625 154.214844 139.1875 C 154.214844 139.167969 154.492188 138.710938 154.847656 138.164062 C 155.1875 137.636719 155.574219 136.996094 155.714844 136.746094 C 155.84375 136.492188 156.015625 136.234375 156.085938 136.164062 C 156.15625 136.09375 156.214844 135.964844 156.214844 135.886719 C 156.214844 135.800781 156.335938 135.550781 156.492188 135.316406 C 156.640625 135.082031 156.917969 134.589844 157.097656 134.199219 C 157.574219 133.1875 157.730469 132.917969 157.878906 132.769531 C 157.949219 132.703125 158.035156 132.519531 158.070312 132.371094 C 158.09375 132.226562 158.257812 131.835938 158.414062 131.488281 C 158.570312 131.160156 158.703125 130.839844 158.703125 130.769531 C 158.703125 130.710938 158.847656 130.347656 159.039062 129.984375 C 159.222656 129.609375 159.410156 129.195312 159.445312 129.054688 C 159.488281 128.917969 159.628906 128.5625 159.757812 128.277344 C 159.886719 127.992188 160 127.6875 160 127.617188 C 160 127.542969 160.113281 127.246094 160.25 126.96875 C 160.390625 126.703125 160.613281 126.171875 160.746094 125.792969 C 161.117188 124.691406 161.53125 123.550781 161.90625 122.613281 C 162.292969 121.628906 162.605469 120.726562 162.605469 120.597656 C 162.605469 120.519531 162.746094 120.15625 162.910156 119.800781 C 163.082031 119.453125 163.210938 119.066406 163.210938 118.953125 C 163.210938 118.839844 163.367188 118.390625 163.558594 117.9375 C 163.75 117.496094 163.90625 117.082031 163.90625 117.023438 C 163.90625 116.953125 164.042969 116.570312 164.207031 116.171875 C 164.382812 115.773438 164.511719 115.359375 164.511719 115.253906 C 164.511719 115.152344 164.554688 114.996094 164.613281 114.890625 C 164.804688 114.5625 165.210938 113.429688 165.210938 113.253906 C 165.210938 113.152344 165.296875 112.882812 165.402344 112.648438 C 165.515625 112.414062 165.714844 111.871094 165.84375 111.429688 C 165.984375 110.988281 166.183594 110.355469 166.292969 110.027344 C 166.414062 109.695312 166.640625 108.976562 166.8125 108.425781 C 166.96875 107.871094 167.273438 106.917969 167.464844 106.285156 C 167.652344 105.652344 167.808594 105.074219 167.808594 104.988281 C 167.808594 104.902344 167.9375 104.335938 168.09375 103.722656 C 168.25 103.125 168.441406 102.355469 168.503906 102.027344 C 168.570312 101.695312 168.683594 101.132812 168.761719 100.777344 C 169.1875 98.925781 169.59375 96 169.664062 94.257812 C 169.6875 93.664062 169.742188 93.175781 169.785156 93.175781 C 169.828125 93.175781 169.84375 92.726562 169.828125 92.171875 C 169.800781 91.324219 169.816406 91.167969 169.949219 91.167969 C 170.035156 91.167969 170.121094 91.246094 170.128906 91.351562 C 170.171875 91.800781 170.285156 89.664062 170.285156 88.46875 C 170.285156 87.324219 170.050781 83.464844 170.015625 84 C 170.015625 84.085938 169.9375 84.171875 169.863281 84.171875 C 169.75 84.171875 169.714844 84.050781 169.714844 83.730469 C 169.714844 83.273438 169.863281 83.03125 169.949219 83.34375 C 169.972656 83.445312 170 83.324219 170.007812 83.074219 C 170.015625 82.632812 169.835938 81.324219 169.617188 80.121094 C 169.558594 79.792969 169.472656 79.210938 169.417969 78.839844 C 169.367188 78.457031 169.296875 78.121094 169.273438 78.070312 C 169.246094 78.015625 169.1875 77.792969 169.132812 77.550781 C 168.945312 76.667969 168.320312 74.371094 168.226562 74.183594 C 168.171875 74.070312 168.121094 73.871094 168.121094 73.730469 C 168.121094 73.585938 168.078125 73.394531 168.015625 73.289062 C 167.828125 72.960938 167.417969 71.828125 167.417969 71.652344 C 167.417969 71.550781 167.375 71.394531 167.316406 71.289062 C 167.167969 71.023438 166.855469 70.257812 166.71875 69.816406 C 166.648438 69.601562 166.476562 69.222656 166.347656 68.976562 C 166.226562 68.734375 166.113281 68.484375 166.113281 68.425781 C 166.113281 68.320312 165.785156 67.585938 165.332031 66.710938 C 165.253906 66.554688 165.046875 66.136719 164.882812 65.808594 C 164.710938 65.480469 164.503906 65.089844 164.390625 64.945312 C 164.285156 64.804688 164.207031 64.632812 164.207031 64.582031 C 164.207031 64.519531 164.050781 64.242188 163.863281 63.949219 C 163.671875 63.644531 163.515625 63.359375 163.515625 63.289062 C 163.515625 63.230469 163.453125 63.109375 163.386719 63.039062 C 163.308594 62.96875 163.125 62.675781 162.976562 62.40625 C 162.832031 62.128906 162.613281 61.816406 162.511719 61.695312 C 162.40625 61.585938 162.320312 61.445312 162.320312 61.386719 C 162.320312 61.316406 162.257812 61.203125 162.199219 61.132812 C 162.128906 61.066406 161.9375 60.804688 161.773438 60.554688 C 161.601562 60.304688 161.394531 60 161.28125 59.894531 C 161.175781 59.773438 161.023438 59.550781 160.933594 59.375 C 160.292969 58.214844 155.863281 53.097656 154.304688 51.714844 C 154.0625 51.496094 153.574219 51.046875 153.210938 50.710938 C 152.613281 50.148438 151.367188 49.054688 150.511719 48.335938 C 150.320312 48.183594 150.050781 47.9375 149.914062 47.808594 C 149.773438 47.679688 149.324219 47.308594 148.910156 46.996094 C 148.503906 46.683594 148.121094 46.363281 148.078125 46.285156 C 148.035156 46.207031 147.949219 46.148438 147.878906 46.148438 C 147.816406 46.148438 147.644531 46.035156 147.507812 45.894531 C 147.265625 45.652344 146.09375 44.71875 145.253906 44.105469 C 145.039062 43.929688 144.8125 43.742188 144.777344 43.671875 C 144.734375 43.601562 144.648438 43.542969 144.582031 43.542969 C 144.511719 43.542969 144.328125 43.410156 144.183594 43.238281 C 144.027344 43.082031 143.835938 42.933594 143.757812 42.933594 C 143.679688 42.933594 143.574219 42.875 143.542969 42.804688 C 143.496094 42.726562 143.203125 42.484375 142.890625 42.242188 C 142.570312 42.007812 142.3125 41.785156 142.3125 41.730469 C 142.3125 41.671875 142.25 41.628906 142.183594 41.628906 C 142.113281 41.628906 141.90625 41.507812 141.722656 41.359375 C 141.28125 40.96875 140.691406 40.519531 139.808594 39.851562 C 139.402344 39.542969 139.023438 39.230469 138.976562 39.160156 C 138.933594 39.089844 138.847656 39.03125 138.777344 39.03125 C 138.710938 39.03125 138.527344 38.890625 138.382812 38.726562 C 138.226562 38.554688 138.035156 38.425781 137.957031 38.425781 C 137.878906 38.425781 137.773438 38.363281 137.742188 38.292969 C 137.695312 38.214844 137.410156 37.972656 137.109375 37.742188 C 136.804688 37.523438 136.320312 37.152344 136.027344 36.925781 C 135.742188 36.691406 135.453125 36.519531 135.402344 36.519531 C 135.351562 36.519531 135.273438 36.457031 135.230469 36.390625 C 135.1875 36.3125 134.882812 36.0625 134.546875 35.816406 C 134.214844 35.574219 133.9375 35.351562 133.914062 35.296875 C 133.894531 35.253906 133.828125 35.222656 133.765625 35.222656 C 133.695312 35.222656 133.464844 35.066406 133.246094 34.875 C 133.03125 34.683594 132.796875 34.527344 132.726562 34.527344 C 132.65625 34.527344 132.597656 34.484375 132.597656 34.441406 C 132.597656 34.363281 131.453125 33.53125 130.988281 33.273438 C 130.875 33.210938 130.683594 33.074219 130.5625 32.960938 C 130.441406 32.839844 130.214844 32.683594 130.042969 32.597656 C 129.886719 32.511719 129.609375 32.328125 129.453125 32.191406 C 129.296875 32.050781 129.109375 31.929688 129.046875 31.929688 C 128.976562 31.929688 128.8125 31.828125 128.675781 31.714844 C 128.535156 31.585938 128.183594 31.351562 127.894531 31.1875 C 127.03125 30.683594 126.867188 30.589844 126.425781 30.304688 C 126.183594 30.15625 125.972656 30.035156 125.929688 30.035156 C 125.90625 30.035156 125.730469 29.929688 125.558594 29.816406 C 125.375 29.6875 125.039062 29.488281 124.789062 29.359375 C 124.535156 29.230469 124.027344 28.953125 123.636719 28.734375 C 123.253906 28.519531 122.824219 28.292969 122.683594 28.234375 C 122.546875 28.183594 122.363281 28.09375 122.285156 28.035156 C 121.957031 27.835938 119.828125 26.832031 119.714844 26.832031 C 119.664062 26.832031 119.308594 26.675781 118.917969 26.484375 C 118.527344 26.292969 118.136719 26.136719 118.050781 26.136719 C 117.964844 26.136719 117.808594 26.09375 117.714844 26.035156 C 117.410156 25.878906 116.65625 25.566406 116.292969 25.453125 C 116.105469 25.394531 115.695312 25.253906 115.394531 25.132812 C 115.089844 25.011719 114.667969 24.875 114.441406 24.832031 C 114.226562 24.789062 113.707031 24.640625 113.289062 24.503906 C 112.882812 24.363281 111.984375 24.09375 111.289062 23.878906 C 110.113281 23.53125 109.488281 23.308594 107.851562 22.675781 C 107.472656 22.527344 107.003906 22.390625 106.804688 22.363281 C 106.277344 22.285156 104.796875 21.886719 104.796875 21.808594 C 104.796875 21.785156 105.550781 21.722656 106.476562 21.679688 C 108.214844 21.609375 109.6875 21.707031 110.945312 21.984375 C 111.332031 22.0625 112.050781 22.226562 112.546875 22.320312 C 113.046875 22.433594 113.730469 22.605469 114.09375 22.71875 C 114.457031 22.832031 114.832031 22.917969 114.945312 22.917969 C 115.054688 22.917969 115.507812 23.039062 115.949219 23.175781 C 116.390625 23.324219 116.976562 23.496094 117.246094 23.574219 C 117.523438 23.644531 118.269531 23.886719 118.902344 24.113281 C 119.53125 24.347656 120.320312 24.613281 120.648438 24.71875 C 120.976562 24.832031 121.53125 25.046875 121.878906 25.210938 C 122.214844 25.386719 122.546875 25.515625 122.605469 25.515625 C 122.667969 25.515625 122.988281 25.652344 123.316406 25.816406 C 123.636719 25.992188 123.957031 26.121094 124.035156 26.121094 C 124.105469 26.121094 124.40625 26.25 124.703125 26.40625 C 125.003906 26.5625 125.429688 26.753906 125.671875 26.832031 C 125.90625 26.902344 126.09375 26.976562 126.09375 27.023438 C 126.09375 27.046875 126.285156 27.160156 126.527344 27.265625 C 126.761719 27.351562 127.066406 27.507812 127.210938 27.585938 C 127.359375 27.652344 127.671875 27.816406 127.914062 27.929688 C 128.15625 28.050781 128.441406 28.191406 128.554688 28.25 C 128.667969 28.3125 128.988281 28.457031 129.253906 28.589844 C 129.53125 28.71875 129.828125 28.867188 129.90625 28.925781 C 129.984375 28.976562 130.171875 29.074219 130.335938 29.144531 C 130.484375 29.203125 130.605469 29.289062 130.605469 29.332031 C 130.605469 29.375 130.683594 29.410156 130.796875 29.410156 C 130.902344 29.410156 131.082031 29.488281 131.222656 29.601562 C 131.351562 29.707031 131.664062 29.878906 131.914062 29.992188 C 132.433594 30.234375 133.289062 30.710938 133.835938 31.074219 C 134.042969 31.203125 134.277344 31.316406 134.355469 31.316406 C 134.433594 31.316406 134.535156 31.367188 134.5625 31.429688 C 134.605469 31.480469 134.734375 31.574219 134.839844 31.628906 C 134.960938 31.679688 135.230469 31.816406 135.429688 31.949219 C 135.636719 32.070312 136.078125 32.320312 136.433594 32.511719 C 136.769531 32.691406 137.097656 32.902344 137.167969 32.96875 C 137.238281 33.03125 137.4375 33.152344 137.628906 33.222656 C 137.808594 33.296875 138.085938 33.453125 138.257812 33.558594 C 138.625 33.816406 139.296875 34.199219 139.542969 34.277344 C 139.628906 34.320312 139.714844 34.382812 139.714844 34.425781 C 139.714844 34.476562 139.785156 34.511719 139.871094 34.511719 C 139.949219 34.511719 140.171875 34.625 140.335938 34.753906 C 140.519531 34.890625 140.839844 35.082031 141.054688 35.1875 C 141.273438 35.289062 141.59375 35.464844 141.773438 35.585938 C 141.949219 35.714844 142.113281 35.816406 142.15625 35.816406 C 142.183594 35.816406 142.46875 35.972656 142.761719 36.164062 C 143.066406 36.355469 143.332031 36.511719 143.351562 36.511719 C 143.375 36.511719 143.59375 36.632812 143.828125 36.777344 C 144.355469 37.117188 144.683594 37.308594 145.480469 37.722656 C 145.816406 37.90625 146.105469 38.070312 146.105469 38.113281 C 146.105469 38.15625 146.25 38.242188 146.433594 38.320312 C 146.777344 38.457031 147.332031 38.824219 147.386719 38.945312 C 147.402344 38.988281 147.507812 39.011719 147.617188 39.011719 C 147.722656 39.011719 148.027344 39.167969 148.304688 39.359375 C 148.5625 39.550781 148.824219 39.707031 148.875 39.707031 C 148.925781 39.707031 149.144531 39.84375 149.351562 40.007812 C 149.566406 40.183594 149.792969 40.3125 149.84375 40.3125 C 149.894531 40.3125 150.164062 40.46875 150.425781 40.65625 C 150.691406 40.847656 150.953125 41.003906 151.003906 41.003906 C 151.054688 41.003906 151.222656 41.109375 151.386719 41.238281 C 151.644531 41.453125 152.292969 41.871094 152.890625 42.207031 C 153.039062 42.285156 153.324219 42.476562 153.523438 42.640625 C 153.722656 42.789062 153.914062 42.910156 153.964844 42.910156 C 154.007812 42.910156 154.207031 43.03125 154.40625 43.1875 C 154.605469 43.332031 154.839844 43.507812 154.925781 43.558594 C 155.246094 43.757812 156.476562 44.597656 156.867188 44.902344 C 157.082031 45.074219 157.375 45.28125 157.515625 45.375 C 158.199219 45.851562 158.960938 46.457031 158.996094 46.527344 C 159.011719 46.582031 159.175781 46.683594 159.34375 46.777344 C 159.515625 46.855469 159.742188 47.039062 159.84375 47.167969 C 159.949219 47.296875 160.0625 47.410156 160.113281 47.410156 C 160.15625 47.410156 160.347656 47.542969 160.535156 47.695312 C 160.71875 47.851562 161.445312 48.484375 162.15625 49.097656 C 162.867188 49.707031 163.515625 50.304688 163.585938 50.40625 C 163.664062 50.519531 163.765625 50.605469 163.828125 50.605469 C 163.90625 50.605469 166.867188 53.566406 167.785156 54.582031 C 167.992188 54.8125 168.285156 55.117188 168.441406 55.273438 C 168.589844 55.417969 168.710938 55.601562 168.710938 55.679688 C 168.710938 55.75 168.753906 55.808594 168.8125 55.808594 C 168.902344 55.808594 170.25 57.417969 170.605469 57.949219 C 170.683594 58.0625 170.875 58.292969 171.03125 58.457031 C 171.167969 58.632812 171.53125 59.109375 171.816406 59.53125 C 172.105469 59.964844 172.382812 60.3125 172.425781 60.3125 C 172.46875 60.3125 172.554688 60.46875 172.613281 60.65625 C 172.675781 60.847656 172.761719 61.003906 172.804688 61.003906 C 172.855469 61.003906 173.109375 61.351562 173.375 61.785156 C 174.007812 62.769531 174.0625 62.867188 174.382812 63.402344 C 174.527344 63.652344 174.769531 64.035156 174.910156 64.25 C 175.054688 64.46875 175.253906 64.839844 175.367188 65.082031 C 175.472656 65.316406 175.574219 65.507812 175.617188 65.507812 C 175.671875 65.507812 175.730469 65.628906 175.765625 65.785156 C 175.792969 65.929688 175.886719 66.121094 175.964844 66.207031 C 176.035156 66.285156 176.121094 66.457031 176.15625 66.589844 C 176.199219 66.710938 176.277344 66.804688 176.328125 66.804688 C 176.382812 66.804688 176.414062 66.867188 176.414062 66.925781 C 176.414062 67.054688 176.882812 68.09375 177.429688 69.125 C 177.585938 69.445312 177.714844 69.765625 177.714844 69.828125 C 177.714844 69.9375 178.015625 70.613281 178.320312 71.230469 C 178.371094 71.332031 178.40625 71.472656 178.40625 71.542969 C 178.40625 71.671875 178.597656 72.136719 178.832031 72.554688 C 178.882812 72.65625 178.988281 72.976562 179.066406 73.265625 C 179.144531 73.550781 179.324219 74.035156 179.464844 74.347656 C 179.601562 74.65625 179.714844 74.988281 179.714844 75.082031 C 179.714844 75.195312 179.84375 75.652344 180.015625 76.113281 C 180.171875 76.582031 180.320312 77.054688 180.320312 77.160156 C 180.320312 77.273438 180.441406 77.722656 180.582031 78.164062 C 180.71875 78.605469 180.917969 79.394531 181.03125 79.914062 C 181.144531 80.433594 181.289062 81.152344 181.375 81.515625 C 181.453125 81.878906 181.566406 82.484375 181.617188 82.867188 C 181.671875 83.253906 181.773438 83.949219 181.863281 84.414062 C 182.136719 85.957031 182.320312 87.636719 182.746094 92.519531 C 182.925781 94.582031 182.925781 118.960938 182.746094 121.023438 C 182.335938 125.863281 182.136719 127.707031 181.878906 129.125 C 181.792969 129.59375 181.679688 130.292969 181.628906 130.675781 C 181.574219 131.066406 181.472656 131.664062 181.386719 132.027344 C 181.296875 132.390625 181.152344 133.039062 181.066406 133.472656 C 180.988281 133.914062 180.789062 134.71875 180.625 135.273438 C 180.3125 136.382812 180.105469 137.125 179.808594 138.171875 C 179.707031 138.5625 179.574219 138.960938 179.523438 139.074219 C 179.324219 139.480469 179.054688 140.285156 178.988281 140.648438 C 178.945312 140.847656 178.875 141.023438 178.832031 141.023438 C 178.789062 141.023438 178.71875 141.152344 178.683594 141.324219 C 178.640625 141.480469 178.570312 141.644531 178.527344 141.671875 C 178.476562 141.714844 178.441406 141.863281 178.441406 142.035156 C 178.441406 142.191406 178.398438 142.320312 178.335938 142.320312 C 178.285156 142.320312 178.234375 142.390625 178.234375 142.457031 C 178.234375 142.535156 178.121094 142.824219 177.984375 143.082031 C 177.84375 143.34375 177.730469 143.609375 177.730469 143.6875 C 177.730469 143.757812 177.601562 144.078125 177.445312 144.398438 C 177.175781 144.910156 176.554688 146.242188 176.398438 146.613281 C 176.371094 146.691406 176.25 146.902344 176.136719 147.066406 C 176.027344 147.238281 175.894531 147.472656 175.835938 147.617188 C 175.785156 147.757812 175.695312 147.9375 175.636719 148.015625 C 175.585938 148.09375 175.402344 148.425781 175.246094 148.734375 C 175.089844 149.054688 174.902344 149.367188 174.839844 149.4375 C 174.777344 149.507812 174.589844 149.800781 174.433594 150.070312 C 174.035156 150.761719 173.972656 150.855469 173.34375 151.808594 C 173.039062 152.269531 172.734375 152.769531 172.648438 152.910156 C 172.570312 153.046875 172.449219 153.222656 172.382812 153.273438 C 172.320312 153.332031 172.035156 153.707031 171.757812 154.113281 C 171.253906 154.832031 171.003906 155.160156 170.363281 155.914062 C 170.183594 156.121094 170.035156 156.320312 170.035156 156.355469 C 170.035156 156.414062 169.507812 157.046875 169.066406 157.496094 C 168.890625 157.6875 168.734375 157.878906 168.71875 157.929688 C 168.640625 158.191406 164.007812 162.933594 163.851562 162.933594 C 163.800781 162.933594 163.695312 163.023438 163.609375 163.132812 C 163.542969 163.238281 163.082031 163.671875 162.589844 164.105469 C 162.09375 164.535156 161.574219 164.996094 161.4375 165.125 C 161.296875 165.253906 160.996094 165.496094 160.769531 165.664062 C 160.527344 165.835938 160.335938 166 160.335938 166.050781 C 160.335938 166.09375 160.277344 166.128906 160.207031 166.128906 C 160.136719 166.128906 159.9375 166.285156 159.75 166.476562 C 159.566406 166.667969 159.359375 166.824219 159.289062 166.824219 C 159.210938 166.824219 159.109375 166.882812 159.074219 166.953125 C 158.996094 167.089844 157.984375 167.878906 157.628906 168.085938 C 157.523438 168.148438 157.34375 168.285156 157.222656 168.398438 C 157.097656 168.503906 156.890625 168.667969 156.753906 168.761719 C 154.945312 170.007812 154.945312 170.007812 154.199219 170.484375 C 153.9375 170.65625 153.574219 170.910156 153.402344 171.066406 C 153.222656 171.210938 153.03125 171.332031 152.96875 171.332031 C 152.855469 171.332031 152.050781 171.84375 151.394531 172.335938 C 151.160156 172.492188 150.953125 172.640625 150.917969 172.640625 C 150.875 172.640625 150.648438 172.777344 150.40625 172.945312 C 150.164062 173.117188 149.9375 173.246094 149.894531 173.246094 C 149.828125 173.246094 149.507812 173.445312 148.277344 174.269531 C 148.042969 174.414062 147.765625 174.546875 147.671875 174.546875 C 147.558594 174.546875 147.464844 174.570312 147.4375 174.625 C 147.386719 174.734375 146.625 175.210938 146.390625 175.289062 C 146.257812 175.316406 146.15625 175.394531 146.15625 175.429688 C 146.15625 175.472656 145.894531 175.628906 145.585938 175.792969 C 145.265625 175.9375 144.867188 176.183594 144.691406 176.304688 C 144.519531 176.433594 144.363281 176.546875 144.320312 176.546875 C 144.292969 176.546875 143.816406 176.804688 143.28125 177.125 C 142.746094 177.445312 142.148438 177.773438 141.972656 177.851562 C 141.800781 177.921875 141.652344 178.027344 141.652344 178.0625 C 141.652344 178.105469 141.445312 178.214844 141.1875 178.335938 C 140.925781 178.449219 140.582031 178.65625 140.398438 178.789062 C 140.214844 178.925781 140 179.039062 139.921875 179.039062 C 139.835938 179.039062 139.765625 179.089844 139.765625 179.144531 C 139.765625 179.203125 139.714844 179.246094 139.644531 179.246094 C 139.585938 179.246094 139.386719 179.359375 139.203125 179.496094 C 139.023438 179.636719 138.8125 179.75 138.734375 179.75 C 138.65625 179.75 138.535156 179.808594 138.476562 179.886719 C 138.40625 179.964844 138.09375 180.148438 137.785156 180.292969 C 137.472656 180.441406 137.195312 180.605469 137.160156 180.640625 C 137.109375 180.710938 136.214844 181.230469 135.507812 181.59375 C 135.351562 181.679688 135.074219 181.835938 134.910156 181.9375 C 134.753906 182.050781 134.433594 182.226562 134.207031 182.335938 C 133.992188 182.441406 133.558594 182.675781 133.253906 182.847656 C 132.683594 183.175781 131.617188 183.757812 130.65625 184.257812 C 130.355469 184.40625 130.035156 184.582031 129.957031 184.640625 C 129.878906 184.691406 129.585938 184.839844 129.308594 184.96875 C 129.039062 185.097656 128.675781 185.28125 128.511719 185.367188 C 128.355469 185.453125 128.015625 185.617188 127.792969 185.730469 C 127.558594 185.84375 127.289062 185.972656 127.195312 186.035156 C 127.089844 186.085938 126.824219 186.214844 126.597656 186.304688 C 126.355469 186.40625 126.164062 186.511719 126.164062 186.546875 C 126.164062 186.589844 125.972656 186.667969 125.742188 186.734375 C 125.496094 186.804688 125.074219 186.996094 124.769531 187.160156 C 124.46875 187.316406 124.183594 187.445312 124.128906 187.445312 C 124.070312 187.445312 123.695312 187.601562 123.289062 187.792969 C 122.882812 187.984375 122.511719 188.136719 122.449219 188.136719 C 122.398438 188.136719 122.277344 188.183594 122.183594 188.242188 C 121.863281 188.414062 121.316406 188.632812 120.710938 188.832031 C 120.382812 188.945312 119.59375 189.210938 118.960938 189.4375 C 118.328125 189.671875 117.523438 189.929688 117.160156 190.027344 C 116.796875 190.128906 116.199219 190.304688 115.808594 190.414062 C 115.429688 190.527344 114.796875 190.691406 114.40625 190.796875 C 114.027344 190.882812 113.488281 191.039062 113.203125 191.117188 C 112.933594 191.195312 112.433594 191.296875 112.105469 191.351562 C 111.773438 191.394531 111.195312 191.496094 110.804688 191.59375 C 110.078125 191.765625 109.652344 191.828125 107.203125 192.148438 C 104.148438 192.546875 100.503906 192.710938 98 192.535156 Z M 170.070312 92.933594 C 170.042969 92.832031 170.015625 92.917969 170.015625 93.109375 C 170.015625 93.296875 170.035156 93.375 170.070312 93.289062 C 170.085938 93.1875 170.085938 93.03125 170.070312 92.945312 Z M 170.070312 92.933594 "/>
<path style=" stroke:none;fill-rule:nonzero;fill:rgb(7.058824%,47.45098%,9.019608%);fill-opacity:1;" d="M 169.800781 85.359375 C 169.800781 85.222656 169.851562 85.082031 169.90625 85.046875 C 169.964844 85.023438 170.007812 85.023438 170.007812 85.066406 C 170.007812 85.109375 170.035156 85.246094 170.070312 85.375 C 170.121094 85.53125 170.085938 85.59375 169.964844 85.59375 C 169.863281 85.59375 169.808594 85.507812 169.808594 85.351562 Z M 169.800781 85.359375 "/>
<path style=" stroke:none;fill-rule:nonzero;fill:rgb(100%,100%,100%);fill-opacity:1;" d="M 107.894531 159.132812 C 107.429688 159.054688 106.667969 158.902344 106.199219 158.796875 C 105.730469 158.683594 104.988281 158.511719 104.535156 158.40625 C 104.09375 158.304688 103.375 158.105469 102.933594 157.964844 C 102.503906 157.828125 102.085938 157.707031 101.992188 157.707031 C 101.914062 157.707031 101.464844 157.566406 101.003906 157.402344 C 100.546875 157.230469 100.09375 157.097656 100 157.097656 C 99.914062 157.097656 99.507812 156.960938 99.097656 156.796875 C 98.703125 156.625 98.257812 156.492188 98.128906 156.492188 C 98 156.492188 97.808594 156.449219 97.707031 156.390625 C 97.617188 156.335938 97.375 156.242188 97.1875 156.15625 C 96.996094 156.078125 96.710938 155.964844 96.554688 155.894531 C 96.40625 155.835938 96.191406 155.785156 96.09375 155.785156 C 96.007812 155.785156 95.707031 155.671875 95.429688 155.550781 C 95.160156 155.417969 94.71875 155.265625 94.441406 155.1875 C 94.171875 155.117188 93.644531 154.925781 93.265625 154.761719 C 92.882812 154.605469 92.484375 154.476562 92.371094 154.476562 C 92.269531 154.476562 92.0625 154.414062 91.914062 154.335938 C 91.765625 154.257812 91.210938 154.0625 90.691406 153.878906 C 90.171875 153.707031 89.609375 153.496094 89.445312 153.429688 C 89.289062 153.351562 88.925781 153.222656 88.648438 153.144531 C 87.671875 152.839844 86.441406 152.40625 85.863281 152.136719 C 85.542969 152 85.203125 151.878906 85.097656 151.878906 C 85.011719 151.878906 84.632812 151.75 84.269531 151.574219 C 83.894531 151.417969 83.542969 151.273438 83.453125 151.273438 C 83.375 151.273438 83.003906 151.132812 82.625 150.960938 C 82.25 150.789062 81.765625 150.589844 81.542969 150.519531 C 81.011719 150.335938 79.964844 149.921875 79.324219 149.609375 C 79.046875 149.480469 78.761719 149.367188 78.703125 149.367188 C 78.640625 149.367188 78.328125 149.238281 78.015625 149.082031 C 77.695312 148.925781 77.074219 148.625 76.640625 148.425781 C 76.199219 148.226562 75.75 148.015625 75.636719 147.949219 C 75.523438 147.886719 75.117188 147.679688 74.71875 147.472656 C 74.328125 147.273438 73.894531 147.03125 73.773438 146.945312 C 73.644531 146.855469 73.472656 146.789062 73.394531 146.789062 C 73.324219 146.789062 73.03125 146.632812 72.769531 146.441406 C 72.503906 146.25 72.242188 146.09375 72.191406 146.09375 C 72.136719 146.09375 71.871094 145.9375 71.585938 145.75 C 71.296875 145.558594 71.003906 145.402344 70.945312 145.402344 C 70.875 145.402344 70.734375 145.316406 70.625 145.195312 C 70.519531 145.074219 70.226562 144.875 69.972656 144.753906 C 69.722656 144.625 69.464844 144.441406 69.394531 144.363281 C 69.316406 144.277344 69.203125 144.207031 69.132812 144.207031 C 69.066406 144.207031 68.945312 144.136719 68.875 144.050781 C 68.804688 143.964844 68.382812 143.652344 67.929688 143.351562 C 67.488281 143.066406 66.976562 142.691406 66.796875 142.535156 C 66.625 142.390625 66.328125 142.136719 66.148438 141.984375 C 64.015625 140.234375 61.742188 138.070312 60.492188 136.648438 C 60.015625 136.09375 59.472656 135.507812 59.308594 135.332031 C 59.125 135.160156 58.976562 134.96875 58.976562 134.933594 C 58.976562 134.882812 58.839844 134.71875 58.675781 134.554688 C 58.503906 134.398438 58.371094 134.214844 58.371094 134.148438 C 58.371094 134.078125 58.3125 133.972656 58.242188 133.9375 C 58.09375 133.851562 57.132812 132.632812 57.066406 132.449219 C 57.046875 132.390625 56.925781 132.207031 56.796875 132.050781 C 56.484375 131.652344 55.273438 129.800781 55.167969 129.558594 C 55.117188 129.445312 54.988281 129.230469 54.882812 129.054688 C 54.777344 128.902344 54.554688 128.492188 54.390625 128.191406 C 54.214844 127.878906 54.050781 127.542969 53.992188 127.4375 C 53.9375 127.332031 53.871094 127.1875 53.84375 127.109375 C 53.800781 127.03125 53.644531 126.734375 53.480469 126.457031 C 53.324219 126.191406 53.195312 125.894531 53.175781 125.816406 C 53.175781 125.742188 53.117188 125.601562 53.046875 125.515625 C 52.976562 125.429688 52.839844 125.152344 52.734375 124.910156 C 52.46875 124.25 52.277344 123.808594 52.070312 123.367188 C 51.957031 123.152344 51.878906 122.890625 51.878906 122.796875 C 51.878906 122.691406 51.816406 122.492188 51.742188 122.335938 C 51.472656 121.816406 51.28125 121.324219 51.28125 121.167969 C 51.28125 121.011719 50.960938 120.078125 50.71875 119.542969 C 50.640625 119.367188 50.582031 119.144531 50.582031 119.023438 C 50.582031 118.910156 50.511719 118.5625 50.425781 118.242188 C 50.277344 117.707031 50.171875 117.28125 49.835938 115.609375 C 49.558594 114.207031 49.386719 113.109375 49.28125 111.863281 C 49.222656 111.152344 49.125 110.128906 49.066406 109.609375 C 48.953125 108.589844 49.011719 105.011719 49.175781 103.464844 C 49.230469 102.96875 49.308594 102.128906 49.332031 101.609375 C 49.375 101.089844 49.464844 100.347656 49.53125 99.957031 C 49.878906 98.113281 49.972656 97.617188 50.035156 97.160156 C 50.078125 96.890625 50.207031 96.234375 50.335938 95.714844 C 50.46875 95.195312 50.613281 94.546875 50.683594 94.269531 C 50.746094 94 50.832031 93.636719 50.882812 93.472656 C 50.933594 93.316406 51.066406 92.832031 51.167969 92.425781 C 51.28125 92.015625 51.488281 91.289062 51.628906 90.824219 C 51.773438 90.355469 51.964844 89.722656 52.0625 89.417969 C 52.136719 89.117188 52.25 88.832031 52.277344 88.769531 C 52.320312 88.71875 52.398438 88.46875 52.46875 88.214844 C 52.535156 87.964844 52.65625 87.566406 52.746094 87.316406 C 52.832031 87.066406 52.960938 86.667969 53.054688 86.414062 C 53.132812 86.164062 53.359375 85.550781 53.53125 85.046875 C 53.722656 84.535156 53.871094 84.042969 53.871094 83.957031 C 53.871094 83.878906 53.984375 83.566406 54.113281 83.289062 C 54.242188 83.003906 54.441406 82.457031 54.5625 82.070312 C 54.691406 81.6875 54.839844 81.238281 54.925781 81.066406 C 54.996094 80.910156 55.175781 80.363281 55.332031 79.886719 C 55.480469 79.394531 55.652344 78.988281 55.695312 78.960938 C 55.742188 78.933594 55.773438 78.8125 55.773438 78.691406 C 55.773438 78.5625 55.929688 78.09375 56.121094 77.636719 C 56.3125 77.1875 56.46875 76.753906 56.46875 76.691406 C 56.46875 76.625 56.597656 76.234375 56.753906 75.828125 C 56.902344 75.417969 57.089844 74.902344 57.160156 74.675781 C 57.230469 74.457031 57.34375 74.148438 57.410156 73.972656 C 57.480469 73.816406 57.601562 73.496094 57.664062 73.273438 C 57.773438 72.902344 57.929688 72.511719 58.214844 71.921875 C 58.285156 71.785156 58.363281 71.542969 58.40625 71.367188 C 58.449219 71.210938 58.589844 70.832031 58.726562 70.535156 C 58.855469 70.25 58.96875 69.957031 58.96875 69.894531 C 58.96875 69.835938 59.125 69.453125 59.316406 69.054688 C 59.507812 68.65625 59.664062 68.304688 59.664062 68.277344 C 59.664062 68.226562 60.171875 67.097656 60.675781 66.070312 C 60.832031 65.742188 60.960938 65.429688 60.960938 65.386719 C 60.960938 65.359375 61.089844 65.109375 61.246094 64.847656 C 61.402344 64.582031 61.566406 64.269531 61.59375 64.148438 C 61.664062 63.929688 62.070312 63.1875 62.597656 62.355469 C 62.734375 62.121094 62.855469 61.886719 62.855469 61.828125 C 62.855469 61.757812 62.933594 61.617188 63.039062 61.507812 C 63.152344 61.402344 63.289062 61.1875 63.367188 61.039062 C 63.523438 60.726562 64.503906 59.230469 64.65625 59.046875 C 64.710938 58.976562 64.761719 58.890625 64.761719 58.839844 C 64.761719 58.796875 64.839844 58.667969 64.945312 58.5625 C 65.046875 58.457031 65.273438 58.15625 65.453125 57.871094 C 66.285156 56.648438 66.382812 56.519531 66.46875 56.519531 C 66.519531 56.519531 66.625 56.390625 66.71875 56.214844 C 66.796875 56.0625 66.96875 55.816406 67.097656 55.679688 C 67.222656 55.550781 67.367188 55.375 67.429688 55.296875 C 68.761719 53.601562 71.921875 50.382812 73.714844 48.867188 C 74.105469 48.546875 74.433594 48.242188 74.441406 48.207031 C 74.457031 48.15625 74.527344 48.121094 74.597656 48.121094 C 74.667969 48.121094 74.867188 47.964844 75.054688 47.773438 C 75.246094 47.585938 75.453125 47.429688 75.515625 47.429688 C 75.585938 47.429688 75.6875 47.367188 75.722656 47.296875 C 75.765625 47.222656 75.9375 47.082031 76.105469 46.96875 C 76.277344 46.867188 76.425781 46.761719 76.449219 46.726562 C 76.597656 46.570312 77.246094 46.128906 77.34375 46.128906 C 77.394531 46.128906 77.496094 46.042969 77.574219 45.9375 C 77.652344 45.828125 77.84375 45.6875 78.007812 45.617188 C 78.183594 45.550781 78.503906 45.34375 78.726562 45.160156 C 78.960938 44.976562 79.195312 44.832031 79.265625 44.832031 C 79.332031 44.832031 79.464844 44.769531 79.542969 44.691406 C 79.628906 44.625 79.972656 44.414062 80.304688 44.234375 C 80.632812 44.050781 80.925781 43.871094 80.953125 43.835938 C 81.066406 43.695312 85.410156 41.636719 85.601562 41.636719 C 85.671875 41.636719 86.035156 41.496094 86.398438 41.332031 C 86.769531 41.160156 87.125 41.03125 87.195312 41.03125 C 87.265625 41.03125 87.652344 40.902344 88.050781 40.726562 C 88.457031 40.570312 89.011719 40.390625 89.28125 40.328125 C 89.558594 40.269531 90.121094 40.121094 90.527344 39.992188 C 90.953125 39.863281 91.671875 39.679688 92.136719 39.585938 C 92.605469 39.496094 93.28125 39.34375 93.636719 39.265625 C 94 39.1875 94.625 39.082031 95.039062 39.03125 C 95.445312 38.976562 96.382812 38.875 97.089844 38.769531 C 98.71875 38.5625 104.398438 38.457031 105.59375 38.625 C 106.640625 38.761719 108.09375 38.933594 109.089844 39.046875 C 109.53125 39.089844 110.207031 39.1875 110.589844 39.265625 C 110.976562 39.34375 111.671875 39.480469 112.136719 39.585938 C 112.605469 39.671875 113.351562 39.84375 113.792969 39.957031 C 114.234375 40.070312 114.882812 40.214844 115.238281 40.285156 C 115.601562 40.363281 116.320312 40.5625 116.839844 40.726562 C 117.359375 40.902344 117.863281 41.039062 117.9375 41.039062 C 118.09375 41.039062 118.71875 41.246094 118.890625 41.351562 C 118.953125 41.394531 119.28125 41.488281 119.652344 41.585938 C 120.015625 41.671875 120.597656 41.851562 120.953125 41.992188 C 121.296875 42.128906 121.792969 42.292969 122.035156 42.355469 C 122.277344 42.40625 122.71875 42.5625 123.011719 42.691406 C 123.296875 42.832031 123.644531 42.945312 123.742188 42.945312 C 123.851562 42.945312 124.015625 42.988281 124.121094 43.03125 C 124.292969 43.117188 124.960938 43.367188 125.84375 43.664062 C 126.796875 43.984375 127.609375 44.285156 128.183594 44.511719 C 128.503906 44.640625 128.960938 44.789062 129.203125 44.839844 C 129.453125 44.902344 129.871094 45.046875 130.148438 45.175781 C 130.414062 45.308594 130.875 45.464844 131.167969 45.542969 C 131.453125 45.609375 131.929688 45.785156 132.214844 45.914062 C 132.519531 46.035156 132.8125 46.148438 132.902344 46.148438 C 132.988281 46.148438 133.132812 46.191406 133.230469 46.234375 C 133.695312 46.46875 134.136719 46.640625 134.503906 46.753906 C 134.71875 46.8125 135.210938 47.003906 135.59375 47.152344 C 135.972656 47.308594 136.347656 47.4375 136.414062 47.4375 C 136.484375 47.4375 136.882812 47.59375 137.316406 47.785156 C 137.742188 47.972656 138.136719 48.128906 138.199219 48.128906 C 138.269531 48.128906 138.535156 48.242188 138.824219 48.371094 C 139.089844 48.503906 139.488281 48.65625 139.714844 48.734375 C 139.929688 48.804688 140.355469 48.996094 140.65625 49.144531 C 140.960938 49.296875 141.246094 49.429688 141.316406 49.429688 C 141.386719 49.429688 141.707031 49.558594 142.027344 49.730469 C 142.347656 49.886719 142.65625 50.035156 142.710938 50.035156 C 142.761719 50.035156 143.023438 50.171875 143.289062 50.335938 C 143.550781 50.511719 143.863281 50.640625 143.957031 50.640625 C 144.070312 50.640625 144.164062 50.667969 144.191406 50.71875 C 144.207031 50.761719 144.5625 50.96875 144.96875 51.175781 C 146.890625 52.183594 147.367188 52.449219 147.367188 52.570312 C 147.367188 52.613281 147.4375 52.640625 147.542969 52.640625 C 147.628906 52.640625 147.84375 52.746094 148.007812 52.875 C 148.183594 53.003906 148.457031 53.160156 148.613281 53.222656 C 148.789062 53.289062 149.066406 53.480469 149.253906 53.644531 C 149.4375 53.816406 149.644531 53.949219 149.714844 53.949219 C 149.785156 53.949219 149.894531 54.015625 149.972656 54.105469 C 150.042969 54.183594 150.257812 54.347656 150.449219 54.441406 C 150.648438 54.546875 150.960938 54.761719 151.152344 54.933594 C 151.34375 55.109375 151.542969 55.246094 151.601562 55.246094 C 151.664062 55.246094 151.84375 55.386719 152 55.550781 C 152.15625 55.722656 152.328125 55.851562 152.382812 55.851562 C 152.433594 55.851562 152.640625 56.007812 152.839844 56.199219 C 153.039062 56.390625 153.265625 56.546875 153.332031 56.546875 C 153.394531 56.546875 153.566406 56.675781 153.695312 56.847656 C 153.835938 57.003906 154 57.152344 154.0625 57.152344 C 154.113281 57.152344 154.242188 57.253906 154.335938 57.386719 C 154.441406 57.515625 154.589844 57.652344 154.683594 57.714844 C 155.203125 58 159.125 61.914062 159.964844 62.960938 C 160.105469 63.144531 160.328125 63.402344 160.46875 63.550781 C 160.777344 63.886719 162.085938 65.523438 162.214844 65.742188 C 162.277344 65.828125 162.433594 66.050781 162.597656 66.234375 C 162.746094 66.414062 162.867188 66.605469 162.867188 66.667969 C 162.867188 66.71875 162.953125 66.855469 163.066406 66.976562 C 163.167969 67.089844 163.324219 67.324219 163.402344 67.496094 C 163.480469 67.671875 163.636719 67.894531 163.730469 68.007812 C 163.84375 68.121094 164.070312 68.484375 164.257812 68.832031 C 164.449219 69.175781 164.640625 69.464844 164.683594 69.464844 C 164.734375 69.464844 164.761719 69.542969 164.761719 69.636719 C 164.761719 69.722656 164.824219 69.878906 164.902344 69.957031 C 164.96875 70.042969 165.132812 70.320312 165.265625 70.5625 C 165.386719 70.8125 165.523438 71.082031 165.574219 71.160156 C 165.628906 71.238281 165.878906 71.742188 166.128906 72.257812 C 166.390625 72.777344 166.632812 73.230469 166.683594 73.238281 C 166.734375 73.253906 166.769531 73.359375 166.769531 73.472656 C 166.769531 73.585938 166.910156 73.929688 167.074219 74.257812 C 167.246094 74.589844 167.375 74.917969 167.375 74.996094 C 167.375 75.074219 167.488281 75.367188 167.628906 75.644531 C 167.929688 76.226562 168.40625 77.59375 168.675781 78.613281 C 168.777344 79.011719 168.933594 79.507812 169.011719 79.707031 C 169.097656 79.914062 169.265625 80.519531 169.375 81.046875 C 169.488281 81.574219 169.644531 82.292969 169.742188 82.65625 C 169.828125 83.023438 169.929688 83.84375 169.984375 84.511719 C 170.09375 86.015625 170.09375 91.914062 169.984375 93.957031 C 169.863281 96.234375 169.480469 99.117188 169.039062 101.054688 C 168.960938 101.417969 168.847656 101.972656 168.777344 102.304688 C 168.71875 102.632812 168.527344 103.402344 168.371094 104 C 168.214844 104.605469 168.085938 105.167969 168.085938 105.265625 C 168.085938 105.351562 167.929688 105.929688 167.742188 106.5625 C 167.550781 107.195312 167.246094 108.15625 167.089844 108.703125 C 166.917969 109.253906 166.691406 109.972656 166.570312 110.304688 C 166.457031 110.632812 166.257812 111.265625 166.121094 111.707031 C 165.992188 112.148438 165.792969 112.691406 165.679688 112.925781 C 165.574219 113.167969 165.488281 113.4375 165.488281 113.53125 C 165.488281 113.714844 165.082031 114.839844 164.890625 115.167969 C 164.832031 115.273438 164.789062 115.429688 164.789062 115.53125 C 164.789062 115.644531 164.65625 116.050781 164.484375 116.449219 C 164.328125 116.847656 164.183594 117.230469 164.183594 117.296875 C 164.183594 117.359375 164.027344 117.773438 163.835938 118.214844 C 163.644531 118.667969 163.488281 119.117188 163.488281 119.230469 C 163.488281 119.34375 163.359375 119.730469 163.1875 120.078125 C 163.03125 120.441406 162.882812 120.796875 162.882812 120.875 C 162.882812 121.003906 162.570312 121.90625 162.183594 122.890625 C 161.808594 123.835938 161.394531 124.96875 161.023438 126.070312 C 160.890625 126.449219 160.675781 126.976562 160.527344 127.246094 C 160.390625 127.523438 160.277344 127.816406 160.277344 127.894531 C 160.277344 127.964844 160.164062 128.269531 160.035156 128.554688 C 159.90625 128.839844 159.765625 129.195312 159.722656 129.332031 C 159.679688 129.472656 159.488281 129.894531 159.316406 130.257812 C 159.125 130.632812 158.976562 130.988281 158.976562 131.054688 C 158.976562 131.117188 158.847656 131.4375 158.691406 131.773438 C 158.535156 132.105469 158.328125 132.535156 158.242188 132.726562 C 158.164062 132.917969 158 133.238281 157.90625 133.429688 C 157.792969 133.617188 157.558594 134.09375 157.375 134.476562 C 157.1875 134.867188 156.917969 135.367188 156.769531 135.59375 C 156.613281 135.828125 156.492188 136.070312 156.492188 136.164062 C 156.492188 136.242188 156.433594 136.371094 156.363281 136.441406 C 156.292969 136.511719 156.121094 136.769531 155.992188 137.023438 C 155.851562 137.273438 155.464844 137.914062 155.125 138.441406 C 154.777344 138.976562 154.492188 139.445312 154.492188 139.464844 C 154.492188 139.542969 153.714844 140.667969 153.453125 140.960938 C 153.316406 141.117188 153.195312 141.289062 153.195312 141.332031 C 153.195312 141.375 153.066406 141.566406 152.890625 141.742188 C 152.734375 141.921875 152.589844 142.105469 152.589844 142.136719 C 152.589844 142.191406 152.457031 142.371094 152.304688 142.546875 C 152.035156 142.847656 151.773438 143.175781 151.324219 143.816406 C 151.238281 143.957031 151.066406 144.15625 150.945312 144.277344 C 150.832031 144.390625 150.5625 144.71875 150.347656 145.003906 C 148.769531 147.074219 147.445312 148.476562 145.695312 149.914062 C 145.125 150.382812 144.527344 150.882812 144.363281 151.046875 C 144.207031 151.195312 144.042969 151.316406 144 151.316406 C 143.957031 151.316406 143.765625 151.453125 143.59375 151.617188 C 143.410156 151.792969 143.222656 151.921875 143.1875 151.921875 C 143.144531 151.921875 143.046875 151.984375 142.96875 152.0625 C 142.824219 152.207031 141.851562 152.882812 141.417969 153.117188 C 141.273438 153.195312 140.945312 153.402344 140.691406 153.585938 C 140.441406 153.757812 139.957031 154.042969 139.59375 154.214844 C 139.246094 154.390625 138.703125 154.65625 138.40625 154.8125 C 137.429688 155.324219 135.636719 155.886719 135.480469 155.722656 C 135.394531 155.636719 135.984375 155.210938 136.199219 155.210938 C 136.257812 155.210938 136.535156 155.054688 136.804688 154.867188 C 137.074219 154.675781 137.34375 154.519531 137.394531 154.519531 C 137.445312 154.519531 137.550781 154.457031 137.628906 154.390625 C 137.695312 154.320312 138.007812 154.105469 138.3125 153.914062 C 138.613281 153.714844 138.917969 153.480469 139.003906 153.394531 C 139.074219 153.289062 139.195312 153.222656 139.265625 153.222656 C 139.332031 153.222656 139.496094 153.109375 139.628906 152.988281 C 139.757812 152.855469 139.9375 152.710938 140.027344 152.65625 C 140.710938 152.277344 145.566406 147.417969 146.214844 146.476562 C 146.292969 146.355469 146.449219 146.164062 146.546875 146.050781 C 147.046875 145.496094 147.410156 145.046875 147.410156 144.996094 C 147.410156 144.925781 147.6875 144.5625 147.992188 144.257812 C 148.050781 144.191406 148.113281 144.105469 148.113281 144.050781 C 148.113281 144 148.242188 143.808594 148.414062 143.617188 C 148.570312 143.429688 148.703125 143.238281 148.71875 143.1875 C 148.71875 143.144531 148.875 142.882812 149.066406 142.613281 C 149.253906 142.347656 149.410156 142.085938 149.410156 142.035156 C 149.410156 141.984375 149.488281 141.863281 149.59375 141.757812 C 149.695312 141.652344 149.90625 141.308594 150.050781 140.996094 C 150.199219 140.683594 150.390625 140.371094 150.476562 140.304688 C 150.554688 140.242188 150.613281 140.128906 150.613281 140.0625 C 150.613281 139.992188 150.769531 139.652344 150.960938 139.308594 C 151.152344 138.96875 151.308594 138.65625 151.308594 138.625 C 151.308594 138.582031 151.4375 138.285156 151.59375 137.957031 C 152.050781 136.996094 152.605469 135.757812 152.605469 135.671875 C 152.605469 135.617188 152.734375 135.222656 152.890625 134.769531 C 153.59375 132.789062 154.425781 129.800781 154.546875 128.8125 C 154.570312 128.5625 154.667969 128.027344 154.753906 127.609375 C 154.960938 126.582031 155.160156 124.976562 155.324219 122.960938 C 155.507812 120.613281 155.472656 111.097656 155.265625 104.855469 C 155.089844 99.886719 155.046875 99.160156 154.753906 97.109375 C 154.648438 96.476562 154.546875 95.617188 154.503906 95.210938 C 154.425781 94.449219 154.15625 93.082031 154.0625 92.925781 C 154.035156 92.875 153.957031 92.546875 153.914062 92.171875 C 153.863281 91.808594 153.679688 91.054688 153.507812 90.492188 C 153.332031 89.921875 153.066406 89.011719 152.902344 88.46875 C 152.726562 87.914062 152.457031 87.125 152.292969 86.71875 C 152.136719 86.3125 151.957031 85.816406 151.894531 85.636719 C 151.84375 85.445312 151.695312 85.097656 151.558594 84.847656 C 151.429688 84.597656 151.316406 84.320312 151.308594 84.226562 C 151.308594 84.136719 151.222656 83.9375 151.109375 83.765625 C 151.003906 83.609375 150.847656 83.308594 150.761719 83.117188 C 150.675781 82.925781 150.546875 82.65625 150.457031 82.519531 C 150.390625 82.382812 150.191406 82 150.015625 81.671875 C 149.585938 80.839844 149.417969 80.554688 149.039062 79.992188 C 148.867188 79.730469 148.71875 79.472656 148.71875 79.410156 C 148.71875 79.359375 148.640625 79.238281 148.535156 79.144531 C 148.449219 79.054688 148.25 78.761719 148.09375 78.519531 C 147.957031 78.269531 147.730469 77.964844 147.628906 77.851562 C 147.507812 77.730469 147.417969 77.59375 147.417969 77.550781 C 147.417969 77.507812 147.289062 77.316406 147.144531 77.125 C 146.996094 76.933594 146.5625 76.398438 146.183594 75.921875 C 145.800781 75.453125 145.351562 74.902344 145.167969 74.710938 C 144.128906 73.59375 142.847656 72.363281 142.015625 71.671875 C 141.496094 71.230469 141.046875 70.847656 141.011719 70.8125 C 140.988281 70.769531 140.8125 70.667969 140.640625 70.570312 C 140.457031 70.484375 140.3125 70.371094 140.3125 70.320312 C 140.3125 70.277344 140.191406 70.183594 140.042969 70.105469 C 139.886719 70.027344 139.671875 69.886719 139.566406 69.785156 C 139.453125 69.679688 139.238281 69.523438 139.066406 69.445312 C 138.910156 69.359375 138.613281 69.160156 138.433594 69.003906 C 138.25 68.847656 138.0625 68.71875 138 68.71875 C 137.9375 68.71875 137.695312 68.589844 137.464844 68.414062 C 137.222656 68.257812 136.988281 68.113281 136.945312 68.113281 C 136.890625 68.113281 136.675781 67.984375 136.449219 67.835938 C 136.242188 67.679688 135.894531 67.488281 135.714844 67.410156 C 135.523438 67.332031 135.222656 67.167969 135.054688 67.039062 C 134.882812 66.910156 134.691406 66.804688 134.632812 66.804688 C 134.5625 66.804688 134.199219 66.648438 133.816406 66.457031 C 133.445312 66.269531 133.089844 66.113281 133.039062 66.113281 C 132.976562 66.113281 132.734375 66 132.484375 65.871094 C 132.242188 65.742188 131.773438 65.558594 131.453125 65.464844 C 131.132812 65.375 130.640625 65.195312 130.371094 65.054688 C 130.09375 64.925781 129.792969 64.8125 129.6875 64.8125 C 129.601562 64.8125 129.152344 64.683594 128.683594 64.527344 C 128.226562 64.371094 127.644531 64.207031 127.402344 64.183594 C 127.152344 64.136719 126.71875 64.042969 126.449219 63.964844 C 126.171875 63.886719 125.785156 63.773438 125.59375 63.714844 C 125.246094 63.628906 122.910156 63.289062 121.289062 63.109375 C 120.199219 62.988281 115.914062 62.988281 114.734375 63.109375 C 111.894531 63.410156 109.429688 63.863281 107.636719 64.40625 C 107.367188 64.484375 106.777344 64.65625 106.335938 64.777344 C 105.117188 65.125 103.367188 65.757812 102.867188 66.027344 C 102.761719 66.085938 102.625 66.128906 102.554688 66.128906 C 102.484375 66.128906 102.105469 66.285156 101.714844 66.476562 C 101.324219 66.667969 100.976562 66.824219 100.933594 66.824219 C 100.875 66.824219 99.28125 67.550781 98.933594 67.742188 C 98.824219 67.808594 98.269531 68.105469 97.6875 68.398438 C 96.382812 69.066406 95.402344 69.617188 95.089844 69.835938 C 94.953125 69.9375 94.804688 70.015625 94.753906 70.015625 C 94.703125 70.015625 94.582031 70.078125 94.503906 70.15625 C 94.414062 70.234375 94.09375 70.425781 93.792969 70.582031 C 93.488281 70.726562 93.222656 70.882812 93.195312 70.917969 C 93.167969 70.960938 92.875 71.132812 92.546875 71.316406 C 92.214844 71.496094 91.886719 71.707031 91.816406 71.785156 C 91.75 71.851562 91.636719 71.914062 91.585938 71.914062 C 91.464844 71.914062 90.65625 72.433594 90.613281 72.546875 C 90.597656 72.589844 90.511719 72.613281 90.433594 72.613281 C 90.363281 72.613281 90.105469 72.746094 89.871094 72.890625 C 88.648438 73.707031 88.320312 73.914062 88.257812 73.914062 C 88.214844 73.914062 88.007812 74.035156 87.792969 74.171875 C 87.574219 74.3125 87.273438 74.511719 87.109375 74.605469 C 86.65625 74.855469 86.199219 75.132812 85.671875 75.496094 C 85.394531 75.671875 85.132812 75.816406 85.074219 75.816406 C 84.960938 75.816406 84.257812 76.328125 84.214844 76.449219 C 84.199219 76.492188 84.105469 76.519531 84.007812 76.519531 C 83.921875 76.519531 83.6875 76.648438 83.496094 76.824219 C 83.308594 76.976562 83.109375 77.109375 83.066406 77.125 C 83.011719 77.125 82.789062 77.265625 82.546875 77.429688 C 82.304688 77.601562 82.078125 77.730469 82.027344 77.730469 C 81.972656 77.730469 81.785156 77.863281 81.59375 78.015625 C 81.402344 78.164062 81.117188 78.363281 80.945312 78.457031 C 80.789062 78.535156 80.546875 78.710938 80.425781 78.824219 C 80.304688 78.945312 80.136719 79.03125 80.050781 79.03125 C 79.972656 79.03125 79.871094 79.082031 79.84375 79.132812 C 79.765625 79.265625 78.320312 80.335938 78.226562 80.335938 C 78.183594 80.335938 78.007812 80.476562 77.835938 80.648438 C 77.652344 80.824219 77.429688 81.011719 77.316406 81.082031 C 77.011719 81.253906 75.742188 82.25 75.195312 82.746094 C 75.039062 82.882812 74.726562 83.152344 74.492188 83.34375 C 73.808594 83.921875 71.894531 85.816406 71.894531 85.921875 C 71.894531 85.972656 71.785156 86.09375 71.644531 86.183594 C 71.507812 86.285156 71.34375 86.457031 71.296875 86.605469 C 71.246094 86.734375 71.167969 86.847656 71.117188 86.847656 C 71.074219 86.847656 70.710938 87.28125 70.292969 87.800781 C 69.886719 88.320312 69.515625 88.753906 69.472656 88.753906 C 69.417969 88.753906 69.394531 88.804688 69.394531 88.855469 C 69.394531 88.917969 69.132812 89.324219 68.824219 89.765625 C 68.503906 90.214844 68.199219 90.648438 68.136719 90.734375 C 68.085938 90.839844 67.886719 91.117188 67.707031 91.367188 C 67.53125 91.628906 67.386719 91.871094 67.386719 91.894531 C 67.386719 91.9375 67.265625 92.148438 67.117188 92.390625 C 66.5625 93.246094 65.488281 95.351562 65.488281 95.542969 C 65.488281 95.628906 65.429688 95.773438 65.359375 95.851562 C 65.175781 96.085938 64.347656 98.0625 64.085938 98.910156 C 64.015625 99.125 63.90625 99.445312 63.835938 99.609375 C 63.523438 100.371094 63.488281 100.476562 63.488281 100.65625 C 63.488281 100.875 63.125 102.105469 62.976562 102.382812 C 62.925781 102.484375 62.890625 102.703125 62.890625 102.875 C 62.890625 103.054688 62.847656 103.351562 62.804688 103.558594 C 62.503906 104.675781 62.40625 105.175781 62.355469 105.714844 C 62.3125 106.09375 62.335938 106.242188 62.382812 106.113281 C 62.570312 105.6875 62.625 106.285156 62.503906 107.351562 C 62.171875 110.328125 62.121094 113.011719 62.390625 114.5625 C 62.441406 114.867188 62.527344 116.085938 62.589844 117.265625 C 62.675781 119.246094 62.746094 119.730469 63.1875 121.921875 C 63.246094 122.199219 63.402344 122.71875 63.53125 123.074219 C 63.671875 123.410156 63.785156 123.785156 63.785156 123.871094 C 63.785156 124.050781 64.257812 125.222656 64.789062 126.3125 C 64.933594 126.640625 65.125 127.074219 65.195312 127.265625 C 65.265625 127.453125 65.523438 127.992188 65.773438 128.46875 C 66.015625 128.933594 66.292969 129.480469 66.398438 129.671875 C 66.503906 129.863281 66.683594 130.171875 66.832031 130.363281 C 66.96875 130.554688 67.089844 130.789062 67.089844 130.875 C 67.089844 130.953125 67.222656 131.1875 67.375 131.375 C 67.523438 131.566406 67.6875 131.828125 67.722656 131.9375 C 67.765625 132.0625 67.878906 132.257812 67.992188 132.390625 C 68.113281 132.519531 68.355469 132.855469 68.546875 133.144531 C 68.734375 133.417969 69.066406 133.863281 69.28125 134.113281 C 69.496094 134.363281 69.679688 134.605469 69.679688 134.667969 C 69.679688 134.71875 69.800781 134.902344 69.957031 135.054688 C 70.105469 135.230469 70.363281 135.523438 70.527344 135.75 C 71.429688 136.902344 73.507812 138.976562 74.675781 139.886719 C 74.917969 140.078125 75.238281 140.355469 75.386719 140.519531 C 75.53125 140.667969 75.695312 140.789062 75.75 140.789062 C 75.800781 140.789062 75.964844 140.925781 76.128906 141.089844 C 76.285156 141.265625 76.46875 141.394531 76.535156 141.394531 C 76.605469 141.394531 76.710938 141.453125 76.746094 141.53125 C 76.789062 141.601562 77.054688 141.816406 77.332031 142 C 78.347656 142.667969 79.023438 143.132812 79.074219 143.1875 C 79.097656 143.230469 79.28125 143.332031 79.472656 143.445312 C 79.664062 143.550781 79.90625 143.695312 80 143.773438 C 80.191406 143.929688 80.363281 144.035156 80.976562 144.371094 C 81.402344 144.589844 82.519531 145.289062 83.089844 145.6875 C 83.238281 145.800781 83.410156 145.878906 83.464844 145.878906 C 83.523438 145.878906 83.808594 146.035156 84.113281 146.226562 C 84.414062 146.414062 84.691406 146.570312 84.734375 146.570312 C 84.777344 146.570312 85.097656 146.710938 85.445312 146.875 C 85.785156 147.046875 86.148438 147.175781 86.226562 147.175781 C 86.371094 147.175781 86.625 147.265625 87.453125 147.636719 C 87.742188 147.765625 88.042969 147.878906 88.136719 147.878906 C 88.285156 147.878906 88.902344 148.269531 88.960938 148.40625 C 88.976562 148.449219 89.074219 148.476562 89.160156 148.476562 C 89.265625 148.476562 89.566406 148.632812 89.851562 148.824219 C 90.136719 149.011719 90.441406 149.167969 90.519531 149.167969 C 90.597656 149.167969 90.726562 149.238281 90.804688 149.316406 C 90.882812 149.394531 91.210938 149.59375 91.53125 149.757812 C 92.710938 150.355469 92.824219 150.414062 92.875 150.46875 C 92.902344 150.492188 93.046875 150.582031 93.203125 150.640625 C 93.351562 150.710938 93.472656 150.8125 93.472656 150.855469 C 93.472656 150.910156 93.628906 150.976562 93.835938 151.003906 C 94.027344 151.046875 94.214844 151.144531 94.242188 151.222656 C 94.269531 151.289062 94.382812 151.359375 94.484375 151.359375 C 94.597656 151.359375 94.703125 151.429688 94.734375 151.507812 C 94.777344 151.585938 94.910156 151.652344 95.039062 151.652344 C 95.1875 151.652344 95.28125 151.714844 95.28125 151.800781 C 95.28125 151.878906 95.203125 151.949219 95.109375 151.949219 C 95.003906 151.949219 95.160156 152.09375 95.445312 152.292969 C 95.730469 152.484375 96.035156 152.640625 96.128906 152.640625 C 96.214844 152.640625 96.441406 152.753906 96.625 152.890625 C 96.804688 153.03125 97.097656 153.195312 97.289062 153.253906 C 97.480469 153.324219 97.695312 153.429688 97.785156 153.496094 C 97.863281 153.566406 98.035156 153.652344 98.164062 153.6875 C 98.285156 153.730469 98.382812 153.808594 98.382812 153.863281 C 98.382812 153.914062 98.449219 153.949219 98.527344 153.949219 C 98.613281 153.949219 99.160156 154.183594 99.730469 154.449219 C 100.304688 154.726562 100.824219 154.953125 100.882812 154.953125 C 100.933594 154.953125 100.988281 154.996094 100.988281 155.03125 C 100.988281 155.082031 101.175781 155.175781 101.417969 155.238281 C 101.652344 155.308594 102.078125 155.480469 102.371094 155.609375 C 102.65625 155.742188 102.945312 155.851562 102.976562 155.851562 C 103.03125 155.851562 103.359375 155.984375 103.707031 156.136719 C 104.070312 156.292969 104.503906 156.457031 104.691406 156.503906 C 104.882812 156.546875 105.296875 156.710938 105.617188 156.867188 C 105.949219 157.023438 106.277344 157.152344 106.347656 157.152344 C 106.414062 157.152344 106.746094 157.289062 107.074219 157.453125 C 107.402344 157.628906 107.714844 157.757812 107.765625 157.757812 C 107.949219 157.757812 110.371094 158.96875 110.371094 159.046875 C 110.371094 159.167969 109.472656 159.359375 109.039062 159.351562 C 108.855469 159.34375 108.335938 159.273438 107.871094 159.195312 Z M 94.882812 151.863281 C 94.867188 151.851562 94.625 151.707031 94.347656 151.542969 C 94.027344 151.359375 93.894531 151.324219 93.984375 151.429688 C 94.050781 151.515625 94.171875 151.601562 94.242188 151.601562 C 94.3125 151.601562 94.425781 151.671875 94.492188 151.75 C 94.5625 151.828125 94.683594 151.894531 94.769531 151.894531 C 94.847656 151.894531 94.902344 151.878906 94.882812 151.851562 Z M 93.246094 150.953125 C 92.925781 150.753906 92.648438 150.613281 92.625 150.640625 C 92.554688 150.703125 93.53125 151.28125 93.730469 151.289062 C 93.792969 151.296875 93.574219 151.144531 93.238281 150.953125 Z M 92.484375 150.570312 C 92.328125 150.449219 91.695312 150.121094 91.695312 150.148438 C 91.695312 150.214844 92.328125 150.597656 92.433594 150.597656 C 92.484375 150.597656 92.503906 150.589844 92.484375 150.570312 Z M 62.199219 108.0625 C 62.199219 107.800781 62.136719 107.878906 62.0625 108.25 C 62.007812 108.46875 62.015625 108.511719 62.105469 108.398438 C 62.15625 108.320312 62.207031 108.15625 62.207031 108.0625 Z M 62.199219 108.0625 "/>
<path style=" stroke:none;fill-rule:nonzero;fill:rgb(33.333333%,77.647059%,27.058824%);fill-opacity:1;" d="M 109.445312 154.910156 C 109.230469 154.855469 108.46875 154.769531 107.75 154.710938 C 105.011719 154.46875 104.519531 154.40625 103.601562 154.199219 C 103.082031 154.078125 102.433594 153.9375 102.15625 153.894531 C 101.886719 153.84375 101.34375 153.722656 100.953125 153.617188 C 100.570312 153.507812 100.035156 153.367188 99.75 153.296875 C 97.695312 152.804688 94.882812 151.835938 93.878906 151.289062 C 92.839844 150.71875 91.90625 150.25 91.125 149.894531 C 90.839844 149.765625 90.597656 149.628906 90.597656 149.574219 C 90.597656 149.53125 90.476562 149.464844 90.328125 149.4375 C 90.171875 149.394531 89.828125 149.222656 89.550781 149.03125 C 89.28125 148.847656 88.976562 148.703125 88.882812 148.703125 C 88.796875 148.703125 88.703125 148.675781 88.683594 148.632812 C 88.625 148.492188 88.015625 148.105469 87.863281 148.105469 C 87.773438 148.105469 87.472656 147.992188 87.175781 147.863281 C 86.347656 147.488281 86.09375 147.402344 85.949219 147.402344 C 85.871094 147.402344 85.507812 147.273438 85.167969 147.097656 C 84.824219 146.945312 84.503906 146.796875 84.457031 146.796875 C 84.414062 146.796875 84.136719 146.640625 83.835938 146.449219 C 83.53125 146.257812 83.246094 146.105469 83.1875 146.105469 C 83.132812 146.105469 82.96875 146.027344 82.8125 145.914062 C 82.242188 145.515625 81.125 144.8125 80.703125 144.597656 C 80.078125 144.257812 79.914062 144.15625 79.722656 144 C 79.617188 143.921875 79.386719 143.765625 79.195312 143.671875 C 79.003906 143.558594 78.824219 143.453125 78.796875 143.410156 C 78.746094 143.351562 78.070312 142.890625 77.054688 142.226562 C 76.777344 142.042969 76.503906 141.828125 76.46875 141.757812 C 76.425781 141.679688 76.328125 141.617188 76.257812 141.617188 C 76.191406 141.617188 76.007812 141.488281 75.851562 141.316406 C 75.695312 141.160156 75.523438 141.011719 75.472656 141.011719 C 75.417969 141.011719 75.265625 140.890625 75.109375 140.746094 C 74.960938 140.589844 74.640625 140.304688 74.398438 140.113281 C 73.230469 139.203125 71.152344 137.125 70.25 135.972656 C 70.09375 135.757812 69.828125 135.453125 69.679688 135.28125 C 69.523438 135.125 69.402344 134.945312 69.402344 134.890625 C 69.402344 134.832031 69.222656 134.589844 69.003906 134.335938 C 68.789062 134.085938 68.449219 133.644531 68.269531 133.367188 C 68.078125 133.089844 67.835938 132.746094 67.714844 132.613281 C 67.601562 132.484375 67.480469 132.285156 67.445312 132.164062 C 67.402344 132.050781 67.246094 131.792969 67.097656 131.601562 C 66.945312 131.410156 66.8125 131.175781 66.8125 131.097656 C 66.8125 131.011719 66.691406 130.777344 66.554688 130.589844 C 66.414062 130.398438 66.226562 130.085938 66.121094 129.894531 C 66.015625 129.707031 65.742188 129.167969 65.496094 128.691406 C 65.246094 128.226562 64.988281 127.679688 64.917969 127.488281 C 64.847656 127.296875 64.65625 126.867188 64.511719 126.535156 C 63.992188 125.445312 63.507812 124.277344 63.507812 124.09375 C 63.507812 124.007812 63.394531 123.636719 63.253906 123.296875 C 63.125 122.953125 62.96875 122.433594 62.910156 122.148438 C 62.46875 119.964844 62.398438 119.464844 62.3125 117.542969 C 62.257812 116.390625 62.164062 115.132812 62.105469 114.753906 C 62.042969 114.371094 61.984375 113.089844 61.972656 111.90625 C 61.964844 109.964844 62 109.089844 62.164062 107.992188 C 62.191406 107.800781 62.242188 107.351562 62.277344 106.988281 C 62.328125 106.304688 62.675781 104.910156 62.832031 104.746094 C 62.882812 104.683594 62.917969 104.5625 62.917969 104.46875 C 62.917969 104.363281 63.046875 104.015625 63.222656 103.6875 C 63.375 103.359375 63.523438 103.03125 63.523438 102.953125 C 63.523438 102.875 63.679688 102.582031 63.871094 102.292969 C 64.0625 102.007812 64.214844 101.757812 64.214844 101.722656 C 64.214844 101.695312 64.476562 101.351562 64.796875 100.960938 C 65.109375 100.5625 65.445312 100.121094 65.53125 99.984375 C 65.765625 99.609375 68.703125 96.691406 68.839844 96.691406 C 68.902344 96.691406 69.316406 97.074219 69.785156 97.53125 L 70.625 98.371094 L 70.46875 98.753906 C 70.085938 99.617188 69.574219 101.082031 69.453125 101.644531 C 69.386719 101.972656 69.253906 102.492188 69.167969 102.796875 C 68.511719 105.1875 68.320312 106.753906 68.320312 109.816406 C 68.320312 112.136719 68.347656 112.648438 68.582031 114.148438 C 68.8125 115.671875 69.117188 116.933594 69.59375 118.292969 C 70.050781 119.636719 70.234375 120.105469 70.519531 120.746094 C 71.144531 122.113281 71.464844 122.746094 71.6875 123.054688 C 71.816406 123.230469 71.921875 123.394531 71.921875 123.4375 C 71.921875 123.480469 72.078125 123.75 72.269531 124.035156 C 72.457031 124.320312 72.613281 124.613281 72.613281 124.683594 C 72.613281 124.746094 72.65625 124.796875 72.703125 124.796875 C 72.746094 124.796875 72.953125 125.046875 73.152344 125.351562 C 73.351562 125.664062 73.609375 125.984375 73.714844 126.078125 C 73.828125 126.164062 73.914062 126.292969 73.914062 126.355469 C 73.914062 126.425781 74.027344 126.5625 74.164062 126.675781 C 74.292969 126.789062 74.46875 126.988281 74.527344 127.132812 C 74.597656 127.273438 74.710938 127.394531 74.777344 127.394531 C 74.847656 127.394531 75.03125 127.550781 75.175781 127.742188 C 75.316406 127.929688 75.496094 128.085938 75.574219 128.085938 C 75.644531 128.085938 75.757812 128.164062 75.808594 128.269531 C 75.863281 128.355469 76.171875 128.613281 76.511719 128.839844 C 76.839844 129.054688 77.117188 129.273438 77.117188 129.316406 C 77.117188 129.359375 77.175781 129.386719 77.246094 129.386719 C 77.316406 129.386719 77.464844 129.464844 77.574219 129.566406 C 77.679688 129.671875 78.027344 129.894531 78.355469 130.085938 C 78.675781 130.277344 79.054688 130.511719 79.203125 130.597656 C 80.234375 131.203125 83.308594 132.589844 83.636719 132.589844 C 83.742188 132.589844 84.171875 132.726562 84.640625 132.890625 C 85.089844 133.066406 85.550781 133.195312 85.671875 133.195312 C 85.792969 133.195312 86.226562 133.28125 86.632812 133.386719 C 88.121094 133.765625 89.429688 133.894531 91.800781 133.894531 C 94.0625 133.894531 94.988281 133.808594 96.570312 133.445312 C 96.960938 133.367188 97.496094 133.246094 97.773438 133.195312 C 98.40625 133.066406 99.628906 132.667969 100.726562 132.226562 C 101.765625 131.800781 103.453125 130.996094 103.523438 130.882812 C 103.550781 130.832031 103.730469 130.734375 103.921875 130.648438 C 104.113281 130.570312 104.433594 130.382812 104.640625 130.214844 C 104.839844 130.070312 105.152344 129.84375 105.332031 129.742188 C 106.121094 129.265625 106.371094 129.046875 107.253906 128.136719 C 107.914062 127.472656 108.726562 126.390625 108.726562 126.199219 C 108.726562 126.148438 108.753906 126.085938 108.804688 126.070312 C 108.945312 126.007812 109.429688 125.296875 109.429688 125.152344 C 109.429688 125.074219 109.472656 124.96875 109.53125 124.945312 C 109.636719 124.882812 110.632812 122.917969 110.632812 122.769531 C 110.632812 122.71875 110.71875 122.492188 110.824219 122.257812 C 111.386719 121.011719 111.828125 119.273438 112.035156 117.464844 C 112.285156 115.308594 112.285156 114.09375 112.035156 111.921875 C 111.792969 109.835938 111.308594 107.785156 110.414062 105.238281 C 110.304688 104.910156 110.164062 104.457031 110.105469 104.234375 C 110.050781 104.015625 109.871094 103.480469 109.722656 103.054688 C 109.566406 102.625 109.4375 102.199219 109.4375 102.113281 C 109.4375 102.035156 109.375 101.828125 109.296875 101.652344 C 108.953125 100.855469 108.734375 100.285156 108.734375 100.15625 C 108.734375 100.070312 108.597656 99.707031 108.433594 99.332031 C 108.277344 98.960938 108.128906 98.605469 108.128906 98.519531 C 108.128906 98.171875 106.242188 94.441406 105.757812 93.828125 C 105.628906 93.679688 105.523438 93.488281 105.523438 93.417969 C 105.523438 93.351562 105.464844 93.246094 105.394531 93.210938 C 105.316406 93.167969 105.125 92.945312 104.953125 92.710938 C 104.777344 92.476562 104.519531 92.136719 104.363281 91.957031 C 104.0625 91.617188 102.789062 90.582031 102.667969 90.582031 C 102.640625 90.582031 102.449219 90.449219 102.257812 90.277344 C 102.078125 90.121094 101.878906 89.972656 101.816406 89.972656 C 101.707031 89.972656 101.097656 89.566406 101.046875 89.453125 C 101.03125 89.402344 100.945312 89.375 100.855469 89.375 C 100.777344 89.375 100.433594 89.222656 100.121094 89.03125 C 99.792969 88.839844 99.480469 88.683594 99.417969 88.683594 C 99.367188 88.683594 99.054688 88.554688 98.726562 88.382812 C 98.398438 88.226562 98.078125 88.078125 98 88.078125 C 97.929688 88.078125 97.550781 87.921875 97.160156 87.730469 C 96.769531 87.542969 96.398438 87.386719 96.328125 87.386719 C 96.269531 87.386719 95.964844 87.273438 95.679688 87.132812 C 95.375 87.003906 95.011719 86.867188 94.855469 86.824219 C 93.558594 86.535156 93.324219 86.398438 92.46875 85.53125 C 91.992188 85.054688 91.628906 84.589844 91.628906 84.484375 C 91.628906 84.371094 91.992188 83.914062 92.46875 83.4375 C 93.265625 82.625 93.332031 82.589844 93.992188 82.425781 C 94.824219 82.226562 97.480469 82.191406 98.632812 82.371094 C 101.28125 82.777344 103.636719 83.28125 105.332031 83.792969 C 105.851562 83.9375 106.425781 84.105469 106.582031 84.128906 C 107.003906 84.214844 108.71875 84.753906 109.730469 85.097656 C 110.199219 85.273438 110.761719 85.4375 110.976562 85.480469 C 111.195312 85.523438 111.628906 85.652344 111.929688 85.765625 C 112.234375 85.886719 112.648438 86.027344 112.882812 86.078125 C 113.097656 86.121094 113.601562 86.277344 113.984375 86.425781 C 114.371094 86.570312 114.867188 86.734375 115.082031 86.769531 C 115.296875 86.824219 115.773438 86.96875 116.121094 87.109375 C 116.484375 87.253906 116.832031 87.367188 116.902344 87.367188 C 117.054688 87.367188 118.710938 87.972656 119.664062 88.382812 C 120.035156 88.535156 120.398438 88.667969 120.484375 88.667969 C 120.726562 88.667969 124.824219 90.640625 125.410156 91.039062 C 125.59375 91.167969 125.785156 91.273438 125.84375 91.273438 C 125.894531 91.273438 126.0625 91.351562 126.214844 91.453125 C 127.359375 92.226562 127.929688 92.570312 128.015625 92.570312 C 128.085938 92.570312 128.136719 92.597656 128.136719 92.648438 C 128.136719 92.691406 128.425781 92.917969 128.789062 93.160156 C 129.152344 93.402344 129.4375 93.628906 129.4375 93.671875 C 129.4375 93.722656 129.515625 93.785156 129.628906 93.816406 C 129.730469 93.84375 129.929688 93.972656 130.0625 94.09375 C 130.199219 94.214844 130.527344 94.492188 130.796875 94.703125 C 131.066406 94.917969 132.492188 96.320312 133.964844 97.800781 C 136.761719 100.640625 137.132812 101.023438 137.132812 101.152344 C 137.132812 101.195312 137.273438 101.351562 137.4375 101.515625 C 137.609375 101.671875 137.742188 101.851562 137.742188 101.921875 C 137.742188 101.984375 137.808594 102.105469 137.894531 102.171875 C 138.035156 102.292969 138.71875 103.210938 138.988281 103.652344 C 139.039062 103.742188 139.230469 104.042969 139.410156 104.335938 C 139.59375 104.613281 139.742188 104.890625 139.742188 104.925781 C 139.742188 104.96875 139.851562 105.132812 139.984375 105.308594 C 140.226562 105.628906 141.558594 108.328125 141.695312 108.769531 C 141.742188 108.910156 141.894531 109.296875 142.0625 109.652344 C 142.214844 110 142.347656 110.355469 142.347656 110.425781 C 142.347656 110.503906 142.46875 110.875 142.605469 111.246094 C 142.753906 111.628906 142.910156 112.105469 142.945312 112.328125 C 142.988281 112.546875 143.117188 113.089844 143.246094 113.53125 C 143.367188 113.972656 143.507812 114.605469 143.550781 114.933594 C 143.601562 115.265625 143.707031 115.949219 143.792969 116.433594 C 143.871094 116.933594 144.007812 118.09375 144.113281 119.023438 C 144.257812 120.613281 144.257812 120.824219 144.105469 122.675781 C 144.015625 123.757812 143.863281 124.996094 143.785156 125.4375 C 143.707031 125.878906 143.609375 126.441406 143.59375 126.683594 C 143.53125 127.246094 143.039062 129.195312 142.632812 130.535156 C 142.269531 131.714844 141.410156 133.835938 140.804688 135.089844 C 140.527344 135.664062 139.453125 137.515625 139.265625 137.757812 C 139.144531 137.894531 139.054688 138.0625 139.054688 138.105469 C 139.054688 138.164062 138.925781 138.371094 138.753906 138.582031 C 138.597656 138.789062 138.449219 139.003906 138.449219 139.039062 C 138.449219 139.089844 138.292969 139.308594 138.105469 139.515625 C 137.914062 139.730469 137.757812 139.957031 137.757812 140.007812 C 137.757812 140.0625 137.644531 140.214844 137.515625 140.355469 C 137.386719 140.503906 136.867188 141.089844 136.371094 141.671875 C 134.519531 143.828125 129.402344 148.667969 128.976562 148.667969 C 128.917969 148.667969 128.796875 148.753906 128.703125 148.867188 C 128.597656 148.976562 128.292969 149.203125 128.007812 149.386719 C 127.730469 149.566406 127.4375 149.765625 127.367188 149.835938 C 127.296875 149.90625 127.195312 149.964844 127.152344 149.964844 C 127.097656 149.964844 126.867188 150.105469 126.625 150.269531 C 126.371094 150.441406 126.148438 150.570312 126.09375 150.570312 C 126.050781 150.570312 125.886719 150.675781 125.714844 150.804688 C 125.542969 150.933594 125.023438 151.230469 124.554688 151.445312 C 122.625 152.371094 122.183594 152.582031 122.085938 152.582031 C 122.027344 152.582031 121.679688 152.71875 121.308594 152.882812 C 120.933594 153.054688 120.570312 153.1875 120.484375 153.1875 C 120.398438 153.1875 119.878906 153.332031 119.316406 153.523438 C 118.753906 153.707031 118.035156 153.914062 117.707031 153.984375 C 117.375 154.042969 116.726562 154.183594 116.257812 154.285156 C 115.792969 154.371094 114.777344 154.519531 114.007812 154.589844 C 113.238281 154.648438 112.292969 154.746094 111.90625 154.796875 C 110.8125 154.945312 109.949219 154.988281 109.507812 154.902344 Z M 109.445312 154.910156 "/>
</g>
</svg>
