<?xml version="1.0" encoding="utf-8"?>
<!DOCTYPE svg PUBLIC "-//W3C//DTD SVG 20010904//EN" "http://www.w3.org/TR/2001/REC-SVG-20010904/DTD/svg10.dtd">
<svg version="1.0" xmlns="http://www.w3.org/2000/svg" width="2548px" height="488px" viewBox="0 0 2548 488" preserveAspectRatio="xMidYMid meet">
 <g fill="#ffffff">
  <path d="M1128.7 486.9 c-10.8 -1.1 -21.4 -4.2 -30.5 -8.8 -9.4 -4.8 -19.6 -12.7 -18.6 -14.4 0.8 -1.2 10.5 -15.9 11 -16.5 0.1 -0.2 3.3 2 7.1 4.9 13 10 24.6 13.9 41.3 13.9 11.4 0 17.9 -1.4 26.4 -5.7 9.7 -4.9 20.8 -17.8 28.3 -32.8 5 -10 17.3 -38.2 17.3 -39.6 0 -0.8 -26.3 -59.4 -58.4 -130.4 l-58.3 -129 12.6 -0.3 c6.9 -0.1 12.7 0.1 12.9 0.5 1.7 4.8 104.1 232.5 104.6 232.6 0.5 0.1 102.7 -226.6 104.8 -232.6 0.2 -0.4 5.8 -0.6 12.4 -0.5 l12.1 0.3 -69.7 154.3 c-38.4 84.9 -72 157.9 -74.6 162.4 -9.8 16.2 -21.6 27.8 -34.9 34.4 -13 6.3 -29.7 9 -45.8 7.3z"/>
  <path d="M1406 390.7 c-20.9 -4.6 -32.1 -26.8 -23.6 -47.1 2.3 -5.5 10.9 -14.1 16.9 -16.7 4.1 -1.9 7 -2.4 13.7 -2.4 10 0 15.4 2 22.3 8.4 10 9.3 13.1 25.8 7.2 38.9 -6.4 14.3 -21.6 22.1 -36.5 18.9z"/>
  <path d="M400.4 390 c-28.2 -2.3 -51.9 -12.9 -68.6 -30.9 -8.9 -9.6 -15 -20 -19.4 -32.9 -6.8 -20.1 -6.7 -19.6 -7.2 -113.5 l-0.3 -84.7 12.5 0 12.6 0 0 82.9 c0 89.5 0.1 91.2 5.4 107 4.1 11.8 9.1 19.8 18 28.6 9.8 9.7 20 15.4 34.4 19.2 8.5 2.2 11.9 2.6 26.7 2.7 13 0.1 19 -0.3 25.5 -1.7 35.9 -7.7 60.5 -33 69.3 -71.2 2 -8.6 2.1 -12.4 2.4 -88.2 l0.4 -79.3 11.9 0 12 0 0 130.5 0 130.5 -11.5 0 -11.5 0 -0.2 -28.2 -0.3 -28.2 -4.7 8 c-20.8 35.5 -59.2 53.2 -107.4 49.4z"/>
  <path d="M2419.5 389.9 c-53.2 -4.3 -96.3 -36.6 -112.8 -84.4 -6 -17.4 -7.2 -25.5 -7.1 -47.5 0 -21.7 1.6 -31.9 7.5 -48.7 10.5 -29.7 30.9 -54.2 56.9 -68.2 20.9 -11.2 45.3 -16.1 70.5 -14.1 28.7 2.4 52.9 13.1 73.2 32.4 18.9 18 31.4 40.7 36.7 66.9 1.9 9.2 3.6 28.7 2.9 34 l-0.5 3.7 -111.9 0 -111.9 0 0 5.6 c0 15.2 7.4 37.8 17.2 52.5 19.2 28.8 49.5 44.9 87.8 46.6 33 1.5 61.6 -8.5 82.3 -28.8 l6.9 -6.7 3.7 4.2 c2.1 2.2 5.2 5.7 6.9 7.7 l3.2 3.6 -8.5 8.2 c-25.5 24.5 -62.5 36.3 -103 33z m104 -151.6 c-3.1 -29.8 -19.5 -57.7 -43.5 -74 -7.4 -5 -18.4 -10.1 -27.7 -12.9 -7.4 -2.2 -11.4 -2.7 -24.9 -3.1 -17.2 -0.6 -26.1 0.6 -38.9 4.9 -33.6 11.5 -57.8 41.7 -64 80.1 -0.8 5.1 -1.5 9.8 -1.5 10.5 0 0.9 20.8 1.2 100.6 1.2 l100.6 0 -0.7 -6.7z"/>
  <path d="M0 214 l0 -175 117 0 117 0 0 11.5 0 11.5 -104.5 0 -104.5 0 0 75 0 75 93.5 0 93.5 0 0 11 0 11 -93.5 0 -93.5 0 0 77.5 0 77.5 -12.5 0 -12.5 0 0 -175z"/>
  <path d="M611 380.9 l0 -8 85.7 -110.9 c47.2 -61.1 85.9 -111.4 86.1 -112 0.3 -0.7 -27.5 -1 -84.2 -1 l-84.6 0 0 -10.5 0 -10.5 100.5 0 100.5 0 0 8.4 0 8.4 -86 110.8 c-47.3 61 -86 111.2 -86 111.7 0 0.4 39.4 0.7 87.5 0.7 l87.5 0 0 10.5 0 10.5 -103.5 0 -103.5 0 0 -8.1z"/>
  <path d="M863 380.9 l0 -8 85.7 -110.9 c47.2 -61.1 85.9 -111.4 86.1 -112 0.3 -0.7 -27.5 -1 -84.2 -1 l-84.6 0 0 -10.5 0 -10.5 100.5 0 100.5 0 0 8.4 0 8.4 -86 110.8 c-47.3 61 -86 111.2 -86 111.7 0 0.4 39.4 0.7 87.5 0.7 l87.5 0 0 10.5 0 10.5 -103.5 0 -103.5 0 0 -8.1z"/>
  <path d="M1990 258.5 l0 -130.5 12 0 12 0 0 28.8 0 28.7 2.8 -5 c20.8 -37.7 63 -57.7 112.5 -53.4 39.7 3.4 67.9 21.6 82.8 53.4 4.6 9.9 8.2 23 9.8 36 0.7 5.9 1.1 37.5 1.1 90.8 l0 81.7 -12 0 -12 0 0 -79.7 c0 -52.1 -0.4 -82.9 -1.1 -88.8 -3.7 -30 -17.6 -51.9 -39.9 -62.8 -18.3 -9 -39.6 -11.8 -63.3 -8.2 -39.2 5.9 -66.1 29.9 -76.5 68 l-2.7 10 -0.3 80.8 -0.3 80.7 -12.4 0 -12.5 0 0 -130.5z"/>
  <path d="M1718.5 355.3 c-18.6 -4.2 -71 -23.3 -85.4 -31.1 -24.7 -13.4 -45.1 -34.9 -54.9 -58.2 -5.1 -12.3 -5.8 -14.5 -7.6 -26.6 -3.4 -21.7 -0.9 -42.2 8.3 -69.4 16.1 -47.8 21.3 -59.7 32.8 -75.9 4.6 -6.4 13.8 -16.8 17.3 -19.6 1.4 -1.1 2.6 -2.3 2.8 -2.7 0.2 -0.4 4 -3.3 8.4 -6.4 22.2 -15.6 51.7 -23.6 75.8 -20.5 15.2 1.9 29.9 5.5 48.5 12 9.4 3.3 20.4 7.2 24.5 8.6 43.2 15.1 70.9 38.8 84.8 72.6 6 14.4 7.2 19.5 7.2 31.1 0 5.6 0.5 11 1 11.8 0.8 1.3 1 1.2 1 -0.4 0 -1.6 0.3 -1.7 1.2 -0.8 0.9 0.9 0.9 3.9 0 13.5 -1.9 19.3 -5.7 32.8 -21.1 75.7 -8.4 23.3 -24.2 51 -29.1 51 -1.3 0 -1.8 -0.5 -1.4 -1.5 1.2 -3 -1.2 -1.3 -4.8 3.4 -4 5.4 -15.8 15.3 -23 19.4 -2.7 1.6 -4.8 2.6 -4.8 2.4 0 -0.2 2.7 -2.5 6 -5 5.4 -4.3 18.7 -18.8 21.4 -23.5 0.6 -1.1 2.5 -4.4 4.3 -7.4 4.5 -7.5 10.1 -24.6 11.8 -35.8 1.7 -11.2 2 -50.4 0.5 -68 -2.8 -33 -14.7 -58.7 -34.8 -75.5 -8 -6.6 -22.7 -14.7 -31.7 -17.3 -14.7 -4.2 -18 -4.7 -31.5 -4.6 -11.7 0.1 -15 0.5 -25 3.2 -17.6 4.7 -28.7 10.3 -66.8 34.1 -4.8 3 -11.7 7.8 -15.4 10.7 -7 5.6 -18.2 17.6 -20.8 22.2 -0.9 1.5 -2.9 4.7 -4.5 7.2 -3.4 5.2 -6.6 13.7 -10.2 26.5 -2.1 7.6 -2.5 11.2 -2.6 22.8 0 12.3 0.7 17.5 2 14 0.9 -2.5 2.3 -1.2 2.2 2 0 1.7 -0.3 2.6 -0.6 2 -0.2 -0.7 -0.9 -1.3 -1.4 -1.3 -1.2 0 -1.2 4.7 0.1 5.5 0.6 0.3 1 -0.1 1 -1 0 -3.3 1.8 -0.4 4.5 7.2 8.6 24.5 22.8 41.1 47.6 55.8 2.4 1.4 5.2 2.8 6.2 3.2 2.1 0.7 2.3 3.3 0.2 3.3 -3 0 -1.4 1.8 3.1 3.5 2.5 0.9 8 3.7 12.2 6.1 4.3 2.4 8 4.4 8.4 4.4 0.4 0 3.4 1.6 6.6 3.5 3.3 1.9 9.5 4.8 13.8 6.4 11.7 4.3 19.4 8.1 16.4 8 -1.4 -0.1 -3.4 -0.3 -4.5 -0.6z"/>
 </g>
 <g fill="#127917">
  <path d="M1681 440.5 c-16.8 -2.9 -36.5 -9.3 -49 -15.9 -1.4 -0.8 -6.5 -3.5 -11.5 -6.1 -4.9 -2.6 -9.4 -5 -10 -5.5 -0.5 -0.4 -3.5 -2.1 -6.5 -3.7 -3 -1.6 -7.7 -4.3 -10.5 -6 -2.7 -1.7 -8.4 -5 -12.5 -7.3 -8.1 -4.7 -24.3 -15.3 -30.1 -19.8 -33.2 -25.6 -53.2 -58.6 -59.2 -98.1 -2 -13.4 -2.2 -18.2 -2.2 -57.6 0 -39.4 0.2 -44.2 2.2 -57.6 7.7 -50.2 35.5 -86.9 89.3 -117.9 4.1 -2.3 9.8 -5.6 12.5 -7.3 2.8 -1.7 7.5 -4.4 10.5 -6 3 -1.6 6 -3.3 6.5 -3.7 1.6 -1.3 18.5 -10.1 21.4 -11.1 2.6 -1 2.6 -0.9 -0.4 1.6 -1.6 1.4 -4.6 3.5 -6.5 4.7 -9.9 6.1 -47.9 31.9 -54.5 37 -2.7 2.1 -7.3 5.6 -10.1 7.8 -4.7 3.5 -19.7 19.6 -25 26.7 -2.5 3.3 -12.1 20.5 -13.6 24.2 -2.7 7.1 -7.1 22.5 -8.4 29.6 -1.8 10.2 -1.8 31.5 0 42.5 4.4 26.6 21.6 84 30.8 102.4 8.2 16.3 14 24.6 25.8 36.4 14.1 14.1 33.4 25.1 56 31.8 17.1 5.1 83.6 9 110.4 6.6 35.5 -3.3 58.9 -13 83.4 -34.8 3.9 -3.3 13.2 -14.8 13.2 -16.1 0 -0.4 1 -1.9 2.3 -3.3 4.6 -5 14.7 -22.7 19.2 -33.5 5.6 -13.4 19.7 -54.4 22.5 -65.3 7.8 -30.7 7.3 -63.2 -1.2 -85.7 -1.7 -4.4 -3.4 -8.4 -3.9 -8.9 -0.5 -0.6 -0.9 -1.7 -0.9 -2.5 0 -2.1 -11.3 -20.4 -16.1 -26.2 -8.5 -9.9 -25.3 -26 -34 -32.5 -1.5 -1 -8.8 -6.6 -16.3 -12.4 -7.5 -5.8 -16.2 -12.4 -19.4 -14.7 -14.6 -10.7 -37.3 -22.4 -49.7 -25.6 -3.3 -0.8 -8.2 -2.5 -11 -3.6 l-5 -2.1 5 0.3 c16.9 1.1 42.4 11.6 78 32.2 5.5 3.1 11.7 6.7 13.7 7.9 25.2 14.5 37 22.9 51.2 36.6 8.2 7.9 22.6 24.8 22.6 26.5 0 0.3 1.5 2.8 3.4 5.7 8.6 13.6 16.5 38.2 19.8 61.8 1.8 13.1 1.8 83.9 0 97 -3.3 23.6 -11.2 48.2 -19.8 61.8 -1.9 2.9 -3.4 5.4 -3.4 5.7 0 1.7 -14.4 18.6 -22.6 26.5 -14.2 13.7 -26 22.1 -51.2 36.6 -2 1.2 -8.2 4.8 -13.7 7.9 -37 21.4 -53.9 28.3 -80.5 33 -10.2 1.8 -30.6 1.8 -41 0z"/>
 </g>
 <g fill="#55c645">
  <path d="M1713.5 339 c-3.8 -0.4 -9.9 -1.7 -13.5 -2.8 -3.6 -1.1 -9.9 -3 -14 -4.2 -4.1 -1.3 -11.1 -3.6 -15.6 -5.1 -4.4 -1.6 -8.9 -2.9 -9.9 -2.9 -1 0 -3.2 -1.1 -4.9 -2.4 -1.7 -1.3 -4 -2.6 -5.2 -3 -1.1 -0.3 -2.9 -1.4 -4 -2.4 -1 -0.9 -3.1 -2.3 -4.6 -3.1 -4.6 -2.4 -16.6 -13.9 -22.2 -21.4 -8.9 -11.9 -15.8 -27.8 -15.8 -36.1 0.1 -2.8 -0.3 -5.3 -0.7 -5.6 -1 -0.6 1.1 -17.8 3.2 -26.5 1.7 -6.7 4.6 -13.3 8.3 -18.4 2.9 -4.1 3 -3.6 0.3 7.6 -4.1 16.8 -1.3 36 7.3 51.1 7.1 12.4 19.6 22.9 33.6 28.2 8.3 3.2 21.7 4.4 32.5 3.1 33.7 -4.1 55.7 -36.4 46.7 -68.6 -5.2 -18.8 -6.5 -22.7 -11 -32 -4.9 -10.1 -11.7 -18.5 -17.7 -21.9 -5.8 -3.2 -14 -6.9 -17.8 -8.1 -6.4 -2.1 -1.9 -2.8 9.1 -1.6 17 1.8 56 14.9 70.2 23.5 10 6 23.1 18.5 28.9 27.6 8.7 13.5 12.8 27.9 12.6 44 -0.1 11.5 -1.3 17.3 -6.7 31.8 -4.2 11.2 -19.1 28.8 -30.9 36.5 -6.1 4 -13.9 7.8 -22.3 10.7 -6.1 2.1 -25.5 3.2 -35.9 2z"/>
 </g>
</svg>